G04 #@! TF.GenerationSoftware,KiCad,Pcbnew,(5.1.5)-3*
G04 #@! TF.CreationDate,2020-04-08T11:42:18+02:00*
G04 #@! TF.ProjectId,sensing_PMU,73656e73-696e-4675-9f50-4d552e6b6963,0.0*
G04 #@! TF.SameCoordinates,Original*
G04 #@! TF.FileFunction,Copper,L4,Bot*
G04 #@! TF.FilePolarity,Positive*
%FSLAX46Y46*%
G04 Gerber Fmt 4.6, Leading zero omitted, Abs format (unit mm)*
G04 Created by KiCad (PCBNEW (5.1.5)-3) date 2020-04-08 11:42:18*
%MOMM*%
%LPD*%
G04 APERTURE LIST*
%ADD10C,1.524000*%
%ADD11C,1.800000*%
%ADD12C,4.000000*%
%ADD13O,1.700000X1.700000*%
%ADD14R,1.700000X1.700000*%
%ADD15C,1.830000*%
%ADD16C,0.758000*%
%ADD17C,0.800000*%
%ADD18C,0.250000*%
G04 APERTURE END LIST*
D10*
X141700000Y-42800000D03*
X141700000Y-45340000D03*
X141700000Y-47880000D03*
X141700000Y-50420000D03*
X141700000Y-52960000D03*
X141700000Y-55500000D03*
X141700000Y-58040000D03*
X141700000Y-60580000D03*
X184880000Y-42800000D03*
X184880000Y-45340000D03*
X184880000Y-47880000D03*
X184880000Y-50420000D03*
X184880000Y-52960000D03*
X184880000Y-55500000D03*
X184880000Y-58040000D03*
X184880000Y-60580000D03*
D11*
X176930000Y-109170000D03*
X179470000Y-109170000D03*
D12*
X193600000Y-56800000D03*
X229600000Y-56800000D03*
X193600000Y-80920000D03*
X229600000Y-80920000D03*
X193500000Y-105000000D03*
X229500000Y-105000000D03*
X132800000Y-104600000D03*
X96800000Y-104600000D03*
X132800000Y-80480000D03*
X96800000Y-80480000D03*
X96700000Y-56000000D03*
X132700000Y-56000000D03*
D13*
X164100000Y-118340000D03*
D14*
X164100000Y-115800000D03*
D13*
X159100000Y-118240000D03*
D14*
X159100000Y-115700000D03*
D15*
X140500000Y-107400000D03*
X140500000Y-97400000D03*
X153000000Y-102400000D03*
D13*
X163900000Y-96640000D03*
X163900000Y-94100000D03*
D14*
X163900000Y-91560000D03*
D13*
X159100000Y-108780000D03*
X159100000Y-106240000D03*
D14*
X159100000Y-103700000D03*
D13*
X158320000Y-96640000D03*
X158320000Y-94100000D03*
D14*
X158320000Y-91560000D03*
D16*
X176716000Y-87184000D03*
X174684000Y-87184000D03*
X174684000Y-89216000D03*
X176716000Y-89216000D03*
X175700000Y-88200000D03*
D17*
X171600000Y-62100000D03*
X184500000Y-85110000D03*
X177200000Y-78100000D03*
X167690000Y-50910000D03*
X159200000Y-52900000D03*
X170580000Y-95090000D03*
X172350000Y-84250000D03*
X152200000Y-52300000D03*
X167667500Y-49322500D03*
X153070000Y-59700000D03*
X161200000Y-47600000D03*
X175500000Y-83900000D03*
X172300000Y-88700000D03*
D18*
X153070000Y-59700000D02*
X167140000Y-73770000D01*
X176430000Y-109170000D02*
X176930000Y-109170000D01*
X167140000Y-99880000D02*
X176430000Y-109170000D01*
X167140000Y-73770000D02*
X167140000Y-99880000D01*
X183400000Y-55500000D02*
X184880000Y-55500000D01*
X161200000Y-47600000D02*
X175500000Y-47600000D01*
X175500000Y-47600000D02*
X183400000Y-55500000D01*
X175100001Y-84299999D02*
X175500000Y-83900000D01*
X172300000Y-88700000D02*
X172300000Y-87100000D01*
X172300000Y-87100000D02*
X175100001Y-84299999D01*
M02*
