G04 #@! TF.GenerationSoftware,KiCad,Pcbnew,(5.1.5)-3*
G04 #@! TF.CreationDate,2020-04-08T11:42:18+02:00*
G04 #@! TF.ProjectId,sensing_PMU,73656e73-696e-4675-9f50-4d552e6b6963,0.0*
G04 #@! TF.SameCoordinates,Original*
G04 #@! TF.FileFunction,Soldermask,Top*
G04 #@! TF.FilePolarity,Negative*
%FSLAX46Y46*%
G04 Gerber Fmt 4.6, Leading zero omitted, Abs format (unit mm)*
G04 Created by KiCad (PCBNEW (5.1.5)-3) date 2020-04-08 11:42:18*
%MOMM*%
%LPD*%
G04 APERTURE LIST*
%ADD10C,0.100000*%
G04 APERTURE END LIST*
D10*
G36*
X164201531Y-117441544D02*
G01*
X164362812Y-117473624D01*
X164526784Y-117541544D01*
X164674354Y-117640147D01*
X164799853Y-117765646D01*
X164898456Y-117913216D01*
X164966376Y-118077188D01*
X165001000Y-118251259D01*
X165001000Y-118428741D01*
X164966376Y-118602812D01*
X164898456Y-118766784D01*
X164799853Y-118914354D01*
X164674354Y-119039853D01*
X164526784Y-119138456D01*
X164362812Y-119206376D01*
X164213512Y-119236073D01*
X164188742Y-119241000D01*
X164011258Y-119241000D01*
X163986488Y-119236073D01*
X163837188Y-119206376D01*
X163673216Y-119138456D01*
X163525646Y-119039853D01*
X163400147Y-118914354D01*
X163301544Y-118766784D01*
X163233624Y-118602812D01*
X163199000Y-118428741D01*
X163199000Y-118251259D01*
X163233624Y-118077188D01*
X163301544Y-117913216D01*
X163400147Y-117765646D01*
X163525646Y-117640147D01*
X163673216Y-117541544D01*
X163837188Y-117473624D01*
X163998469Y-117441544D01*
X164011258Y-117439000D01*
X164188742Y-117439000D01*
X164201531Y-117441544D01*
G37*
G36*
X159213512Y-117343927D02*
G01*
X159362812Y-117373624D01*
X159526784Y-117441544D01*
X159674354Y-117540147D01*
X159799853Y-117665646D01*
X159898456Y-117813216D01*
X159966376Y-117977188D01*
X160001000Y-118151259D01*
X160001000Y-118328741D01*
X159966376Y-118502812D01*
X159898456Y-118666784D01*
X159799853Y-118814354D01*
X159674354Y-118939853D01*
X159526784Y-119038456D01*
X159362812Y-119106376D01*
X159213512Y-119136073D01*
X159188742Y-119141000D01*
X159011258Y-119141000D01*
X158986488Y-119136073D01*
X158837188Y-119106376D01*
X158673216Y-119038456D01*
X158525646Y-118939853D01*
X158400147Y-118814354D01*
X158301544Y-118666784D01*
X158233624Y-118502812D01*
X158199000Y-118328741D01*
X158199000Y-118151259D01*
X158233624Y-117977188D01*
X158301544Y-117813216D01*
X158400147Y-117665646D01*
X158525646Y-117540147D01*
X158673216Y-117441544D01*
X158837188Y-117373624D01*
X158986488Y-117343927D01*
X159011258Y-117339000D01*
X159188742Y-117339000D01*
X159213512Y-117343927D01*
G37*
G36*
X165001000Y-116701000D02*
G01*
X163199000Y-116701000D01*
X163199000Y-114899000D01*
X165001000Y-114899000D01*
X165001000Y-116701000D01*
G37*
G36*
X160001000Y-116601000D02*
G01*
X158199000Y-116601000D01*
X158199000Y-114799000D01*
X160001000Y-114799000D01*
X160001000Y-116601000D01*
G37*
G36*
X179747395Y-108255546D02*
G01*
X179920466Y-108327234D01*
X179978483Y-108366000D01*
X180076227Y-108431310D01*
X180208690Y-108563773D01*
X180208691Y-108563775D01*
X180312766Y-108719534D01*
X180384454Y-108892605D01*
X180421000Y-109076333D01*
X180421000Y-109263667D01*
X180384454Y-109447395D01*
X180312766Y-109620466D01*
X180312765Y-109620467D01*
X180208690Y-109776227D01*
X180076227Y-109908690D01*
X179997818Y-109961081D01*
X179920466Y-110012766D01*
X179747395Y-110084454D01*
X179563667Y-110121000D01*
X179376333Y-110121000D01*
X179192605Y-110084454D01*
X179019534Y-110012766D01*
X178942182Y-109961081D01*
X178863773Y-109908690D01*
X178731310Y-109776227D01*
X178627235Y-109620467D01*
X178627234Y-109620466D01*
X178555546Y-109447395D01*
X178519000Y-109263667D01*
X178519000Y-109076333D01*
X178555546Y-108892605D01*
X178627234Y-108719534D01*
X178731309Y-108563775D01*
X178731310Y-108563773D01*
X178863773Y-108431310D01*
X178961517Y-108366000D01*
X179019534Y-108327234D01*
X179192605Y-108255546D01*
X179376333Y-108219000D01*
X179563667Y-108219000D01*
X179747395Y-108255546D01*
G37*
G36*
X177207395Y-108255546D02*
G01*
X177380466Y-108327234D01*
X177438483Y-108366000D01*
X177536227Y-108431310D01*
X177668690Y-108563773D01*
X177668691Y-108563775D01*
X177772766Y-108719534D01*
X177844454Y-108892605D01*
X177881000Y-109076333D01*
X177881000Y-109263667D01*
X177844454Y-109447395D01*
X177772766Y-109620466D01*
X177772765Y-109620467D01*
X177668690Y-109776227D01*
X177536227Y-109908690D01*
X177457818Y-109961081D01*
X177380466Y-110012766D01*
X177207395Y-110084454D01*
X177023667Y-110121000D01*
X176836333Y-110121000D01*
X176652605Y-110084454D01*
X176479534Y-110012766D01*
X176402182Y-109961081D01*
X176323773Y-109908690D01*
X176191310Y-109776227D01*
X176087235Y-109620467D01*
X176087234Y-109620466D01*
X176015546Y-109447395D01*
X175979000Y-109263667D01*
X175979000Y-109076333D01*
X176015546Y-108892605D01*
X176087234Y-108719534D01*
X176191309Y-108563775D01*
X176191310Y-108563773D01*
X176323773Y-108431310D01*
X176421517Y-108366000D01*
X176479534Y-108327234D01*
X176652605Y-108255546D01*
X176836333Y-108219000D01*
X177023667Y-108219000D01*
X177207395Y-108255546D01*
G37*
G36*
X159213512Y-107883927D02*
G01*
X159362812Y-107913624D01*
X159526784Y-107981544D01*
X159674354Y-108080147D01*
X159799853Y-108205646D01*
X159898456Y-108353216D01*
X159966376Y-108517188D01*
X160001000Y-108691259D01*
X160001000Y-108868741D01*
X159966376Y-109042812D01*
X159898456Y-109206784D01*
X159799853Y-109354354D01*
X159674354Y-109479853D01*
X159526784Y-109578456D01*
X159362812Y-109646376D01*
X159213512Y-109676073D01*
X159188742Y-109681000D01*
X159011258Y-109681000D01*
X158986488Y-109676073D01*
X158837188Y-109646376D01*
X158673216Y-109578456D01*
X158525646Y-109479853D01*
X158400147Y-109354354D01*
X158301544Y-109206784D01*
X158233624Y-109042812D01*
X158199000Y-108868741D01*
X158199000Y-108691259D01*
X158233624Y-108517188D01*
X158301544Y-108353216D01*
X158400147Y-108205646D01*
X158525646Y-108080147D01*
X158673216Y-107981544D01*
X158837188Y-107913624D01*
X158986488Y-107883927D01*
X159011258Y-107879000D01*
X159188742Y-107879000D01*
X159213512Y-107883927D01*
G37*
G36*
X140781771Y-106471122D02*
G01*
X140957571Y-106543941D01*
X140957573Y-106543942D01*
X141115789Y-106649659D01*
X141250341Y-106784211D01*
X141354337Y-106939852D01*
X141356059Y-106942429D01*
X141428878Y-107118229D01*
X141466000Y-107304856D01*
X141466000Y-107495144D01*
X141428878Y-107681771D01*
X141356059Y-107857571D01*
X141356058Y-107857573D01*
X141250341Y-108015789D01*
X141115789Y-108150341D01*
X140957573Y-108256058D01*
X140957572Y-108256059D01*
X140957571Y-108256059D01*
X140781771Y-108328878D01*
X140595144Y-108366000D01*
X140404856Y-108366000D01*
X140218229Y-108328878D01*
X140042429Y-108256059D01*
X140042428Y-108256059D01*
X140042427Y-108256058D01*
X139884211Y-108150341D01*
X139749659Y-108015789D01*
X139643942Y-107857573D01*
X139643941Y-107857571D01*
X139571122Y-107681771D01*
X139534000Y-107495144D01*
X139534000Y-107304856D01*
X139571122Y-107118229D01*
X139643941Y-106942429D01*
X139645663Y-106939852D01*
X139749659Y-106784211D01*
X139884211Y-106649659D01*
X140042427Y-106543942D01*
X140042429Y-106543941D01*
X140218229Y-106471122D01*
X140404856Y-106434000D01*
X140595144Y-106434000D01*
X140781771Y-106471122D01*
G37*
G36*
X159213512Y-105343927D02*
G01*
X159362812Y-105373624D01*
X159526784Y-105441544D01*
X159674354Y-105540147D01*
X159799853Y-105665646D01*
X159898456Y-105813216D01*
X159966376Y-105977188D01*
X160001000Y-106151259D01*
X160001000Y-106328741D01*
X159966376Y-106502812D01*
X159898456Y-106666784D01*
X159799853Y-106814354D01*
X159674354Y-106939853D01*
X159526784Y-107038456D01*
X159362812Y-107106376D01*
X159213512Y-107136073D01*
X159188742Y-107141000D01*
X159011258Y-107141000D01*
X158986488Y-107136073D01*
X158837188Y-107106376D01*
X158673216Y-107038456D01*
X158525646Y-106939853D01*
X158400147Y-106814354D01*
X158301544Y-106666784D01*
X158233624Y-106502812D01*
X158199000Y-106328741D01*
X158199000Y-106151259D01*
X158233624Y-105977188D01*
X158301544Y-105813216D01*
X158400147Y-105665646D01*
X158525646Y-105540147D01*
X158673216Y-105441544D01*
X158837188Y-105373624D01*
X158986488Y-105343927D01*
X159011258Y-105339000D01*
X159188742Y-105339000D01*
X159213512Y-105343927D01*
G37*
G36*
X194098254Y-103027818D02*
G01*
X194394053Y-103150342D01*
X194471513Y-103182427D01*
X194807436Y-103406884D01*
X195093116Y-103692564D01*
X195299705Y-104001745D01*
X195317574Y-104028489D01*
X195472182Y-104401746D01*
X195551000Y-104797993D01*
X195551000Y-105202007D01*
X195472182Y-105598254D01*
X195317574Y-105971511D01*
X195317573Y-105971513D01*
X195093116Y-106307436D01*
X194807436Y-106593116D01*
X194471513Y-106817573D01*
X194471512Y-106817574D01*
X194471511Y-106817574D01*
X194098254Y-106972182D01*
X193702007Y-107051000D01*
X193297993Y-107051000D01*
X192901746Y-106972182D01*
X192528489Y-106817574D01*
X192528488Y-106817574D01*
X192528487Y-106817573D01*
X192192564Y-106593116D01*
X191906884Y-106307436D01*
X191682427Y-105971513D01*
X191682426Y-105971511D01*
X191527818Y-105598254D01*
X191449000Y-105202007D01*
X191449000Y-104797993D01*
X191527818Y-104401746D01*
X191682426Y-104028489D01*
X191700296Y-104001745D01*
X191906884Y-103692564D01*
X192192564Y-103406884D01*
X192528487Y-103182427D01*
X192605947Y-103150342D01*
X192901746Y-103027818D01*
X193297993Y-102949000D01*
X193702007Y-102949000D01*
X194098254Y-103027818D01*
G37*
G36*
X230098254Y-103027818D02*
G01*
X230394053Y-103150342D01*
X230471513Y-103182427D01*
X230807436Y-103406884D01*
X231093116Y-103692564D01*
X231299705Y-104001745D01*
X231317574Y-104028489D01*
X231472182Y-104401746D01*
X231551000Y-104797993D01*
X231551000Y-105202007D01*
X231472182Y-105598254D01*
X231317574Y-105971511D01*
X231317573Y-105971513D01*
X231093116Y-106307436D01*
X230807436Y-106593116D01*
X230471513Y-106817573D01*
X230471512Y-106817574D01*
X230471511Y-106817574D01*
X230098254Y-106972182D01*
X229702007Y-107051000D01*
X229297993Y-107051000D01*
X228901746Y-106972182D01*
X228528489Y-106817574D01*
X228528488Y-106817574D01*
X228528487Y-106817573D01*
X228192564Y-106593116D01*
X227906884Y-106307436D01*
X227682427Y-105971513D01*
X227682426Y-105971511D01*
X227527818Y-105598254D01*
X227449000Y-105202007D01*
X227449000Y-104797993D01*
X227527818Y-104401746D01*
X227682426Y-104028489D01*
X227700296Y-104001745D01*
X227906884Y-103692564D01*
X228192564Y-103406884D01*
X228528487Y-103182427D01*
X228605947Y-103150342D01*
X228901746Y-103027818D01*
X229297993Y-102949000D01*
X229702007Y-102949000D01*
X230098254Y-103027818D01*
G37*
G36*
X133398254Y-102627818D02*
G01*
X133771511Y-102782426D01*
X133771513Y-102782427D01*
X134020807Y-102949000D01*
X134107436Y-103006884D01*
X134393116Y-103292564D01*
X134617574Y-103628489D01*
X134772182Y-104001746D01*
X134851000Y-104397993D01*
X134851000Y-104802007D01*
X134772182Y-105198254D01*
X134770627Y-105202007D01*
X134617573Y-105571513D01*
X134393116Y-105907436D01*
X134107436Y-106193116D01*
X133771513Y-106417573D01*
X133771512Y-106417574D01*
X133771511Y-106417574D01*
X133398254Y-106572182D01*
X133002007Y-106651000D01*
X132597993Y-106651000D01*
X132201746Y-106572182D01*
X131828489Y-106417574D01*
X131828488Y-106417574D01*
X131828487Y-106417573D01*
X131492564Y-106193116D01*
X131206884Y-105907436D01*
X130982427Y-105571513D01*
X130829373Y-105202007D01*
X130827818Y-105198254D01*
X130749000Y-104802007D01*
X130749000Y-104397993D01*
X130827818Y-104001746D01*
X130982426Y-103628489D01*
X131206884Y-103292564D01*
X131492564Y-103006884D01*
X131579193Y-102949000D01*
X131828487Y-102782427D01*
X131828489Y-102782426D01*
X132201746Y-102627818D01*
X132597993Y-102549000D01*
X133002007Y-102549000D01*
X133398254Y-102627818D01*
G37*
G36*
X97398254Y-102627818D02*
G01*
X97771511Y-102782426D01*
X97771513Y-102782427D01*
X98020807Y-102949000D01*
X98107436Y-103006884D01*
X98393116Y-103292564D01*
X98617574Y-103628489D01*
X98772182Y-104001746D01*
X98851000Y-104397993D01*
X98851000Y-104802007D01*
X98772182Y-105198254D01*
X98770627Y-105202007D01*
X98617573Y-105571513D01*
X98393116Y-105907436D01*
X98107436Y-106193116D01*
X97771513Y-106417573D01*
X97771512Y-106417574D01*
X97771511Y-106417574D01*
X97398254Y-106572182D01*
X97002007Y-106651000D01*
X96597993Y-106651000D01*
X96201746Y-106572182D01*
X95828489Y-106417574D01*
X95828488Y-106417574D01*
X95828487Y-106417573D01*
X95492564Y-106193116D01*
X95206884Y-105907436D01*
X94982427Y-105571513D01*
X94829373Y-105202007D01*
X94827818Y-105198254D01*
X94749000Y-104802007D01*
X94749000Y-104397993D01*
X94827818Y-104001746D01*
X94982426Y-103628489D01*
X95206884Y-103292564D01*
X95492564Y-103006884D01*
X95579193Y-102949000D01*
X95828487Y-102782427D01*
X95828489Y-102782426D01*
X96201746Y-102627818D01*
X96597993Y-102549000D01*
X97002007Y-102549000D01*
X97398254Y-102627818D01*
G37*
G36*
X160001000Y-104601000D02*
G01*
X158199000Y-104601000D01*
X158199000Y-102799000D01*
X160001000Y-102799000D01*
X160001000Y-104601000D01*
G37*
G36*
X153281771Y-101471122D02*
G01*
X153457571Y-101543941D01*
X153457573Y-101543942D01*
X153615789Y-101649659D01*
X153750341Y-101784211D01*
X153750342Y-101784213D01*
X153856059Y-101942429D01*
X153928878Y-102118229D01*
X153966000Y-102304856D01*
X153966000Y-102495144D01*
X153928878Y-102681771D01*
X153880320Y-102799000D01*
X153856058Y-102857573D01*
X153750341Y-103015789D01*
X153615789Y-103150341D01*
X153457573Y-103256058D01*
X153457572Y-103256059D01*
X153457571Y-103256059D01*
X153281771Y-103328878D01*
X153095144Y-103366000D01*
X152904856Y-103366000D01*
X152718229Y-103328878D01*
X152542429Y-103256059D01*
X152542428Y-103256059D01*
X152542427Y-103256058D01*
X152384211Y-103150341D01*
X152249659Y-103015789D01*
X152143942Y-102857573D01*
X152119680Y-102799000D01*
X152071122Y-102681771D01*
X152034000Y-102495144D01*
X152034000Y-102304856D01*
X152071122Y-102118229D01*
X152143941Y-101942429D01*
X152249658Y-101784213D01*
X152249659Y-101784211D01*
X152384211Y-101649659D01*
X152542427Y-101543942D01*
X152542429Y-101543941D01*
X152718229Y-101471122D01*
X152904856Y-101434000D01*
X153095144Y-101434000D01*
X153281771Y-101471122D01*
G37*
G36*
X140781771Y-96471122D02*
G01*
X140957571Y-96543941D01*
X140957573Y-96543942D01*
X141115789Y-96649659D01*
X141250341Y-96784211D01*
X141250342Y-96784213D01*
X141356059Y-96942429D01*
X141428878Y-97118229D01*
X141466000Y-97304856D01*
X141466000Y-97495144D01*
X141428878Y-97681771D01*
X141356059Y-97857571D01*
X141356058Y-97857573D01*
X141250341Y-98015789D01*
X141115789Y-98150341D01*
X140957573Y-98256058D01*
X140957572Y-98256059D01*
X140957571Y-98256059D01*
X140781771Y-98328878D01*
X140595144Y-98366000D01*
X140404856Y-98366000D01*
X140218229Y-98328878D01*
X140042429Y-98256059D01*
X140042428Y-98256059D01*
X140042427Y-98256058D01*
X139884211Y-98150341D01*
X139749659Y-98015789D01*
X139643942Y-97857573D01*
X139643941Y-97857571D01*
X139571122Y-97681771D01*
X139534000Y-97495144D01*
X139534000Y-97304856D01*
X139571122Y-97118229D01*
X139643941Y-96942429D01*
X139749658Y-96784213D01*
X139749659Y-96784211D01*
X139884211Y-96649659D01*
X140042427Y-96543942D01*
X140042429Y-96543941D01*
X140218229Y-96471122D01*
X140404856Y-96434000D01*
X140595144Y-96434000D01*
X140781771Y-96471122D01*
G37*
G36*
X158433512Y-95743927D02*
G01*
X158582812Y-95773624D01*
X158746784Y-95841544D01*
X158894354Y-95940147D01*
X159019853Y-96065646D01*
X159118456Y-96213216D01*
X159186376Y-96377188D01*
X159197676Y-96434000D01*
X159219545Y-96543941D01*
X159221000Y-96551259D01*
X159221000Y-96728741D01*
X159186376Y-96902812D01*
X159118456Y-97066784D01*
X159019853Y-97214354D01*
X158894354Y-97339853D01*
X158746784Y-97438456D01*
X158582812Y-97506376D01*
X158433512Y-97536073D01*
X158408742Y-97541000D01*
X158231258Y-97541000D01*
X158206488Y-97536073D01*
X158057188Y-97506376D01*
X157893216Y-97438456D01*
X157745646Y-97339853D01*
X157620147Y-97214354D01*
X157521544Y-97066784D01*
X157453624Y-96902812D01*
X157419000Y-96728741D01*
X157419000Y-96551259D01*
X157420456Y-96543941D01*
X157442324Y-96434000D01*
X157453624Y-96377188D01*
X157521544Y-96213216D01*
X157620147Y-96065646D01*
X157745646Y-95940147D01*
X157893216Y-95841544D01*
X158057188Y-95773624D01*
X158206488Y-95743927D01*
X158231258Y-95739000D01*
X158408742Y-95739000D01*
X158433512Y-95743927D01*
G37*
G36*
X164013512Y-95743927D02*
G01*
X164162812Y-95773624D01*
X164326784Y-95841544D01*
X164474354Y-95940147D01*
X164599853Y-96065646D01*
X164698456Y-96213216D01*
X164766376Y-96377188D01*
X164777676Y-96434000D01*
X164799545Y-96543941D01*
X164801000Y-96551259D01*
X164801000Y-96728741D01*
X164766376Y-96902812D01*
X164698456Y-97066784D01*
X164599853Y-97214354D01*
X164474354Y-97339853D01*
X164326784Y-97438456D01*
X164162812Y-97506376D01*
X164013512Y-97536073D01*
X163988742Y-97541000D01*
X163811258Y-97541000D01*
X163786488Y-97536073D01*
X163637188Y-97506376D01*
X163473216Y-97438456D01*
X163325646Y-97339853D01*
X163200147Y-97214354D01*
X163101544Y-97066784D01*
X163033624Y-96902812D01*
X162999000Y-96728741D01*
X162999000Y-96551259D01*
X163000456Y-96543941D01*
X163022324Y-96434000D01*
X163033624Y-96377188D01*
X163101544Y-96213216D01*
X163200147Y-96065646D01*
X163325646Y-95940147D01*
X163473216Y-95841544D01*
X163637188Y-95773624D01*
X163786488Y-95743927D01*
X163811258Y-95739000D01*
X163988742Y-95739000D01*
X164013512Y-95743927D01*
G37*
G36*
X164013512Y-93203927D02*
G01*
X164162812Y-93233624D01*
X164326784Y-93301544D01*
X164474354Y-93400147D01*
X164599853Y-93525646D01*
X164698456Y-93673216D01*
X164766376Y-93837188D01*
X164801000Y-94011259D01*
X164801000Y-94188741D01*
X164766376Y-94362812D01*
X164698456Y-94526784D01*
X164599853Y-94674354D01*
X164474354Y-94799853D01*
X164326784Y-94898456D01*
X164162812Y-94966376D01*
X164013512Y-94996073D01*
X163988742Y-95001000D01*
X163811258Y-95001000D01*
X163786488Y-94996073D01*
X163637188Y-94966376D01*
X163473216Y-94898456D01*
X163325646Y-94799853D01*
X163200147Y-94674354D01*
X163101544Y-94526784D01*
X163033624Y-94362812D01*
X162999000Y-94188741D01*
X162999000Y-94011259D01*
X163033624Y-93837188D01*
X163101544Y-93673216D01*
X163200147Y-93525646D01*
X163325646Y-93400147D01*
X163473216Y-93301544D01*
X163637188Y-93233624D01*
X163786488Y-93203927D01*
X163811258Y-93199000D01*
X163988742Y-93199000D01*
X164013512Y-93203927D01*
G37*
G36*
X158433512Y-93203927D02*
G01*
X158582812Y-93233624D01*
X158746784Y-93301544D01*
X158894354Y-93400147D01*
X159019853Y-93525646D01*
X159118456Y-93673216D01*
X159186376Y-93837188D01*
X159221000Y-94011259D01*
X159221000Y-94188741D01*
X159186376Y-94362812D01*
X159118456Y-94526784D01*
X159019853Y-94674354D01*
X158894354Y-94799853D01*
X158746784Y-94898456D01*
X158582812Y-94966376D01*
X158433512Y-94996073D01*
X158408742Y-95001000D01*
X158231258Y-95001000D01*
X158206488Y-94996073D01*
X158057188Y-94966376D01*
X157893216Y-94898456D01*
X157745646Y-94799853D01*
X157620147Y-94674354D01*
X157521544Y-94526784D01*
X157453624Y-94362812D01*
X157419000Y-94188741D01*
X157419000Y-94011259D01*
X157453624Y-93837188D01*
X157521544Y-93673216D01*
X157620147Y-93525646D01*
X157745646Y-93400147D01*
X157893216Y-93301544D01*
X158057188Y-93233624D01*
X158206488Y-93203927D01*
X158231258Y-93199000D01*
X158408742Y-93199000D01*
X158433512Y-93203927D01*
G37*
G36*
X170979591Y-93103085D02*
G01*
X171013569Y-93113393D01*
X171044890Y-93130134D01*
X171072339Y-93152661D01*
X171094866Y-93180110D01*
X171111607Y-93211431D01*
X171121915Y-93245409D01*
X171126000Y-93286890D01*
X171126000Y-93888110D01*
X171121915Y-93929591D01*
X171111607Y-93963569D01*
X171094866Y-93994890D01*
X171072339Y-94022339D01*
X171044890Y-94044866D01*
X171013569Y-94061607D01*
X170979591Y-94071915D01*
X170938110Y-94076000D01*
X170261890Y-94076000D01*
X170220409Y-94071915D01*
X170186431Y-94061607D01*
X170155110Y-94044866D01*
X170127661Y-94022339D01*
X170105134Y-93994890D01*
X170088393Y-93963569D01*
X170078085Y-93929591D01*
X170074000Y-93888110D01*
X170074000Y-93286890D01*
X170078085Y-93245409D01*
X170088393Y-93211431D01*
X170105134Y-93180110D01*
X170127661Y-93152661D01*
X170155110Y-93130134D01*
X170186431Y-93113393D01*
X170220409Y-93103085D01*
X170261890Y-93099000D01*
X170938110Y-93099000D01*
X170979591Y-93103085D01*
G37*
G36*
X170979591Y-91528085D02*
G01*
X171013569Y-91538393D01*
X171044890Y-91555134D01*
X171072339Y-91577661D01*
X171094866Y-91605110D01*
X171111607Y-91636431D01*
X171121915Y-91670409D01*
X171126000Y-91711890D01*
X171126000Y-92313110D01*
X171121915Y-92354591D01*
X171111607Y-92388569D01*
X171094866Y-92419890D01*
X171072339Y-92447339D01*
X171044890Y-92469866D01*
X171013569Y-92486607D01*
X170979591Y-92496915D01*
X170938110Y-92501000D01*
X170261890Y-92501000D01*
X170220409Y-92496915D01*
X170186431Y-92486607D01*
X170155110Y-92469866D01*
X170127661Y-92447339D01*
X170105134Y-92419890D01*
X170088393Y-92388569D01*
X170078085Y-92354591D01*
X170074000Y-92313110D01*
X170074000Y-91711890D01*
X170078085Y-91670409D01*
X170088393Y-91636431D01*
X170105134Y-91605110D01*
X170127661Y-91577661D01*
X170155110Y-91555134D01*
X170186431Y-91538393D01*
X170220409Y-91528085D01*
X170261890Y-91524000D01*
X170938110Y-91524000D01*
X170979591Y-91528085D01*
G37*
G36*
X159221000Y-92461000D02*
G01*
X157419000Y-92461000D01*
X157419000Y-90659000D01*
X159221000Y-90659000D01*
X159221000Y-92461000D01*
G37*
G36*
X164801000Y-92461000D02*
G01*
X162999000Y-92461000D01*
X162999000Y-90659000D01*
X164801000Y-90659000D01*
X164801000Y-92461000D01*
G37*
G36*
X177401000Y-86374001D02*
G01*
X177403402Y-86398387D01*
X177410515Y-86421836D01*
X177422066Y-86443447D01*
X177437611Y-86462389D01*
X177456553Y-86477934D01*
X177478164Y-86489485D01*
X177501613Y-86496598D01*
X177525999Y-86499000D01*
X178501000Y-86499000D01*
X178501000Y-89901000D01*
X177525999Y-89901000D01*
X177501613Y-89903402D01*
X177478164Y-89910515D01*
X177456553Y-89922066D01*
X177437611Y-89937611D01*
X177422066Y-89956553D01*
X177410515Y-89978164D01*
X177403402Y-90001613D01*
X177401000Y-90025999D01*
X177401000Y-91001000D01*
X173999000Y-91001000D01*
X173999000Y-90025999D01*
X173996598Y-90001613D01*
X173989485Y-89978164D01*
X173977934Y-89956553D01*
X173962389Y-89937611D01*
X173943447Y-89922066D01*
X173921836Y-89910515D01*
X173898387Y-89903402D01*
X173874001Y-89901000D01*
X172899000Y-89901000D01*
X172899000Y-86499000D01*
X173874001Y-86499000D01*
X173898387Y-86496598D01*
X173921836Y-86489485D01*
X173943447Y-86477934D01*
X173962389Y-86462389D01*
X173977934Y-86443447D01*
X173989485Y-86421836D01*
X173996598Y-86398387D01*
X173999000Y-86374001D01*
X173999000Y-85399000D01*
X177401000Y-85399000D01*
X177401000Y-86374001D01*
G37*
G36*
X183529591Y-84588085D02*
G01*
X183563569Y-84598393D01*
X183594890Y-84615134D01*
X183622339Y-84637661D01*
X183644866Y-84665110D01*
X183661607Y-84696431D01*
X183671915Y-84730409D01*
X183676000Y-84771890D01*
X183676000Y-85448110D01*
X183671915Y-85489591D01*
X183661607Y-85523569D01*
X183644866Y-85554890D01*
X183622339Y-85582339D01*
X183594890Y-85604866D01*
X183563569Y-85621607D01*
X183529591Y-85631915D01*
X183488110Y-85636000D01*
X182886890Y-85636000D01*
X182845409Y-85631915D01*
X182811431Y-85621607D01*
X182780110Y-85604866D01*
X182752661Y-85582339D01*
X182730134Y-85554890D01*
X182713393Y-85523569D01*
X182703085Y-85489591D01*
X182699000Y-85448110D01*
X182699000Y-84771890D01*
X182703085Y-84730409D01*
X182713393Y-84696431D01*
X182730134Y-84665110D01*
X182752661Y-84637661D01*
X182780110Y-84615134D01*
X182811431Y-84598393D01*
X182845409Y-84588085D01*
X182886890Y-84584000D01*
X183488110Y-84584000D01*
X183529591Y-84588085D01*
G37*
G36*
X181954591Y-84588085D02*
G01*
X181988569Y-84598393D01*
X182019890Y-84615134D01*
X182047339Y-84637661D01*
X182069866Y-84665110D01*
X182086607Y-84696431D01*
X182096915Y-84730409D01*
X182101000Y-84771890D01*
X182101000Y-85448110D01*
X182096915Y-85489591D01*
X182086607Y-85523569D01*
X182069866Y-85554890D01*
X182047339Y-85582339D01*
X182019890Y-85604866D01*
X181988569Y-85621607D01*
X181954591Y-85631915D01*
X181913110Y-85636000D01*
X181311890Y-85636000D01*
X181270409Y-85631915D01*
X181236431Y-85621607D01*
X181205110Y-85604866D01*
X181177661Y-85582339D01*
X181155134Y-85554890D01*
X181138393Y-85523569D01*
X181128085Y-85489591D01*
X181124000Y-85448110D01*
X181124000Y-84771890D01*
X181128085Y-84730409D01*
X181138393Y-84696431D01*
X181155134Y-84665110D01*
X181177661Y-84637661D01*
X181205110Y-84615134D01*
X181236431Y-84598393D01*
X181270409Y-84588085D01*
X181311890Y-84584000D01*
X181913110Y-84584000D01*
X181954591Y-84588085D01*
G37*
G36*
X172684591Y-82248085D02*
G01*
X172718569Y-82258393D01*
X172749890Y-82275134D01*
X172777339Y-82297661D01*
X172799866Y-82325110D01*
X172816607Y-82356431D01*
X172826915Y-82390409D01*
X172831000Y-82431890D01*
X172831000Y-83108110D01*
X172826915Y-83149591D01*
X172816607Y-83183569D01*
X172799866Y-83214890D01*
X172777339Y-83242339D01*
X172749890Y-83264866D01*
X172718569Y-83281607D01*
X172684591Y-83291915D01*
X172643110Y-83296000D01*
X172041890Y-83296000D01*
X172000409Y-83291915D01*
X171966431Y-83281607D01*
X171935110Y-83264866D01*
X171907661Y-83242339D01*
X171885134Y-83214890D01*
X171868393Y-83183569D01*
X171858085Y-83149591D01*
X171854000Y-83108110D01*
X171854000Y-82431890D01*
X171858085Y-82390409D01*
X171868393Y-82356431D01*
X171885134Y-82325110D01*
X171907661Y-82297661D01*
X171935110Y-82275134D01*
X171966431Y-82258393D01*
X172000409Y-82248085D01*
X172041890Y-82244000D01*
X172643110Y-82244000D01*
X172684591Y-82248085D01*
G37*
G36*
X174259591Y-82248085D02*
G01*
X174293569Y-82258393D01*
X174324890Y-82275134D01*
X174352339Y-82297661D01*
X174374866Y-82325110D01*
X174391607Y-82356431D01*
X174401915Y-82390409D01*
X174406000Y-82431890D01*
X174406000Y-83108110D01*
X174401915Y-83149591D01*
X174391607Y-83183569D01*
X174374866Y-83214890D01*
X174352339Y-83242339D01*
X174324890Y-83264866D01*
X174293569Y-83281607D01*
X174259591Y-83291915D01*
X174218110Y-83296000D01*
X173616890Y-83296000D01*
X173575409Y-83291915D01*
X173541431Y-83281607D01*
X173510110Y-83264866D01*
X173482661Y-83242339D01*
X173460134Y-83214890D01*
X173443393Y-83183569D01*
X173433085Y-83149591D01*
X173429000Y-83108110D01*
X173429000Y-82431890D01*
X173433085Y-82390409D01*
X173443393Y-82356431D01*
X173460134Y-82325110D01*
X173482661Y-82297661D01*
X173510110Y-82275134D01*
X173541431Y-82258393D01*
X173575409Y-82248085D01*
X173616890Y-82244000D01*
X174218110Y-82244000D01*
X174259591Y-82248085D01*
G37*
G36*
X194198254Y-78947818D02*
G01*
X194571511Y-79102426D01*
X194571513Y-79102427D01*
X194907436Y-79326884D01*
X195193116Y-79612564D01*
X195393935Y-79913110D01*
X195417574Y-79948489D01*
X195572182Y-80321746D01*
X195651000Y-80717993D01*
X195651000Y-81122007D01*
X195572182Y-81518254D01*
X195460683Y-81787436D01*
X195417573Y-81891513D01*
X195193116Y-82227436D01*
X194907436Y-82513116D01*
X194571513Y-82737573D01*
X194571512Y-82737574D01*
X194571511Y-82737574D01*
X194198254Y-82892182D01*
X193802007Y-82971000D01*
X193397993Y-82971000D01*
X193001746Y-82892182D01*
X192628489Y-82737574D01*
X192628488Y-82737574D01*
X192628487Y-82737573D01*
X192292564Y-82513116D01*
X192006884Y-82227436D01*
X191782427Y-81891513D01*
X191739317Y-81787436D01*
X191627818Y-81518254D01*
X191549000Y-81122007D01*
X191549000Y-80717993D01*
X191627818Y-80321746D01*
X191782426Y-79948489D01*
X191806066Y-79913110D01*
X192006884Y-79612564D01*
X192292564Y-79326884D01*
X192628487Y-79102427D01*
X192628489Y-79102426D01*
X193001746Y-78947818D01*
X193397993Y-78869000D01*
X193802007Y-78869000D01*
X194198254Y-78947818D01*
G37*
G36*
X230198254Y-78947818D02*
G01*
X230571511Y-79102426D01*
X230571513Y-79102427D01*
X230907436Y-79326884D01*
X231193116Y-79612564D01*
X231393935Y-79913110D01*
X231417574Y-79948489D01*
X231572182Y-80321746D01*
X231651000Y-80717993D01*
X231651000Y-81122007D01*
X231572182Y-81518254D01*
X231460683Y-81787436D01*
X231417573Y-81891513D01*
X231193116Y-82227436D01*
X230907436Y-82513116D01*
X230571513Y-82737573D01*
X230571512Y-82737574D01*
X230571511Y-82737574D01*
X230198254Y-82892182D01*
X229802007Y-82971000D01*
X229397993Y-82971000D01*
X229001746Y-82892182D01*
X228628489Y-82737574D01*
X228628488Y-82737574D01*
X228628487Y-82737573D01*
X228292564Y-82513116D01*
X228006884Y-82227436D01*
X227782427Y-81891513D01*
X227739317Y-81787436D01*
X227627818Y-81518254D01*
X227549000Y-81122007D01*
X227549000Y-80717993D01*
X227627818Y-80321746D01*
X227782426Y-79948489D01*
X227806066Y-79913110D01*
X228006884Y-79612564D01*
X228292564Y-79326884D01*
X228628487Y-79102427D01*
X228628489Y-79102426D01*
X229001746Y-78947818D01*
X229397993Y-78869000D01*
X229802007Y-78869000D01*
X230198254Y-78947818D01*
G37*
G36*
X133398254Y-78507818D02*
G01*
X133771511Y-78662426D01*
X133771513Y-78662427D01*
X134107436Y-78886884D01*
X134393116Y-79172564D01*
X134496230Y-79326884D01*
X134617574Y-79508489D01*
X134772182Y-79881746D01*
X134851000Y-80277993D01*
X134851000Y-80682007D01*
X134772182Y-81078254D01*
X134625759Y-81431750D01*
X134617573Y-81451513D01*
X134393116Y-81787436D01*
X134107436Y-82073116D01*
X133771513Y-82297573D01*
X133771512Y-82297574D01*
X133771511Y-82297574D01*
X133398254Y-82452182D01*
X133002007Y-82531000D01*
X132597993Y-82531000D01*
X132201746Y-82452182D01*
X131828489Y-82297574D01*
X131828488Y-82297574D01*
X131828487Y-82297573D01*
X131492564Y-82073116D01*
X131206884Y-81787436D01*
X130982427Y-81451513D01*
X130974241Y-81431750D01*
X130827818Y-81078254D01*
X130749000Y-80682007D01*
X130749000Y-80277993D01*
X130827818Y-79881746D01*
X130982426Y-79508489D01*
X131103771Y-79326884D01*
X131206884Y-79172564D01*
X131492564Y-78886884D01*
X131828487Y-78662427D01*
X131828489Y-78662426D01*
X132201746Y-78507818D01*
X132597993Y-78429000D01*
X133002007Y-78429000D01*
X133398254Y-78507818D01*
G37*
G36*
X97398254Y-78507818D02*
G01*
X97771511Y-78662426D01*
X97771513Y-78662427D01*
X98107436Y-78886884D01*
X98393116Y-79172564D01*
X98496230Y-79326884D01*
X98617574Y-79508489D01*
X98772182Y-79881746D01*
X98851000Y-80277993D01*
X98851000Y-80682007D01*
X98772182Y-81078254D01*
X98625759Y-81431750D01*
X98617573Y-81451513D01*
X98393116Y-81787436D01*
X98107436Y-82073116D01*
X97771513Y-82297573D01*
X97771512Y-82297574D01*
X97771511Y-82297574D01*
X97398254Y-82452182D01*
X97002007Y-82531000D01*
X96597993Y-82531000D01*
X96201746Y-82452182D01*
X95828489Y-82297574D01*
X95828488Y-82297574D01*
X95828487Y-82297573D01*
X95492564Y-82073116D01*
X95206884Y-81787436D01*
X94982427Y-81451513D01*
X94974241Y-81431750D01*
X94827818Y-81078254D01*
X94749000Y-80682007D01*
X94749000Y-80277993D01*
X94827818Y-79881746D01*
X94982426Y-79508489D01*
X95103771Y-79326884D01*
X95206884Y-79172564D01*
X95492564Y-78886884D01*
X95828487Y-78662427D01*
X95828489Y-78662426D01*
X96201746Y-78507818D01*
X96597993Y-78429000D01*
X97002007Y-78429000D01*
X97398254Y-78507818D01*
G37*
G36*
X177579591Y-80703085D02*
G01*
X177613569Y-80713393D01*
X177644890Y-80730134D01*
X177672339Y-80752661D01*
X177694866Y-80780110D01*
X177711607Y-80811431D01*
X177721915Y-80845409D01*
X177726000Y-80886890D01*
X177726000Y-81488110D01*
X177721915Y-81529591D01*
X177711607Y-81563569D01*
X177694866Y-81594890D01*
X177672339Y-81622339D01*
X177644890Y-81644866D01*
X177613569Y-81661607D01*
X177579591Y-81671915D01*
X177538110Y-81676000D01*
X176861890Y-81676000D01*
X176820409Y-81671915D01*
X176786431Y-81661607D01*
X176755110Y-81644866D01*
X176727661Y-81622339D01*
X176705134Y-81594890D01*
X176688393Y-81563569D01*
X176678085Y-81529591D01*
X176674000Y-81488110D01*
X176674000Y-80886890D01*
X176678085Y-80845409D01*
X176688393Y-80811431D01*
X176705134Y-80780110D01*
X176727661Y-80752661D01*
X176755110Y-80730134D01*
X176786431Y-80713393D01*
X176820409Y-80703085D01*
X176861890Y-80699000D01*
X177538110Y-80699000D01*
X177579591Y-80703085D01*
G37*
G36*
X174249591Y-80078085D02*
G01*
X174283569Y-80088393D01*
X174314890Y-80105134D01*
X174342339Y-80127661D01*
X174364866Y-80155110D01*
X174381607Y-80186431D01*
X174391915Y-80220409D01*
X174396000Y-80261890D01*
X174396000Y-80938110D01*
X174391915Y-80979591D01*
X174381607Y-81013569D01*
X174364866Y-81044890D01*
X174342339Y-81072339D01*
X174314890Y-81094866D01*
X174283569Y-81111607D01*
X174249591Y-81121915D01*
X174208110Y-81126000D01*
X173606890Y-81126000D01*
X173565409Y-81121915D01*
X173531431Y-81111607D01*
X173500110Y-81094866D01*
X173472661Y-81072339D01*
X173450134Y-81044890D01*
X173433393Y-81013569D01*
X173423085Y-80979591D01*
X173419000Y-80938110D01*
X173419000Y-80261890D01*
X173423085Y-80220409D01*
X173433393Y-80186431D01*
X173450134Y-80155110D01*
X173472661Y-80127661D01*
X173500110Y-80105134D01*
X173531431Y-80088393D01*
X173565409Y-80078085D01*
X173606890Y-80074000D01*
X174208110Y-80074000D01*
X174249591Y-80078085D01*
G37*
G36*
X172674591Y-80078085D02*
G01*
X172708569Y-80088393D01*
X172739890Y-80105134D01*
X172767339Y-80127661D01*
X172789866Y-80155110D01*
X172806607Y-80186431D01*
X172816915Y-80220409D01*
X172821000Y-80261890D01*
X172821000Y-80938110D01*
X172816915Y-80979591D01*
X172806607Y-81013569D01*
X172789866Y-81044890D01*
X172767339Y-81072339D01*
X172739890Y-81094866D01*
X172708569Y-81111607D01*
X172674591Y-81121915D01*
X172633110Y-81126000D01*
X172031890Y-81126000D01*
X171990409Y-81121915D01*
X171956431Y-81111607D01*
X171925110Y-81094866D01*
X171897661Y-81072339D01*
X171875134Y-81044890D01*
X171858393Y-81013569D01*
X171848085Y-80979591D01*
X171844000Y-80938110D01*
X171844000Y-80261890D01*
X171848085Y-80220409D01*
X171858393Y-80186431D01*
X171875134Y-80155110D01*
X171897661Y-80127661D01*
X171925110Y-80105134D01*
X171956431Y-80088393D01*
X171990409Y-80078085D01*
X172031890Y-80074000D01*
X172633110Y-80074000D01*
X172674591Y-80078085D01*
G37*
G36*
X177579591Y-79128085D02*
G01*
X177613569Y-79138393D01*
X177644890Y-79155134D01*
X177672339Y-79177661D01*
X177694866Y-79205110D01*
X177711607Y-79236431D01*
X177721915Y-79270409D01*
X177726000Y-79311890D01*
X177726000Y-79913110D01*
X177721915Y-79954591D01*
X177711607Y-79988569D01*
X177694866Y-80019890D01*
X177672339Y-80047339D01*
X177644890Y-80069866D01*
X177613569Y-80086607D01*
X177579591Y-80096915D01*
X177538110Y-80101000D01*
X176861890Y-80101000D01*
X176820409Y-80096915D01*
X176786431Y-80086607D01*
X176755110Y-80069866D01*
X176727661Y-80047339D01*
X176705134Y-80019890D01*
X176688393Y-79988569D01*
X176678085Y-79954591D01*
X176674000Y-79913110D01*
X176674000Y-79311890D01*
X176678085Y-79270409D01*
X176688393Y-79236431D01*
X176705134Y-79205110D01*
X176727661Y-79177661D01*
X176755110Y-79155134D01*
X176786431Y-79138393D01*
X176820409Y-79128085D01*
X176861890Y-79124000D01*
X177538110Y-79124000D01*
X177579591Y-79128085D01*
G37*
G36*
X169001000Y-73751000D02*
G01*
X165899000Y-73751000D01*
X165899000Y-68649000D01*
X169001000Y-68649000D01*
X169001000Y-73751000D01*
G37*
G36*
X158001000Y-73751000D02*
G01*
X154899000Y-73751000D01*
X154899000Y-68649000D01*
X158001000Y-68649000D01*
X158001000Y-73751000D01*
G37*
G36*
X185117142Y-59798242D02*
G01*
X185265101Y-59859529D01*
X185398255Y-59948499D01*
X185511501Y-60061745D01*
X185600471Y-60194899D01*
X185661758Y-60342858D01*
X185693000Y-60499925D01*
X185693000Y-60660075D01*
X185661758Y-60817142D01*
X185600471Y-60965101D01*
X185511501Y-61098255D01*
X185398255Y-61211501D01*
X185265101Y-61300471D01*
X185117142Y-61361758D01*
X184960075Y-61393000D01*
X184799925Y-61393000D01*
X184642858Y-61361758D01*
X184494899Y-61300471D01*
X184361745Y-61211501D01*
X184248499Y-61098255D01*
X184159529Y-60965101D01*
X184098242Y-60817142D01*
X184067000Y-60660075D01*
X184067000Y-60499925D01*
X184098242Y-60342858D01*
X184159529Y-60194899D01*
X184248499Y-60061745D01*
X184361745Y-59948499D01*
X184494899Y-59859529D01*
X184642858Y-59798242D01*
X184799925Y-59767000D01*
X184960075Y-59767000D01*
X185117142Y-59798242D01*
G37*
G36*
X141937142Y-59798242D02*
G01*
X142085101Y-59859529D01*
X142218255Y-59948499D01*
X142331501Y-60061745D01*
X142420471Y-60194899D01*
X142481758Y-60342858D01*
X142513000Y-60499925D01*
X142513000Y-60660075D01*
X142481758Y-60817142D01*
X142420471Y-60965101D01*
X142331501Y-61098255D01*
X142218255Y-61211501D01*
X142085101Y-61300471D01*
X141937142Y-61361758D01*
X141780075Y-61393000D01*
X141619925Y-61393000D01*
X141462858Y-61361758D01*
X141314899Y-61300471D01*
X141181745Y-61211501D01*
X141068499Y-61098255D01*
X140979529Y-60965101D01*
X140918242Y-60817142D01*
X140887000Y-60660075D01*
X140887000Y-60499925D01*
X140918242Y-60342858D01*
X140979529Y-60194899D01*
X141068499Y-60061745D01*
X141181745Y-59948499D01*
X141314899Y-59859529D01*
X141462858Y-59798242D01*
X141619925Y-59767000D01*
X141780075Y-59767000D01*
X141937142Y-59798242D01*
G37*
G36*
X173529591Y-60078085D02*
G01*
X173563569Y-60088393D01*
X173594890Y-60105134D01*
X173622339Y-60127661D01*
X173644866Y-60155110D01*
X173661607Y-60186431D01*
X173671915Y-60220409D01*
X173676000Y-60261890D01*
X173676000Y-60938110D01*
X173671915Y-60979591D01*
X173661607Y-61013569D01*
X173644866Y-61044890D01*
X173622339Y-61072339D01*
X173594890Y-61094866D01*
X173563569Y-61111607D01*
X173529591Y-61121915D01*
X173488110Y-61126000D01*
X172886890Y-61126000D01*
X172845409Y-61121915D01*
X172811431Y-61111607D01*
X172780110Y-61094866D01*
X172752661Y-61072339D01*
X172730134Y-61044890D01*
X172713393Y-61013569D01*
X172703085Y-60979591D01*
X172699000Y-60938110D01*
X172699000Y-60261890D01*
X172703085Y-60220409D01*
X172713393Y-60186431D01*
X172730134Y-60155110D01*
X172752661Y-60127661D01*
X172780110Y-60105134D01*
X172811431Y-60088393D01*
X172845409Y-60078085D01*
X172886890Y-60074000D01*
X173488110Y-60074000D01*
X173529591Y-60078085D01*
G37*
G36*
X171954591Y-60078085D02*
G01*
X171988569Y-60088393D01*
X172019890Y-60105134D01*
X172047339Y-60127661D01*
X172069866Y-60155110D01*
X172086607Y-60186431D01*
X172096915Y-60220409D01*
X172101000Y-60261890D01*
X172101000Y-60938110D01*
X172096915Y-60979591D01*
X172086607Y-61013569D01*
X172069866Y-61044890D01*
X172047339Y-61072339D01*
X172019890Y-61094866D01*
X171988569Y-61111607D01*
X171954591Y-61121915D01*
X171913110Y-61126000D01*
X171311890Y-61126000D01*
X171270409Y-61121915D01*
X171236431Y-61111607D01*
X171205110Y-61094866D01*
X171177661Y-61072339D01*
X171155134Y-61044890D01*
X171138393Y-61013569D01*
X171128085Y-60979591D01*
X171124000Y-60938110D01*
X171124000Y-60261890D01*
X171128085Y-60220409D01*
X171138393Y-60186431D01*
X171155134Y-60155110D01*
X171177661Y-60127661D01*
X171205110Y-60105134D01*
X171236431Y-60088393D01*
X171270409Y-60078085D01*
X171311890Y-60074000D01*
X171913110Y-60074000D01*
X171954591Y-60078085D01*
G37*
G36*
X185117142Y-57258242D02*
G01*
X185265101Y-57319529D01*
X185398255Y-57408499D01*
X185511501Y-57521745D01*
X185600471Y-57654899D01*
X185661758Y-57802858D01*
X185693000Y-57959925D01*
X185693000Y-58120075D01*
X185661758Y-58277142D01*
X185600471Y-58425101D01*
X185511501Y-58558255D01*
X185398255Y-58671501D01*
X185265101Y-58760471D01*
X185117142Y-58821758D01*
X184960075Y-58853000D01*
X184799925Y-58853000D01*
X184642858Y-58821758D01*
X184494899Y-58760471D01*
X184361745Y-58671501D01*
X184248499Y-58558255D01*
X184159529Y-58425101D01*
X184098242Y-58277142D01*
X184067000Y-58120075D01*
X184067000Y-57959925D01*
X184098242Y-57802858D01*
X184159529Y-57654899D01*
X184248499Y-57521745D01*
X184361745Y-57408499D01*
X184494899Y-57319529D01*
X184642858Y-57258242D01*
X184799925Y-57227000D01*
X184960075Y-57227000D01*
X185117142Y-57258242D01*
G37*
G36*
X141937142Y-57258242D02*
G01*
X142085101Y-57319529D01*
X142218255Y-57408499D01*
X142331501Y-57521745D01*
X142420471Y-57654899D01*
X142481758Y-57802858D01*
X142513000Y-57959925D01*
X142513000Y-58120075D01*
X142481758Y-58277142D01*
X142420471Y-58425101D01*
X142331501Y-58558255D01*
X142218255Y-58671501D01*
X142085101Y-58760471D01*
X141937142Y-58821758D01*
X141780075Y-58853000D01*
X141619925Y-58853000D01*
X141462858Y-58821758D01*
X141314899Y-58760471D01*
X141181745Y-58671501D01*
X141068499Y-58558255D01*
X140979529Y-58425101D01*
X140918242Y-58277142D01*
X140887000Y-58120075D01*
X140887000Y-57959925D01*
X140918242Y-57802858D01*
X140979529Y-57654899D01*
X141068499Y-57521745D01*
X141181745Y-57408499D01*
X141314899Y-57319529D01*
X141462858Y-57258242D01*
X141619925Y-57227000D01*
X141780075Y-57227000D01*
X141937142Y-57258242D01*
G37*
G36*
X194198254Y-54827818D02*
G01*
X194569862Y-54981743D01*
X194571513Y-54982427D01*
X194907436Y-55206884D01*
X195193116Y-55492564D01*
X195397198Y-55797993D01*
X195417574Y-55828489D01*
X195572182Y-56201746D01*
X195651000Y-56597993D01*
X195651000Y-57002007D01*
X195572182Y-57398254D01*
X195465876Y-57654899D01*
X195417573Y-57771513D01*
X195193116Y-58107436D01*
X194907436Y-58393116D01*
X194571513Y-58617573D01*
X194571512Y-58617574D01*
X194571511Y-58617574D01*
X194198254Y-58772182D01*
X193802007Y-58851000D01*
X193397993Y-58851000D01*
X193001746Y-58772182D01*
X192628489Y-58617574D01*
X192628488Y-58617574D01*
X192628487Y-58617573D01*
X192292564Y-58393116D01*
X192006884Y-58107436D01*
X191782427Y-57771513D01*
X191734124Y-57654899D01*
X191627818Y-57398254D01*
X191549000Y-57002007D01*
X191549000Y-56597993D01*
X191627818Y-56201746D01*
X191782426Y-55828489D01*
X191802803Y-55797993D01*
X192006884Y-55492564D01*
X192292564Y-55206884D01*
X192628487Y-54982427D01*
X192630138Y-54981743D01*
X193001746Y-54827818D01*
X193397993Y-54749000D01*
X193802007Y-54749000D01*
X194198254Y-54827818D01*
G37*
G36*
X230198254Y-54827818D02*
G01*
X230569862Y-54981743D01*
X230571513Y-54982427D01*
X230907436Y-55206884D01*
X231193116Y-55492564D01*
X231397198Y-55797993D01*
X231417574Y-55828489D01*
X231572182Y-56201746D01*
X231651000Y-56597993D01*
X231651000Y-57002007D01*
X231572182Y-57398254D01*
X231465876Y-57654899D01*
X231417573Y-57771513D01*
X231193116Y-58107436D01*
X230907436Y-58393116D01*
X230571513Y-58617573D01*
X230571512Y-58617574D01*
X230571511Y-58617574D01*
X230198254Y-58772182D01*
X229802007Y-58851000D01*
X229397993Y-58851000D01*
X229001746Y-58772182D01*
X228628489Y-58617574D01*
X228628488Y-58617574D01*
X228628487Y-58617573D01*
X228292564Y-58393116D01*
X228006884Y-58107436D01*
X227782427Y-57771513D01*
X227734124Y-57654899D01*
X227627818Y-57398254D01*
X227549000Y-57002007D01*
X227549000Y-56597993D01*
X227627818Y-56201746D01*
X227782426Y-55828489D01*
X227802803Y-55797993D01*
X228006884Y-55492564D01*
X228292564Y-55206884D01*
X228628487Y-54982427D01*
X228630138Y-54981743D01*
X229001746Y-54827818D01*
X229397993Y-54749000D01*
X229802007Y-54749000D01*
X230198254Y-54827818D01*
G37*
G36*
X171954591Y-57078085D02*
G01*
X171988569Y-57088393D01*
X172019890Y-57105134D01*
X172047339Y-57127661D01*
X172069866Y-57155110D01*
X172086607Y-57186431D01*
X172096915Y-57220409D01*
X172101000Y-57261890D01*
X172101000Y-57938110D01*
X172096915Y-57979591D01*
X172086607Y-58013569D01*
X172069866Y-58044890D01*
X172047339Y-58072339D01*
X172019890Y-58094866D01*
X171988569Y-58111607D01*
X171954591Y-58121915D01*
X171913110Y-58126000D01*
X171311890Y-58126000D01*
X171270409Y-58121915D01*
X171236431Y-58111607D01*
X171205110Y-58094866D01*
X171177661Y-58072339D01*
X171155134Y-58044890D01*
X171138393Y-58013569D01*
X171128085Y-57979591D01*
X171124000Y-57938110D01*
X171124000Y-57261890D01*
X171128085Y-57220409D01*
X171138393Y-57186431D01*
X171155134Y-57155110D01*
X171177661Y-57127661D01*
X171205110Y-57105134D01*
X171236431Y-57088393D01*
X171270409Y-57078085D01*
X171311890Y-57074000D01*
X171913110Y-57074000D01*
X171954591Y-57078085D01*
G37*
G36*
X173529591Y-57078085D02*
G01*
X173563569Y-57088393D01*
X173594890Y-57105134D01*
X173622339Y-57127661D01*
X173644866Y-57155110D01*
X173661607Y-57186431D01*
X173671915Y-57220409D01*
X173676000Y-57261890D01*
X173676000Y-57938110D01*
X173671915Y-57979591D01*
X173661607Y-58013569D01*
X173644866Y-58044890D01*
X173622339Y-58072339D01*
X173594890Y-58094866D01*
X173563569Y-58111607D01*
X173529591Y-58121915D01*
X173488110Y-58126000D01*
X172886890Y-58126000D01*
X172845409Y-58121915D01*
X172811431Y-58111607D01*
X172780110Y-58094866D01*
X172752661Y-58072339D01*
X172730134Y-58044890D01*
X172713393Y-58013569D01*
X172703085Y-57979591D01*
X172699000Y-57938110D01*
X172699000Y-57261890D01*
X172703085Y-57220409D01*
X172713393Y-57186431D01*
X172730134Y-57155110D01*
X172752661Y-57127661D01*
X172780110Y-57105134D01*
X172811431Y-57088393D01*
X172845409Y-57078085D01*
X172886890Y-57074000D01*
X173488110Y-57074000D01*
X173529591Y-57078085D01*
G37*
G36*
X97298254Y-54027818D02*
G01*
X97671511Y-54182426D01*
X97671513Y-54182427D01*
X98007436Y-54406884D01*
X98293116Y-54692564D01*
X98486797Y-54982427D01*
X98517574Y-55028489D01*
X98672182Y-55401746D01*
X98751000Y-55797993D01*
X98751000Y-56202007D01*
X98672182Y-56598254D01*
X98517574Y-56971511D01*
X98517573Y-56971513D01*
X98293116Y-57307436D01*
X98007436Y-57593116D01*
X97671513Y-57817573D01*
X97671512Y-57817574D01*
X97671511Y-57817574D01*
X97298254Y-57972182D01*
X96902007Y-58051000D01*
X96497993Y-58051000D01*
X96101746Y-57972182D01*
X95728489Y-57817574D01*
X95728488Y-57817574D01*
X95728487Y-57817573D01*
X95392564Y-57593116D01*
X95106884Y-57307436D01*
X94882427Y-56971513D01*
X94882426Y-56971511D01*
X94727818Y-56598254D01*
X94649000Y-56202007D01*
X94649000Y-55797993D01*
X94727818Y-55401746D01*
X94882426Y-55028489D01*
X94913204Y-54982427D01*
X95106884Y-54692564D01*
X95392564Y-54406884D01*
X95728487Y-54182427D01*
X95728489Y-54182426D01*
X96101746Y-54027818D01*
X96497993Y-53949000D01*
X96902007Y-53949000D01*
X97298254Y-54027818D01*
G37*
G36*
X133298254Y-54027818D02*
G01*
X133671511Y-54182426D01*
X133671513Y-54182427D01*
X134007436Y-54406884D01*
X134293116Y-54692564D01*
X134486797Y-54982427D01*
X134517574Y-55028489D01*
X134672182Y-55401746D01*
X134751000Y-55797993D01*
X134751000Y-56202007D01*
X134672182Y-56598254D01*
X134517574Y-56971511D01*
X134517573Y-56971513D01*
X134293116Y-57307436D01*
X134007436Y-57593116D01*
X133671513Y-57817573D01*
X133671512Y-57817574D01*
X133671511Y-57817574D01*
X133298254Y-57972182D01*
X132902007Y-58051000D01*
X132497993Y-58051000D01*
X132101746Y-57972182D01*
X131728489Y-57817574D01*
X131728488Y-57817574D01*
X131728487Y-57817573D01*
X131392564Y-57593116D01*
X131106884Y-57307436D01*
X130882427Y-56971513D01*
X130882426Y-56971511D01*
X130727818Y-56598254D01*
X130649000Y-56202007D01*
X130649000Y-55797993D01*
X130727818Y-55401746D01*
X130882426Y-55028489D01*
X130913204Y-54982427D01*
X131106884Y-54692564D01*
X131392564Y-54406884D01*
X131728487Y-54182427D01*
X131728489Y-54182426D01*
X132101746Y-54027818D01*
X132497993Y-53949000D01*
X132902007Y-53949000D01*
X133298254Y-54027818D01*
G37*
G36*
X141937142Y-54718242D02*
G01*
X142085101Y-54779529D01*
X142218255Y-54868499D01*
X142331501Y-54981745D01*
X142420471Y-55114899D01*
X142481758Y-55262858D01*
X142513000Y-55419925D01*
X142513000Y-55580075D01*
X142481758Y-55737142D01*
X142420471Y-55885101D01*
X142331501Y-56018255D01*
X142218255Y-56131501D01*
X142085101Y-56220471D01*
X141937142Y-56281758D01*
X141780075Y-56313000D01*
X141619925Y-56313000D01*
X141462858Y-56281758D01*
X141314899Y-56220471D01*
X141181745Y-56131501D01*
X141068499Y-56018255D01*
X140979529Y-55885101D01*
X140918242Y-55737142D01*
X140887000Y-55580075D01*
X140887000Y-55419925D01*
X140918242Y-55262858D01*
X140979529Y-55114899D01*
X141068499Y-54981745D01*
X141181745Y-54868499D01*
X141314899Y-54779529D01*
X141462858Y-54718242D01*
X141619925Y-54687000D01*
X141780075Y-54687000D01*
X141937142Y-54718242D01*
G37*
G36*
X185117142Y-54718242D02*
G01*
X185265101Y-54779529D01*
X185398255Y-54868499D01*
X185511501Y-54981745D01*
X185600471Y-55114899D01*
X185661758Y-55262858D01*
X185693000Y-55419925D01*
X185693000Y-55580075D01*
X185661758Y-55737142D01*
X185600471Y-55885101D01*
X185511501Y-56018255D01*
X185398255Y-56131501D01*
X185265101Y-56220471D01*
X185117142Y-56281758D01*
X184960075Y-56313000D01*
X184799925Y-56313000D01*
X184642858Y-56281758D01*
X184494899Y-56220471D01*
X184361745Y-56131501D01*
X184248499Y-56018255D01*
X184159529Y-55885101D01*
X184098242Y-55737142D01*
X184067000Y-55580075D01*
X184067000Y-55419925D01*
X184098242Y-55262858D01*
X184159529Y-55114899D01*
X184248499Y-54981745D01*
X184361745Y-54868499D01*
X184494899Y-54779529D01*
X184642858Y-54718242D01*
X184799925Y-54687000D01*
X184960075Y-54687000D01*
X185117142Y-54718242D01*
G37*
G36*
X150794591Y-54328085D02*
G01*
X150828569Y-54338393D01*
X150859890Y-54355134D01*
X150887339Y-54377661D01*
X150909866Y-54405110D01*
X150926607Y-54436431D01*
X150936915Y-54470409D01*
X150941000Y-54511890D01*
X150941000Y-55188110D01*
X150936915Y-55229591D01*
X150926607Y-55263569D01*
X150909866Y-55294890D01*
X150887339Y-55322339D01*
X150859890Y-55344866D01*
X150828569Y-55361607D01*
X150794591Y-55371915D01*
X150753110Y-55376000D01*
X150151890Y-55376000D01*
X150110409Y-55371915D01*
X150076431Y-55361607D01*
X150045110Y-55344866D01*
X150017661Y-55322339D01*
X149995134Y-55294890D01*
X149978393Y-55263569D01*
X149968085Y-55229591D01*
X149964000Y-55188110D01*
X149964000Y-54511890D01*
X149968085Y-54470409D01*
X149978393Y-54436431D01*
X149995134Y-54405110D01*
X150017661Y-54377661D01*
X150045110Y-54355134D01*
X150076431Y-54338393D01*
X150110409Y-54328085D01*
X150151890Y-54324000D01*
X150753110Y-54324000D01*
X150794591Y-54328085D01*
G37*
G36*
X152369591Y-54328085D02*
G01*
X152403569Y-54338393D01*
X152434890Y-54355134D01*
X152462339Y-54377661D01*
X152484866Y-54405110D01*
X152501607Y-54436431D01*
X152511915Y-54470409D01*
X152516000Y-54511890D01*
X152516000Y-55188110D01*
X152511915Y-55229591D01*
X152501607Y-55263569D01*
X152484866Y-55294890D01*
X152462339Y-55322339D01*
X152434890Y-55344866D01*
X152403569Y-55361607D01*
X152369591Y-55371915D01*
X152328110Y-55376000D01*
X151726890Y-55376000D01*
X151685409Y-55371915D01*
X151651431Y-55361607D01*
X151620110Y-55344866D01*
X151592661Y-55322339D01*
X151570134Y-55294890D01*
X151553393Y-55263569D01*
X151543085Y-55229591D01*
X151539000Y-55188110D01*
X151539000Y-54511890D01*
X151543085Y-54470409D01*
X151553393Y-54436431D01*
X151570134Y-54405110D01*
X151592661Y-54377661D01*
X151620110Y-54355134D01*
X151651431Y-54338393D01*
X151685409Y-54328085D01*
X151726890Y-54324000D01*
X152328110Y-54324000D01*
X152369591Y-54328085D01*
G37*
G36*
X157929591Y-54318085D02*
G01*
X157963569Y-54328393D01*
X157994890Y-54345134D01*
X158022339Y-54367661D01*
X158044866Y-54395110D01*
X158061607Y-54426431D01*
X158071915Y-54460409D01*
X158076000Y-54501890D01*
X158076000Y-55178110D01*
X158071915Y-55219591D01*
X158061607Y-55253569D01*
X158044866Y-55284890D01*
X158022339Y-55312339D01*
X157994890Y-55334866D01*
X157963569Y-55351607D01*
X157929591Y-55361915D01*
X157888110Y-55366000D01*
X157286890Y-55366000D01*
X157245409Y-55361915D01*
X157211431Y-55351607D01*
X157180110Y-55334866D01*
X157152661Y-55312339D01*
X157130134Y-55284890D01*
X157113393Y-55253569D01*
X157103085Y-55219591D01*
X157099000Y-55178110D01*
X157099000Y-54501890D01*
X157103085Y-54460409D01*
X157113393Y-54426431D01*
X157130134Y-54395110D01*
X157152661Y-54367661D01*
X157180110Y-54345134D01*
X157211431Y-54328393D01*
X157245409Y-54318085D01*
X157286890Y-54314000D01*
X157888110Y-54314000D01*
X157929591Y-54318085D01*
G37*
G36*
X156354591Y-54318085D02*
G01*
X156388569Y-54328393D01*
X156419890Y-54345134D01*
X156447339Y-54367661D01*
X156469866Y-54395110D01*
X156486607Y-54426431D01*
X156496915Y-54460409D01*
X156501000Y-54501890D01*
X156501000Y-55178110D01*
X156496915Y-55219591D01*
X156486607Y-55253569D01*
X156469866Y-55284890D01*
X156447339Y-55312339D01*
X156419890Y-55334866D01*
X156388569Y-55351607D01*
X156354591Y-55361915D01*
X156313110Y-55366000D01*
X155711890Y-55366000D01*
X155670409Y-55361915D01*
X155636431Y-55351607D01*
X155605110Y-55334866D01*
X155577661Y-55312339D01*
X155555134Y-55284890D01*
X155538393Y-55253569D01*
X155528085Y-55219591D01*
X155524000Y-55178110D01*
X155524000Y-54501890D01*
X155528085Y-54460409D01*
X155538393Y-54426431D01*
X155555134Y-54395110D01*
X155577661Y-54367661D01*
X155605110Y-54345134D01*
X155636431Y-54328393D01*
X155670409Y-54318085D01*
X155711890Y-54314000D01*
X156313110Y-54314000D01*
X156354591Y-54318085D01*
G37*
G36*
X141937142Y-52178242D02*
G01*
X142085101Y-52239529D01*
X142218255Y-52328499D01*
X142331501Y-52441745D01*
X142420471Y-52574899D01*
X142481758Y-52722858D01*
X142513000Y-52879925D01*
X142513000Y-53040075D01*
X142481758Y-53197142D01*
X142420471Y-53345101D01*
X142331501Y-53478255D01*
X142218255Y-53591501D01*
X142085101Y-53680471D01*
X141937142Y-53741758D01*
X141780075Y-53773000D01*
X141619925Y-53773000D01*
X141462858Y-53741758D01*
X141314899Y-53680471D01*
X141181745Y-53591501D01*
X141068499Y-53478255D01*
X140979529Y-53345101D01*
X140918242Y-53197142D01*
X140887000Y-53040075D01*
X140887000Y-52879925D01*
X140918242Y-52722858D01*
X140979529Y-52574899D01*
X141068499Y-52441745D01*
X141181745Y-52328499D01*
X141314899Y-52239529D01*
X141462858Y-52178242D01*
X141619925Y-52147000D01*
X141780075Y-52147000D01*
X141937142Y-52178242D01*
G37*
G36*
X185117142Y-52178242D02*
G01*
X185265101Y-52239529D01*
X185398255Y-52328499D01*
X185511501Y-52441745D01*
X185600471Y-52574899D01*
X185661758Y-52722858D01*
X185693000Y-52879925D01*
X185693000Y-53040075D01*
X185661758Y-53197142D01*
X185600471Y-53345101D01*
X185511501Y-53478255D01*
X185398255Y-53591501D01*
X185265101Y-53680471D01*
X185117142Y-53741758D01*
X184960075Y-53773000D01*
X184799925Y-53773000D01*
X184642858Y-53741758D01*
X184494899Y-53680471D01*
X184361745Y-53591501D01*
X184248499Y-53478255D01*
X184159529Y-53345101D01*
X184098242Y-53197142D01*
X184067000Y-53040075D01*
X184067000Y-52879925D01*
X184098242Y-52722858D01*
X184159529Y-52574899D01*
X184248499Y-52441745D01*
X184361745Y-52328499D01*
X184494899Y-52239529D01*
X184642858Y-52178242D01*
X184799925Y-52147000D01*
X184960075Y-52147000D01*
X185117142Y-52178242D01*
G37*
G36*
X156354591Y-52378085D02*
G01*
X156388569Y-52388393D01*
X156419890Y-52405134D01*
X156447339Y-52427661D01*
X156469866Y-52455110D01*
X156486607Y-52486431D01*
X156496915Y-52520409D01*
X156501000Y-52561890D01*
X156501000Y-53238110D01*
X156496915Y-53279591D01*
X156486607Y-53313569D01*
X156469866Y-53344890D01*
X156447339Y-53372339D01*
X156419890Y-53394866D01*
X156388569Y-53411607D01*
X156354591Y-53421915D01*
X156313110Y-53426000D01*
X155711890Y-53426000D01*
X155670409Y-53421915D01*
X155636431Y-53411607D01*
X155605110Y-53394866D01*
X155577661Y-53372339D01*
X155555134Y-53344890D01*
X155538393Y-53313569D01*
X155528085Y-53279591D01*
X155524000Y-53238110D01*
X155524000Y-52561890D01*
X155528085Y-52520409D01*
X155538393Y-52486431D01*
X155555134Y-52455110D01*
X155577661Y-52427661D01*
X155605110Y-52405134D01*
X155636431Y-52388393D01*
X155670409Y-52378085D01*
X155711890Y-52374000D01*
X156313110Y-52374000D01*
X156354591Y-52378085D01*
G37*
G36*
X157929591Y-52378085D02*
G01*
X157963569Y-52388393D01*
X157994890Y-52405134D01*
X158022339Y-52427661D01*
X158044866Y-52455110D01*
X158061607Y-52486431D01*
X158071915Y-52520409D01*
X158076000Y-52561890D01*
X158076000Y-53238110D01*
X158071915Y-53279591D01*
X158061607Y-53313569D01*
X158044866Y-53344890D01*
X158022339Y-53372339D01*
X157994890Y-53394866D01*
X157963569Y-53411607D01*
X157929591Y-53421915D01*
X157888110Y-53426000D01*
X157286890Y-53426000D01*
X157245409Y-53421915D01*
X157211431Y-53411607D01*
X157180110Y-53394866D01*
X157152661Y-53372339D01*
X157130134Y-53344890D01*
X157113393Y-53313569D01*
X157103085Y-53279591D01*
X157099000Y-53238110D01*
X157099000Y-52561890D01*
X157103085Y-52520409D01*
X157113393Y-52486431D01*
X157130134Y-52455110D01*
X157152661Y-52427661D01*
X157180110Y-52405134D01*
X157211431Y-52388393D01*
X157245409Y-52378085D01*
X157286890Y-52374000D01*
X157888110Y-52374000D01*
X157929591Y-52378085D01*
G37*
G36*
X149454591Y-51778085D02*
G01*
X149488569Y-51788393D01*
X149519890Y-51805134D01*
X149547339Y-51827661D01*
X149569866Y-51855110D01*
X149586607Y-51886431D01*
X149596915Y-51920409D01*
X149601000Y-51961890D01*
X149601000Y-52638110D01*
X149596915Y-52679591D01*
X149586607Y-52713569D01*
X149569866Y-52744890D01*
X149547339Y-52772339D01*
X149519890Y-52794866D01*
X149488569Y-52811607D01*
X149454591Y-52821915D01*
X149413110Y-52826000D01*
X148811890Y-52826000D01*
X148770409Y-52821915D01*
X148736431Y-52811607D01*
X148705110Y-52794866D01*
X148677661Y-52772339D01*
X148655134Y-52744890D01*
X148638393Y-52713569D01*
X148628085Y-52679591D01*
X148624000Y-52638110D01*
X148624000Y-51961890D01*
X148628085Y-51920409D01*
X148638393Y-51886431D01*
X148655134Y-51855110D01*
X148677661Y-51827661D01*
X148705110Y-51805134D01*
X148736431Y-51788393D01*
X148770409Y-51778085D01*
X148811890Y-51774000D01*
X149413110Y-51774000D01*
X149454591Y-51778085D01*
G37*
G36*
X151029591Y-51778085D02*
G01*
X151063569Y-51788393D01*
X151094890Y-51805134D01*
X151122339Y-51827661D01*
X151144866Y-51855110D01*
X151161607Y-51886431D01*
X151171915Y-51920409D01*
X151176000Y-51961890D01*
X151176000Y-52638110D01*
X151171915Y-52679591D01*
X151161607Y-52713569D01*
X151144866Y-52744890D01*
X151122339Y-52772339D01*
X151094890Y-52794866D01*
X151063569Y-52811607D01*
X151029591Y-52821915D01*
X150988110Y-52826000D01*
X150386890Y-52826000D01*
X150345409Y-52821915D01*
X150311431Y-52811607D01*
X150280110Y-52794866D01*
X150252661Y-52772339D01*
X150230134Y-52744890D01*
X150213393Y-52713569D01*
X150203085Y-52679591D01*
X150199000Y-52638110D01*
X150199000Y-51961890D01*
X150203085Y-51920409D01*
X150213393Y-51886431D01*
X150230134Y-51855110D01*
X150252661Y-51827661D01*
X150280110Y-51805134D01*
X150311431Y-51788393D01*
X150345409Y-51778085D01*
X150386890Y-51774000D01*
X150988110Y-51774000D01*
X151029591Y-51778085D01*
G37*
G36*
X164351000Y-51551000D02*
G01*
X162849000Y-51551000D01*
X162849000Y-49049000D01*
X164351000Y-49049000D01*
X164351000Y-51551000D01*
G37*
G36*
X159951000Y-51551000D02*
G01*
X158449000Y-51551000D01*
X158449000Y-49049000D01*
X159951000Y-49049000D01*
X159951000Y-51551000D01*
G37*
G36*
X166069591Y-50413085D02*
G01*
X166103569Y-50423393D01*
X166134890Y-50440134D01*
X166162339Y-50462661D01*
X166184866Y-50490110D01*
X166201607Y-50521431D01*
X166211915Y-50555409D01*
X166216000Y-50596890D01*
X166216000Y-51198110D01*
X166211915Y-51239591D01*
X166201607Y-51273569D01*
X166184866Y-51304890D01*
X166162339Y-51332339D01*
X166134890Y-51354866D01*
X166103569Y-51371607D01*
X166069591Y-51381915D01*
X166028110Y-51386000D01*
X165351890Y-51386000D01*
X165310409Y-51381915D01*
X165276431Y-51371607D01*
X165245110Y-51354866D01*
X165217661Y-51332339D01*
X165195134Y-51304890D01*
X165178393Y-51273569D01*
X165168085Y-51239591D01*
X165164000Y-51198110D01*
X165164000Y-50596890D01*
X165168085Y-50555409D01*
X165178393Y-50521431D01*
X165195134Y-50490110D01*
X165217661Y-50462661D01*
X165245110Y-50440134D01*
X165276431Y-50423393D01*
X165310409Y-50413085D01*
X165351890Y-50409000D01*
X166028110Y-50409000D01*
X166069591Y-50413085D01*
G37*
G36*
X141937142Y-49638242D02*
G01*
X142085101Y-49699529D01*
X142218255Y-49788499D01*
X142331501Y-49901745D01*
X142420471Y-50034899D01*
X142481758Y-50182858D01*
X142513000Y-50339925D01*
X142513000Y-50500075D01*
X142481758Y-50657142D01*
X142420471Y-50805101D01*
X142331501Y-50938255D01*
X142218255Y-51051501D01*
X142085101Y-51140471D01*
X141937142Y-51201758D01*
X141780075Y-51233000D01*
X141619925Y-51233000D01*
X141462858Y-51201758D01*
X141314899Y-51140471D01*
X141181745Y-51051501D01*
X141068499Y-50938255D01*
X140979529Y-50805101D01*
X140918242Y-50657142D01*
X140887000Y-50500075D01*
X140887000Y-50339925D01*
X140918242Y-50182858D01*
X140979529Y-50034899D01*
X141068499Y-49901745D01*
X141181745Y-49788499D01*
X141314899Y-49699529D01*
X141462858Y-49638242D01*
X141619925Y-49607000D01*
X141780075Y-49607000D01*
X141937142Y-49638242D01*
G37*
G36*
X185117142Y-49638242D02*
G01*
X185265101Y-49699529D01*
X185398255Y-49788499D01*
X185511501Y-49901745D01*
X185600471Y-50034899D01*
X185661758Y-50182858D01*
X185693000Y-50339925D01*
X185693000Y-50500075D01*
X185661758Y-50657142D01*
X185600471Y-50805101D01*
X185511501Y-50938255D01*
X185398255Y-51051501D01*
X185265101Y-51140471D01*
X185117142Y-51201758D01*
X184960075Y-51233000D01*
X184799925Y-51233000D01*
X184642858Y-51201758D01*
X184494899Y-51140471D01*
X184361745Y-51051501D01*
X184248499Y-50938255D01*
X184159529Y-50805101D01*
X184098242Y-50657142D01*
X184067000Y-50500075D01*
X184067000Y-50339925D01*
X184098242Y-50182858D01*
X184159529Y-50034899D01*
X184248499Y-49901745D01*
X184361745Y-49788499D01*
X184494899Y-49699529D01*
X184642858Y-49638242D01*
X184799925Y-49607000D01*
X184960075Y-49607000D01*
X185117142Y-49638242D01*
G37*
G36*
X154729591Y-49578085D02*
G01*
X154763569Y-49588393D01*
X154794890Y-49605134D01*
X154822339Y-49627661D01*
X154844866Y-49655110D01*
X154861607Y-49686431D01*
X154871915Y-49720409D01*
X154876000Y-49761890D01*
X154876000Y-50438110D01*
X154871915Y-50479591D01*
X154861607Y-50513569D01*
X154844866Y-50544890D01*
X154822339Y-50572339D01*
X154794890Y-50594866D01*
X154763569Y-50611607D01*
X154729591Y-50621915D01*
X154688110Y-50626000D01*
X154086890Y-50626000D01*
X154045409Y-50621915D01*
X154011431Y-50611607D01*
X153980110Y-50594866D01*
X153952661Y-50572339D01*
X153930134Y-50544890D01*
X153913393Y-50513569D01*
X153903085Y-50479591D01*
X153899000Y-50438110D01*
X153899000Y-49761890D01*
X153903085Y-49720409D01*
X153913393Y-49686431D01*
X153930134Y-49655110D01*
X153952661Y-49627661D01*
X153980110Y-49605134D01*
X154011431Y-49588393D01*
X154045409Y-49578085D01*
X154086890Y-49574000D01*
X154688110Y-49574000D01*
X154729591Y-49578085D01*
G37*
G36*
X153154591Y-49578085D02*
G01*
X153188569Y-49588393D01*
X153219890Y-49605134D01*
X153247339Y-49627661D01*
X153269866Y-49655110D01*
X153286607Y-49686431D01*
X153296915Y-49720409D01*
X153301000Y-49761890D01*
X153301000Y-50438110D01*
X153296915Y-50479591D01*
X153286607Y-50513569D01*
X153269866Y-50544890D01*
X153247339Y-50572339D01*
X153219890Y-50594866D01*
X153188569Y-50611607D01*
X153154591Y-50621915D01*
X153113110Y-50626000D01*
X152511890Y-50626000D01*
X152470409Y-50621915D01*
X152436431Y-50611607D01*
X152405110Y-50594866D01*
X152377661Y-50572339D01*
X152355134Y-50544890D01*
X152338393Y-50513569D01*
X152328085Y-50479591D01*
X152324000Y-50438110D01*
X152324000Y-49761890D01*
X152328085Y-49720409D01*
X152338393Y-49686431D01*
X152355134Y-49655110D01*
X152377661Y-49627661D01*
X152405110Y-49605134D01*
X152436431Y-49588393D01*
X152470409Y-49578085D01*
X152511890Y-49574000D01*
X153113110Y-49574000D01*
X153154591Y-49578085D01*
G37*
G36*
X166069591Y-48838085D02*
G01*
X166103569Y-48848393D01*
X166134890Y-48865134D01*
X166162339Y-48887661D01*
X166184866Y-48915110D01*
X166201607Y-48946431D01*
X166211915Y-48980409D01*
X166216000Y-49021890D01*
X166216000Y-49623110D01*
X166211915Y-49664591D01*
X166201607Y-49698569D01*
X166184866Y-49729890D01*
X166162339Y-49757339D01*
X166134890Y-49779866D01*
X166103569Y-49796607D01*
X166069591Y-49806915D01*
X166028110Y-49811000D01*
X165351890Y-49811000D01*
X165310409Y-49806915D01*
X165276431Y-49796607D01*
X165245110Y-49779866D01*
X165217661Y-49757339D01*
X165195134Y-49729890D01*
X165178393Y-49698569D01*
X165168085Y-49664591D01*
X165164000Y-49623110D01*
X165164000Y-49021890D01*
X165168085Y-48980409D01*
X165178393Y-48946431D01*
X165195134Y-48915110D01*
X165217661Y-48887661D01*
X165245110Y-48865134D01*
X165276431Y-48848393D01*
X165310409Y-48838085D01*
X165351890Y-48834000D01*
X166028110Y-48834000D01*
X166069591Y-48838085D01*
G37*
G36*
X155842091Y-47878085D02*
G01*
X155876069Y-47888393D01*
X155907390Y-47905134D01*
X155934839Y-47927661D01*
X155957366Y-47955110D01*
X155974107Y-47986431D01*
X155984415Y-48020409D01*
X155988500Y-48061890D01*
X155988500Y-48738110D01*
X155984415Y-48779591D01*
X155974107Y-48813569D01*
X155957366Y-48844890D01*
X155934839Y-48872339D01*
X155907390Y-48894866D01*
X155876069Y-48911607D01*
X155842091Y-48921915D01*
X155800610Y-48926000D01*
X155199390Y-48926000D01*
X155157909Y-48921915D01*
X155123931Y-48911607D01*
X155092610Y-48894866D01*
X155065161Y-48872339D01*
X155042634Y-48844890D01*
X155025893Y-48813569D01*
X155015585Y-48779591D01*
X155011500Y-48738110D01*
X155011500Y-48061890D01*
X155015585Y-48020409D01*
X155025893Y-47986431D01*
X155042634Y-47955110D01*
X155065161Y-47927661D01*
X155092610Y-47905134D01*
X155123931Y-47888393D01*
X155157909Y-47878085D01*
X155199390Y-47874000D01*
X155800610Y-47874000D01*
X155842091Y-47878085D01*
G37*
G36*
X157417091Y-47878085D02*
G01*
X157451069Y-47888393D01*
X157482390Y-47905134D01*
X157509839Y-47927661D01*
X157532366Y-47955110D01*
X157549107Y-47986431D01*
X157559415Y-48020409D01*
X157563500Y-48061890D01*
X157563500Y-48738110D01*
X157559415Y-48779591D01*
X157549107Y-48813569D01*
X157532366Y-48844890D01*
X157509839Y-48872339D01*
X157482390Y-48894866D01*
X157451069Y-48911607D01*
X157417091Y-48921915D01*
X157375610Y-48926000D01*
X156774390Y-48926000D01*
X156732909Y-48921915D01*
X156698931Y-48911607D01*
X156667610Y-48894866D01*
X156640161Y-48872339D01*
X156617634Y-48844890D01*
X156600893Y-48813569D01*
X156590585Y-48779591D01*
X156586500Y-48738110D01*
X156586500Y-48061890D01*
X156590585Y-48020409D01*
X156600893Y-47986431D01*
X156617634Y-47955110D01*
X156640161Y-47927661D01*
X156667610Y-47905134D01*
X156698931Y-47888393D01*
X156732909Y-47878085D01*
X156774390Y-47874000D01*
X157375610Y-47874000D01*
X157417091Y-47878085D01*
G37*
G36*
X141937142Y-47098242D02*
G01*
X142085101Y-47159529D01*
X142218255Y-47248499D01*
X142331501Y-47361745D01*
X142420471Y-47494899D01*
X142481758Y-47642858D01*
X142513000Y-47799925D01*
X142513000Y-47960075D01*
X142481758Y-48117142D01*
X142420471Y-48265101D01*
X142331501Y-48398255D01*
X142218255Y-48511501D01*
X142085101Y-48600471D01*
X141937142Y-48661758D01*
X141780075Y-48693000D01*
X141619925Y-48693000D01*
X141462858Y-48661758D01*
X141314899Y-48600471D01*
X141181745Y-48511501D01*
X141068499Y-48398255D01*
X140979529Y-48265101D01*
X140918242Y-48117142D01*
X140887000Y-47960075D01*
X140887000Y-47799925D01*
X140918242Y-47642858D01*
X140979529Y-47494899D01*
X141068499Y-47361745D01*
X141181745Y-47248499D01*
X141314899Y-47159529D01*
X141462858Y-47098242D01*
X141619925Y-47067000D01*
X141780075Y-47067000D01*
X141937142Y-47098242D01*
G37*
G36*
X185117142Y-47098242D02*
G01*
X185265101Y-47159529D01*
X185398255Y-47248499D01*
X185511501Y-47361745D01*
X185600471Y-47494899D01*
X185661758Y-47642858D01*
X185693000Y-47799925D01*
X185693000Y-47960075D01*
X185661758Y-48117142D01*
X185600471Y-48265101D01*
X185511501Y-48398255D01*
X185398255Y-48511501D01*
X185265101Y-48600471D01*
X185117142Y-48661758D01*
X184960075Y-48693000D01*
X184799925Y-48693000D01*
X184642858Y-48661758D01*
X184494899Y-48600471D01*
X184361745Y-48511501D01*
X184248499Y-48398255D01*
X184159529Y-48265101D01*
X184098242Y-48117142D01*
X184067000Y-47960075D01*
X184067000Y-47799925D01*
X184098242Y-47642858D01*
X184159529Y-47494899D01*
X184248499Y-47361745D01*
X184361745Y-47248499D01*
X184494899Y-47159529D01*
X184642858Y-47098242D01*
X184799925Y-47067000D01*
X184960075Y-47067000D01*
X185117142Y-47098242D01*
G37*
G36*
X157429591Y-45878085D02*
G01*
X157463569Y-45888393D01*
X157494890Y-45905134D01*
X157522339Y-45927661D01*
X157544866Y-45955110D01*
X157561607Y-45986431D01*
X157571915Y-46020409D01*
X157576000Y-46061890D01*
X157576000Y-46738110D01*
X157571915Y-46779591D01*
X157561607Y-46813569D01*
X157544866Y-46844890D01*
X157522339Y-46872339D01*
X157494890Y-46894866D01*
X157463569Y-46911607D01*
X157429591Y-46921915D01*
X157388110Y-46926000D01*
X156786890Y-46926000D01*
X156745409Y-46921915D01*
X156711431Y-46911607D01*
X156680110Y-46894866D01*
X156652661Y-46872339D01*
X156630134Y-46844890D01*
X156613393Y-46813569D01*
X156603085Y-46779591D01*
X156599000Y-46738110D01*
X156599000Y-46061890D01*
X156603085Y-46020409D01*
X156613393Y-45986431D01*
X156630134Y-45955110D01*
X156652661Y-45927661D01*
X156680110Y-45905134D01*
X156711431Y-45888393D01*
X156745409Y-45878085D01*
X156786890Y-45874000D01*
X157388110Y-45874000D01*
X157429591Y-45878085D01*
G37*
G36*
X155854591Y-45878085D02*
G01*
X155888569Y-45888393D01*
X155919890Y-45905134D01*
X155947339Y-45927661D01*
X155969866Y-45955110D01*
X155986607Y-45986431D01*
X155996915Y-46020409D01*
X156001000Y-46061890D01*
X156001000Y-46738110D01*
X155996915Y-46779591D01*
X155986607Y-46813569D01*
X155969866Y-46844890D01*
X155947339Y-46872339D01*
X155919890Y-46894866D01*
X155888569Y-46911607D01*
X155854591Y-46921915D01*
X155813110Y-46926000D01*
X155211890Y-46926000D01*
X155170409Y-46921915D01*
X155136431Y-46911607D01*
X155105110Y-46894866D01*
X155077661Y-46872339D01*
X155055134Y-46844890D01*
X155038393Y-46813569D01*
X155028085Y-46779591D01*
X155024000Y-46738110D01*
X155024000Y-46061890D01*
X155028085Y-46020409D01*
X155038393Y-45986431D01*
X155055134Y-45955110D01*
X155077661Y-45927661D01*
X155105110Y-45905134D01*
X155136431Y-45888393D01*
X155170409Y-45878085D01*
X155211890Y-45874000D01*
X155813110Y-45874000D01*
X155854591Y-45878085D01*
G37*
G36*
X141937142Y-44558242D02*
G01*
X142085101Y-44619529D01*
X142218255Y-44708499D01*
X142331501Y-44821745D01*
X142420471Y-44954899D01*
X142481758Y-45102858D01*
X142513000Y-45259925D01*
X142513000Y-45420075D01*
X142481758Y-45577142D01*
X142420471Y-45725101D01*
X142331501Y-45858255D01*
X142218255Y-45971501D01*
X142085101Y-46060471D01*
X141937142Y-46121758D01*
X141780075Y-46153000D01*
X141619925Y-46153000D01*
X141462858Y-46121758D01*
X141314899Y-46060471D01*
X141181745Y-45971501D01*
X141068499Y-45858255D01*
X140979529Y-45725101D01*
X140918242Y-45577142D01*
X140887000Y-45420075D01*
X140887000Y-45259925D01*
X140918242Y-45102858D01*
X140979529Y-44954899D01*
X141068499Y-44821745D01*
X141181745Y-44708499D01*
X141314899Y-44619529D01*
X141462858Y-44558242D01*
X141619925Y-44527000D01*
X141780075Y-44527000D01*
X141937142Y-44558242D01*
G37*
G36*
X185117142Y-44558242D02*
G01*
X185265101Y-44619529D01*
X185398255Y-44708499D01*
X185511501Y-44821745D01*
X185600471Y-44954899D01*
X185661758Y-45102858D01*
X185693000Y-45259925D01*
X185693000Y-45420075D01*
X185661758Y-45577142D01*
X185600471Y-45725101D01*
X185511501Y-45858255D01*
X185398255Y-45971501D01*
X185265101Y-46060471D01*
X185117142Y-46121758D01*
X184960075Y-46153000D01*
X184799925Y-46153000D01*
X184642858Y-46121758D01*
X184494899Y-46060471D01*
X184361745Y-45971501D01*
X184248499Y-45858255D01*
X184159529Y-45725101D01*
X184098242Y-45577142D01*
X184067000Y-45420075D01*
X184067000Y-45259925D01*
X184098242Y-45102858D01*
X184159529Y-44954899D01*
X184248499Y-44821745D01*
X184361745Y-44708499D01*
X184494899Y-44619529D01*
X184642858Y-44558242D01*
X184799925Y-44527000D01*
X184960075Y-44527000D01*
X185117142Y-44558242D01*
G37*
G36*
X141937142Y-42018242D02*
G01*
X142085101Y-42079529D01*
X142218255Y-42168499D01*
X142331501Y-42281745D01*
X142420471Y-42414899D01*
X142481758Y-42562858D01*
X142513000Y-42719925D01*
X142513000Y-42880075D01*
X142481758Y-43037142D01*
X142420471Y-43185101D01*
X142331501Y-43318255D01*
X142218255Y-43431501D01*
X142085101Y-43520471D01*
X141937142Y-43581758D01*
X141780075Y-43613000D01*
X141619925Y-43613000D01*
X141462858Y-43581758D01*
X141314899Y-43520471D01*
X141181745Y-43431501D01*
X141068499Y-43318255D01*
X140979529Y-43185101D01*
X140918242Y-43037142D01*
X140887000Y-42880075D01*
X140887000Y-42719925D01*
X140918242Y-42562858D01*
X140979529Y-42414899D01*
X141068499Y-42281745D01*
X141181745Y-42168499D01*
X141314899Y-42079529D01*
X141462858Y-42018242D01*
X141619925Y-41987000D01*
X141780075Y-41987000D01*
X141937142Y-42018242D01*
G37*
G36*
X185117142Y-42018242D02*
G01*
X185265101Y-42079529D01*
X185398255Y-42168499D01*
X185511501Y-42281745D01*
X185600471Y-42414899D01*
X185661758Y-42562858D01*
X185693000Y-42719925D01*
X185693000Y-42880075D01*
X185661758Y-43037142D01*
X185600471Y-43185101D01*
X185511501Y-43318255D01*
X185398255Y-43431501D01*
X185265101Y-43520471D01*
X185117142Y-43581758D01*
X184960075Y-43613000D01*
X184799925Y-43613000D01*
X184642858Y-43581758D01*
X184494899Y-43520471D01*
X184361745Y-43431501D01*
X184248499Y-43318255D01*
X184159529Y-43185101D01*
X184098242Y-43037142D01*
X184067000Y-42880075D01*
X184067000Y-42719925D01*
X184098242Y-42562858D01*
X184159529Y-42414899D01*
X184248499Y-42281745D01*
X184361745Y-42168499D01*
X184494899Y-42079529D01*
X184642858Y-42018242D01*
X184799925Y-41987000D01*
X184960075Y-41987000D01*
X185117142Y-42018242D01*
G37*
M02*
