M48
; DRILL file {KiCad (5.1.5)-3} date 04/08/20 11:42:23
; FORMAT={-:-/ absolute / inch / decimal}
; #@! TF.CreationDate,2020-04-08T11:42:23+02:00
; #@! TF.GenerationSoftware,Kicad,Pcbnew,(5.1.5)-3
; #@! TF.FileFunction,Plated,1,4,PTH
FMAT,2
INCH
T1C0.0098
T2C0.0157
T3C0.0300
T4C0.0394
T5C0.0480
T6C0.0591
T7C0.1181
%
G90
G05
T1
X6.8773Y-3.4324
X6.8773Y-3.5124
X6.9173Y-3.4724
X6.9573Y-3.4324
X6.9573Y-3.5124
T2
X5.9921Y-2.0591
X6.0264Y-2.3504
X6.2677Y-2.0827
X6.3465Y-1.874
X6.6011Y-1.9418
X6.602Y-2.0043
X6.7157Y-3.7437
X6.7559Y-2.4449
X6.7835Y-3.4921
X6.7854Y-3.3169
X6.9094Y-3.3031
X6.9764Y-3.0748
X7.2638Y-3.3508
T3
X5.5787Y-1.685
X5.5787Y-1.785
X5.5787Y-1.885
X5.5787Y-1.985
X5.5787Y-2.085
X5.5787Y-2.185
X5.5787Y-2.285
X5.5787Y-2.385
X7.2787Y-1.685
X7.2787Y-1.785
X7.2787Y-1.885
X7.2787Y-1.985
X7.2787Y-2.085
X7.2787Y-2.185
X7.2787Y-2.285
X7.2787Y-2.385
T4
X6.2638Y-4.5551
X6.2638Y-4.6551
X6.2638Y-4.0827
X6.2638Y-4.1827
X6.2638Y-4.2827
X6.4528Y-3.6047
X6.4528Y-3.7047
X6.4528Y-3.8047
X6.2331Y-3.6047
X6.2331Y-3.7047
X6.2331Y-3.8047
X6.4606Y-4.5591
X6.4606Y-4.6591
T5
X5.5315Y-3.8346
X5.5315Y-4.2283
X6.0236Y-4.0315
T6
X6.9657Y-4.298
X7.0657Y-4.298
T7
X3.8071Y-2.2047
X5.2244Y-2.2047
X7.622Y-2.2362
X9.0394Y-2.2362
X3.811Y-3.1685
X5.2283Y-3.1685
X3.811Y-4.1181
X5.2283Y-4.1181
X7.6181Y-4.1339
X9.0354Y-4.1339
X7.622Y-3.1858
X9.0394Y-3.1858
T0
M30
