G04 #@! TF.GenerationSoftware,KiCad,Pcbnew,(5.1.5)-3*
G04 #@! TF.CreationDate,2020-04-08T11:42:18+02:00*
G04 #@! TF.ProjectId,sensing_PMU,73656e73-696e-4675-9f50-4d552e6b6963,0.0*
G04 #@! TF.SameCoordinates,Original*
G04 #@! TF.FileFunction,Soldermask,Bot*
G04 #@! TF.FilePolarity,Negative*
%FSLAX46Y46*%
G04 Gerber Fmt 4.6, Leading zero omitted, Abs format (unit mm)*
G04 Created by KiCad (PCBNEW (5.1.5)-3) date 2020-04-08 11:42:18*
%MOMM*%
%LPD*%
G04 APERTURE LIST*
%ADD10C,0.100000*%
G04 APERTURE END LIST*
D10*
G36*
X164201531Y-117441544D02*
G01*
X164362812Y-117473624D01*
X164526784Y-117541544D01*
X164674354Y-117640147D01*
X164799853Y-117765646D01*
X164898456Y-117913216D01*
X164966376Y-118077188D01*
X165001000Y-118251259D01*
X165001000Y-118428741D01*
X164966376Y-118602812D01*
X164898456Y-118766784D01*
X164799853Y-118914354D01*
X164674354Y-119039853D01*
X164526784Y-119138456D01*
X164362812Y-119206376D01*
X164213512Y-119236073D01*
X164188742Y-119241000D01*
X164011258Y-119241000D01*
X163986488Y-119236073D01*
X163837188Y-119206376D01*
X163673216Y-119138456D01*
X163525646Y-119039853D01*
X163400147Y-118914354D01*
X163301544Y-118766784D01*
X163233624Y-118602812D01*
X163199000Y-118428741D01*
X163199000Y-118251259D01*
X163233624Y-118077188D01*
X163301544Y-117913216D01*
X163400147Y-117765646D01*
X163525646Y-117640147D01*
X163673216Y-117541544D01*
X163837188Y-117473624D01*
X163998469Y-117441544D01*
X164011258Y-117439000D01*
X164188742Y-117439000D01*
X164201531Y-117441544D01*
G37*
G36*
X159213512Y-117343927D02*
G01*
X159362812Y-117373624D01*
X159526784Y-117441544D01*
X159674354Y-117540147D01*
X159799853Y-117665646D01*
X159898456Y-117813216D01*
X159966376Y-117977188D01*
X160001000Y-118151259D01*
X160001000Y-118328741D01*
X159966376Y-118502812D01*
X159898456Y-118666784D01*
X159799853Y-118814354D01*
X159674354Y-118939853D01*
X159526784Y-119038456D01*
X159362812Y-119106376D01*
X159213512Y-119136073D01*
X159188742Y-119141000D01*
X159011258Y-119141000D01*
X158986488Y-119136073D01*
X158837188Y-119106376D01*
X158673216Y-119038456D01*
X158525646Y-118939853D01*
X158400147Y-118814354D01*
X158301544Y-118666784D01*
X158233624Y-118502812D01*
X158199000Y-118328741D01*
X158199000Y-118151259D01*
X158233624Y-117977188D01*
X158301544Y-117813216D01*
X158400147Y-117665646D01*
X158525646Y-117540147D01*
X158673216Y-117441544D01*
X158837188Y-117373624D01*
X158986488Y-117343927D01*
X159011258Y-117339000D01*
X159188742Y-117339000D01*
X159213512Y-117343927D01*
G37*
G36*
X165001000Y-116701000D02*
G01*
X163199000Y-116701000D01*
X163199000Y-114899000D01*
X165001000Y-114899000D01*
X165001000Y-116701000D01*
G37*
G36*
X160001000Y-116601000D02*
G01*
X158199000Y-116601000D01*
X158199000Y-114799000D01*
X160001000Y-114799000D01*
X160001000Y-116601000D01*
G37*
G36*
X177207395Y-108255546D02*
G01*
X177380466Y-108327234D01*
X177438483Y-108366000D01*
X177536227Y-108431310D01*
X177668690Y-108563773D01*
X177668691Y-108563775D01*
X177772766Y-108719534D01*
X177844454Y-108892605D01*
X177881000Y-109076333D01*
X177881000Y-109263667D01*
X177844454Y-109447395D01*
X177772766Y-109620466D01*
X177772765Y-109620467D01*
X177668690Y-109776227D01*
X177536227Y-109908690D01*
X177457818Y-109961081D01*
X177380466Y-110012766D01*
X177207395Y-110084454D01*
X177023667Y-110121000D01*
X176836333Y-110121000D01*
X176652605Y-110084454D01*
X176479534Y-110012766D01*
X176402182Y-109961081D01*
X176323773Y-109908690D01*
X176191310Y-109776227D01*
X176087235Y-109620467D01*
X176087234Y-109620466D01*
X176015546Y-109447395D01*
X175979000Y-109263667D01*
X175979000Y-109076333D01*
X176015546Y-108892605D01*
X176087234Y-108719534D01*
X176191309Y-108563775D01*
X176191310Y-108563773D01*
X176323773Y-108431310D01*
X176421517Y-108366000D01*
X176479534Y-108327234D01*
X176652605Y-108255546D01*
X176836333Y-108219000D01*
X177023667Y-108219000D01*
X177207395Y-108255546D01*
G37*
G36*
X179747395Y-108255546D02*
G01*
X179920466Y-108327234D01*
X179978483Y-108366000D01*
X180076227Y-108431310D01*
X180208690Y-108563773D01*
X180208691Y-108563775D01*
X180312766Y-108719534D01*
X180384454Y-108892605D01*
X180421000Y-109076333D01*
X180421000Y-109263667D01*
X180384454Y-109447395D01*
X180312766Y-109620466D01*
X180312765Y-109620467D01*
X180208690Y-109776227D01*
X180076227Y-109908690D01*
X179997818Y-109961081D01*
X179920466Y-110012766D01*
X179747395Y-110084454D01*
X179563667Y-110121000D01*
X179376333Y-110121000D01*
X179192605Y-110084454D01*
X179019534Y-110012766D01*
X178942182Y-109961081D01*
X178863773Y-109908690D01*
X178731310Y-109776227D01*
X178627235Y-109620467D01*
X178627234Y-109620466D01*
X178555546Y-109447395D01*
X178519000Y-109263667D01*
X178519000Y-109076333D01*
X178555546Y-108892605D01*
X178627234Y-108719534D01*
X178731309Y-108563775D01*
X178731310Y-108563773D01*
X178863773Y-108431310D01*
X178961517Y-108366000D01*
X179019534Y-108327234D01*
X179192605Y-108255546D01*
X179376333Y-108219000D01*
X179563667Y-108219000D01*
X179747395Y-108255546D01*
G37*
G36*
X159213512Y-107883927D02*
G01*
X159362812Y-107913624D01*
X159526784Y-107981544D01*
X159674354Y-108080147D01*
X159799853Y-108205646D01*
X159898456Y-108353216D01*
X159966376Y-108517188D01*
X160001000Y-108691259D01*
X160001000Y-108868741D01*
X159966376Y-109042812D01*
X159898456Y-109206784D01*
X159799853Y-109354354D01*
X159674354Y-109479853D01*
X159526784Y-109578456D01*
X159362812Y-109646376D01*
X159213512Y-109676073D01*
X159188742Y-109681000D01*
X159011258Y-109681000D01*
X158986488Y-109676073D01*
X158837188Y-109646376D01*
X158673216Y-109578456D01*
X158525646Y-109479853D01*
X158400147Y-109354354D01*
X158301544Y-109206784D01*
X158233624Y-109042812D01*
X158199000Y-108868741D01*
X158199000Y-108691259D01*
X158233624Y-108517188D01*
X158301544Y-108353216D01*
X158400147Y-108205646D01*
X158525646Y-108080147D01*
X158673216Y-107981544D01*
X158837188Y-107913624D01*
X158986488Y-107883927D01*
X159011258Y-107879000D01*
X159188742Y-107879000D01*
X159213512Y-107883927D01*
G37*
G36*
X140781771Y-106471122D02*
G01*
X140957571Y-106543941D01*
X140957573Y-106543942D01*
X141115789Y-106649659D01*
X141250341Y-106784211D01*
X141354337Y-106939852D01*
X141356059Y-106942429D01*
X141428878Y-107118229D01*
X141466000Y-107304856D01*
X141466000Y-107495144D01*
X141428878Y-107681771D01*
X141356059Y-107857571D01*
X141356058Y-107857573D01*
X141250341Y-108015789D01*
X141115789Y-108150341D01*
X140957573Y-108256058D01*
X140957572Y-108256059D01*
X140957571Y-108256059D01*
X140781771Y-108328878D01*
X140595144Y-108366000D01*
X140404856Y-108366000D01*
X140218229Y-108328878D01*
X140042429Y-108256059D01*
X140042428Y-108256059D01*
X140042427Y-108256058D01*
X139884211Y-108150341D01*
X139749659Y-108015789D01*
X139643942Y-107857573D01*
X139643941Y-107857571D01*
X139571122Y-107681771D01*
X139534000Y-107495144D01*
X139534000Y-107304856D01*
X139571122Y-107118229D01*
X139643941Y-106942429D01*
X139645663Y-106939852D01*
X139749659Y-106784211D01*
X139884211Y-106649659D01*
X140042427Y-106543942D01*
X140042429Y-106543941D01*
X140218229Y-106471122D01*
X140404856Y-106434000D01*
X140595144Y-106434000D01*
X140781771Y-106471122D01*
G37*
G36*
X159213512Y-105343927D02*
G01*
X159362812Y-105373624D01*
X159526784Y-105441544D01*
X159674354Y-105540147D01*
X159799853Y-105665646D01*
X159898456Y-105813216D01*
X159966376Y-105977188D01*
X160001000Y-106151259D01*
X160001000Y-106328741D01*
X159966376Y-106502812D01*
X159898456Y-106666784D01*
X159799853Y-106814354D01*
X159674354Y-106939853D01*
X159526784Y-107038456D01*
X159362812Y-107106376D01*
X159213512Y-107136073D01*
X159188742Y-107141000D01*
X159011258Y-107141000D01*
X158986488Y-107136073D01*
X158837188Y-107106376D01*
X158673216Y-107038456D01*
X158525646Y-106939853D01*
X158400147Y-106814354D01*
X158301544Y-106666784D01*
X158233624Y-106502812D01*
X158199000Y-106328741D01*
X158199000Y-106151259D01*
X158233624Y-105977188D01*
X158301544Y-105813216D01*
X158400147Y-105665646D01*
X158525646Y-105540147D01*
X158673216Y-105441544D01*
X158837188Y-105373624D01*
X158986488Y-105343927D01*
X159011258Y-105339000D01*
X159188742Y-105339000D01*
X159213512Y-105343927D01*
G37*
G36*
X194098254Y-103027818D02*
G01*
X194394053Y-103150342D01*
X194471513Y-103182427D01*
X194807436Y-103406884D01*
X195093116Y-103692564D01*
X195299705Y-104001745D01*
X195317574Y-104028489D01*
X195472182Y-104401746D01*
X195551000Y-104797993D01*
X195551000Y-105202007D01*
X195472182Y-105598254D01*
X195317574Y-105971511D01*
X195317573Y-105971513D01*
X195093116Y-106307436D01*
X194807436Y-106593116D01*
X194471513Y-106817573D01*
X194471512Y-106817574D01*
X194471511Y-106817574D01*
X194098254Y-106972182D01*
X193702007Y-107051000D01*
X193297993Y-107051000D01*
X192901746Y-106972182D01*
X192528489Y-106817574D01*
X192528488Y-106817574D01*
X192528487Y-106817573D01*
X192192564Y-106593116D01*
X191906884Y-106307436D01*
X191682427Y-105971513D01*
X191682426Y-105971511D01*
X191527818Y-105598254D01*
X191449000Y-105202007D01*
X191449000Y-104797993D01*
X191527818Y-104401746D01*
X191682426Y-104028489D01*
X191700296Y-104001745D01*
X191906884Y-103692564D01*
X192192564Y-103406884D01*
X192528487Y-103182427D01*
X192605947Y-103150342D01*
X192901746Y-103027818D01*
X193297993Y-102949000D01*
X193702007Y-102949000D01*
X194098254Y-103027818D01*
G37*
G36*
X230098254Y-103027818D02*
G01*
X230394053Y-103150342D01*
X230471513Y-103182427D01*
X230807436Y-103406884D01*
X231093116Y-103692564D01*
X231299705Y-104001745D01*
X231317574Y-104028489D01*
X231472182Y-104401746D01*
X231551000Y-104797993D01*
X231551000Y-105202007D01*
X231472182Y-105598254D01*
X231317574Y-105971511D01*
X231317573Y-105971513D01*
X231093116Y-106307436D01*
X230807436Y-106593116D01*
X230471513Y-106817573D01*
X230471512Y-106817574D01*
X230471511Y-106817574D01*
X230098254Y-106972182D01*
X229702007Y-107051000D01*
X229297993Y-107051000D01*
X228901746Y-106972182D01*
X228528489Y-106817574D01*
X228528488Y-106817574D01*
X228528487Y-106817573D01*
X228192564Y-106593116D01*
X227906884Y-106307436D01*
X227682427Y-105971513D01*
X227682426Y-105971511D01*
X227527818Y-105598254D01*
X227449000Y-105202007D01*
X227449000Y-104797993D01*
X227527818Y-104401746D01*
X227682426Y-104028489D01*
X227700296Y-104001745D01*
X227906884Y-103692564D01*
X228192564Y-103406884D01*
X228528487Y-103182427D01*
X228605947Y-103150342D01*
X228901746Y-103027818D01*
X229297993Y-102949000D01*
X229702007Y-102949000D01*
X230098254Y-103027818D01*
G37*
G36*
X133398254Y-102627818D02*
G01*
X133771511Y-102782426D01*
X133771513Y-102782427D01*
X134020807Y-102949000D01*
X134107436Y-103006884D01*
X134393116Y-103292564D01*
X134617574Y-103628489D01*
X134772182Y-104001746D01*
X134851000Y-104397993D01*
X134851000Y-104802007D01*
X134772182Y-105198254D01*
X134770627Y-105202007D01*
X134617573Y-105571513D01*
X134393116Y-105907436D01*
X134107436Y-106193116D01*
X133771513Y-106417573D01*
X133771512Y-106417574D01*
X133771511Y-106417574D01*
X133398254Y-106572182D01*
X133002007Y-106651000D01*
X132597993Y-106651000D01*
X132201746Y-106572182D01*
X131828489Y-106417574D01*
X131828488Y-106417574D01*
X131828487Y-106417573D01*
X131492564Y-106193116D01*
X131206884Y-105907436D01*
X130982427Y-105571513D01*
X130829373Y-105202007D01*
X130827818Y-105198254D01*
X130749000Y-104802007D01*
X130749000Y-104397993D01*
X130827818Y-104001746D01*
X130982426Y-103628489D01*
X131206884Y-103292564D01*
X131492564Y-103006884D01*
X131579193Y-102949000D01*
X131828487Y-102782427D01*
X131828489Y-102782426D01*
X132201746Y-102627818D01*
X132597993Y-102549000D01*
X133002007Y-102549000D01*
X133398254Y-102627818D01*
G37*
G36*
X97398254Y-102627818D02*
G01*
X97771511Y-102782426D01*
X97771513Y-102782427D01*
X98020807Y-102949000D01*
X98107436Y-103006884D01*
X98393116Y-103292564D01*
X98617574Y-103628489D01*
X98772182Y-104001746D01*
X98851000Y-104397993D01*
X98851000Y-104802007D01*
X98772182Y-105198254D01*
X98770627Y-105202007D01*
X98617573Y-105571513D01*
X98393116Y-105907436D01*
X98107436Y-106193116D01*
X97771513Y-106417573D01*
X97771512Y-106417574D01*
X97771511Y-106417574D01*
X97398254Y-106572182D01*
X97002007Y-106651000D01*
X96597993Y-106651000D01*
X96201746Y-106572182D01*
X95828489Y-106417574D01*
X95828488Y-106417574D01*
X95828487Y-106417573D01*
X95492564Y-106193116D01*
X95206884Y-105907436D01*
X94982427Y-105571513D01*
X94829373Y-105202007D01*
X94827818Y-105198254D01*
X94749000Y-104802007D01*
X94749000Y-104397993D01*
X94827818Y-104001746D01*
X94982426Y-103628489D01*
X95206884Y-103292564D01*
X95492564Y-103006884D01*
X95579193Y-102949000D01*
X95828487Y-102782427D01*
X95828489Y-102782426D01*
X96201746Y-102627818D01*
X96597993Y-102549000D01*
X97002007Y-102549000D01*
X97398254Y-102627818D01*
G37*
G36*
X160001000Y-104601000D02*
G01*
X158199000Y-104601000D01*
X158199000Y-102799000D01*
X160001000Y-102799000D01*
X160001000Y-104601000D01*
G37*
G36*
X153281771Y-101471122D02*
G01*
X153457571Y-101543941D01*
X153457573Y-101543942D01*
X153615789Y-101649659D01*
X153750341Y-101784211D01*
X153750342Y-101784213D01*
X153856059Y-101942429D01*
X153928878Y-102118229D01*
X153966000Y-102304856D01*
X153966000Y-102495144D01*
X153928878Y-102681771D01*
X153880320Y-102799000D01*
X153856058Y-102857573D01*
X153750341Y-103015789D01*
X153615789Y-103150341D01*
X153457573Y-103256058D01*
X153457572Y-103256059D01*
X153457571Y-103256059D01*
X153281771Y-103328878D01*
X153095144Y-103366000D01*
X152904856Y-103366000D01*
X152718229Y-103328878D01*
X152542429Y-103256059D01*
X152542428Y-103256059D01*
X152542427Y-103256058D01*
X152384211Y-103150341D01*
X152249659Y-103015789D01*
X152143942Y-102857573D01*
X152119680Y-102799000D01*
X152071122Y-102681771D01*
X152034000Y-102495144D01*
X152034000Y-102304856D01*
X152071122Y-102118229D01*
X152143941Y-101942429D01*
X152249658Y-101784213D01*
X152249659Y-101784211D01*
X152384211Y-101649659D01*
X152542427Y-101543942D01*
X152542429Y-101543941D01*
X152718229Y-101471122D01*
X152904856Y-101434000D01*
X153095144Y-101434000D01*
X153281771Y-101471122D01*
G37*
G36*
X140781771Y-96471122D02*
G01*
X140957571Y-96543941D01*
X140957573Y-96543942D01*
X141115789Y-96649659D01*
X141250341Y-96784211D01*
X141250342Y-96784213D01*
X141356059Y-96942429D01*
X141428878Y-97118229D01*
X141466000Y-97304856D01*
X141466000Y-97495144D01*
X141428878Y-97681771D01*
X141356059Y-97857571D01*
X141356058Y-97857573D01*
X141250341Y-98015789D01*
X141115789Y-98150341D01*
X140957573Y-98256058D01*
X140957572Y-98256059D01*
X140957571Y-98256059D01*
X140781771Y-98328878D01*
X140595144Y-98366000D01*
X140404856Y-98366000D01*
X140218229Y-98328878D01*
X140042429Y-98256059D01*
X140042428Y-98256059D01*
X140042427Y-98256058D01*
X139884211Y-98150341D01*
X139749659Y-98015789D01*
X139643942Y-97857573D01*
X139643941Y-97857571D01*
X139571122Y-97681771D01*
X139534000Y-97495144D01*
X139534000Y-97304856D01*
X139571122Y-97118229D01*
X139643941Y-96942429D01*
X139749658Y-96784213D01*
X139749659Y-96784211D01*
X139884211Y-96649659D01*
X140042427Y-96543942D01*
X140042429Y-96543941D01*
X140218229Y-96471122D01*
X140404856Y-96434000D01*
X140595144Y-96434000D01*
X140781771Y-96471122D01*
G37*
G36*
X164013512Y-95743927D02*
G01*
X164162812Y-95773624D01*
X164326784Y-95841544D01*
X164474354Y-95940147D01*
X164599853Y-96065646D01*
X164698456Y-96213216D01*
X164766376Y-96377188D01*
X164777676Y-96434000D01*
X164799545Y-96543941D01*
X164801000Y-96551259D01*
X164801000Y-96728741D01*
X164766376Y-96902812D01*
X164698456Y-97066784D01*
X164599853Y-97214354D01*
X164474354Y-97339853D01*
X164326784Y-97438456D01*
X164162812Y-97506376D01*
X164013512Y-97536073D01*
X163988742Y-97541000D01*
X163811258Y-97541000D01*
X163786488Y-97536073D01*
X163637188Y-97506376D01*
X163473216Y-97438456D01*
X163325646Y-97339853D01*
X163200147Y-97214354D01*
X163101544Y-97066784D01*
X163033624Y-96902812D01*
X162999000Y-96728741D01*
X162999000Y-96551259D01*
X163000456Y-96543941D01*
X163022324Y-96434000D01*
X163033624Y-96377188D01*
X163101544Y-96213216D01*
X163200147Y-96065646D01*
X163325646Y-95940147D01*
X163473216Y-95841544D01*
X163637188Y-95773624D01*
X163786488Y-95743927D01*
X163811258Y-95739000D01*
X163988742Y-95739000D01*
X164013512Y-95743927D01*
G37*
G36*
X158433512Y-95743927D02*
G01*
X158582812Y-95773624D01*
X158746784Y-95841544D01*
X158894354Y-95940147D01*
X159019853Y-96065646D01*
X159118456Y-96213216D01*
X159186376Y-96377188D01*
X159197676Y-96434000D01*
X159219545Y-96543941D01*
X159221000Y-96551259D01*
X159221000Y-96728741D01*
X159186376Y-96902812D01*
X159118456Y-97066784D01*
X159019853Y-97214354D01*
X158894354Y-97339853D01*
X158746784Y-97438456D01*
X158582812Y-97506376D01*
X158433512Y-97536073D01*
X158408742Y-97541000D01*
X158231258Y-97541000D01*
X158206488Y-97536073D01*
X158057188Y-97506376D01*
X157893216Y-97438456D01*
X157745646Y-97339853D01*
X157620147Y-97214354D01*
X157521544Y-97066784D01*
X157453624Y-96902812D01*
X157419000Y-96728741D01*
X157419000Y-96551259D01*
X157420456Y-96543941D01*
X157442324Y-96434000D01*
X157453624Y-96377188D01*
X157521544Y-96213216D01*
X157620147Y-96065646D01*
X157745646Y-95940147D01*
X157893216Y-95841544D01*
X158057188Y-95773624D01*
X158206488Y-95743927D01*
X158231258Y-95739000D01*
X158408742Y-95739000D01*
X158433512Y-95743927D01*
G37*
G36*
X164013512Y-93203927D02*
G01*
X164162812Y-93233624D01*
X164326784Y-93301544D01*
X164474354Y-93400147D01*
X164599853Y-93525646D01*
X164698456Y-93673216D01*
X164766376Y-93837188D01*
X164801000Y-94011259D01*
X164801000Y-94188741D01*
X164766376Y-94362812D01*
X164698456Y-94526784D01*
X164599853Y-94674354D01*
X164474354Y-94799853D01*
X164326784Y-94898456D01*
X164162812Y-94966376D01*
X164013512Y-94996073D01*
X163988742Y-95001000D01*
X163811258Y-95001000D01*
X163786488Y-94996073D01*
X163637188Y-94966376D01*
X163473216Y-94898456D01*
X163325646Y-94799853D01*
X163200147Y-94674354D01*
X163101544Y-94526784D01*
X163033624Y-94362812D01*
X162999000Y-94188741D01*
X162999000Y-94011259D01*
X163033624Y-93837188D01*
X163101544Y-93673216D01*
X163200147Y-93525646D01*
X163325646Y-93400147D01*
X163473216Y-93301544D01*
X163637188Y-93233624D01*
X163786488Y-93203927D01*
X163811258Y-93199000D01*
X163988742Y-93199000D01*
X164013512Y-93203927D01*
G37*
G36*
X158433512Y-93203927D02*
G01*
X158582812Y-93233624D01*
X158746784Y-93301544D01*
X158894354Y-93400147D01*
X159019853Y-93525646D01*
X159118456Y-93673216D01*
X159186376Y-93837188D01*
X159221000Y-94011259D01*
X159221000Y-94188741D01*
X159186376Y-94362812D01*
X159118456Y-94526784D01*
X159019853Y-94674354D01*
X158894354Y-94799853D01*
X158746784Y-94898456D01*
X158582812Y-94966376D01*
X158433512Y-94996073D01*
X158408742Y-95001000D01*
X158231258Y-95001000D01*
X158206488Y-94996073D01*
X158057188Y-94966376D01*
X157893216Y-94898456D01*
X157745646Y-94799853D01*
X157620147Y-94674354D01*
X157521544Y-94526784D01*
X157453624Y-94362812D01*
X157419000Y-94188741D01*
X157419000Y-94011259D01*
X157453624Y-93837188D01*
X157521544Y-93673216D01*
X157620147Y-93525646D01*
X157745646Y-93400147D01*
X157893216Y-93301544D01*
X158057188Y-93233624D01*
X158206488Y-93203927D01*
X158231258Y-93199000D01*
X158408742Y-93199000D01*
X158433512Y-93203927D01*
G37*
G36*
X159221000Y-92461000D02*
G01*
X157419000Y-92461000D01*
X157419000Y-90659000D01*
X159221000Y-90659000D01*
X159221000Y-92461000D01*
G37*
G36*
X164801000Y-92461000D02*
G01*
X162999000Y-92461000D01*
X162999000Y-90659000D01*
X164801000Y-90659000D01*
X164801000Y-92461000D01*
G37*
G36*
X194198254Y-78947818D02*
G01*
X194571511Y-79102426D01*
X194571513Y-79102427D01*
X194676480Y-79172564D01*
X194907436Y-79326884D01*
X195193116Y-79612564D01*
X195417574Y-79948489D01*
X195572182Y-80321746D01*
X195651000Y-80717993D01*
X195651000Y-81122007D01*
X195572182Y-81518254D01*
X195460683Y-81787436D01*
X195417573Y-81891513D01*
X195193116Y-82227436D01*
X194907436Y-82513116D01*
X194571513Y-82737573D01*
X194571512Y-82737574D01*
X194571511Y-82737574D01*
X194198254Y-82892182D01*
X193802007Y-82971000D01*
X193397993Y-82971000D01*
X193001746Y-82892182D01*
X192628489Y-82737574D01*
X192628488Y-82737574D01*
X192628487Y-82737573D01*
X192292564Y-82513116D01*
X192006884Y-82227436D01*
X191782427Y-81891513D01*
X191739317Y-81787436D01*
X191627818Y-81518254D01*
X191549000Y-81122007D01*
X191549000Y-80717993D01*
X191627818Y-80321746D01*
X191782426Y-79948489D01*
X192006884Y-79612564D01*
X192292564Y-79326884D01*
X192523520Y-79172564D01*
X192628487Y-79102427D01*
X192628489Y-79102426D01*
X193001746Y-78947818D01*
X193397993Y-78869000D01*
X193802007Y-78869000D01*
X194198254Y-78947818D01*
G37*
G36*
X230198254Y-78947818D02*
G01*
X230571511Y-79102426D01*
X230571513Y-79102427D01*
X230676480Y-79172564D01*
X230907436Y-79326884D01*
X231193116Y-79612564D01*
X231417574Y-79948489D01*
X231572182Y-80321746D01*
X231651000Y-80717993D01*
X231651000Y-81122007D01*
X231572182Y-81518254D01*
X231460683Y-81787436D01*
X231417573Y-81891513D01*
X231193116Y-82227436D01*
X230907436Y-82513116D01*
X230571513Y-82737573D01*
X230571512Y-82737574D01*
X230571511Y-82737574D01*
X230198254Y-82892182D01*
X229802007Y-82971000D01*
X229397993Y-82971000D01*
X229001746Y-82892182D01*
X228628489Y-82737574D01*
X228628488Y-82737574D01*
X228628487Y-82737573D01*
X228292564Y-82513116D01*
X228006884Y-82227436D01*
X227782427Y-81891513D01*
X227739317Y-81787436D01*
X227627818Y-81518254D01*
X227549000Y-81122007D01*
X227549000Y-80717993D01*
X227627818Y-80321746D01*
X227782426Y-79948489D01*
X228006884Y-79612564D01*
X228292564Y-79326884D01*
X228523520Y-79172564D01*
X228628487Y-79102427D01*
X228628489Y-79102426D01*
X229001746Y-78947818D01*
X229397993Y-78869000D01*
X229802007Y-78869000D01*
X230198254Y-78947818D01*
G37*
G36*
X133398254Y-78507818D02*
G01*
X133771511Y-78662426D01*
X133771513Y-78662427D01*
X134107436Y-78886884D01*
X134393116Y-79172564D01*
X134496230Y-79326884D01*
X134617574Y-79508489D01*
X134772182Y-79881746D01*
X134851000Y-80277993D01*
X134851000Y-80682007D01*
X134772182Y-81078254D01*
X134617574Y-81451511D01*
X134617573Y-81451513D01*
X134393116Y-81787436D01*
X134107436Y-82073116D01*
X133771513Y-82297573D01*
X133771512Y-82297574D01*
X133771511Y-82297574D01*
X133398254Y-82452182D01*
X133002007Y-82531000D01*
X132597993Y-82531000D01*
X132201746Y-82452182D01*
X131828489Y-82297574D01*
X131828488Y-82297574D01*
X131828487Y-82297573D01*
X131492564Y-82073116D01*
X131206884Y-81787436D01*
X130982427Y-81451513D01*
X130982426Y-81451511D01*
X130827818Y-81078254D01*
X130749000Y-80682007D01*
X130749000Y-80277993D01*
X130827818Y-79881746D01*
X130982426Y-79508489D01*
X131103771Y-79326884D01*
X131206884Y-79172564D01*
X131492564Y-78886884D01*
X131828487Y-78662427D01*
X131828489Y-78662426D01*
X132201746Y-78507818D01*
X132597993Y-78429000D01*
X133002007Y-78429000D01*
X133398254Y-78507818D01*
G37*
G36*
X97398254Y-78507818D02*
G01*
X97771511Y-78662426D01*
X97771513Y-78662427D01*
X98107436Y-78886884D01*
X98393116Y-79172564D01*
X98496230Y-79326884D01*
X98617574Y-79508489D01*
X98772182Y-79881746D01*
X98851000Y-80277993D01*
X98851000Y-80682007D01*
X98772182Y-81078254D01*
X98617574Y-81451511D01*
X98617573Y-81451513D01*
X98393116Y-81787436D01*
X98107436Y-82073116D01*
X97771513Y-82297573D01*
X97771512Y-82297574D01*
X97771511Y-82297574D01*
X97398254Y-82452182D01*
X97002007Y-82531000D01*
X96597993Y-82531000D01*
X96201746Y-82452182D01*
X95828489Y-82297574D01*
X95828488Y-82297574D01*
X95828487Y-82297573D01*
X95492564Y-82073116D01*
X95206884Y-81787436D01*
X94982427Y-81451513D01*
X94982426Y-81451511D01*
X94827818Y-81078254D01*
X94749000Y-80682007D01*
X94749000Y-80277993D01*
X94827818Y-79881746D01*
X94982426Y-79508489D01*
X95103771Y-79326884D01*
X95206884Y-79172564D01*
X95492564Y-78886884D01*
X95828487Y-78662427D01*
X95828489Y-78662426D01*
X96201746Y-78507818D01*
X96597993Y-78429000D01*
X97002007Y-78429000D01*
X97398254Y-78507818D01*
G37*
G36*
X185117142Y-59798242D02*
G01*
X185265101Y-59859529D01*
X185398255Y-59948499D01*
X185511501Y-60061745D01*
X185600471Y-60194899D01*
X185661758Y-60342858D01*
X185693000Y-60499925D01*
X185693000Y-60660075D01*
X185661758Y-60817142D01*
X185600471Y-60965101D01*
X185511501Y-61098255D01*
X185398255Y-61211501D01*
X185265101Y-61300471D01*
X185117142Y-61361758D01*
X184960075Y-61393000D01*
X184799925Y-61393000D01*
X184642858Y-61361758D01*
X184494899Y-61300471D01*
X184361745Y-61211501D01*
X184248499Y-61098255D01*
X184159529Y-60965101D01*
X184098242Y-60817142D01*
X184067000Y-60660075D01*
X184067000Y-60499925D01*
X184098242Y-60342858D01*
X184159529Y-60194899D01*
X184248499Y-60061745D01*
X184361745Y-59948499D01*
X184494899Y-59859529D01*
X184642858Y-59798242D01*
X184799925Y-59767000D01*
X184960075Y-59767000D01*
X185117142Y-59798242D01*
G37*
G36*
X141937142Y-59798242D02*
G01*
X142085101Y-59859529D01*
X142218255Y-59948499D01*
X142331501Y-60061745D01*
X142420471Y-60194899D01*
X142481758Y-60342858D01*
X142513000Y-60499925D01*
X142513000Y-60660075D01*
X142481758Y-60817142D01*
X142420471Y-60965101D01*
X142331501Y-61098255D01*
X142218255Y-61211501D01*
X142085101Y-61300471D01*
X141937142Y-61361758D01*
X141780075Y-61393000D01*
X141619925Y-61393000D01*
X141462858Y-61361758D01*
X141314899Y-61300471D01*
X141181745Y-61211501D01*
X141068499Y-61098255D01*
X140979529Y-60965101D01*
X140918242Y-60817142D01*
X140887000Y-60660075D01*
X140887000Y-60499925D01*
X140918242Y-60342858D01*
X140979529Y-60194899D01*
X141068499Y-60061745D01*
X141181745Y-59948499D01*
X141314899Y-59859529D01*
X141462858Y-59798242D01*
X141619925Y-59767000D01*
X141780075Y-59767000D01*
X141937142Y-59798242D01*
G37*
G36*
X141937142Y-57258242D02*
G01*
X142085101Y-57319529D01*
X142218255Y-57408499D01*
X142331501Y-57521745D01*
X142420471Y-57654899D01*
X142481758Y-57802858D01*
X142513000Y-57959925D01*
X142513000Y-58120075D01*
X142481758Y-58277142D01*
X142420471Y-58425101D01*
X142331501Y-58558255D01*
X142218255Y-58671501D01*
X142085101Y-58760471D01*
X141937142Y-58821758D01*
X141780075Y-58853000D01*
X141619925Y-58853000D01*
X141462858Y-58821758D01*
X141314899Y-58760471D01*
X141181745Y-58671501D01*
X141068499Y-58558255D01*
X140979529Y-58425101D01*
X140918242Y-58277142D01*
X140887000Y-58120075D01*
X140887000Y-57959925D01*
X140918242Y-57802858D01*
X140979529Y-57654899D01*
X141068499Y-57521745D01*
X141181745Y-57408499D01*
X141314899Y-57319529D01*
X141462858Y-57258242D01*
X141619925Y-57227000D01*
X141780075Y-57227000D01*
X141937142Y-57258242D01*
G37*
G36*
X185117142Y-57258242D02*
G01*
X185265101Y-57319529D01*
X185398255Y-57408499D01*
X185511501Y-57521745D01*
X185600471Y-57654899D01*
X185661758Y-57802858D01*
X185693000Y-57959925D01*
X185693000Y-58120075D01*
X185661758Y-58277142D01*
X185600471Y-58425101D01*
X185511501Y-58558255D01*
X185398255Y-58671501D01*
X185265101Y-58760471D01*
X185117142Y-58821758D01*
X184960075Y-58853000D01*
X184799925Y-58853000D01*
X184642858Y-58821758D01*
X184494899Y-58760471D01*
X184361745Y-58671501D01*
X184248499Y-58558255D01*
X184159529Y-58425101D01*
X184098242Y-58277142D01*
X184067000Y-58120075D01*
X184067000Y-57959925D01*
X184098242Y-57802858D01*
X184159529Y-57654899D01*
X184248499Y-57521745D01*
X184361745Y-57408499D01*
X184494899Y-57319529D01*
X184642858Y-57258242D01*
X184799925Y-57227000D01*
X184960075Y-57227000D01*
X185117142Y-57258242D01*
G37*
G36*
X230198254Y-54827818D02*
G01*
X230569862Y-54981743D01*
X230571513Y-54982427D01*
X230907436Y-55206884D01*
X231193116Y-55492564D01*
X231397198Y-55797993D01*
X231417574Y-55828489D01*
X231572182Y-56201746D01*
X231651000Y-56597993D01*
X231651000Y-57002007D01*
X231572182Y-57398254D01*
X231465876Y-57654899D01*
X231417573Y-57771513D01*
X231193116Y-58107436D01*
X230907436Y-58393116D01*
X230571513Y-58617573D01*
X230571512Y-58617574D01*
X230571511Y-58617574D01*
X230198254Y-58772182D01*
X229802007Y-58851000D01*
X229397993Y-58851000D01*
X229001746Y-58772182D01*
X228628489Y-58617574D01*
X228628488Y-58617574D01*
X228628487Y-58617573D01*
X228292564Y-58393116D01*
X228006884Y-58107436D01*
X227782427Y-57771513D01*
X227734124Y-57654899D01*
X227627818Y-57398254D01*
X227549000Y-57002007D01*
X227549000Y-56597993D01*
X227627818Y-56201746D01*
X227782426Y-55828489D01*
X227802803Y-55797993D01*
X228006884Y-55492564D01*
X228292564Y-55206884D01*
X228628487Y-54982427D01*
X228630138Y-54981743D01*
X229001746Y-54827818D01*
X229397993Y-54749000D01*
X229802007Y-54749000D01*
X230198254Y-54827818D01*
G37*
G36*
X194198254Y-54827818D02*
G01*
X194569862Y-54981743D01*
X194571513Y-54982427D01*
X194907436Y-55206884D01*
X195193116Y-55492564D01*
X195397198Y-55797993D01*
X195417574Y-55828489D01*
X195572182Y-56201746D01*
X195651000Y-56597993D01*
X195651000Y-57002007D01*
X195572182Y-57398254D01*
X195465876Y-57654899D01*
X195417573Y-57771513D01*
X195193116Y-58107436D01*
X194907436Y-58393116D01*
X194571513Y-58617573D01*
X194571512Y-58617574D01*
X194571511Y-58617574D01*
X194198254Y-58772182D01*
X193802007Y-58851000D01*
X193397993Y-58851000D01*
X193001746Y-58772182D01*
X192628489Y-58617574D01*
X192628488Y-58617574D01*
X192628487Y-58617573D01*
X192292564Y-58393116D01*
X192006884Y-58107436D01*
X191782427Y-57771513D01*
X191734124Y-57654899D01*
X191627818Y-57398254D01*
X191549000Y-57002007D01*
X191549000Y-56597993D01*
X191627818Y-56201746D01*
X191782426Y-55828489D01*
X191802803Y-55797993D01*
X192006884Y-55492564D01*
X192292564Y-55206884D01*
X192628487Y-54982427D01*
X192630138Y-54981743D01*
X193001746Y-54827818D01*
X193397993Y-54749000D01*
X193802007Y-54749000D01*
X194198254Y-54827818D01*
G37*
G36*
X133298254Y-54027818D02*
G01*
X133671511Y-54182426D01*
X133671513Y-54182427D01*
X134007436Y-54406884D01*
X134293116Y-54692564D01*
X134486797Y-54982427D01*
X134517574Y-55028489D01*
X134672182Y-55401746D01*
X134751000Y-55797993D01*
X134751000Y-56202007D01*
X134672182Y-56598254D01*
X134517574Y-56971511D01*
X134517573Y-56971513D01*
X134293116Y-57307436D01*
X134007436Y-57593116D01*
X133671513Y-57817573D01*
X133671512Y-57817574D01*
X133671511Y-57817574D01*
X133298254Y-57972182D01*
X132902007Y-58051000D01*
X132497993Y-58051000D01*
X132101746Y-57972182D01*
X131728489Y-57817574D01*
X131728488Y-57817574D01*
X131728487Y-57817573D01*
X131392564Y-57593116D01*
X131106884Y-57307436D01*
X130882427Y-56971513D01*
X130882426Y-56971511D01*
X130727818Y-56598254D01*
X130649000Y-56202007D01*
X130649000Y-55797993D01*
X130727818Y-55401746D01*
X130882426Y-55028489D01*
X130913204Y-54982427D01*
X131106884Y-54692564D01*
X131392564Y-54406884D01*
X131728487Y-54182427D01*
X131728489Y-54182426D01*
X132101746Y-54027818D01*
X132497993Y-53949000D01*
X132902007Y-53949000D01*
X133298254Y-54027818D01*
G37*
G36*
X97298254Y-54027818D02*
G01*
X97671511Y-54182426D01*
X97671513Y-54182427D01*
X98007436Y-54406884D01*
X98293116Y-54692564D01*
X98486797Y-54982427D01*
X98517574Y-55028489D01*
X98672182Y-55401746D01*
X98751000Y-55797993D01*
X98751000Y-56202007D01*
X98672182Y-56598254D01*
X98517574Y-56971511D01*
X98517573Y-56971513D01*
X98293116Y-57307436D01*
X98007436Y-57593116D01*
X97671513Y-57817573D01*
X97671512Y-57817574D01*
X97671511Y-57817574D01*
X97298254Y-57972182D01*
X96902007Y-58051000D01*
X96497993Y-58051000D01*
X96101746Y-57972182D01*
X95728489Y-57817574D01*
X95728488Y-57817574D01*
X95728487Y-57817573D01*
X95392564Y-57593116D01*
X95106884Y-57307436D01*
X94882427Y-56971513D01*
X94882426Y-56971511D01*
X94727818Y-56598254D01*
X94649000Y-56202007D01*
X94649000Y-55797993D01*
X94727818Y-55401746D01*
X94882426Y-55028489D01*
X94913204Y-54982427D01*
X95106884Y-54692564D01*
X95392564Y-54406884D01*
X95728487Y-54182427D01*
X95728489Y-54182426D01*
X96101746Y-54027818D01*
X96497993Y-53949000D01*
X96902007Y-53949000D01*
X97298254Y-54027818D01*
G37*
G36*
X141937142Y-54718242D02*
G01*
X142085101Y-54779529D01*
X142218255Y-54868499D01*
X142331501Y-54981745D01*
X142420471Y-55114899D01*
X142481758Y-55262858D01*
X142513000Y-55419925D01*
X142513000Y-55580075D01*
X142481758Y-55737142D01*
X142420471Y-55885101D01*
X142331501Y-56018255D01*
X142218255Y-56131501D01*
X142085101Y-56220471D01*
X141937142Y-56281758D01*
X141780075Y-56313000D01*
X141619925Y-56313000D01*
X141462858Y-56281758D01*
X141314899Y-56220471D01*
X141181745Y-56131501D01*
X141068499Y-56018255D01*
X140979529Y-55885101D01*
X140918242Y-55737142D01*
X140887000Y-55580075D01*
X140887000Y-55419925D01*
X140918242Y-55262858D01*
X140979529Y-55114899D01*
X141068499Y-54981745D01*
X141181745Y-54868499D01*
X141314899Y-54779529D01*
X141462858Y-54718242D01*
X141619925Y-54687000D01*
X141780075Y-54687000D01*
X141937142Y-54718242D01*
G37*
G36*
X185117142Y-54718242D02*
G01*
X185265101Y-54779529D01*
X185398255Y-54868499D01*
X185511501Y-54981745D01*
X185600471Y-55114899D01*
X185661758Y-55262858D01*
X185693000Y-55419925D01*
X185693000Y-55580075D01*
X185661758Y-55737142D01*
X185600471Y-55885101D01*
X185511501Y-56018255D01*
X185398255Y-56131501D01*
X185265101Y-56220471D01*
X185117142Y-56281758D01*
X184960075Y-56313000D01*
X184799925Y-56313000D01*
X184642858Y-56281758D01*
X184494899Y-56220471D01*
X184361745Y-56131501D01*
X184248499Y-56018255D01*
X184159529Y-55885101D01*
X184098242Y-55737142D01*
X184067000Y-55580075D01*
X184067000Y-55419925D01*
X184098242Y-55262858D01*
X184159529Y-55114899D01*
X184248499Y-54981745D01*
X184361745Y-54868499D01*
X184494899Y-54779529D01*
X184642858Y-54718242D01*
X184799925Y-54687000D01*
X184960075Y-54687000D01*
X185117142Y-54718242D01*
G37*
G36*
X141937142Y-52178242D02*
G01*
X142085101Y-52239529D01*
X142218255Y-52328499D01*
X142331501Y-52441745D01*
X142420471Y-52574899D01*
X142481758Y-52722858D01*
X142513000Y-52879925D01*
X142513000Y-53040075D01*
X142481758Y-53197142D01*
X142420471Y-53345101D01*
X142331501Y-53478255D01*
X142218255Y-53591501D01*
X142085101Y-53680471D01*
X141937142Y-53741758D01*
X141780075Y-53773000D01*
X141619925Y-53773000D01*
X141462858Y-53741758D01*
X141314899Y-53680471D01*
X141181745Y-53591501D01*
X141068499Y-53478255D01*
X140979529Y-53345101D01*
X140918242Y-53197142D01*
X140887000Y-53040075D01*
X140887000Y-52879925D01*
X140918242Y-52722858D01*
X140979529Y-52574899D01*
X141068499Y-52441745D01*
X141181745Y-52328499D01*
X141314899Y-52239529D01*
X141462858Y-52178242D01*
X141619925Y-52147000D01*
X141780075Y-52147000D01*
X141937142Y-52178242D01*
G37*
G36*
X185117142Y-52178242D02*
G01*
X185265101Y-52239529D01*
X185398255Y-52328499D01*
X185511501Y-52441745D01*
X185600471Y-52574899D01*
X185661758Y-52722858D01*
X185693000Y-52879925D01*
X185693000Y-53040075D01*
X185661758Y-53197142D01*
X185600471Y-53345101D01*
X185511501Y-53478255D01*
X185398255Y-53591501D01*
X185265101Y-53680471D01*
X185117142Y-53741758D01*
X184960075Y-53773000D01*
X184799925Y-53773000D01*
X184642858Y-53741758D01*
X184494899Y-53680471D01*
X184361745Y-53591501D01*
X184248499Y-53478255D01*
X184159529Y-53345101D01*
X184098242Y-53197142D01*
X184067000Y-53040075D01*
X184067000Y-52879925D01*
X184098242Y-52722858D01*
X184159529Y-52574899D01*
X184248499Y-52441745D01*
X184361745Y-52328499D01*
X184494899Y-52239529D01*
X184642858Y-52178242D01*
X184799925Y-52147000D01*
X184960075Y-52147000D01*
X185117142Y-52178242D01*
G37*
G36*
X141937142Y-49638242D02*
G01*
X142085101Y-49699529D01*
X142218255Y-49788499D01*
X142331501Y-49901745D01*
X142420471Y-50034899D01*
X142481758Y-50182858D01*
X142513000Y-50339925D01*
X142513000Y-50500075D01*
X142481758Y-50657142D01*
X142420471Y-50805101D01*
X142331501Y-50938255D01*
X142218255Y-51051501D01*
X142085101Y-51140471D01*
X141937142Y-51201758D01*
X141780075Y-51233000D01*
X141619925Y-51233000D01*
X141462858Y-51201758D01*
X141314899Y-51140471D01*
X141181745Y-51051501D01*
X141068499Y-50938255D01*
X140979529Y-50805101D01*
X140918242Y-50657142D01*
X140887000Y-50500075D01*
X140887000Y-50339925D01*
X140918242Y-50182858D01*
X140979529Y-50034899D01*
X141068499Y-49901745D01*
X141181745Y-49788499D01*
X141314899Y-49699529D01*
X141462858Y-49638242D01*
X141619925Y-49607000D01*
X141780075Y-49607000D01*
X141937142Y-49638242D01*
G37*
G36*
X185117142Y-49638242D02*
G01*
X185265101Y-49699529D01*
X185398255Y-49788499D01*
X185511501Y-49901745D01*
X185600471Y-50034899D01*
X185661758Y-50182858D01*
X185693000Y-50339925D01*
X185693000Y-50500075D01*
X185661758Y-50657142D01*
X185600471Y-50805101D01*
X185511501Y-50938255D01*
X185398255Y-51051501D01*
X185265101Y-51140471D01*
X185117142Y-51201758D01*
X184960075Y-51233000D01*
X184799925Y-51233000D01*
X184642858Y-51201758D01*
X184494899Y-51140471D01*
X184361745Y-51051501D01*
X184248499Y-50938255D01*
X184159529Y-50805101D01*
X184098242Y-50657142D01*
X184067000Y-50500075D01*
X184067000Y-50339925D01*
X184098242Y-50182858D01*
X184159529Y-50034899D01*
X184248499Y-49901745D01*
X184361745Y-49788499D01*
X184494899Y-49699529D01*
X184642858Y-49638242D01*
X184799925Y-49607000D01*
X184960075Y-49607000D01*
X185117142Y-49638242D01*
G37*
G36*
X185117142Y-47098242D02*
G01*
X185265101Y-47159529D01*
X185398255Y-47248499D01*
X185511501Y-47361745D01*
X185600471Y-47494899D01*
X185661758Y-47642858D01*
X185693000Y-47799925D01*
X185693000Y-47960075D01*
X185661758Y-48117142D01*
X185600471Y-48265101D01*
X185511501Y-48398255D01*
X185398255Y-48511501D01*
X185265101Y-48600471D01*
X185117142Y-48661758D01*
X184960075Y-48693000D01*
X184799925Y-48693000D01*
X184642858Y-48661758D01*
X184494899Y-48600471D01*
X184361745Y-48511501D01*
X184248499Y-48398255D01*
X184159529Y-48265101D01*
X184098242Y-48117142D01*
X184067000Y-47960075D01*
X184067000Y-47799925D01*
X184098242Y-47642858D01*
X184159529Y-47494899D01*
X184248499Y-47361745D01*
X184361745Y-47248499D01*
X184494899Y-47159529D01*
X184642858Y-47098242D01*
X184799925Y-47067000D01*
X184960075Y-47067000D01*
X185117142Y-47098242D01*
G37*
G36*
X141937142Y-47098242D02*
G01*
X142085101Y-47159529D01*
X142218255Y-47248499D01*
X142331501Y-47361745D01*
X142420471Y-47494899D01*
X142481758Y-47642858D01*
X142513000Y-47799925D01*
X142513000Y-47960075D01*
X142481758Y-48117142D01*
X142420471Y-48265101D01*
X142331501Y-48398255D01*
X142218255Y-48511501D01*
X142085101Y-48600471D01*
X141937142Y-48661758D01*
X141780075Y-48693000D01*
X141619925Y-48693000D01*
X141462858Y-48661758D01*
X141314899Y-48600471D01*
X141181745Y-48511501D01*
X141068499Y-48398255D01*
X140979529Y-48265101D01*
X140918242Y-48117142D01*
X140887000Y-47960075D01*
X140887000Y-47799925D01*
X140918242Y-47642858D01*
X140979529Y-47494899D01*
X141068499Y-47361745D01*
X141181745Y-47248499D01*
X141314899Y-47159529D01*
X141462858Y-47098242D01*
X141619925Y-47067000D01*
X141780075Y-47067000D01*
X141937142Y-47098242D01*
G37*
G36*
X185117142Y-44558242D02*
G01*
X185265101Y-44619529D01*
X185398255Y-44708499D01*
X185511501Y-44821745D01*
X185600471Y-44954899D01*
X185661758Y-45102858D01*
X185693000Y-45259925D01*
X185693000Y-45420075D01*
X185661758Y-45577142D01*
X185600471Y-45725101D01*
X185511501Y-45858255D01*
X185398255Y-45971501D01*
X185265101Y-46060471D01*
X185117142Y-46121758D01*
X184960075Y-46153000D01*
X184799925Y-46153000D01*
X184642858Y-46121758D01*
X184494899Y-46060471D01*
X184361745Y-45971501D01*
X184248499Y-45858255D01*
X184159529Y-45725101D01*
X184098242Y-45577142D01*
X184067000Y-45420075D01*
X184067000Y-45259925D01*
X184098242Y-45102858D01*
X184159529Y-44954899D01*
X184248499Y-44821745D01*
X184361745Y-44708499D01*
X184494899Y-44619529D01*
X184642858Y-44558242D01*
X184799925Y-44527000D01*
X184960075Y-44527000D01*
X185117142Y-44558242D01*
G37*
G36*
X141937142Y-44558242D02*
G01*
X142085101Y-44619529D01*
X142218255Y-44708499D01*
X142331501Y-44821745D01*
X142420471Y-44954899D01*
X142481758Y-45102858D01*
X142513000Y-45259925D01*
X142513000Y-45420075D01*
X142481758Y-45577142D01*
X142420471Y-45725101D01*
X142331501Y-45858255D01*
X142218255Y-45971501D01*
X142085101Y-46060471D01*
X141937142Y-46121758D01*
X141780075Y-46153000D01*
X141619925Y-46153000D01*
X141462858Y-46121758D01*
X141314899Y-46060471D01*
X141181745Y-45971501D01*
X141068499Y-45858255D01*
X140979529Y-45725101D01*
X140918242Y-45577142D01*
X140887000Y-45420075D01*
X140887000Y-45259925D01*
X140918242Y-45102858D01*
X140979529Y-44954899D01*
X141068499Y-44821745D01*
X141181745Y-44708499D01*
X141314899Y-44619529D01*
X141462858Y-44558242D01*
X141619925Y-44527000D01*
X141780075Y-44527000D01*
X141937142Y-44558242D01*
G37*
G36*
X185117142Y-42018242D02*
G01*
X185265101Y-42079529D01*
X185398255Y-42168499D01*
X185511501Y-42281745D01*
X185600471Y-42414899D01*
X185661758Y-42562858D01*
X185693000Y-42719925D01*
X185693000Y-42880075D01*
X185661758Y-43037142D01*
X185600471Y-43185101D01*
X185511501Y-43318255D01*
X185398255Y-43431501D01*
X185265101Y-43520471D01*
X185117142Y-43581758D01*
X184960075Y-43613000D01*
X184799925Y-43613000D01*
X184642858Y-43581758D01*
X184494899Y-43520471D01*
X184361745Y-43431501D01*
X184248499Y-43318255D01*
X184159529Y-43185101D01*
X184098242Y-43037142D01*
X184067000Y-42880075D01*
X184067000Y-42719925D01*
X184098242Y-42562858D01*
X184159529Y-42414899D01*
X184248499Y-42281745D01*
X184361745Y-42168499D01*
X184494899Y-42079529D01*
X184642858Y-42018242D01*
X184799925Y-41987000D01*
X184960075Y-41987000D01*
X185117142Y-42018242D01*
G37*
G36*
X141937142Y-42018242D02*
G01*
X142085101Y-42079529D01*
X142218255Y-42168499D01*
X142331501Y-42281745D01*
X142420471Y-42414899D01*
X142481758Y-42562858D01*
X142513000Y-42719925D01*
X142513000Y-42880075D01*
X142481758Y-43037142D01*
X142420471Y-43185101D01*
X142331501Y-43318255D01*
X142218255Y-43431501D01*
X142085101Y-43520471D01*
X141937142Y-43581758D01*
X141780075Y-43613000D01*
X141619925Y-43613000D01*
X141462858Y-43581758D01*
X141314899Y-43520471D01*
X141181745Y-43431501D01*
X141068499Y-43318255D01*
X140979529Y-43185101D01*
X140918242Y-43037142D01*
X140887000Y-42880075D01*
X140887000Y-42719925D01*
X140918242Y-42562858D01*
X140979529Y-42414899D01*
X141068499Y-42281745D01*
X141181745Y-42168499D01*
X141314899Y-42079529D01*
X141462858Y-42018242D01*
X141619925Y-41987000D01*
X141780075Y-41987000D01*
X141937142Y-42018242D01*
G37*
M02*
