G04 #@! TF.GenerationSoftware,KiCad,Pcbnew,(5.1.5)-3*
G04 #@! TF.CreationDate,2020-04-08T11:42:18+02:00*
G04 #@! TF.ProjectId,sensing_PMU,73656e73-696e-4675-9f50-4d552e6b6963,0.0*
G04 #@! TF.SameCoordinates,Original*
G04 #@! TF.FileFunction,Paste,Top*
G04 #@! TF.FilePolarity,Positive*
%FSLAX46Y46*%
G04 Gerber Fmt 4.6, Leading zero omitted, Abs format (unit mm)*
G04 Created by KiCad (PCBNEW (5.1.5)-3) date 2020-04-08 11:42:18*
%MOMM*%
%LPD*%
G04 APERTURE LIST*
%ADD10R,3.000000X5.000000*%
%ADD11C,0.100000*%
%ADD12R,1.400000X0.450000*%
%ADD13R,3.250000X3.250000*%
%ADD14R,0.900000X0.300000*%
%ADD15R,0.300000X0.900000*%
G04 APERTURE END LIST*
D10*
X167450000Y-71200000D03*
X156450000Y-71200000D03*
D11*
G36*
X172572691Y-80126053D02*
G01*
X172593926Y-80129203D01*
X172614750Y-80134419D01*
X172634962Y-80141651D01*
X172654368Y-80150830D01*
X172672781Y-80161866D01*
X172690024Y-80174654D01*
X172705930Y-80189070D01*
X172720346Y-80204976D01*
X172733134Y-80222219D01*
X172744170Y-80240632D01*
X172753349Y-80260038D01*
X172760581Y-80280250D01*
X172765797Y-80301074D01*
X172768947Y-80322309D01*
X172770000Y-80343750D01*
X172770000Y-80856250D01*
X172768947Y-80877691D01*
X172765797Y-80898926D01*
X172760581Y-80919750D01*
X172753349Y-80939962D01*
X172744170Y-80959368D01*
X172733134Y-80977781D01*
X172720346Y-80995024D01*
X172705930Y-81010930D01*
X172690024Y-81025346D01*
X172672781Y-81038134D01*
X172654368Y-81049170D01*
X172634962Y-81058349D01*
X172614750Y-81065581D01*
X172593926Y-81070797D01*
X172572691Y-81073947D01*
X172551250Y-81075000D01*
X172113750Y-81075000D01*
X172092309Y-81073947D01*
X172071074Y-81070797D01*
X172050250Y-81065581D01*
X172030038Y-81058349D01*
X172010632Y-81049170D01*
X171992219Y-81038134D01*
X171974976Y-81025346D01*
X171959070Y-81010930D01*
X171944654Y-80995024D01*
X171931866Y-80977781D01*
X171920830Y-80959368D01*
X171911651Y-80939962D01*
X171904419Y-80919750D01*
X171899203Y-80898926D01*
X171896053Y-80877691D01*
X171895000Y-80856250D01*
X171895000Y-80343750D01*
X171896053Y-80322309D01*
X171899203Y-80301074D01*
X171904419Y-80280250D01*
X171911651Y-80260038D01*
X171920830Y-80240632D01*
X171931866Y-80222219D01*
X171944654Y-80204976D01*
X171959070Y-80189070D01*
X171974976Y-80174654D01*
X171992219Y-80161866D01*
X172010632Y-80150830D01*
X172030038Y-80141651D01*
X172050250Y-80134419D01*
X172071074Y-80129203D01*
X172092309Y-80126053D01*
X172113750Y-80125000D01*
X172551250Y-80125000D01*
X172572691Y-80126053D01*
G37*
G36*
X174147691Y-80126053D02*
G01*
X174168926Y-80129203D01*
X174189750Y-80134419D01*
X174209962Y-80141651D01*
X174229368Y-80150830D01*
X174247781Y-80161866D01*
X174265024Y-80174654D01*
X174280930Y-80189070D01*
X174295346Y-80204976D01*
X174308134Y-80222219D01*
X174319170Y-80240632D01*
X174328349Y-80260038D01*
X174335581Y-80280250D01*
X174340797Y-80301074D01*
X174343947Y-80322309D01*
X174345000Y-80343750D01*
X174345000Y-80856250D01*
X174343947Y-80877691D01*
X174340797Y-80898926D01*
X174335581Y-80919750D01*
X174328349Y-80939962D01*
X174319170Y-80959368D01*
X174308134Y-80977781D01*
X174295346Y-80995024D01*
X174280930Y-81010930D01*
X174265024Y-81025346D01*
X174247781Y-81038134D01*
X174229368Y-81049170D01*
X174209962Y-81058349D01*
X174189750Y-81065581D01*
X174168926Y-81070797D01*
X174147691Y-81073947D01*
X174126250Y-81075000D01*
X173688750Y-81075000D01*
X173667309Y-81073947D01*
X173646074Y-81070797D01*
X173625250Y-81065581D01*
X173605038Y-81058349D01*
X173585632Y-81049170D01*
X173567219Y-81038134D01*
X173549976Y-81025346D01*
X173534070Y-81010930D01*
X173519654Y-80995024D01*
X173506866Y-80977781D01*
X173495830Y-80959368D01*
X173486651Y-80939962D01*
X173479419Y-80919750D01*
X173474203Y-80898926D01*
X173471053Y-80877691D01*
X173470000Y-80856250D01*
X173470000Y-80343750D01*
X173471053Y-80322309D01*
X173474203Y-80301074D01*
X173479419Y-80280250D01*
X173486651Y-80260038D01*
X173495830Y-80240632D01*
X173506866Y-80222219D01*
X173519654Y-80204976D01*
X173534070Y-80189070D01*
X173549976Y-80174654D01*
X173567219Y-80161866D01*
X173585632Y-80150830D01*
X173605038Y-80141651D01*
X173625250Y-80134419D01*
X173646074Y-80129203D01*
X173667309Y-80126053D01*
X173688750Y-80125000D01*
X174126250Y-80125000D01*
X174147691Y-80126053D01*
G37*
D12*
X163600000Y-49325000D03*
X163600000Y-49975000D03*
X163600000Y-50625000D03*
X163600000Y-51275000D03*
X159200000Y-51275000D03*
X159200000Y-50625000D03*
X159200000Y-49975000D03*
X159200000Y-49325000D03*
D11*
G36*
X177477691Y-79176053D02*
G01*
X177498926Y-79179203D01*
X177519750Y-79184419D01*
X177539962Y-79191651D01*
X177559368Y-79200830D01*
X177577781Y-79211866D01*
X177595024Y-79224654D01*
X177610930Y-79239070D01*
X177625346Y-79254976D01*
X177638134Y-79272219D01*
X177649170Y-79290632D01*
X177658349Y-79310038D01*
X177665581Y-79330250D01*
X177670797Y-79351074D01*
X177673947Y-79372309D01*
X177675000Y-79393750D01*
X177675000Y-79831250D01*
X177673947Y-79852691D01*
X177670797Y-79873926D01*
X177665581Y-79894750D01*
X177658349Y-79914962D01*
X177649170Y-79934368D01*
X177638134Y-79952781D01*
X177625346Y-79970024D01*
X177610930Y-79985930D01*
X177595024Y-80000346D01*
X177577781Y-80013134D01*
X177559368Y-80024170D01*
X177539962Y-80033349D01*
X177519750Y-80040581D01*
X177498926Y-80045797D01*
X177477691Y-80048947D01*
X177456250Y-80050000D01*
X176943750Y-80050000D01*
X176922309Y-80048947D01*
X176901074Y-80045797D01*
X176880250Y-80040581D01*
X176860038Y-80033349D01*
X176840632Y-80024170D01*
X176822219Y-80013134D01*
X176804976Y-80000346D01*
X176789070Y-79985930D01*
X176774654Y-79970024D01*
X176761866Y-79952781D01*
X176750830Y-79934368D01*
X176741651Y-79914962D01*
X176734419Y-79894750D01*
X176729203Y-79873926D01*
X176726053Y-79852691D01*
X176725000Y-79831250D01*
X176725000Y-79393750D01*
X176726053Y-79372309D01*
X176729203Y-79351074D01*
X176734419Y-79330250D01*
X176741651Y-79310038D01*
X176750830Y-79290632D01*
X176761866Y-79272219D01*
X176774654Y-79254976D01*
X176789070Y-79239070D01*
X176804976Y-79224654D01*
X176822219Y-79211866D01*
X176840632Y-79200830D01*
X176860038Y-79191651D01*
X176880250Y-79184419D01*
X176901074Y-79179203D01*
X176922309Y-79176053D01*
X176943750Y-79175000D01*
X177456250Y-79175000D01*
X177477691Y-79176053D01*
G37*
G36*
X177477691Y-80751053D02*
G01*
X177498926Y-80754203D01*
X177519750Y-80759419D01*
X177539962Y-80766651D01*
X177559368Y-80775830D01*
X177577781Y-80786866D01*
X177595024Y-80799654D01*
X177610930Y-80814070D01*
X177625346Y-80829976D01*
X177638134Y-80847219D01*
X177649170Y-80865632D01*
X177658349Y-80885038D01*
X177665581Y-80905250D01*
X177670797Y-80926074D01*
X177673947Y-80947309D01*
X177675000Y-80968750D01*
X177675000Y-81406250D01*
X177673947Y-81427691D01*
X177670797Y-81448926D01*
X177665581Y-81469750D01*
X177658349Y-81489962D01*
X177649170Y-81509368D01*
X177638134Y-81527781D01*
X177625346Y-81545024D01*
X177610930Y-81560930D01*
X177595024Y-81575346D01*
X177577781Y-81588134D01*
X177559368Y-81599170D01*
X177539962Y-81608349D01*
X177519750Y-81615581D01*
X177498926Y-81620797D01*
X177477691Y-81623947D01*
X177456250Y-81625000D01*
X176943750Y-81625000D01*
X176922309Y-81623947D01*
X176901074Y-81620797D01*
X176880250Y-81615581D01*
X176860038Y-81608349D01*
X176840632Y-81599170D01*
X176822219Y-81588134D01*
X176804976Y-81575346D01*
X176789070Y-81560930D01*
X176774654Y-81545024D01*
X176761866Y-81527781D01*
X176750830Y-81509368D01*
X176741651Y-81489962D01*
X176734419Y-81469750D01*
X176729203Y-81448926D01*
X176726053Y-81427691D01*
X176725000Y-81406250D01*
X176725000Y-80968750D01*
X176726053Y-80947309D01*
X176729203Y-80926074D01*
X176734419Y-80905250D01*
X176741651Y-80885038D01*
X176750830Y-80865632D01*
X176761866Y-80847219D01*
X176774654Y-80829976D01*
X176789070Y-80814070D01*
X176804976Y-80799654D01*
X176822219Y-80786866D01*
X176840632Y-80775830D01*
X176860038Y-80766651D01*
X176880250Y-80759419D01*
X176901074Y-80754203D01*
X176922309Y-80751053D01*
X176943750Y-80750000D01*
X177456250Y-80750000D01*
X177477691Y-80751053D01*
G37*
G36*
X173427691Y-57126053D02*
G01*
X173448926Y-57129203D01*
X173469750Y-57134419D01*
X173489962Y-57141651D01*
X173509368Y-57150830D01*
X173527781Y-57161866D01*
X173545024Y-57174654D01*
X173560930Y-57189070D01*
X173575346Y-57204976D01*
X173588134Y-57222219D01*
X173599170Y-57240632D01*
X173608349Y-57260038D01*
X173615581Y-57280250D01*
X173620797Y-57301074D01*
X173623947Y-57322309D01*
X173625000Y-57343750D01*
X173625000Y-57856250D01*
X173623947Y-57877691D01*
X173620797Y-57898926D01*
X173615581Y-57919750D01*
X173608349Y-57939962D01*
X173599170Y-57959368D01*
X173588134Y-57977781D01*
X173575346Y-57995024D01*
X173560930Y-58010930D01*
X173545024Y-58025346D01*
X173527781Y-58038134D01*
X173509368Y-58049170D01*
X173489962Y-58058349D01*
X173469750Y-58065581D01*
X173448926Y-58070797D01*
X173427691Y-58073947D01*
X173406250Y-58075000D01*
X172968750Y-58075000D01*
X172947309Y-58073947D01*
X172926074Y-58070797D01*
X172905250Y-58065581D01*
X172885038Y-58058349D01*
X172865632Y-58049170D01*
X172847219Y-58038134D01*
X172829976Y-58025346D01*
X172814070Y-58010930D01*
X172799654Y-57995024D01*
X172786866Y-57977781D01*
X172775830Y-57959368D01*
X172766651Y-57939962D01*
X172759419Y-57919750D01*
X172754203Y-57898926D01*
X172751053Y-57877691D01*
X172750000Y-57856250D01*
X172750000Y-57343750D01*
X172751053Y-57322309D01*
X172754203Y-57301074D01*
X172759419Y-57280250D01*
X172766651Y-57260038D01*
X172775830Y-57240632D01*
X172786866Y-57222219D01*
X172799654Y-57204976D01*
X172814070Y-57189070D01*
X172829976Y-57174654D01*
X172847219Y-57161866D01*
X172865632Y-57150830D01*
X172885038Y-57141651D01*
X172905250Y-57134419D01*
X172926074Y-57129203D01*
X172947309Y-57126053D01*
X172968750Y-57125000D01*
X173406250Y-57125000D01*
X173427691Y-57126053D01*
G37*
G36*
X171852691Y-57126053D02*
G01*
X171873926Y-57129203D01*
X171894750Y-57134419D01*
X171914962Y-57141651D01*
X171934368Y-57150830D01*
X171952781Y-57161866D01*
X171970024Y-57174654D01*
X171985930Y-57189070D01*
X172000346Y-57204976D01*
X172013134Y-57222219D01*
X172024170Y-57240632D01*
X172033349Y-57260038D01*
X172040581Y-57280250D01*
X172045797Y-57301074D01*
X172048947Y-57322309D01*
X172050000Y-57343750D01*
X172050000Y-57856250D01*
X172048947Y-57877691D01*
X172045797Y-57898926D01*
X172040581Y-57919750D01*
X172033349Y-57939962D01*
X172024170Y-57959368D01*
X172013134Y-57977781D01*
X172000346Y-57995024D01*
X171985930Y-58010930D01*
X171970024Y-58025346D01*
X171952781Y-58038134D01*
X171934368Y-58049170D01*
X171914962Y-58058349D01*
X171894750Y-58065581D01*
X171873926Y-58070797D01*
X171852691Y-58073947D01*
X171831250Y-58075000D01*
X171393750Y-58075000D01*
X171372309Y-58073947D01*
X171351074Y-58070797D01*
X171330250Y-58065581D01*
X171310038Y-58058349D01*
X171290632Y-58049170D01*
X171272219Y-58038134D01*
X171254976Y-58025346D01*
X171239070Y-58010930D01*
X171224654Y-57995024D01*
X171211866Y-57977781D01*
X171200830Y-57959368D01*
X171191651Y-57939962D01*
X171184419Y-57919750D01*
X171179203Y-57898926D01*
X171176053Y-57877691D01*
X171175000Y-57856250D01*
X171175000Y-57343750D01*
X171176053Y-57322309D01*
X171179203Y-57301074D01*
X171184419Y-57280250D01*
X171191651Y-57260038D01*
X171200830Y-57240632D01*
X171211866Y-57222219D01*
X171224654Y-57204976D01*
X171239070Y-57189070D01*
X171254976Y-57174654D01*
X171272219Y-57161866D01*
X171290632Y-57150830D01*
X171310038Y-57141651D01*
X171330250Y-57134419D01*
X171351074Y-57129203D01*
X171372309Y-57126053D01*
X171393750Y-57125000D01*
X171831250Y-57125000D01*
X171852691Y-57126053D01*
G37*
G36*
X171852691Y-60126053D02*
G01*
X171873926Y-60129203D01*
X171894750Y-60134419D01*
X171914962Y-60141651D01*
X171934368Y-60150830D01*
X171952781Y-60161866D01*
X171970024Y-60174654D01*
X171985930Y-60189070D01*
X172000346Y-60204976D01*
X172013134Y-60222219D01*
X172024170Y-60240632D01*
X172033349Y-60260038D01*
X172040581Y-60280250D01*
X172045797Y-60301074D01*
X172048947Y-60322309D01*
X172050000Y-60343750D01*
X172050000Y-60856250D01*
X172048947Y-60877691D01*
X172045797Y-60898926D01*
X172040581Y-60919750D01*
X172033349Y-60939962D01*
X172024170Y-60959368D01*
X172013134Y-60977781D01*
X172000346Y-60995024D01*
X171985930Y-61010930D01*
X171970024Y-61025346D01*
X171952781Y-61038134D01*
X171934368Y-61049170D01*
X171914962Y-61058349D01*
X171894750Y-61065581D01*
X171873926Y-61070797D01*
X171852691Y-61073947D01*
X171831250Y-61075000D01*
X171393750Y-61075000D01*
X171372309Y-61073947D01*
X171351074Y-61070797D01*
X171330250Y-61065581D01*
X171310038Y-61058349D01*
X171290632Y-61049170D01*
X171272219Y-61038134D01*
X171254976Y-61025346D01*
X171239070Y-61010930D01*
X171224654Y-60995024D01*
X171211866Y-60977781D01*
X171200830Y-60959368D01*
X171191651Y-60939962D01*
X171184419Y-60919750D01*
X171179203Y-60898926D01*
X171176053Y-60877691D01*
X171175000Y-60856250D01*
X171175000Y-60343750D01*
X171176053Y-60322309D01*
X171179203Y-60301074D01*
X171184419Y-60280250D01*
X171191651Y-60260038D01*
X171200830Y-60240632D01*
X171211866Y-60222219D01*
X171224654Y-60204976D01*
X171239070Y-60189070D01*
X171254976Y-60174654D01*
X171272219Y-60161866D01*
X171290632Y-60150830D01*
X171310038Y-60141651D01*
X171330250Y-60134419D01*
X171351074Y-60129203D01*
X171372309Y-60126053D01*
X171393750Y-60125000D01*
X171831250Y-60125000D01*
X171852691Y-60126053D01*
G37*
G36*
X173427691Y-60126053D02*
G01*
X173448926Y-60129203D01*
X173469750Y-60134419D01*
X173489962Y-60141651D01*
X173509368Y-60150830D01*
X173527781Y-60161866D01*
X173545024Y-60174654D01*
X173560930Y-60189070D01*
X173575346Y-60204976D01*
X173588134Y-60222219D01*
X173599170Y-60240632D01*
X173608349Y-60260038D01*
X173615581Y-60280250D01*
X173620797Y-60301074D01*
X173623947Y-60322309D01*
X173625000Y-60343750D01*
X173625000Y-60856250D01*
X173623947Y-60877691D01*
X173620797Y-60898926D01*
X173615581Y-60919750D01*
X173608349Y-60939962D01*
X173599170Y-60959368D01*
X173588134Y-60977781D01*
X173575346Y-60995024D01*
X173560930Y-61010930D01*
X173545024Y-61025346D01*
X173527781Y-61038134D01*
X173509368Y-61049170D01*
X173489962Y-61058349D01*
X173469750Y-61065581D01*
X173448926Y-61070797D01*
X173427691Y-61073947D01*
X173406250Y-61075000D01*
X172968750Y-61075000D01*
X172947309Y-61073947D01*
X172926074Y-61070797D01*
X172905250Y-61065581D01*
X172885038Y-61058349D01*
X172865632Y-61049170D01*
X172847219Y-61038134D01*
X172829976Y-61025346D01*
X172814070Y-61010930D01*
X172799654Y-60995024D01*
X172786866Y-60977781D01*
X172775830Y-60959368D01*
X172766651Y-60939962D01*
X172759419Y-60919750D01*
X172754203Y-60898926D01*
X172751053Y-60877691D01*
X172750000Y-60856250D01*
X172750000Y-60343750D01*
X172751053Y-60322309D01*
X172754203Y-60301074D01*
X172759419Y-60280250D01*
X172766651Y-60260038D01*
X172775830Y-60240632D01*
X172786866Y-60222219D01*
X172799654Y-60204976D01*
X172814070Y-60189070D01*
X172829976Y-60174654D01*
X172847219Y-60161866D01*
X172865632Y-60150830D01*
X172885038Y-60141651D01*
X172905250Y-60134419D01*
X172926074Y-60129203D01*
X172947309Y-60126053D01*
X172968750Y-60125000D01*
X173406250Y-60125000D01*
X173427691Y-60126053D01*
G37*
G36*
X157827691Y-54366053D02*
G01*
X157848926Y-54369203D01*
X157869750Y-54374419D01*
X157889962Y-54381651D01*
X157909368Y-54390830D01*
X157927781Y-54401866D01*
X157945024Y-54414654D01*
X157960930Y-54429070D01*
X157975346Y-54444976D01*
X157988134Y-54462219D01*
X157999170Y-54480632D01*
X158008349Y-54500038D01*
X158015581Y-54520250D01*
X158020797Y-54541074D01*
X158023947Y-54562309D01*
X158025000Y-54583750D01*
X158025000Y-55096250D01*
X158023947Y-55117691D01*
X158020797Y-55138926D01*
X158015581Y-55159750D01*
X158008349Y-55179962D01*
X157999170Y-55199368D01*
X157988134Y-55217781D01*
X157975346Y-55235024D01*
X157960930Y-55250930D01*
X157945024Y-55265346D01*
X157927781Y-55278134D01*
X157909368Y-55289170D01*
X157889962Y-55298349D01*
X157869750Y-55305581D01*
X157848926Y-55310797D01*
X157827691Y-55313947D01*
X157806250Y-55315000D01*
X157368750Y-55315000D01*
X157347309Y-55313947D01*
X157326074Y-55310797D01*
X157305250Y-55305581D01*
X157285038Y-55298349D01*
X157265632Y-55289170D01*
X157247219Y-55278134D01*
X157229976Y-55265346D01*
X157214070Y-55250930D01*
X157199654Y-55235024D01*
X157186866Y-55217781D01*
X157175830Y-55199368D01*
X157166651Y-55179962D01*
X157159419Y-55159750D01*
X157154203Y-55138926D01*
X157151053Y-55117691D01*
X157150000Y-55096250D01*
X157150000Y-54583750D01*
X157151053Y-54562309D01*
X157154203Y-54541074D01*
X157159419Y-54520250D01*
X157166651Y-54500038D01*
X157175830Y-54480632D01*
X157186866Y-54462219D01*
X157199654Y-54444976D01*
X157214070Y-54429070D01*
X157229976Y-54414654D01*
X157247219Y-54401866D01*
X157265632Y-54390830D01*
X157285038Y-54381651D01*
X157305250Y-54374419D01*
X157326074Y-54369203D01*
X157347309Y-54366053D01*
X157368750Y-54365000D01*
X157806250Y-54365000D01*
X157827691Y-54366053D01*
G37*
G36*
X156252691Y-54366053D02*
G01*
X156273926Y-54369203D01*
X156294750Y-54374419D01*
X156314962Y-54381651D01*
X156334368Y-54390830D01*
X156352781Y-54401866D01*
X156370024Y-54414654D01*
X156385930Y-54429070D01*
X156400346Y-54444976D01*
X156413134Y-54462219D01*
X156424170Y-54480632D01*
X156433349Y-54500038D01*
X156440581Y-54520250D01*
X156445797Y-54541074D01*
X156448947Y-54562309D01*
X156450000Y-54583750D01*
X156450000Y-55096250D01*
X156448947Y-55117691D01*
X156445797Y-55138926D01*
X156440581Y-55159750D01*
X156433349Y-55179962D01*
X156424170Y-55199368D01*
X156413134Y-55217781D01*
X156400346Y-55235024D01*
X156385930Y-55250930D01*
X156370024Y-55265346D01*
X156352781Y-55278134D01*
X156334368Y-55289170D01*
X156314962Y-55298349D01*
X156294750Y-55305581D01*
X156273926Y-55310797D01*
X156252691Y-55313947D01*
X156231250Y-55315000D01*
X155793750Y-55315000D01*
X155772309Y-55313947D01*
X155751074Y-55310797D01*
X155730250Y-55305581D01*
X155710038Y-55298349D01*
X155690632Y-55289170D01*
X155672219Y-55278134D01*
X155654976Y-55265346D01*
X155639070Y-55250930D01*
X155624654Y-55235024D01*
X155611866Y-55217781D01*
X155600830Y-55199368D01*
X155591651Y-55179962D01*
X155584419Y-55159750D01*
X155579203Y-55138926D01*
X155576053Y-55117691D01*
X155575000Y-55096250D01*
X155575000Y-54583750D01*
X155576053Y-54562309D01*
X155579203Y-54541074D01*
X155584419Y-54520250D01*
X155591651Y-54500038D01*
X155600830Y-54480632D01*
X155611866Y-54462219D01*
X155624654Y-54444976D01*
X155639070Y-54429070D01*
X155654976Y-54414654D01*
X155672219Y-54401866D01*
X155690632Y-54390830D01*
X155710038Y-54381651D01*
X155730250Y-54374419D01*
X155751074Y-54369203D01*
X155772309Y-54366053D01*
X155793750Y-54365000D01*
X156231250Y-54365000D01*
X156252691Y-54366053D01*
G37*
G36*
X152267691Y-54376053D02*
G01*
X152288926Y-54379203D01*
X152309750Y-54384419D01*
X152329962Y-54391651D01*
X152349368Y-54400830D01*
X152367781Y-54411866D01*
X152385024Y-54424654D01*
X152400930Y-54439070D01*
X152415346Y-54454976D01*
X152428134Y-54472219D01*
X152439170Y-54490632D01*
X152448349Y-54510038D01*
X152455581Y-54530250D01*
X152460797Y-54551074D01*
X152463947Y-54572309D01*
X152465000Y-54593750D01*
X152465000Y-55106250D01*
X152463947Y-55127691D01*
X152460797Y-55148926D01*
X152455581Y-55169750D01*
X152448349Y-55189962D01*
X152439170Y-55209368D01*
X152428134Y-55227781D01*
X152415346Y-55245024D01*
X152400930Y-55260930D01*
X152385024Y-55275346D01*
X152367781Y-55288134D01*
X152349368Y-55299170D01*
X152329962Y-55308349D01*
X152309750Y-55315581D01*
X152288926Y-55320797D01*
X152267691Y-55323947D01*
X152246250Y-55325000D01*
X151808750Y-55325000D01*
X151787309Y-55323947D01*
X151766074Y-55320797D01*
X151745250Y-55315581D01*
X151725038Y-55308349D01*
X151705632Y-55299170D01*
X151687219Y-55288134D01*
X151669976Y-55275346D01*
X151654070Y-55260930D01*
X151639654Y-55245024D01*
X151626866Y-55227781D01*
X151615830Y-55209368D01*
X151606651Y-55189962D01*
X151599419Y-55169750D01*
X151594203Y-55148926D01*
X151591053Y-55127691D01*
X151590000Y-55106250D01*
X151590000Y-54593750D01*
X151591053Y-54572309D01*
X151594203Y-54551074D01*
X151599419Y-54530250D01*
X151606651Y-54510038D01*
X151615830Y-54490632D01*
X151626866Y-54472219D01*
X151639654Y-54454976D01*
X151654070Y-54439070D01*
X151669976Y-54424654D01*
X151687219Y-54411866D01*
X151705632Y-54400830D01*
X151725038Y-54391651D01*
X151745250Y-54384419D01*
X151766074Y-54379203D01*
X151787309Y-54376053D01*
X151808750Y-54375000D01*
X152246250Y-54375000D01*
X152267691Y-54376053D01*
G37*
G36*
X150692691Y-54376053D02*
G01*
X150713926Y-54379203D01*
X150734750Y-54384419D01*
X150754962Y-54391651D01*
X150774368Y-54400830D01*
X150792781Y-54411866D01*
X150810024Y-54424654D01*
X150825930Y-54439070D01*
X150840346Y-54454976D01*
X150853134Y-54472219D01*
X150864170Y-54490632D01*
X150873349Y-54510038D01*
X150880581Y-54530250D01*
X150885797Y-54551074D01*
X150888947Y-54572309D01*
X150890000Y-54593750D01*
X150890000Y-55106250D01*
X150888947Y-55127691D01*
X150885797Y-55148926D01*
X150880581Y-55169750D01*
X150873349Y-55189962D01*
X150864170Y-55209368D01*
X150853134Y-55227781D01*
X150840346Y-55245024D01*
X150825930Y-55260930D01*
X150810024Y-55275346D01*
X150792781Y-55288134D01*
X150774368Y-55299170D01*
X150754962Y-55308349D01*
X150734750Y-55315581D01*
X150713926Y-55320797D01*
X150692691Y-55323947D01*
X150671250Y-55325000D01*
X150233750Y-55325000D01*
X150212309Y-55323947D01*
X150191074Y-55320797D01*
X150170250Y-55315581D01*
X150150038Y-55308349D01*
X150130632Y-55299170D01*
X150112219Y-55288134D01*
X150094976Y-55275346D01*
X150079070Y-55260930D01*
X150064654Y-55245024D01*
X150051866Y-55227781D01*
X150040830Y-55209368D01*
X150031651Y-55189962D01*
X150024419Y-55169750D01*
X150019203Y-55148926D01*
X150016053Y-55127691D01*
X150015000Y-55106250D01*
X150015000Y-54593750D01*
X150016053Y-54572309D01*
X150019203Y-54551074D01*
X150024419Y-54530250D01*
X150031651Y-54510038D01*
X150040830Y-54490632D01*
X150051866Y-54472219D01*
X150064654Y-54454976D01*
X150079070Y-54439070D01*
X150094976Y-54424654D01*
X150112219Y-54411866D01*
X150130632Y-54400830D01*
X150150038Y-54391651D01*
X150170250Y-54384419D01*
X150191074Y-54379203D01*
X150212309Y-54376053D01*
X150233750Y-54375000D01*
X150671250Y-54375000D01*
X150692691Y-54376053D01*
G37*
G36*
X155752691Y-45926053D02*
G01*
X155773926Y-45929203D01*
X155794750Y-45934419D01*
X155814962Y-45941651D01*
X155834368Y-45950830D01*
X155852781Y-45961866D01*
X155870024Y-45974654D01*
X155885930Y-45989070D01*
X155900346Y-46004976D01*
X155913134Y-46022219D01*
X155924170Y-46040632D01*
X155933349Y-46060038D01*
X155940581Y-46080250D01*
X155945797Y-46101074D01*
X155948947Y-46122309D01*
X155950000Y-46143750D01*
X155950000Y-46656250D01*
X155948947Y-46677691D01*
X155945797Y-46698926D01*
X155940581Y-46719750D01*
X155933349Y-46739962D01*
X155924170Y-46759368D01*
X155913134Y-46777781D01*
X155900346Y-46795024D01*
X155885930Y-46810930D01*
X155870024Y-46825346D01*
X155852781Y-46838134D01*
X155834368Y-46849170D01*
X155814962Y-46858349D01*
X155794750Y-46865581D01*
X155773926Y-46870797D01*
X155752691Y-46873947D01*
X155731250Y-46875000D01*
X155293750Y-46875000D01*
X155272309Y-46873947D01*
X155251074Y-46870797D01*
X155230250Y-46865581D01*
X155210038Y-46858349D01*
X155190632Y-46849170D01*
X155172219Y-46838134D01*
X155154976Y-46825346D01*
X155139070Y-46810930D01*
X155124654Y-46795024D01*
X155111866Y-46777781D01*
X155100830Y-46759368D01*
X155091651Y-46739962D01*
X155084419Y-46719750D01*
X155079203Y-46698926D01*
X155076053Y-46677691D01*
X155075000Y-46656250D01*
X155075000Y-46143750D01*
X155076053Y-46122309D01*
X155079203Y-46101074D01*
X155084419Y-46080250D01*
X155091651Y-46060038D01*
X155100830Y-46040632D01*
X155111866Y-46022219D01*
X155124654Y-46004976D01*
X155139070Y-45989070D01*
X155154976Y-45974654D01*
X155172219Y-45961866D01*
X155190632Y-45950830D01*
X155210038Y-45941651D01*
X155230250Y-45934419D01*
X155251074Y-45929203D01*
X155272309Y-45926053D01*
X155293750Y-45925000D01*
X155731250Y-45925000D01*
X155752691Y-45926053D01*
G37*
G36*
X157327691Y-45926053D02*
G01*
X157348926Y-45929203D01*
X157369750Y-45934419D01*
X157389962Y-45941651D01*
X157409368Y-45950830D01*
X157427781Y-45961866D01*
X157445024Y-45974654D01*
X157460930Y-45989070D01*
X157475346Y-46004976D01*
X157488134Y-46022219D01*
X157499170Y-46040632D01*
X157508349Y-46060038D01*
X157515581Y-46080250D01*
X157520797Y-46101074D01*
X157523947Y-46122309D01*
X157525000Y-46143750D01*
X157525000Y-46656250D01*
X157523947Y-46677691D01*
X157520797Y-46698926D01*
X157515581Y-46719750D01*
X157508349Y-46739962D01*
X157499170Y-46759368D01*
X157488134Y-46777781D01*
X157475346Y-46795024D01*
X157460930Y-46810930D01*
X157445024Y-46825346D01*
X157427781Y-46838134D01*
X157409368Y-46849170D01*
X157389962Y-46858349D01*
X157369750Y-46865581D01*
X157348926Y-46870797D01*
X157327691Y-46873947D01*
X157306250Y-46875000D01*
X156868750Y-46875000D01*
X156847309Y-46873947D01*
X156826074Y-46870797D01*
X156805250Y-46865581D01*
X156785038Y-46858349D01*
X156765632Y-46849170D01*
X156747219Y-46838134D01*
X156729976Y-46825346D01*
X156714070Y-46810930D01*
X156699654Y-46795024D01*
X156686866Y-46777781D01*
X156675830Y-46759368D01*
X156666651Y-46739962D01*
X156659419Y-46719750D01*
X156654203Y-46698926D01*
X156651053Y-46677691D01*
X156650000Y-46656250D01*
X156650000Y-46143750D01*
X156651053Y-46122309D01*
X156654203Y-46101074D01*
X156659419Y-46080250D01*
X156666651Y-46060038D01*
X156675830Y-46040632D01*
X156686866Y-46022219D01*
X156699654Y-46004976D01*
X156714070Y-45989070D01*
X156729976Y-45974654D01*
X156747219Y-45961866D01*
X156765632Y-45950830D01*
X156785038Y-45941651D01*
X156805250Y-45934419D01*
X156826074Y-45929203D01*
X156847309Y-45926053D01*
X156868750Y-45925000D01*
X157306250Y-45925000D01*
X157327691Y-45926053D01*
G37*
G36*
X149352691Y-51826053D02*
G01*
X149373926Y-51829203D01*
X149394750Y-51834419D01*
X149414962Y-51841651D01*
X149434368Y-51850830D01*
X149452781Y-51861866D01*
X149470024Y-51874654D01*
X149485930Y-51889070D01*
X149500346Y-51904976D01*
X149513134Y-51922219D01*
X149524170Y-51940632D01*
X149533349Y-51960038D01*
X149540581Y-51980250D01*
X149545797Y-52001074D01*
X149548947Y-52022309D01*
X149550000Y-52043750D01*
X149550000Y-52556250D01*
X149548947Y-52577691D01*
X149545797Y-52598926D01*
X149540581Y-52619750D01*
X149533349Y-52639962D01*
X149524170Y-52659368D01*
X149513134Y-52677781D01*
X149500346Y-52695024D01*
X149485930Y-52710930D01*
X149470024Y-52725346D01*
X149452781Y-52738134D01*
X149434368Y-52749170D01*
X149414962Y-52758349D01*
X149394750Y-52765581D01*
X149373926Y-52770797D01*
X149352691Y-52773947D01*
X149331250Y-52775000D01*
X148893750Y-52775000D01*
X148872309Y-52773947D01*
X148851074Y-52770797D01*
X148830250Y-52765581D01*
X148810038Y-52758349D01*
X148790632Y-52749170D01*
X148772219Y-52738134D01*
X148754976Y-52725346D01*
X148739070Y-52710930D01*
X148724654Y-52695024D01*
X148711866Y-52677781D01*
X148700830Y-52659368D01*
X148691651Y-52639962D01*
X148684419Y-52619750D01*
X148679203Y-52598926D01*
X148676053Y-52577691D01*
X148675000Y-52556250D01*
X148675000Y-52043750D01*
X148676053Y-52022309D01*
X148679203Y-52001074D01*
X148684419Y-51980250D01*
X148691651Y-51960038D01*
X148700830Y-51940632D01*
X148711866Y-51922219D01*
X148724654Y-51904976D01*
X148739070Y-51889070D01*
X148754976Y-51874654D01*
X148772219Y-51861866D01*
X148790632Y-51850830D01*
X148810038Y-51841651D01*
X148830250Y-51834419D01*
X148851074Y-51829203D01*
X148872309Y-51826053D01*
X148893750Y-51825000D01*
X149331250Y-51825000D01*
X149352691Y-51826053D01*
G37*
G36*
X150927691Y-51826053D02*
G01*
X150948926Y-51829203D01*
X150969750Y-51834419D01*
X150989962Y-51841651D01*
X151009368Y-51850830D01*
X151027781Y-51861866D01*
X151045024Y-51874654D01*
X151060930Y-51889070D01*
X151075346Y-51904976D01*
X151088134Y-51922219D01*
X151099170Y-51940632D01*
X151108349Y-51960038D01*
X151115581Y-51980250D01*
X151120797Y-52001074D01*
X151123947Y-52022309D01*
X151125000Y-52043750D01*
X151125000Y-52556250D01*
X151123947Y-52577691D01*
X151120797Y-52598926D01*
X151115581Y-52619750D01*
X151108349Y-52639962D01*
X151099170Y-52659368D01*
X151088134Y-52677781D01*
X151075346Y-52695024D01*
X151060930Y-52710930D01*
X151045024Y-52725346D01*
X151027781Y-52738134D01*
X151009368Y-52749170D01*
X150989962Y-52758349D01*
X150969750Y-52765581D01*
X150948926Y-52770797D01*
X150927691Y-52773947D01*
X150906250Y-52775000D01*
X150468750Y-52775000D01*
X150447309Y-52773947D01*
X150426074Y-52770797D01*
X150405250Y-52765581D01*
X150385038Y-52758349D01*
X150365632Y-52749170D01*
X150347219Y-52738134D01*
X150329976Y-52725346D01*
X150314070Y-52710930D01*
X150299654Y-52695024D01*
X150286866Y-52677781D01*
X150275830Y-52659368D01*
X150266651Y-52639962D01*
X150259419Y-52619750D01*
X150254203Y-52598926D01*
X150251053Y-52577691D01*
X150250000Y-52556250D01*
X150250000Y-52043750D01*
X150251053Y-52022309D01*
X150254203Y-52001074D01*
X150259419Y-51980250D01*
X150266651Y-51960038D01*
X150275830Y-51940632D01*
X150286866Y-51922219D01*
X150299654Y-51904976D01*
X150314070Y-51889070D01*
X150329976Y-51874654D01*
X150347219Y-51861866D01*
X150365632Y-51850830D01*
X150385038Y-51841651D01*
X150405250Y-51834419D01*
X150426074Y-51829203D01*
X150447309Y-51826053D01*
X150468750Y-51825000D01*
X150906250Y-51825000D01*
X150927691Y-51826053D01*
G37*
G36*
X183427691Y-84636053D02*
G01*
X183448926Y-84639203D01*
X183469750Y-84644419D01*
X183489962Y-84651651D01*
X183509368Y-84660830D01*
X183527781Y-84671866D01*
X183545024Y-84684654D01*
X183560930Y-84699070D01*
X183575346Y-84714976D01*
X183588134Y-84732219D01*
X183599170Y-84750632D01*
X183608349Y-84770038D01*
X183615581Y-84790250D01*
X183620797Y-84811074D01*
X183623947Y-84832309D01*
X183625000Y-84853750D01*
X183625000Y-85366250D01*
X183623947Y-85387691D01*
X183620797Y-85408926D01*
X183615581Y-85429750D01*
X183608349Y-85449962D01*
X183599170Y-85469368D01*
X183588134Y-85487781D01*
X183575346Y-85505024D01*
X183560930Y-85520930D01*
X183545024Y-85535346D01*
X183527781Y-85548134D01*
X183509368Y-85559170D01*
X183489962Y-85568349D01*
X183469750Y-85575581D01*
X183448926Y-85580797D01*
X183427691Y-85583947D01*
X183406250Y-85585000D01*
X182968750Y-85585000D01*
X182947309Y-85583947D01*
X182926074Y-85580797D01*
X182905250Y-85575581D01*
X182885038Y-85568349D01*
X182865632Y-85559170D01*
X182847219Y-85548134D01*
X182829976Y-85535346D01*
X182814070Y-85520930D01*
X182799654Y-85505024D01*
X182786866Y-85487781D01*
X182775830Y-85469368D01*
X182766651Y-85449962D01*
X182759419Y-85429750D01*
X182754203Y-85408926D01*
X182751053Y-85387691D01*
X182750000Y-85366250D01*
X182750000Y-84853750D01*
X182751053Y-84832309D01*
X182754203Y-84811074D01*
X182759419Y-84790250D01*
X182766651Y-84770038D01*
X182775830Y-84750632D01*
X182786866Y-84732219D01*
X182799654Y-84714976D01*
X182814070Y-84699070D01*
X182829976Y-84684654D01*
X182847219Y-84671866D01*
X182865632Y-84660830D01*
X182885038Y-84651651D01*
X182905250Y-84644419D01*
X182926074Y-84639203D01*
X182947309Y-84636053D01*
X182968750Y-84635000D01*
X183406250Y-84635000D01*
X183427691Y-84636053D01*
G37*
G36*
X181852691Y-84636053D02*
G01*
X181873926Y-84639203D01*
X181894750Y-84644419D01*
X181914962Y-84651651D01*
X181934368Y-84660830D01*
X181952781Y-84671866D01*
X181970024Y-84684654D01*
X181985930Y-84699070D01*
X182000346Y-84714976D01*
X182013134Y-84732219D01*
X182024170Y-84750632D01*
X182033349Y-84770038D01*
X182040581Y-84790250D01*
X182045797Y-84811074D01*
X182048947Y-84832309D01*
X182050000Y-84853750D01*
X182050000Y-85366250D01*
X182048947Y-85387691D01*
X182045797Y-85408926D01*
X182040581Y-85429750D01*
X182033349Y-85449962D01*
X182024170Y-85469368D01*
X182013134Y-85487781D01*
X182000346Y-85505024D01*
X181985930Y-85520930D01*
X181970024Y-85535346D01*
X181952781Y-85548134D01*
X181934368Y-85559170D01*
X181914962Y-85568349D01*
X181894750Y-85575581D01*
X181873926Y-85580797D01*
X181852691Y-85583947D01*
X181831250Y-85585000D01*
X181393750Y-85585000D01*
X181372309Y-85583947D01*
X181351074Y-85580797D01*
X181330250Y-85575581D01*
X181310038Y-85568349D01*
X181290632Y-85559170D01*
X181272219Y-85548134D01*
X181254976Y-85535346D01*
X181239070Y-85520930D01*
X181224654Y-85505024D01*
X181211866Y-85487781D01*
X181200830Y-85469368D01*
X181191651Y-85449962D01*
X181184419Y-85429750D01*
X181179203Y-85408926D01*
X181176053Y-85387691D01*
X181175000Y-85366250D01*
X181175000Y-84853750D01*
X181176053Y-84832309D01*
X181179203Y-84811074D01*
X181184419Y-84790250D01*
X181191651Y-84770038D01*
X181200830Y-84750632D01*
X181211866Y-84732219D01*
X181224654Y-84714976D01*
X181239070Y-84699070D01*
X181254976Y-84684654D01*
X181272219Y-84671866D01*
X181290632Y-84660830D01*
X181310038Y-84651651D01*
X181330250Y-84644419D01*
X181351074Y-84639203D01*
X181372309Y-84636053D01*
X181393750Y-84635000D01*
X181831250Y-84635000D01*
X181852691Y-84636053D01*
G37*
G36*
X170877691Y-93151053D02*
G01*
X170898926Y-93154203D01*
X170919750Y-93159419D01*
X170939962Y-93166651D01*
X170959368Y-93175830D01*
X170977781Y-93186866D01*
X170995024Y-93199654D01*
X171010930Y-93214070D01*
X171025346Y-93229976D01*
X171038134Y-93247219D01*
X171049170Y-93265632D01*
X171058349Y-93285038D01*
X171065581Y-93305250D01*
X171070797Y-93326074D01*
X171073947Y-93347309D01*
X171075000Y-93368750D01*
X171075000Y-93806250D01*
X171073947Y-93827691D01*
X171070797Y-93848926D01*
X171065581Y-93869750D01*
X171058349Y-93889962D01*
X171049170Y-93909368D01*
X171038134Y-93927781D01*
X171025346Y-93945024D01*
X171010930Y-93960930D01*
X170995024Y-93975346D01*
X170977781Y-93988134D01*
X170959368Y-93999170D01*
X170939962Y-94008349D01*
X170919750Y-94015581D01*
X170898926Y-94020797D01*
X170877691Y-94023947D01*
X170856250Y-94025000D01*
X170343750Y-94025000D01*
X170322309Y-94023947D01*
X170301074Y-94020797D01*
X170280250Y-94015581D01*
X170260038Y-94008349D01*
X170240632Y-93999170D01*
X170222219Y-93988134D01*
X170204976Y-93975346D01*
X170189070Y-93960930D01*
X170174654Y-93945024D01*
X170161866Y-93927781D01*
X170150830Y-93909368D01*
X170141651Y-93889962D01*
X170134419Y-93869750D01*
X170129203Y-93848926D01*
X170126053Y-93827691D01*
X170125000Y-93806250D01*
X170125000Y-93368750D01*
X170126053Y-93347309D01*
X170129203Y-93326074D01*
X170134419Y-93305250D01*
X170141651Y-93285038D01*
X170150830Y-93265632D01*
X170161866Y-93247219D01*
X170174654Y-93229976D01*
X170189070Y-93214070D01*
X170204976Y-93199654D01*
X170222219Y-93186866D01*
X170240632Y-93175830D01*
X170260038Y-93166651D01*
X170280250Y-93159419D01*
X170301074Y-93154203D01*
X170322309Y-93151053D01*
X170343750Y-93150000D01*
X170856250Y-93150000D01*
X170877691Y-93151053D01*
G37*
G36*
X170877691Y-91576053D02*
G01*
X170898926Y-91579203D01*
X170919750Y-91584419D01*
X170939962Y-91591651D01*
X170959368Y-91600830D01*
X170977781Y-91611866D01*
X170995024Y-91624654D01*
X171010930Y-91639070D01*
X171025346Y-91654976D01*
X171038134Y-91672219D01*
X171049170Y-91690632D01*
X171058349Y-91710038D01*
X171065581Y-91730250D01*
X171070797Y-91751074D01*
X171073947Y-91772309D01*
X171075000Y-91793750D01*
X171075000Y-92231250D01*
X171073947Y-92252691D01*
X171070797Y-92273926D01*
X171065581Y-92294750D01*
X171058349Y-92314962D01*
X171049170Y-92334368D01*
X171038134Y-92352781D01*
X171025346Y-92370024D01*
X171010930Y-92385930D01*
X170995024Y-92400346D01*
X170977781Y-92413134D01*
X170959368Y-92424170D01*
X170939962Y-92433349D01*
X170919750Y-92440581D01*
X170898926Y-92445797D01*
X170877691Y-92448947D01*
X170856250Y-92450000D01*
X170343750Y-92450000D01*
X170322309Y-92448947D01*
X170301074Y-92445797D01*
X170280250Y-92440581D01*
X170260038Y-92433349D01*
X170240632Y-92424170D01*
X170222219Y-92413134D01*
X170204976Y-92400346D01*
X170189070Y-92385930D01*
X170174654Y-92370024D01*
X170161866Y-92352781D01*
X170150830Y-92334368D01*
X170141651Y-92314962D01*
X170134419Y-92294750D01*
X170129203Y-92273926D01*
X170126053Y-92252691D01*
X170125000Y-92231250D01*
X170125000Y-91793750D01*
X170126053Y-91772309D01*
X170129203Y-91751074D01*
X170134419Y-91730250D01*
X170141651Y-91710038D01*
X170150830Y-91690632D01*
X170161866Y-91672219D01*
X170174654Y-91654976D01*
X170189070Y-91639070D01*
X170204976Y-91624654D01*
X170222219Y-91611866D01*
X170240632Y-91600830D01*
X170260038Y-91591651D01*
X170280250Y-91584419D01*
X170301074Y-91579203D01*
X170322309Y-91576053D01*
X170343750Y-91575000D01*
X170856250Y-91575000D01*
X170877691Y-91576053D01*
G37*
G36*
X172582691Y-82296053D02*
G01*
X172603926Y-82299203D01*
X172624750Y-82304419D01*
X172644962Y-82311651D01*
X172664368Y-82320830D01*
X172682781Y-82331866D01*
X172700024Y-82344654D01*
X172715930Y-82359070D01*
X172730346Y-82374976D01*
X172743134Y-82392219D01*
X172754170Y-82410632D01*
X172763349Y-82430038D01*
X172770581Y-82450250D01*
X172775797Y-82471074D01*
X172778947Y-82492309D01*
X172780000Y-82513750D01*
X172780000Y-83026250D01*
X172778947Y-83047691D01*
X172775797Y-83068926D01*
X172770581Y-83089750D01*
X172763349Y-83109962D01*
X172754170Y-83129368D01*
X172743134Y-83147781D01*
X172730346Y-83165024D01*
X172715930Y-83180930D01*
X172700024Y-83195346D01*
X172682781Y-83208134D01*
X172664368Y-83219170D01*
X172644962Y-83228349D01*
X172624750Y-83235581D01*
X172603926Y-83240797D01*
X172582691Y-83243947D01*
X172561250Y-83245000D01*
X172123750Y-83245000D01*
X172102309Y-83243947D01*
X172081074Y-83240797D01*
X172060250Y-83235581D01*
X172040038Y-83228349D01*
X172020632Y-83219170D01*
X172002219Y-83208134D01*
X171984976Y-83195346D01*
X171969070Y-83180930D01*
X171954654Y-83165024D01*
X171941866Y-83147781D01*
X171930830Y-83129368D01*
X171921651Y-83109962D01*
X171914419Y-83089750D01*
X171909203Y-83068926D01*
X171906053Y-83047691D01*
X171905000Y-83026250D01*
X171905000Y-82513750D01*
X171906053Y-82492309D01*
X171909203Y-82471074D01*
X171914419Y-82450250D01*
X171921651Y-82430038D01*
X171930830Y-82410632D01*
X171941866Y-82392219D01*
X171954654Y-82374976D01*
X171969070Y-82359070D01*
X171984976Y-82344654D01*
X172002219Y-82331866D01*
X172020632Y-82320830D01*
X172040038Y-82311651D01*
X172060250Y-82304419D01*
X172081074Y-82299203D01*
X172102309Y-82296053D01*
X172123750Y-82295000D01*
X172561250Y-82295000D01*
X172582691Y-82296053D01*
G37*
G36*
X174157691Y-82296053D02*
G01*
X174178926Y-82299203D01*
X174199750Y-82304419D01*
X174219962Y-82311651D01*
X174239368Y-82320830D01*
X174257781Y-82331866D01*
X174275024Y-82344654D01*
X174290930Y-82359070D01*
X174305346Y-82374976D01*
X174318134Y-82392219D01*
X174329170Y-82410632D01*
X174338349Y-82430038D01*
X174345581Y-82450250D01*
X174350797Y-82471074D01*
X174353947Y-82492309D01*
X174355000Y-82513750D01*
X174355000Y-83026250D01*
X174353947Y-83047691D01*
X174350797Y-83068926D01*
X174345581Y-83089750D01*
X174338349Y-83109962D01*
X174329170Y-83129368D01*
X174318134Y-83147781D01*
X174305346Y-83165024D01*
X174290930Y-83180930D01*
X174275024Y-83195346D01*
X174257781Y-83208134D01*
X174239368Y-83219170D01*
X174219962Y-83228349D01*
X174199750Y-83235581D01*
X174178926Y-83240797D01*
X174157691Y-83243947D01*
X174136250Y-83245000D01*
X173698750Y-83245000D01*
X173677309Y-83243947D01*
X173656074Y-83240797D01*
X173635250Y-83235581D01*
X173615038Y-83228349D01*
X173595632Y-83219170D01*
X173577219Y-83208134D01*
X173559976Y-83195346D01*
X173544070Y-83180930D01*
X173529654Y-83165024D01*
X173516866Y-83147781D01*
X173505830Y-83129368D01*
X173496651Y-83109962D01*
X173489419Y-83089750D01*
X173484203Y-83068926D01*
X173481053Y-83047691D01*
X173480000Y-83026250D01*
X173480000Y-82513750D01*
X173481053Y-82492309D01*
X173484203Y-82471074D01*
X173489419Y-82450250D01*
X173496651Y-82430038D01*
X173505830Y-82410632D01*
X173516866Y-82392219D01*
X173529654Y-82374976D01*
X173544070Y-82359070D01*
X173559976Y-82344654D01*
X173577219Y-82331866D01*
X173595632Y-82320830D01*
X173615038Y-82311651D01*
X173635250Y-82304419D01*
X173656074Y-82299203D01*
X173677309Y-82296053D01*
X173698750Y-82295000D01*
X174136250Y-82295000D01*
X174157691Y-82296053D01*
G37*
G36*
X165967691Y-50461053D02*
G01*
X165988926Y-50464203D01*
X166009750Y-50469419D01*
X166029962Y-50476651D01*
X166049368Y-50485830D01*
X166067781Y-50496866D01*
X166085024Y-50509654D01*
X166100930Y-50524070D01*
X166115346Y-50539976D01*
X166128134Y-50557219D01*
X166139170Y-50575632D01*
X166148349Y-50595038D01*
X166155581Y-50615250D01*
X166160797Y-50636074D01*
X166163947Y-50657309D01*
X166165000Y-50678750D01*
X166165000Y-51116250D01*
X166163947Y-51137691D01*
X166160797Y-51158926D01*
X166155581Y-51179750D01*
X166148349Y-51199962D01*
X166139170Y-51219368D01*
X166128134Y-51237781D01*
X166115346Y-51255024D01*
X166100930Y-51270930D01*
X166085024Y-51285346D01*
X166067781Y-51298134D01*
X166049368Y-51309170D01*
X166029962Y-51318349D01*
X166009750Y-51325581D01*
X165988926Y-51330797D01*
X165967691Y-51333947D01*
X165946250Y-51335000D01*
X165433750Y-51335000D01*
X165412309Y-51333947D01*
X165391074Y-51330797D01*
X165370250Y-51325581D01*
X165350038Y-51318349D01*
X165330632Y-51309170D01*
X165312219Y-51298134D01*
X165294976Y-51285346D01*
X165279070Y-51270930D01*
X165264654Y-51255024D01*
X165251866Y-51237781D01*
X165240830Y-51219368D01*
X165231651Y-51199962D01*
X165224419Y-51179750D01*
X165219203Y-51158926D01*
X165216053Y-51137691D01*
X165215000Y-51116250D01*
X165215000Y-50678750D01*
X165216053Y-50657309D01*
X165219203Y-50636074D01*
X165224419Y-50615250D01*
X165231651Y-50595038D01*
X165240830Y-50575632D01*
X165251866Y-50557219D01*
X165264654Y-50539976D01*
X165279070Y-50524070D01*
X165294976Y-50509654D01*
X165312219Y-50496866D01*
X165330632Y-50485830D01*
X165350038Y-50476651D01*
X165370250Y-50469419D01*
X165391074Y-50464203D01*
X165412309Y-50461053D01*
X165433750Y-50460000D01*
X165946250Y-50460000D01*
X165967691Y-50461053D01*
G37*
G36*
X165967691Y-48886053D02*
G01*
X165988926Y-48889203D01*
X166009750Y-48894419D01*
X166029962Y-48901651D01*
X166049368Y-48910830D01*
X166067781Y-48921866D01*
X166085024Y-48934654D01*
X166100930Y-48949070D01*
X166115346Y-48964976D01*
X166128134Y-48982219D01*
X166139170Y-49000632D01*
X166148349Y-49020038D01*
X166155581Y-49040250D01*
X166160797Y-49061074D01*
X166163947Y-49082309D01*
X166165000Y-49103750D01*
X166165000Y-49541250D01*
X166163947Y-49562691D01*
X166160797Y-49583926D01*
X166155581Y-49604750D01*
X166148349Y-49624962D01*
X166139170Y-49644368D01*
X166128134Y-49662781D01*
X166115346Y-49680024D01*
X166100930Y-49695930D01*
X166085024Y-49710346D01*
X166067781Y-49723134D01*
X166049368Y-49734170D01*
X166029962Y-49743349D01*
X166009750Y-49750581D01*
X165988926Y-49755797D01*
X165967691Y-49758947D01*
X165946250Y-49760000D01*
X165433750Y-49760000D01*
X165412309Y-49758947D01*
X165391074Y-49755797D01*
X165370250Y-49750581D01*
X165350038Y-49743349D01*
X165330632Y-49734170D01*
X165312219Y-49723134D01*
X165294976Y-49710346D01*
X165279070Y-49695930D01*
X165264654Y-49680024D01*
X165251866Y-49662781D01*
X165240830Y-49644368D01*
X165231651Y-49624962D01*
X165224419Y-49604750D01*
X165219203Y-49583926D01*
X165216053Y-49562691D01*
X165215000Y-49541250D01*
X165215000Y-49103750D01*
X165216053Y-49082309D01*
X165219203Y-49061074D01*
X165224419Y-49040250D01*
X165231651Y-49020038D01*
X165240830Y-49000632D01*
X165251866Y-48982219D01*
X165264654Y-48964976D01*
X165279070Y-48949070D01*
X165294976Y-48934654D01*
X165312219Y-48921866D01*
X165330632Y-48910830D01*
X165350038Y-48901651D01*
X165370250Y-48894419D01*
X165391074Y-48889203D01*
X165412309Y-48886053D01*
X165433750Y-48885000D01*
X165946250Y-48885000D01*
X165967691Y-48886053D01*
G37*
G36*
X157827691Y-52426053D02*
G01*
X157848926Y-52429203D01*
X157869750Y-52434419D01*
X157889962Y-52441651D01*
X157909368Y-52450830D01*
X157927781Y-52461866D01*
X157945024Y-52474654D01*
X157960930Y-52489070D01*
X157975346Y-52504976D01*
X157988134Y-52522219D01*
X157999170Y-52540632D01*
X158008349Y-52560038D01*
X158015581Y-52580250D01*
X158020797Y-52601074D01*
X158023947Y-52622309D01*
X158025000Y-52643750D01*
X158025000Y-53156250D01*
X158023947Y-53177691D01*
X158020797Y-53198926D01*
X158015581Y-53219750D01*
X158008349Y-53239962D01*
X157999170Y-53259368D01*
X157988134Y-53277781D01*
X157975346Y-53295024D01*
X157960930Y-53310930D01*
X157945024Y-53325346D01*
X157927781Y-53338134D01*
X157909368Y-53349170D01*
X157889962Y-53358349D01*
X157869750Y-53365581D01*
X157848926Y-53370797D01*
X157827691Y-53373947D01*
X157806250Y-53375000D01*
X157368750Y-53375000D01*
X157347309Y-53373947D01*
X157326074Y-53370797D01*
X157305250Y-53365581D01*
X157285038Y-53358349D01*
X157265632Y-53349170D01*
X157247219Y-53338134D01*
X157229976Y-53325346D01*
X157214070Y-53310930D01*
X157199654Y-53295024D01*
X157186866Y-53277781D01*
X157175830Y-53259368D01*
X157166651Y-53239962D01*
X157159419Y-53219750D01*
X157154203Y-53198926D01*
X157151053Y-53177691D01*
X157150000Y-53156250D01*
X157150000Y-52643750D01*
X157151053Y-52622309D01*
X157154203Y-52601074D01*
X157159419Y-52580250D01*
X157166651Y-52560038D01*
X157175830Y-52540632D01*
X157186866Y-52522219D01*
X157199654Y-52504976D01*
X157214070Y-52489070D01*
X157229976Y-52474654D01*
X157247219Y-52461866D01*
X157265632Y-52450830D01*
X157285038Y-52441651D01*
X157305250Y-52434419D01*
X157326074Y-52429203D01*
X157347309Y-52426053D01*
X157368750Y-52425000D01*
X157806250Y-52425000D01*
X157827691Y-52426053D01*
G37*
G36*
X156252691Y-52426053D02*
G01*
X156273926Y-52429203D01*
X156294750Y-52434419D01*
X156314962Y-52441651D01*
X156334368Y-52450830D01*
X156352781Y-52461866D01*
X156370024Y-52474654D01*
X156385930Y-52489070D01*
X156400346Y-52504976D01*
X156413134Y-52522219D01*
X156424170Y-52540632D01*
X156433349Y-52560038D01*
X156440581Y-52580250D01*
X156445797Y-52601074D01*
X156448947Y-52622309D01*
X156450000Y-52643750D01*
X156450000Y-53156250D01*
X156448947Y-53177691D01*
X156445797Y-53198926D01*
X156440581Y-53219750D01*
X156433349Y-53239962D01*
X156424170Y-53259368D01*
X156413134Y-53277781D01*
X156400346Y-53295024D01*
X156385930Y-53310930D01*
X156370024Y-53325346D01*
X156352781Y-53338134D01*
X156334368Y-53349170D01*
X156314962Y-53358349D01*
X156294750Y-53365581D01*
X156273926Y-53370797D01*
X156252691Y-53373947D01*
X156231250Y-53375000D01*
X155793750Y-53375000D01*
X155772309Y-53373947D01*
X155751074Y-53370797D01*
X155730250Y-53365581D01*
X155710038Y-53358349D01*
X155690632Y-53349170D01*
X155672219Y-53338134D01*
X155654976Y-53325346D01*
X155639070Y-53310930D01*
X155624654Y-53295024D01*
X155611866Y-53277781D01*
X155600830Y-53259368D01*
X155591651Y-53239962D01*
X155584419Y-53219750D01*
X155579203Y-53198926D01*
X155576053Y-53177691D01*
X155575000Y-53156250D01*
X155575000Y-52643750D01*
X155576053Y-52622309D01*
X155579203Y-52601074D01*
X155584419Y-52580250D01*
X155591651Y-52560038D01*
X155600830Y-52540632D01*
X155611866Y-52522219D01*
X155624654Y-52504976D01*
X155639070Y-52489070D01*
X155654976Y-52474654D01*
X155672219Y-52461866D01*
X155690632Y-52450830D01*
X155710038Y-52441651D01*
X155730250Y-52434419D01*
X155751074Y-52429203D01*
X155772309Y-52426053D01*
X155793750Y-52425000D01*
X156231250Y-52425000D01*
X156252691Y-52426053D01*
G37*
G36*
X157315191Y-47926053D02*
G01*
X157336426Y-47929203D01*
X157357250Y-47934419D01*
X157377462Y-47941651D01*
X157396868Y-47950830D01*
X157415281Y-47961866D01*
X157432524Y-47974654D01*
X157448430Y-47989070D01*
X157462846Y-48004976D01*
X157475634Y-48022219D01*
X157486670Y-48040632D01*
X157495849Y-48060038D01*
X157503081Y-48080250D01*
X157508297Y-48101074D01*
X157511447Y-48122309D01*
X157512500Y-48143750D01*
X157512500Y-48656250D01*
X157511447Y-48677691D01*
X157508297Y-48698926D01*
X157503081Y-48719750D01*
X157495849Y-48739962D01*
X157486670Y-48759368D01*
X157475634Y-48777781D01*
X157462846Y-48795024D01*
X157448430Y-48810930D01*
X157432524Y-48825346D01*
X157415281Y-48838134D01*
X157396868Y-48849170D01*
X157377462Y-48858349D01*
X157357250Y-48865581D01*
X157336426Y-48870797D01*
X157315191Y-48873947D01*
X157293750Y-48875000D01*
X156856250Y-48875000D01*
X156834809Y-48873947D01*
X156813574Y-48870797D01*
X156792750Y-48865581D01*
X156772538Y-48858349D01*
X156753132Y-48849170D01*
X156734719Y-48838134D01*
X156717476Y-48825346D01*
X156701570Y-48810930D01*
X156687154Y-48795024D01*
X156674366Y-48777781D01*
X156663330Y-48759368D01*
X156654151Y-48739962D01*
X156646919Y-48719750D01*
X156641703Y-48698926D01*
X156638553Y-48677691D01*
X156637500Y-48656250D01*
X156637500Y-48143750D01*
X156638553Y-48122309D01*
X156641703Y-48101074D01*
X156646919Y-48080250D01*
X156654151Y-48060038D01*
X156663330Y-48040632D01*
X156674366Y-48022219D01*
X156687154Y-48004976D01*
X156701570Y-47989070D01*
X156717476Y-47974654D01*
X156734719Y-47961866D01*
X156753132Y-47950830D01*
X156772538Y-47941651D01*
X156792750Y-47934419D01*
X156813574Y-47929203D01*
X156834809Y-47926053D01*
X156856250Y-47925000D01*
X157293750Y-47925000D01*
X157315191Y-47926053D01*
G37*
G36*
X155740191Y-47926053D02*
G01*
X155761426Y-47929203D01*
X155782250Y-47934419D01*
X155802462Y-47941651D01*
X155821868Y-47950830D01*
X155840281Y-47961866D01*
X155857524Y-47974654D01*
X155873430Y-47989070D01*
X155887846Y-48004976D01*
X155900634Y-48022219D01*
X155911670Y-48040632D01*
X155920849Y-48060038D01*
X155928081Y-48080250D01*
X155933297Y-48101074D01*
X155936447Y-48122309D01*
X155937500Y-48143750D01*
X155937500Y-48656250D01*
X155936447Y-48677691D01*
X155933297Y-48698926D01*
X155928081Y-48719750D01*
X155920849Y-48739962D01*
X155911670Y-48759368D01*
X155900634Y-48777781D01*
X155887846Y-48795024D01*
X155873430Y-48810930D01*
X155857524Y-48825346D01*
X155840281Y-48838134D01*
X155821868Y-48849170D01*
X155802462Y-48858349D01*
X155782250Y-48865581D01*
X155761426Y-48870797D01*
X155740191Y-48873947D01*
X155718750Y-48875000D01*
X155281250Y-48875000D01*
X155259809Y-48873947D01*
X155238574Y-48870797D01*
X155217750Y-48865581D01*
X155197538Y-48858349D01*
X155178132Y-48849170D01*
X155159719Y-48838134D01*
X155142476Y-48825346D01*
X155126570Y-48810930D01*
X155112154Y-48795024D01*
X155099366Y-48777781D01*
X155088330Y-48759368D01*
X155079151Y-48739962D01*
X155071919Y-48719750D01*
X155066703Y-48698926D01*
X155063553Y-48677691D01*
X155062500Y-48656250D01*
X155062500Y-48143750D01*
X155063553Y-48122309D01*
X155066703Y-48101074D01*
X155071919Y-48080250D01*
X155079151Y-48060038D01*
X155088330Y-48040632D01*
X155099366Y-48022219D01*
X155112154Y-48004976D01*
X155126570Y-47989070D01*
X155142476Y-47974654D01*
X155159719Y-47961866D01*
X155178132Y-47950830D01*
X155197538Y-47941651D01*
X155217750Y-47934419D01*
X155238574Y-47929203D01*
X155259809Y-47926053D01*
X155281250Y-47925000D01*
X155718750Y-47925000D01*
X155740191Y-47926053D01*
G37*
G36*
X154627691Y-49626053D02*
G01*
X154648926Y-49629203D01*
X154669750Y-49634419D01*
X154689962Y-49641651D01*
X154709368Y-49650830D01*
X154727781Y-49661866D01*
X154745024Y-49674654D01*
X154760930Y-49689070D01*
X154775346Y-49704976D01*
X154788134Y-49722219D01*
X154799170Y-49740632D01*
X154808349Y-49760038D01*
X154815581Y-49780250D01*
X154820797Y-49801074D01*
X154823947Y-49822309D01*
X154825000Y-49843750D01*
X154825000Y-50356250D01*
X154823947Y-50377691D01*
X154820797Y-50398926D01*
X154815581Y-50419750D01*
X154808349Y-50439962D01*
X154799170Y-50459368D01*
X154788134Y-50477781D01*
X154775346Y-50495024D01*
X154760930Y-50510930D01*
X154745024Y-50525346D01*
X154727781Y-50538134D01*
X154709368Y-50549170D01*
X154689962Y-50558349D01*
X154669750Y-50565581D01*
X154648926Y-50570797D01*
X154627691Y-50573947D01*
X154606250Y-50575000D01*
X154168750Y-50575000D01*
X154147309Y-50573947D01*
X154126074Y-50570797D01*
X154105250Y-50565581D01*
X154085038Y-50558349D01*
X154065632Y-50549170D01*
X154047219Y-50538134D01*
X154029976Y-50525346D01*
X154014070Y-50510930D01*
X153999654Y-50495024D01*
X153986866Y-50477781D01*
X153975830Y-50459368D01*
X153966651Y-50439962D01*
X153959419Y-50419750D01*
X153954203Y-50398926D01*
X153951053Y-50377691D01*
X153950000Y-50356250D01*
X153950000Y-49843750D01*
X153951053Y-49822309D01*
X153954203Y-49801074D01*
X153959419Y-49780250D01*
X153966651Y-49760038D01*
X153975830Y-49740632D01*
X153986866Y-49722219D01*
X153999654Y-49704976D01*
X154014070Y-49689070D01*
X154029976Y-49674654D01*
X154047219Y-49661866D01*
X154065632Y-49650830D01*
X154085038Y-49641651D01*
X154105250Y-49634419D01*
X154126074Y-49629203D01*
X154147309Y-49626053D01*
X154168750Y-49625000D01*
X154606250Y-49625000D01*
X154627691Y-49626053D01*
G37*
G36*
X153052691Y-49626053D02*
G01*
X153073926Y-49629203D01*
X153094750Y-49634419D01*
X153114962Y-49641651D01*
X153134368Y-49650830D01*
X153152781Y-49661866D01*
X153170024Y-49674654D01*
X153185930Y-49689070D01*
X153200346Y-49704976D01*
X153213134Y-49722219D01*
X153224170Y-49740632D01*
X153233349Y-49760038D01*
X153240581Y-49780250D01*
X153245797Y-49801074D01*
X153248947Y-49822309D01*
X153250000Y-49843750D01*
X153250000Y-50356250D01*
X153248947Y-50377691D01*
X153245797Y-50398926D01*
X153240581Y-50419750D01*
X153233349Y-50439962D01*
X153224170Y-50459368D01*
X153213134Y-50477781D01*
X153200346Y-50495024D01*
X153185930Y-50510930D01*
X153170024Y-50525346D01*
X153152781Y-50538134D01*
X153134368Y-50549170D01*
X153114962Y-50558349D01*
X153094750Y-50565581D01*
X153073926Y-50570797D01*
X153052691Y-50573947D01*
X153031250Y-50575000D01*
X152593750Y-50575000D01*
X152572309Y-50573947D01*
X152551074Y-50570797D01*
X152530250Y-50565581D01*
X152510038Y-50558349D01*
X152490632Y-50549170D01*
X152472219Y-50538134D01*
X152454976Y-50525346D01*
X152439070Y-50510930D01*
X152424654Y-50495024D01*
X152411866Y-50477781D01*
X152400830Y-50459368D01*
X152391651Y-50439962D01*
X152384419Y-50419750D01*
X152379203Y-50398926D01*
X152376053Y-50377691D01*
X152375000Y-50356250D01*
X152375000Y-49843750D01*
X152376053Y-49822309D01*
X152379203Y-49801074D01*
X152384419Y-49780250D01*
X152391651Y-49760038D01*
X152400830Y-49740632D01*
X152411866Y-49722219D01*
X152424654Y-49704976D01*
X152439070Y-49689070D01*
X152454976Y-49674654D01*
X152472219Y-49661866D01*
X152490632Y-49650830D01*
X152510038Y-49641651D01*
X152530250Y-49634419D01*
X152551074Y-49629203D01*
X152572309Y-49626053D01*
X152593750Y-49625000D01*
X153031250Y-49625000D01*
X153052691Y-49626053D01*
G37*
D13*
X175700000Y-88200000D03*
D14*
X178000000Y-86700000D03*
X178000000Y-87200000D03*
X178000000Y-87700000D03*
X178000000Y-88200000D03*
X178000000Y-88700000D03*
X178000000Y-89200000D03*
X178000000Y-89700000D03*
D15*
X177200000Y-90500000D03*
X176700000Y-90500000D03*
X176200000Y-90500000D03*
X175700000Y-90500000D03*
X175200000Y-90500000D03*
X174700000Y-90500000D03*
X174200000Y-90500000D03*
D14*
X173400000Y-89700000D03*
X173400000Y-89200000D03*
X173400000Y-88700000D03*
X173400000Y-88200000D03*
X173400000Y-87700000D03*
X173400000Y-87200000D03*
X173400000Y-86700000D03*
D15*
X174200000Y-85900000D03*
X174700000Y-85900000D03*
X175200000Y-85900000D03*
X175700000Y-85900000D03*
X176200000Y-85900000D03*
X176700000Y-85900000D03*
X177200000Y-85900000D03*
M02*
