G04 #@! TF.GenerationSoftware,KiCad,Pcbnew,(5.1.5)-3*
G04 #@! TF.CreationDate,2020-04-08T11:42:18+02:00*
G04 #@! TF.ProjectId,sensing_PMU,73656e73-696e-4675-9f50-4d552e6b6963,0.0*
G04 #@! TF.SameCoordinates,Original*
G04 #@! TF.FileFunction,Copper,L3,Inr*
G04 #@! TF.FilePolarity,Positive*
%FSLAX46Y46*%
G04 Gerber Fmt 4.6, Leading zero omitted, Abs format (unit mm)*
G04 Created by KiCad (PCBNEW (5.1.5)-3) date 2020-04-08 11:42:18*
%MOMM*%
%LPD*%
G04 APERTURE LIST*
%ADD10C,1.524000*%
%ADD11C,1.800000*%
%ADD12C,4.000000*%
%ADD13O,1.700000X1.700000*%
%ADD14R,1.700000X1.700000*%
%ADD15C,1.830000*%
%ADD16C,0.758000*%
%ADD17C,0.800000*%
%ADD18C,0.254000*%
G04 APERTURE END LIST*
D10*
X141700000Y-42800000D03*
X141700000Y-45340000D03*
X141700000Y-47880000D03*
X141700000Y-50420000D03*
X141700000Y-52960000D03*
X141700000Y-55500000D03*
X141700000Y-58040000D03*
X141700000Y-60580000D03*
X184880000Y-42800000D03*
X184880000Y-45340000D03*
X184880000Y-47880000D03*
X184880000Y-50420000D03*
X184880000Y-52960000D03*
X184880000Y-55500000D03*
X184880000Y-58040000D03*
X184880000Y-60580000D03*
D11*
X176930000Y-109170000D03*
X179470000Y-109170000D03*
D12*
X193600000Y-56800000D03*
X229600000Y-56800000D03*
X193600000Y-80920000D03*
X229600000Y-80920000D03*
X193500000Y-105000000D03*
X229500000Y-105000000D03*
X132800000Y-104600000D03*
X96800000Y-104600000D03*
X132800000Y-80480000D03*
X96800000Y-80480000D03*
X96700000Y-56000000D03*
X132700000Y-56000000D03*
D13*
X164100000Y-118340000D03*
D14*
X164100000Y-115800000D03*
D13*
X159100000Y-118240000D03*
D14*
X159100000Y-115700000D03*
D15*
X140500000Y-107400000D03*
X140500000Y-97400000D03*
X153000000Y-102400000D03*
D13*
X163900000Y-96640000D03*
X163900000Y-94100000D03*
D14*
X163900000Y-91560000D03*
D13*
X159100000Y-108780000D03*
X159100000Y-106240000D03*
D14*
X159100000Y-103700000D03*
D13*
X158320000Y-96640000D03*
X158320000Y-94100000D03*
D14*
X158320000Y-91560000D03*
D16*
X176716000Y-87184000D03*
X174684000Y-87184000D03*
X174684000Y-89216000D03*
X176716000Y-89216000D03*
X175700000Y-88200000D03*
D17*
X171600000Y-62100000D03*
X184500000Y-85110000D03*
X177200000Y-78100000D03*
X167690000Y-50910000D03*
X159200000Y-52900000D03*
X170580000Y-95090000D03*
X172350000Y-84250000D03*
X152200000Y-52300000D03*
X167667500Y-49322500D03*
X153070000Y-59700000D03*
X161200000Y-47600000D03*
X175500000Y-83900000D03*
X172300000Y-88700000D03*
D18*
G36*
X233405001Y-121305000D02*
G01*
X91795000Y-121305000D01*
X91795000Y-114850000D01*
X157611928Y-114850000D01*
X157611928Y-116550000D01*
X157624188Y-116674482D01*
X157660498Y-116794180D01*
X157719463Y-116904494D01*
X157798815Y-117001185D01*
X157895506Y-117080537D01*
X158005820Y-117139502D01*
X158078380Y-117161513D01*
X157946525Y-117293368D01*
X157784010Y-117536589D01*
X157672068Y-117806842D01*
X157615000Y-118093740D01*
X157615000Y-118386260D01*
X157672068Y-118673158D01*
X157784010Y-118943411D01*
X157946525Y-119186632D01*
X158153368Y-119393475D01*
X158396589Y-119555990D01*
X158666842Y-119667932D01*
X158953740Y-119725000D01*
X159246260Y-119725000D01*
X159533158Y-119667932D01*
X159803411Y-119555990D01*
X160046632Y-119393475D01*
X160253475Y-119186632D01*
X160415990Y-118943411D01*
X160527932Y-118673158D01*
X160585000Y-118386260D01*
X160585000Y-118093740D01*
X160527932Y-117806842D01*
X160415990Y-117536589D01*
X160253475Y-117293368D01*
X160121620Y-117161513D01*
X160194180Y-117139502D01*
X160304494Y-117080537D01*
X160401185Y-117001185D01*
X160480537Y-116904494D01*
X160539502Y-116794180D01*
X160575812Y-116674482D01*
X160588072Y-116550000D01*
X160588072Y-114950000D01*
X162611928Y-114950000D01*
X162611928Y-116650000D01*
X162624188Y-116774482D01*
X162660498Y-116894180D01*
X162719463Y-117004494D01*
X162798815Y-117101185D01*
X162895506Y-117180537D01*
X163005820Y-117239502D01*
X163078380Y-117261513D01*
X162946525Y-117393368D01*
X162784010Y-117636589D01*
X162672068Y-117906842D01*
X162615000Y-118193740D01*
X162615000Y-118486260D01*
X162672068Y-118773158D01*
X162784010Y-119043411D01*
X162946525Y-119286632D01*
X163153368Y-119493475D01*
X163396589Y-119655990D01*
X163666842Y-119767932D01*
X163953740Y-119825000D01*
X164246260Y-119825000D01*
X164533158Y-119767932D01*
X164803411Y-119655990D01*
X165046632Y-119493475D01*
X165253475Y-119286632D01*
X165415990Y-119043411D01*
X165527932Y-118773158D01*
X165585000Y-118486260D01*
X165585000Y-118193740D01*
X165527932Y-117906842D01*
X165415990Y-117636589D01*
X165253475Y-117393368D01*
X165121620Y-117261513D01*
X165194180Y-117239502D01*
X165304494Y-117180537D01*
X165401185Y-117101185D01*
X165480537Y-117004494D01*
X165539502Y-116894180D01*
X165575812Y-116774482D01*
X165588072Y-116650000D01*
X165588072Y-114950000D01*
X165575812Y-114825518D01*
X165539502Y-114705820D01*
X165480537Y-114595506D01*
X165401185Y-114498815D01*
X165304494Y-114419463D01*
X165194180Y-114360498D01*
X165074482Y-114324188D01*
X164950000Y-114311928D01*
X163250000Y-114311928D01*
X163125518Y-114324188D01*
X163005820Y-114360498D01*
X162895506Y-114419463D01*
X162798815Y-114498815D01*
X162719463Y-114595506D01*
X162660498Y-114705820D01*
X162624188Y-114825518D01*
X162611928Y-114950000D01*
X160588072Y-114950000D01*
X160588072Y-114850000D01*
X160575812Y-114725518D01*
X160539502Y-114605820D01*
X160480537Y-114495506D01*
X160401185Y-114398815D01*
X160304494Y-114319463D01*
X160194180Y-114260498D01*
X160074482Y-114224188D01*
X159950000Y-114211928D01*
X158250000Y-114211928D01*
X158125518Y-114224188D01*
X158005820Y-114260498D01*
X157895506Y-114319463D01*
X157798815Y-114398815D01*
X157719463Y-114495506D01*
X157660498Y-114605820D01*
X157624188Y-114725518D01*
X157611928Y-114850000D01*
X91795000Y-114850000D01*
X91795000Y-107247338D01*
X138950000Y-107247338D01*
X138950000Y-107552662D01*
X139009565Y-107852118D01*
X139126408Y-108134200D01*
X139296036Y-108388068D01*
X139511932Y-108603964D01*
X139765800Y-108773592D01*
X140047882Y-108890435D01*
X140347338Y-108950000D01*
X140652662Y-108950000D01*
X140952118Y-108890435D01*
X141234200Y-108773592D01*
X141443504Y-108633740D01*
X157615000Y-108633740D01*
X157615000Y-108926260D01*
X157672068Y-109213158D01*
X157784010Y-109483411D01*
X157946525Y-109726632D01*
X158153368Y-109933475D01*
X158396589Y-110095990D01*
X158666842Y-110207932D01*
X158953740Y-110265000D01*
X159246260Y-110265000D01*
X159533158Y-110207932D01*
X159803411Y-110095990D01*
X160046632Y-109933475D01*
X160253475Y-109726632D01*
X160415990Y-109483411D01*
X160527932Y-109213158D01*
X160566589Y-109018816D01*
X175395000Y-109018816D01*
X175395000Y-109321184D01*
X175453989Y-109617743D01*
X175569701Y-109897095D01*
X175737688Y-110148505D01*
X175951495Y-110362312D01*
X176202905Y-110530299D01*
X176482257Y-110646011D01*
X176778816Y-110705000D01*
X177081184Y-110705000D01*
X177377743Y-110646011D01*
X177657095Y-110530299D01*
X177908505Y-110362312D01*
X178122312Y-110148505D01*
X178200000Y-110032237D01*
X178277688Y-110148505D01*
X178491495Y-110362312D01*
X178742905Y-110530299D01*
X179022257Y-110646011D01*
X179318816Y-110705000D01*
X179621184Y-110705000D01*
X179917743Y-110646011D01*
X180197095Y-110530299D01*
X180448505Y-110362312D01*
X180662312Y-110148505D01*
X180830299Y-109897095D01*
X180946011Y-109617743D01*
X181005000Y-109321184D01*
X181005000Y-109018816D01*
X180946011Y-108722257D01*
X180830299Y-108442905D01*
X180662312Y-108191495D01*
X180448505Y-107977688D01*
X180197095Y-107809701D01*
X179917743Y-107693989D01*
X179621184Y-107635000D01*
X179318816Y-107635000D01*
X179022257Y-107693989D01*
X178742905Y-107809701D01*
X178491495Y-107977688D01*
X178277688Y-108191495D01*
X178200000Y-108307763D01*
X178122312Y-108191495D01*
X177908505Y-107977688D01*
X177657095Y-107809701D01*
X177377743Y-107693989D01*
X177081184Y-107635000D01*
X176778816Y-107635000D01*
X176482257Y-107693989D01*
X176202905Y-107809701D01*
X175951495Y-107977688D01*
X175737688Y-108191495D01*
X175569701Y-108442905D01*
X175453989Y-108722257D01*
X175395000Y-109018816D01*
X160566589Y-109018816D01*
X160585000Y-108926260D01*
X160585000Y-108633740D01*
X160527932Y-108346842D01*
X160415990Y-108076589D01*
X160253475Y-107833368D01*
X160046632Y-107626525D01*
X159864466Y-107504805D01*
X159981355Y-107435178D01*
X160197588Y-107240269D01*
X160371641Y-107006920D01*
X160496825Y-106744099D01*
X160541476Y-106596890D01*
X160420155Y-106367000D01*
X159227000Y-106367000D01*
X159227000Y-106387000D01*
X158973000Y-106387000D01*
X158973000Y-106367000D01*
X157779845Y-106367000D01*
X157658524Y-106596890D01*
X157703175Y-106744099D01*
X157828359Y-107006920D01*
X158002412Y-107240269D01*
X158218645Y-107435178D01*
X158335534Y-107504805D01*
X158153368Y-107626525D01*
X157946525Y-107833368D01*
X157784010Y-108076589D01*
X157672068Y-108346842D01*
X157615000Y-108633740D01*
X141443504Y-108633740D01*
X141488068Y-108603964D01*
X141703964Y-108388068D01*
X141873592Y-108134200D01*
X141990435Y-107852118D01*
X142050000Y-107552662D01*
X142050000Y-107247338D01*
X141990435Y-106947882D01*
X141873592Y-106665800D01*
X141703964Y-106411932D01*
X141488068Y-106196036D01*
X141234200Y-106026408D01*
X140952118Y-105909565D01*
X140652662Y-105850000D01*
X140347338Y-105850000D01*
X140047882Y-105909565D01*
X139765800Y-106026408D01*
X139511932Y-106196036D01*
X139296036Y-106411932D01*
X139126408Y-106665800D01*
X139009565Y-106947882D01*
X138950000Y-107247338D01*
X91795000Y-107247338D01*
X91795000Y-104340475D01*
X94165000Y-104340475D01*
X94165000Y-104859525D01*
X94266261Y-105368601D01*
X94464893Y-105848141D01*
X94753262Y-106279715D01*
X95120285Y-106646738D01*
X95551859Y-106935107D01*
X96031399Y-107133739D01*
X96540475Y-107235000D01*
X97059525Y-107235000D01*
X97568601Y-107133739D01*
X98048141Y-106935107D01*
X98479715Y-106646738D01*
X98846738Y-106279715D01*
X99135107Y-105848141D01*
X99333739Y-105368601D01*
X99435000Y-104859525D01*
X99435000Y-104340475D01*
X130165000Y-104340475D01*
X130165000Y-104859525D01*
X130266261Y-105368601D01*
X130464893Y-105848141D01*
X130753262Y-106279715D01*
X131120285Y-106646738D01*
X131551859Y-106935107D01*
X132031399Y-107133739D01*
X132540475Y-107235000D01*
X133059525Y-107235000D01*
X133568601Y-107133739D01*
X134048141Y-106935107D01*
X134479715Y-106646738D01*
X134846738Y-106279715D01*
X135135107Y-105848141D01*
X135333739Y-105368601D01*
X135435000Y-104859525D01*
X135435000Y-104340475D01*
X135333739Y-103831399D01*
X135135107Y-103351859D01*
X134846738Y-102920285D01*
X134479715Y-102553262D01*
X134048141Y-102264893D01*
X134005760Y-102247338D01*
X151450000Y-102247338D01*
X151450000Y-102552662D01*
X151509565Y-102852118D01*
X151626408Y-103134200D01*
X151796036Y-103388068D01*
X152011932Y-103603964D01*
X152265800Y-103773592D01*
X152547882Y-103890435D01*
X152847338Y-103950000D01*
X153152662Y-103950000D01*
X153452118Y-103890435D01*
X153734200Y-103773592D01*
X153988068Y-103603964D01*
X154203964Y-103388068D01*
X154373592Y-103134200D01*
X154490435Y-102852118D01*
X154490856Y-102850000D01*
X157611928Y-102850000D01*
X157611928Y-104550000D01*
X157624188Y-104674482D01*
X157660498Y-104794180D01*
X157719463Y-104904494D01*
X157798815Y-105001185D01*
X157895506Y-105080537D01*
X158005820Y-105139502D01*
X158086466Y-105163966D01*
X158002412Y-105239731D01*
X157828359Y-105473080D01*
X157703175Y-105735901D01*
X157658524Y-105883110D01*
X157779845Y-106113000D01*
X158973000Y-106113000D01*
X158973000Y-106093000D01*
X159227000Y-106093000D01*
X159227000Y-106113000D01*
X160420155Y-106113000D01*
X160541476Y-105883110D01*
X160496825Y-105735901D01*
X160371641Y-105473080D01*
X160197588Y-105239731D01*
X160113534Y-105163966D01*
X160194180Y-105139502D01*
X160304494Y-105080537D01*
X160401185Y-105001185D01*
X160480537Y-104904494D01*
X160539502Y-104794180D01*
X160555793Y-104740475D01*
X190865000Y-104740475D01*
X190865000Y-105259525D01*
X190966261Y-105768601D01*
X191164893Y-106248141D01*
X191453262Y-106679715D01*
X191820285Y-107046738D01*
X192251859Y-107335107D01*
X192731399Y-107533739D01*
X193240475Y-107635000D01*
X193759525Y-107635000D01*
X194268601Y-107533739D01*
X194748141Y-107335107D01*
X195179715Y-107046738D01*
X195546738Y-106679715D01*
X195835107Y-106248141D01*
X196033739Y-105768601D01*
X196135000Y-105259525D01*
X196135000Y-104740475D01*
X226865000Y-104740475D01*
X226865000Y-105259525D01*
X226966261Y-105768601D01*
X227164893Y-106248141D01*
X227453262Y-106679715D01*
X227820285Y-107046738D01*
X228251859Y-107335107D01*
X228731399Y-107533739D01*
X229240475Y-107635000D01*
X229759525Y-107635000D01*
X230268601Y-107533739D01*
X230748141Y-107335107D01*
X231179715Y-107046738D01*
X231546738Y-106679715D01*
X231835107Y-106248141D01*
X232033739Y-105768601D01*
X232135000Y-105259525D01*
X232135000Y-104740475D01*
X232033739Y-104231399D01*
X231835107Y-103751859D01*
X231546738Y-103320285D01*
X231179715Y-102953262D01*
X230748141Y-102664893D01*
X230268601Y-102466261D01*
X229759525Y-102365000D01*
X229240475Y-102365000D01*
X228731399Y-102466261D01*
X228251859Y-102664893D01*
X227820285Y-102953262D01*
X227453262Y-103320285D01*
X227164893Y-103751859D01*
X226966261Y-104231399D01*
X226865000Y-104740475D01*
X196135000Y-104740475D01*
X196033739Y-104231399D01*
X195835107Y-103751859D01*
X195546738Y-103320285D01*
X195179715Y-102953262D01*
X194748141Y-102664893D01*
X194268601Y-102466261D01*
X193759525Y-102365000D01*
X193240475Y-102365000D01*
X192731399Y-102466261D01*
X192251859Y-102664893D01*
X191820285Y-102953262D01*
X191453262Y-103320285D01*
X191164893Y-103751859D01*
X190966261Y-104231399D01*
X190865000Y-104740475D01*
X160555793Y-104740475D01*
X160575812Y-104674482D01*
X160588072Y-104550000D01*
X160588072Y-102850000D01*
X160575812Y-102725518D01*
X160539502Y-102605820D01*
X160480537Y-102495506D01*
X160401185Y-102398815D01*
X160304494Y-102319463D01*
X160194180Y-102260498D01*
X160074482Y-102224188D01*
X159950000Y-102211928D01*
X158250000Y-102211928D01*
X158125518Y-102224188D01*
X158005820Y-102260498D01*
X157895506Y-102319463D01*
X157798815Y-102398815D01*
X157719463Y-102495506D01*
X157660498Y-102605820D01*
X157624188Y-102725518D01*
X157611928Y-102850000D01*
X154490856Y-102850000D01*
X154550000Y-102552662D01*
X154550000Y-102247338D01*
X154490435Y-101947882D01*
X154373592Y-101665800D01*
X154203964Y-101411932D01*
X153988068Y-101196036D01*
X153734200Y-101026408D01*
X153452118Y-100909565D01*
X153152662Y-100850000D01*
X152847338Y-100850000D01*
X152547882Y-100909565D01*
X152265800Y-101026408D01*
X152011932Y-101196036D01*
X151796036Y-101411932D01*
X151626408Y-101665800D01*
X151509565Y-101947882D01*
X151450000Y-102247338D01*
X134005760Y-102247338D01*
X133568601Y-102066261D01*
X133059525Y-101965000D01*
X132540475Y-101965000D01*
X132031399Y-102066261D01*
X131551859Y-102264893D01*
X131120285Y-102553262D01*
X130753262Y-102920285D01*
X130464893Y-103351859D01*
X130266261Y-103831399D01*
X130165000Y-104340475D01*
X99435000Y-104340475D01*
X99333739Y-103831399D01*
X99135107Y-103351859D01*
X98846738Y-102920285D01*
X98479715Y-102553262D01*
X98048141Y-102264893D01*
X97568601Y-102066261D01*
X97059525Y-101965000D01*
X96540475Y-101965000D01*
X96031399Y-102066261D01*
X95551859Y-102264893D01*
X95120285Y-102553262D01*
X94753262Y-102920285D01*
X94464893Y-103351859D01*
X94266261Y-103831399D01*
X94165000Y-104340475D01*
X91795000Y-104340475D01*
X91795000Y-97247338D01*
X138950000Y-97247338D01*
X138950000Y-97552662D01*
X139009565Y-97852118D01*
X139126408Y-98134200D01*
X139296036Y-98388068D01*
X139511932Y-98603964D01*
X139765800Y-98773592D01*
X140047882Y-98890435D01*
X140347338Y-98950000D01*
X140652662Y-98950000D01*
X140952118Y-98890435D01*
X141234200Y-98773592D01*
X141488068Y-98603964D01*
X141703964Y-98388068D01*
X141873592Y-98134200D01*
X141990435Y-97852118D01*
X142050000Y-97552662D01*
X142050000Y-97247338D01*
X141990435Y-96947882D01*
X141873592Y-96665800D01*
X141703964Y-96411932D01*
X141488068Y-96196036D01*
X141234200Y-96026408D01*
X140952118Y-95909565D01*
X140652662Y-95850000D01*
X140347338Y-95850000D01*
X140047882Y-95909565D01*
X139765800Y-96026408D01*
X139511932Y-96196036D01*
X139296036Y-96411932D01*
X139126408Y-96665800D01*
X139009565Y-96947882D01*
X138950000Y-97247338D01*
X91795000Y-97247338D01*
X91795000Y-90710000D01*
X156831928Y-90710000D01*
X156831928Y-92410000D01*
X156844188Y-92534482D01*
X156880498Y-92654180D01*
X156939463Y-92764494D01*
X157018815Y-92861185D01*
X157115506Y-92940537D01*
X157225820Y-92999502D01*
X157298380Y-93021513D01*
X157166525Y-93153368D01*
X157004010Y-93396589D01*
X156892068Y-93666842D01*
X156835000Y-93953740D01*
X156835000Y-94246260D01*
X156892068Y-94533158D01*
X157004010Y-94803411D01*
X157166525Y-95046632D01*
X157373368Y-95253475D01*
X157547760Y-95370000D01*
X157373368Y-95486525D01*
X157166525Y-95693368D01*
X157004010Y-95936589D01*
X156892068Y-96206842D01*
X156835000Y-96493740D01*
X156835000Y-96786260D01*
X156892068Y-97073158D01*
X157004010Y-97343411D01*
X157166525Y-97586632D01*
X157373368Y-97793475D01*
X157616589Y-97955990D01*
X157886842Y-98067932D01*
X158173740Y-98125000D01*
X158466260Y-98125000D01*
X158753158Y-98067932D01*
X159023411Y-97955990D01*
X159266632Y-97793475D01*
X159473475Y-97586632D01*
X159635990Y-97343411D01*
X159747932Y-97073158D01*
X159805000Y-96786260D01*
X159805000Y-96493740D01*
X159747932Y-96206842D01*
X159635990Y-95936589D01*
X159473475Y-95693368D01*
X159266632Y-95486525D01*
X159092240Y-95370000D01*
X159266632Y-95253475D01*
X159473475Y-95046632D01*
X159635990Y-94803411D01*
X159747932Y-94533158D01*
X159805000Y-94246260D01*
X159805000Y-93953740D01*
X159747932Y-93666842D01*
X159635990Y-93396589D01*
X159473475Y-93153368D01*
X159341620Y-93021513D01*
X159414180Y-92999502D01*
X159524494Y-92940537D01*
X159621185Y-92861185D01*
X159700537Y-92764494D01*
X159759502Y-92654180D01*
X159795812Y-92534482D01*
X159808072Y-92410000D01*
X159808072Y-90710000D01*
X162411928Y-90710000D01*
X162411928Y-92410000D01*
X162424188Y-92534482D01*
X162460498Y-92654180D01*
X162519463Y-92764494D01*
X162598815Y-92861185D01*
X162695506Y-92940537D01*
X162805820Y-92999502D01*
X162878380Y-93021513D01*
X162746525Y-93153368D01*
X162584010Y-93396589D01*
X162472068Y-93666842D01*
X162415000Y-93953740D01*
X162415000Y-94246260D01*
X162472068Y-94533158D01*
X162584010Y-94803411D01*
X162746525Y-95046632D01*
X162953368Y-95253475D01*
X163127760Y-95370000D01*
X162953368Y-95486525D01*
X162746525Y-95693368D01*
X162584010Y-95936589D01*
X162472068Y-96206842D01*
X162415000Y-96493740D01*
X162415000Y-96786260D01*
X162472068Y-97073158D01*
X162584010Y-97343411D01*
X162746525Y-97586632D01*
X162953368Y-97793475D01*
X163196589Y-97955990D01*
X163466842Y-98067932D01*
X163753740Y-98125000D01*
X164046260Y-98125000D01*
X164333158Y-98067932D01*
X164603411Y-97955990D01*
X164846632Y-97793475D01*
X165053475Y-97586632D01*
X165215990Y-97343411D01*
X165327932Y-97073158D01*
X165385000Y-96786260D01*
X165385000Y-96493740D01*
X165327932Y-96206842D01*
X165215990Y-95936589D01*
X165053475Y-95693368D01*
X164846632Y-95486525D01*
X164672240Y-95370000D01*
X164846632Y-95253475D01*
X165053475Y-95046632D01*
X165092610Y-94988061D01*
X169545000Y-94988061D01*
X169545000Y-95191939D01*
X169584774Y-95391898D01*
X169662795Y-95580256D01*
X169776063Y-95749774D01*
X169920226Y-95893937D01*
X170089744Y-96007205D01*
X170278102Y-96085226D01*
X170478061Y-96125000D01*
X170681939Y-96125000D01*
X170881898Y-96085226D01*
X171070256Y-96007205D01*
X171239774Y-95893937D01*
X171383937Y-95749774D01*
X171497205Y-95580256D01*
X171575226Y-95391898D01*
X171615000Y-95191939D01*
X171615000Y-94988061D01*
X171575226Y-94788102D01*
X171497205Y-94599744D01*
X171383937Y-94430226D01*
X171239774Y-94286063D01*
X171070256Y-94172795D01*
X170881898Y-94094774D01*
X170681939Y-94055000D01*
X170478061Y-94055000D01*
X170278102Y-94094774D01*
X170089744Y-94172795D01*
X169920226Y-94286063D01*
X169776063Y-94430226D01*
X169662795Y-94599744D01*
X169584774Y-94788102D01*
X169545000Y-94988061D01*
X165092610Y-94988061D01*
X165215990Y-94803411D01*
X165327932Y-94533158D01*
X165385000Y-94246260D01*
X165385000Y-93953740D01*
X165327932Y-93666842D01*
X165215990Y-93396589D01*
X165053475Y-93153368D01*
X164921620Y-93021513D01*
X164994180Y-92999502D01*
X165104494Y-92940537D01*
X165201185Y-92861185D01*
X165280537Y-92764494D01*
X165339502Y-92654180D01*
X165375812Y-92534482D01*
X165388072Y-92410000D01*
X165388072Y-90710000D01*
X165375812Y-90585518D01*
X165339502Y-90465820D01*
X165280537Y-90355506D01*
X165201185Y-90258815D01*
X165104494Y-90179463D01*
X164994180Y-90120498D01*
X164874482Y-90084188D01*
X164750000Y-90071928D01*
X163050000Y-90071928D01*
X162925518Y-90084188D01*
X162805820Y-90120498D01*
X162695506Y-90179463D01*
X162598815Y-90258815D01*
X162519463Y-90355506D01*
X162460498Y-90465820D01*
X162424188Y-90585518D01*
X162411928Y-90710000D01*
X159808072Y-90710000D01*
X159795812Y-90585518D01*
X159759502Y-90465820D01*
X159700537Y-90355506D01*
X159621185Y-90258815D01*
X159524494Y-90179463D01*
X159414180Y-90120498D01*
X159294482Y-90084188D01*
X159170000Y-90071928D01*
X157470000Y-90071928D01*
X157345518Y-90084188D01*
X157225820Y-90120498D01*
X157115506Y-90179463D01*
X157018815Y-90258815D01*
X156939463Y-90355506D01*
X156880498Y-90465820D01*
X156844188Y-90585518D01*
X156831928Y-90710000D01*
X91795000Y-90710000D01*
X91795000Y-88598061D01*
X171265000Y-88598061D01*
X171265000Y-88801939D01*
X171304774Y-89001898D01*
X171382795Y-89190256D01*
X171496063Y-89359774D01*
X171640226Y-89503937D01*
X171809744Y-89617205D01*
X171998102Y-89695226D01*
X172198061Y-89735000D01*
X172401939Y-89735000D01*
X172601898Y-89695226D01*
X172790256Y-89617205D01*
X172959774Y-89503937D01*
X173103937Y-89359774D01*
X173217205Y-89190256D01*
X173295226Y-89001898D01*
X173335000Y-88801939D01*
X173335000Y-88598061D01*
X173295226Y-88398102D01*
X173217205Y-88209744D01*
X173103937Y-88040226D01*
X172959774Y-87896063D01*
X172790256Y-87782795D01*
X172601898Y-87704774D01*
X172401939Y-87665000D01*
X172198061Y-87665000D01*
X171998102Y-87704774D01*
X171809744Y-87782795D01*
X171640226Y-87896063D01*
X171496063Y-88040226D01*
X171382795Y-88209744D01*
X171304774Y-88398102D01*
X171265000Y-88598061D01*
X91795000Y-88598061D01*
X91795000Y-87084130D01*
X173670000Y-87084130D01*
X173670000Y-87283870D01*
X173708968Y-87479773D01*
X173785405Y-87664309D01*
X173896375Y-87830387D01*
X174037613Y-87971625D01*
X174203691Y-88082595D01*
X174388227Y-88159032D01*
X174584130Y-88198000D01*
X174686000Y-88198000D01*
X174686000Y-88202000D01*
X174584130Y-88202000D01*
X174388227Y-88240968D01*
X174203691Y-88317405D01*
X174037613Y-88428375D01*
X173896375Y-88569613D01*
X173785405Y-88735691D01*
X173708968Y-88920227D01*
X173670000Y-89116130D01*
X173670000Y-89315870D01*
X173708968Y-89511773D01*
X173785405Y-89696309D01*
X173896375Y-89862387D01*
X174037613Y-90003625D01*
X174203691Y-90114595D01*
X174388227Y-90191032D01*
X174584130Y-90230000D01*
X174783870Y-90230000D01*
X174979773Y-90191032D01*
X175164309Y-90114595D01*
X175330387Y-90003625D01*
X175471625Y-89862387D01*
X175582595Y-89696309D01*
X175659032Y-89511773D01*
X175698000Y-89315870D01*
X175698000Y-89214000D01*
X175702000Y-89214000D01*
X175702000Y-89315870D01*
X175740968Y-89511773D01*
X175817405Y-89696309D01*
X175928375Y-89862387D01*
X176069613Y-90003625D01*
X176235691Y-90114595D01*
X176420227Y-90191032D01*
X176616130Y-90230000D01*
X176815870Y-90230000D01*
X177011773Y-90191032D01*
X177196309Y-90114595D01*
X177362387Y-90003625D01*
X177503625Y-89862387D01*
X177614595Y-89696309D01*
X177691032Y-89511773D01*
X177730000Y-89315870D01*
X177730000Y-89116130D01*
X177691032Y-88920227D01*
X177614595Y-88735691D01*
X177503625Y-88569613D01*
X177362387Y-88428375D01*
X177196309Y-88317405D01*
X177011773Y-88240968D01*
X176815870Y-88202000D01*
X176714000Y-88202000D01*
X176714000Y-88198000D01*
X176815870Y-88198000D01*
X177011773Y-88159032D01*
X177196309Y-88082595D01*
X177362387Y-87971625D01*
X177503625Y-87830387D01*
X177614595Y-87664309D01*
X177691032Y-87479773D01*
X177730000Y-87283870D01*
X177730000Y-87084130D01*
X177691032Y-86888227D01*
X177614595Y-86703691D01*
X177503625Y-86537613D01*
X177362387Y-86396375D01*
X177196309Y-86285405D01*
X177011773Y-86208968D01*
X176815870Y-86170000D01*
X176616130Y-86170000D01*
X176420227Y-86208968D01*
X176235691Y-86285405D01*
X176069613Y-86396375D01*
X175928375Y-86537613D01*
X175817405Y-86703691D01*
X175740968Y-86888227D01*
X175702000Y-87084130D01*
X175702000Y-87186000D01*
X175698000Y-87186000D01*
X175698000Y-87084130D01*
X175659032Y-86888227D01*
X175582595Y-86703691D01*
X175471625Y-86537613D01*
X175330387Y-86396375D01*
X175164309Y-86285405D01*
X174979773Y-86208968D01*
X174783870Y-86170000D01*
X174584130Y-86170000D01*
X174388227Y-86208968D01*
X174203691Y-86285405D01*
X174037613Y-86396375D01*
X173896375Y-86537613D01*
X173785405Y-86703691D01*
X173708968Y-86888227D01*
X173670000Y-87084130D01*
X91795000Y-87084130D01*
X91795000Y-84148061D01*
X171315000Y-84148061D01*
X171315000Y-84351939D01*
X171354774Y-84551898D01*
X171432795Y-84740256D01*
X171546063Y-84909774D01*
X171690226Y-85053937D01*
X171859744Y-85167205D01*
X172048102Y-85245226D01*
X172248061Y-85285000D01*
X172451939Y-85285000D01*
X172651898Y-85245226D01*
X172840256Y-85167205D01*
X173009774Y-85053937D01*
X173055650Y-85008061D01*
X183465000Y-85008061D01*
X183465000Y-85211939D01*
X183504774Y-85411898D01*
X183582795Y-85600256D01*
X183696063Y-85769774D01*
X183840226Y-85913937D01*
X184009744Y-86027205D01*
X184198102Y-86105226D01*
X184398061Y-86145000D01*
X184601939Y-86145000D01*
X184801898Y-86105226D01*
X184990256Y-86027205D01*
X185159774Y-85913937D01*
X185303937Y-85769774D01*
X185417205Y-85600256D01*
X185495226Y-85411898D01*
X185535000Y-85211939D01*
X185535000Y-85008061D01*
X185495226Y-84808102D01*
X185417205Y-84619744D01*
X185303937Y-84450226D01*
X185159774Y-84306063D01*
X184990256Y-84192795D01*
X184801898Y-84114774D01*
X184601939Y-84075000D01*
X184398061Y-84075000D01*
X184198102Y-84114774D01*
X184009744Y-84192795D01*
X183840226Y-84306063D01*
X183696063Y-84450226D01*
X183582795Y-84619744D01*
X183504774Y-84808102D01*
X183465000Y-85008061D01*
X173055650Y-85008061D01*
X173153937Y-84909774D01*
X173267205Y-84740256D01*
X173345226Y-84551898D01*
X173385000Y-84351939D01*
X173385000Y-84148061D01*
X173345226Y-83948102D01*
X173283077Y-83798061D01*
X174465000Y-83798061D01*
X174465000Y-84001939D01*
X174504774Y-84201898D01*
X174582795Y-84390256D01*
X174696063Y-84559774D01*
X174840226Y-84703937D01*
X175009744Y-84817205D01*
X175198102Y-84895226D01*
X175398061Y-84935000D01*
X175601939Y-84935000D01*
X175801898Y-84895226D01*
X175990256Y-84817205D01*
X176159774Y-84703937D01*
X176303937Y-84559774D01*
X176417205Y-84390256D01*
X176495226Y-84201898D01*
X176535000Y-84001939D01*
X176535000Y-83798061D01*
X176495226Y-83598102D01*
X176417205Y-83409744D01*
X176303937Y-83240226D01*
X176159774Y-83096063D01*
X175990256Y-82982795D01*
X175801898Y-82904774D01*
X175601939Y-82865000D01*
X175398061Y-82865000D01*
X175198102Y-82904774D01*
X175009744Y-82982795D01*
X174840226Y-83096063D01*
X174696063Y-83240226D01*
X174582795Y-83409744D01*
X174504774Y-83598102D01*
X174465000Y-83798061D01*
X173283077Y-83798061D01*
X173267205Y-83759744D01*
X173153937Y-83590226D01*
X173009774Y-83446063D01*
X172840256Y-83332795D01*
X172651898Y-83254774D01*
X172451939Y-83215000D01*
X172248061Y-83215000D01*
X172048102Y-83254774D01*
X171859744Y-83332795D01*
X171690226Y-83446063D01*
X171546063Y-83590226D01*
X171432795Y-83759744D01*
X171354774Y-83948102D01*
X171315000Y-84148061D01*
X91795000Y-84148061D01*
X91795000Y-80220475D01*
X94165000Y-80220475D01*
X94165000Y-80739525D01*
X94266261Y-81248601D01*
X94464893Y-81728141D01*
X94753262Y-82159715D01*
X95120285Y-82526738D01*
X95551859Y-82815107D01*
X96031399Y-83013739D01*
X96540475Y-83115000D01*
X97059525Y-83115000D01*
X97568601Y-83013739D01*
X98048141Y-82815107D01*
X98479715Y-82526738D01*
X98846738Y-82159715D01*
X99135107Y-81728141D01*
X99333739Y-81248601D01*
X99435000Y-80739525D01*
X99435000Y-80220475D01*
X130165000Y-80220475D01*
X130165000Y-80739525D01*
X130266261Y-81248601D01*
X130464893Y-81728141D01*
X130753262Y-82159715D01*
X131120285Y-82526738D01*
X131551859Y-82815107D01*
X132031399Y-83013739D01*
X132540475Y-83115000D01*
X133059525Y-83115000D01*
X133568601Y-83013739D01*
X134048141Y-82815107D01*
X134479715Y-82526738D01*
X134846738Y-82159715D01*
X135135107Y-81728141D01*
X135333739Y-81248601D01*
X135435000Y-80739525D01*
X135435000Y-80660475D01*
X190965000Y-80660475D01*
X190965000Y-81179525D01*
X191066261Y-81688601D01*
X191264893Y-82168141D01*
X191553262Y-82599715D01*
X191920285Y-82966738D01*
X192351859Y-83255107D01*
X192831399Y-83453739D01*
X193340475Y-83555000D01*
X193859525Y-83555000D01*
X194368601Y-83453739D01*
X194848141Y-83255107D01*
X195279715Y-82966738D01*
X195646738Y-82599715D01*
X195935107Y-82168141D01*
X196133739Y-81688601D01*
X196235000Y-81179525D01*
X196235000Y-80660475D01*
X226965000Y-80660475D01*
X226965000Y-81179525D01*
X227066261Y-81688601D01*
X227264893Y-82168141D01*
X227553262Y-82599715D01*
X227920285Y-82966738D01*
X228351859Y-83255107D01*
X228831399Y-83453739D01*
X229340475Y-83555000D01*
X229859525Y-83555000D01*
X230368601Y-83453739D01*
X230848141Y-83255107D01*
X231279715Y-82966738D01*
X231646738Y-82599715D01*
X231935107Y-82168141D01*
X232133739Y-81688601D01*
X232235000Y-81179525D01*
X232235000Y-80660475D01*
X232133739Y-80151399D01*
X231935107Y-79671859D01*
X231646738Y-79240285D01*
X231279715Y-78873262D01*
X230848141Y-78584893D01*
X230368601Y-78386261D01*
X229859525Y-78285000D01*
X229340475Y-78285000D01*
X228831399Y-78386261D01*
X228351859Y-78584893D01*
X227920285Y-78873262D01*
X227553262Y-79240285D01*
X227264893Y-79671859D01*
X227066261Y-80151399D01*
X226965000Y-80660475D01*
X196235000Y-80660475D01*
X196133739Y-80151399D01*
X195935107Y-79671859D01*
X195646738Y-79240285D01*
X195279715Y-78873262D01*
X194848141Y-78584893D01*
X194368601Y-78386261D01*
X193859525Y-78285000D01*
X193340475Y-78285000D01*
X192831399Y-78386261D01*
X192351859Y-78584893D01*
X191920285Y-78873262D01*
X191553262Y-79240285D01*
X191264893Y-79671859D01*
X191066261Y-80151399D01*
X190965000Y-80660475D01*
X135435000Y-80660475D01*
X135435000Y-80220475D01*
X135333739Y-79711399D01*
X135135107Y-79231859D01*
X134846738Y-78800285D01*
X134479715Y-78433262D01*
X134048141Y-78144893D01*
X133693658Y-77998061D01*
X176165000Y-77998061D01*
X176165000Y-78201939D01*
X176204774Y-78401898D01*
X176282795Y-78590256D01*
X176396063Y-78759774D01*
X176540226Y-78903937D01*
X176709744Y-79017205D01*
X176898102Y-79095226D01*
X177098061Y-79135000D01*
X177301939Y-79135000D01*
X177501898Y-79095226D01*
X177690256Y-79017205D01*
X177859774Y-78903937D01*
X178003937Y-78759774D01*
X178117205Y-78590256D01*
X178195226Y-78401898D01*
X178235000Y-78201939D01*
X178235000Y-77998061D01*
X178195226Y-77798102D01*
X178117205Y-77609744D01*
X178003937Y-77440226D01*
X177859774Y-77296063D01*
X177690256Y-77182795D01*
X177501898Y-77104774D01*
X177301939Y-77065000D01*
X177098061Y-77065000D01*
X176898102Y-77104774D01*
X176709744Y-77182795D01*
X176540226Y-77296063D01*
X176396063Y-77440226D01*
X176282795Y-77609744D01*
X176204774Y-77798102D01*
X176165000Y-77998061D01*
X133693658Y-77998061D01*
X133568601Y-77946261D01*
X133059525Y-77845000D01*
X132540475Y-77845000D01*
X132031399Y-77946261D01*
X131551859Y-78144893D01*
X131120285Y-78433262D01*
X130753262Y-78800285D01*
X130464893Y-79231859D01*
X130266261Y-79711399D01*
X130165000Y-80220475D01*
X99435000Y-80220475D01*
X99333739Y-79711399D01*
X99135107Y-79231859D01*
X98846738Y-78800285D01*
X98479715Y-78433262D01*
X98048141Y-78144893D01*
X97568601Y-77946261D01*
X97059525Y-77845000D01*
X96540475Y-77845000D01*
X96031399Y-77946261D01*
X95551859Y-78144893D01*
X95120285Y-78433262D01*
X94753262Y-78800285D01*
X94464893Y-79231859D01*
X94266261Y-79711399D01*
X94165000Y-80220475D01*
X91795000Y-80220475D01*
X91795000Y-61998061D01*
X170565000Y-61998061D01*
X170565000Y-62201939D01*
X170604774Y-62401898D01*
X170682795Y-62590256D01*
X170796063Y-62759774D01*
X170940226Y-62903937D01*
X171109744Y-63017205D01*
X171298102Y-63095226D01*
X171498061Y-63135000D01*
X171701939Y-63135000D01*
X171901898Y-63095226D01*
X172090256Y-63017205D01*
X172259774Y-62903937D01*
X172403937Y-62759774D01*
X172517205Y-62590256D01*
X172595226Y-62401898D01*
X172635000Y-62201939D01*
X172635000Y-61998061D01*
X172595226Y-61798102D01*
X172517205Y-61609744D01*
X172403937Y-61440226D01*
X172259774Y-61296063D01*
X172090256Y-61182795D01*
X171901898Y-61104774D01*
X171701939Y-61065000D01*
X171498061Y-61065000D01*
X171298102Y-61104774D01*
X171109744Y-61182795D01*
X170940226Y-61296063D01*
X170796063Y-61440226D01*
X170682795Y-61609744D01*
X170604774Y-61798102D01*
X170565000Y-61998061D01*
X91795000Y-61998061D01*
X91795000Y-55740475D01*
X94065000Y-55740475D01*
X94065000Y-56259525D01*
X94166261Y-56768601D01*
X94364893Y-57248141D01*
X94653262Y-57679715D01*
X95020285Y-58046738D01*
X95451859Y-58335107D01*
X95931399Y-58533739D01*
X96440475Y-58635000D01*
X96959525Y-58635000D01*
X97468601Y-58533739D01*
X97948141Y-58335107D01*
X98379715Y-58046738D01*
X98746738Y-57679715D01*
X99035107Y-57248141D01*
X99233739Y-56768601D01*
X99335000Y-56259525D01*
X99335000Y-55740475D01*
X130065000Y-55740475D01*
X130065000Y-56259525D01*
X130166261Y-56768601D01*
X130364893Y-57248141D01*
X130653262Y-57679715D01*
X131020285Y-58046738D01*
X131451859Y-58335107D01*
X131931399Y-58533739D01*
X132440475Y-58635000D01*
X132959525Y-58635000D01*
X133468601Y-58533739D01*
X133948141Y-58335107D01*
X134379715Y-58046738D01*
X134746738Y-57679715D01*
X135035107Y-57248141D01*
X135233739Y-56768601D01*
X135335000Y-56259525D01*
X135335000Y-55740475D01*
X135233739Y-55231399D01*
X135035107Y-54751859D01*
X134746738Y-54320285D01*
X134379715Y-53953262D01*
X133948141Y-53664893D01*
X133468601Y-53466261D01*
X132959525Y-53365000D01*
X132440475Y-53365000D01*
X131931399Y-53466261D01*
X131451859Y-53664893D01*
X131020285Y-53953262D01*
X130653262Y-54320285D01*
X130364893Y-54751859D01*
X130166261Y-55231399D01*
X130065000Y-55740475D01*
X99335000Y-55740475D01*
X99233739Y-55231399D01*
X99035107Y-54751859D01*
X98746738Y-54320285D01*
X98379715Y-53953262D01*
X97948141Y-53664893D01*
X97468601Y-53466261D01*
X96959525Y-53365000D01*
X96440475Y-53365000D01*
X95931399Y-53466261D01*
X95451859Y-53664893D01*
X95020285Y-53953262D01*
X94653262Y-54320285D01*
X94364893Y-54751859D01*
X94166261Y-55231399D01*
X94065000Y-55740475D01*
X91795000Y-55740475D01*
X91795000Y-52822408D01*
X140303000Y-52822408D01*
X140303000Y-53097592D01*
X140356686Y-53367490D01*
X140461995Y-53621727D01*
X140614880Y-53850535D01*
X140809465Y-54045120D01*
X141038273Y-54198005D01*
X141115515Y-54230000D01*
X141038273Y-54261995D01*
X140809465Y-54414880D01*
X140614880Y-54609465D01*
X140461995Y-54838273D01*
X140356686Y-55092510D01*
X140303000Y-55362408D01*
X140303000Y-55637592D01*
X140356686Y-55907490D01*
X140461995Y-56161727D01*
X140614880Y-56390535D01*
X140809465Y-56585120D01*
X141038273Y-56738005D01*
X141115515Y-56770000D01*
X141038273Y-56801995D01*
X140809465Y-56954880D01*
X140614880Y-57149465D01*
X140461995Y-57378273D01*
X140356686Y-57632510D01*
X140303000Y-57902408D01*
X140303000Y-58177592D01*
X140356686Y-58447490D01*
X140461995Y-58701727D01*
X140614880Y-58930535D01*
X140809465Y-59125120D01*
X141038273Y-59278005D01*
X141115515Y-59310000D01*
X141038273Y-59341995D01*
X140809465Y-59494880D01*
X140614880Y-59689465D01*
X140461995Y-59918273D01*
X140356686Y-60172510D01*
X140303000Y-60442408D01*
X140303000Y-60717592D01*
X140356686Y-60987490D01*
X140461995Y-61241727D01*
X140614880Y-61470535D01*
X140809465Y-61665120D01*
X141038273Y-61818005D01*
X141292510Y-61923314D01*
X141562408Y-61977000D01*
X141837592Y-61977000D01*
X142107490Y-61923314D01*
X142361727Y-61818005D01*
X142590535Y-61665120D01*
X142785120Y-61470535D01*
X142938005Y-61241727D01*
X143043314Y-60987490D01*
X143097000Y-60717592D01*
X143097000Y-60442408D01*
X143043314Y-60172510D01*
X142938005Y-59918273D01*
X142785120Y-59689465D01*
X142693716Y-59598061D01*
X152035000Y-59598061D01*
X152035000Y-59801939D01*
X152074774Y-60001898D01*
X152152795Y-60190256D01*
X152266063Y-60359774D01*
X152410226Y-60503937D01*
X152579744Y-60617205D01*
X152768102Y-60695226D01*
X152968061Y-60735000D01*
X153171939Y-60735000D01*
X153371898Y-60695226D01*
X153560256Y-60617205D01*
X153729774Y-60503937D01*
X153873937Y-60359774D01*
X153987205Y-60190256D01*
X154065226Y-60001898D01*
X154105000Y-59801939D01*
X154105000Y-59598061D01*
X154065226Y-59398102D01*
X153987205Y-59209744D01*
X153873937Y-59040226D01*
X153729774Y-58896063D01*
X153560256Y-58782795D01*
X153371898Y-58704774D01*
X153171939Y-58665000D01*
X152968061Y-58665000D01*
X152768102Y-58704774D01*
X152579744Y-58782795D01*
X152410226Y-58896063D01*
X152266063Y-59040226D01*
X152152795Y-59209744D01*
X152074774Y-59398102D01*
X152035000Y-59598061D01*
X142693716Y-59598061D01*
X142590535Y-59494880D01*
X142361727Y-59341995D01*
X142284485Y-59310000D01*
X142361727Y-59278005D01*
X142590535Y-59125120D01*
X142785120Y-58930535D01*
X142938005Y-58701727D01*
X143043314Y-58447490D01*
X143097000Y-58177592D01*
X143097000Y-57902408D01*
X143043314Y-57632510D01*
X142938005Y-57378273D01*
X142785120Y-57149465D01*
X142590535Y-56954880D01*
X142361727Y-56801995D01*
X142284485Y-56770000D01*
X142361727Y-56738005D01*
X142590535Y-56585120D01*
X142785120Y-56390535D01*
X142938005Y-56161727D01*
X143043314Y-55907490D01*
X143097000Y-55637592D01*
X143097000Y-55362408D01*
X143043314Y-55092510D01*
X142938005Y-54838273D01*
X142785120Y-54609465D01*
X142590535Y-54414880D01*
X142361727Y-54261995D01*
X142284485Y-54230000D01*
X142361727Y-54198005D01*
X142590535Y-54045120D01*
X142785120Y-53850535D01*
X142938005Y-53621727D01*
X143043314Y-53367490D01*
X143097000Y-53097592D01*
X143097000Y-52822408D01*
X143092158Y-52798061D01*
X158165000Y-52798061D01*
X158165000Y-53001939D01*
X158204774Y-53201898D01*
X158282795Y-53390256D01*
X158396063Y-53559774D01*
X158540226Y-53703937D01*
X158709744Y-53817205D01*
X158898102Y-53895226D01*
X159098061Y-53935000D01*
X159301939Y-53935000D01*
X159501898Y-53895226D01*
X159690256Y-53817205D01*
X159859774Y-53703937D01*
X160003937Y-53559774D01*
X160117205Y-53390256D01*
X160195226Y-53201898D01*
X160235000Y-53001939D01*
X160235000Y-52798061D01*
X160195226Y-52598102D01*
X160117205Y-52409744D01*
X160003937Y-52240226D01*
X159859774Y-52096063D01*
X159690256Y-51982795D01*
X159501898Y-51904774D01*
X159301939Y-51865000D01*
X159098061Y-51865000D01*
X158898102Y-51904774D01*
X158709744Y-51982795D01*
X158540226Y-52096063D01*
X158396063Y-52240226D01*
X158282795Y-52409744D01*
X158204774Y-52598102D01*
X158165000Y-52798061D01*
X143092158Y-52798061D01*
X143043314Y-52552510D01*
X142938005Y-52298273D01*
X142785120Y-52069465D01*
X142590535Y-51874880D01*
X142361727Y-51721995D01*
X142290057Y-51692308D01*
X142303023Y-51687636D01*
X142418980Y-51625656D01*
X142485960Y-51385565D01*
X141700000Y-50599605D01*
X140914040Y-51385565D01*
X140981020Y-51625656D01*
X141116760Y-51689485D01*
X141038273Y-51721995D01*
X140809465Y-51874880D01*
X140614880Y-52069465D01*
X140461995Y-52298273D01*
X140356686Y-52552510D01*
X140303000Y-52822408D01*
X91795000Y-52822408D01*
X91795000Y-50492017D01*
X140298090Y-50492017D01*
X140339078Y-50764133D01*
X140432364Y-51023023D01*
X140494344Y-51138980D01*
X140734435Y-51205960D01*
X141520395Y-50420000D01*
X141879605Y-50420000D01*
X142665565Y-51205960D01*
X142905656Y-51138980D01*
X143022756Y-50889952D01*
X143043073Y-50808061D01*
X166655000Y-50808061D01*
X166655000Y-51011939D01*
X166694774Y-51211898D01*
X166772795Y-51400256D01*
X166886063Y-51569774D01*
X167030226Y-51713937D01*
X167199744Y-51827205D01*
X167388102Y-51905226D01*
X167588061Y-51945000D01*
X167791939Y-51945000D01*
X167991898Y-51905226D01*
X168180256Y-51827205D01*
X168349774Y-51713937D01*
X168493937Y-51569774D01*
X168607205Y-51400256D01*
X168685226Y-51211898D01*
X168725000Y-51011939D01*
X168725000Y-50808061D01*
X168685226Y-50608102D01*
X168607205Y-50419744D01*
X168493937Y-50250226D01*
X168349774Y-50106063D01*
X168180256Y-49992795D01*
X167991898Y-49914774D01*
X167791939Y-49875000D01*
X167588061Y-49875000D01*
X167388102Y-49914774D01*
X167199744Y-49992795D01*
X167030226Y-50106063D01*
X166886063Y-50250226D01*
X166772795Y-50419744D01*
X166694774Y-50608102D01*
X166655000Y-50808061D01*
X143043073Y-50808061D01*
X143089023Y-50622865D01*
X143101910Y-50347983D01*
X143060922Y-50075867D01*
X142967636Y-49816977D01*
X142905656Y-49701020D01*
X142665565Y-49634040D01*
X141879605Y-50420000D01*
X141520395Y-50420000D01*
X140734435Y-49634040D01*
X140494344Y-49701020D01*
X140377244Y-49950048D01*
X140310977Y-50217135D01*
X140298090Y-50492017D01*
X91795000Y-50492017D01*
X91795000Y-48845565D01*
X140914040Y-48845565D01*
X140981020Y-49085656D01*
X141111644Y-49147079D01*
X141096977Y-49152364D01*
X140981020Y-49214344D01*
X140914040Y-49454435D01*
X141700000Y-50240395D01*
X142485960Y-49454435D01*
X142418980Y-49214344D01*
X142288356Y-49152921D01*
X142303023Y-49147636D01*
X142418980Y-49085656D01*
X142485960Y-48845565D01*
X141700000Y-48059605D01*
X140914040Y-48845565D01*
X91795000Y-48845565D01*
X91795000Y-47952017D01*
X140298090Y-47952017D01*
X140339078Y-48224133D01*
X140432364Y-48483023D01*
X140494344Y-48598980D01*
X140734435Y-48665960D01*
X141520395Y-47880000D01*
X141879605Y-47880000D01*
X142665565Y-48665960D01*
X142905656Y-48598980D01*
X143022756Y-48349952D01*
X143089023Y-48082865D01*
X143101910Y-47807983D01*
X143060922Y-47535867D01*
X143047300Y-47498061D01*
X160165000Y-47498061D01*
X160165000Y-47701939D01*
X160204774Y-47901898D01*
X160282795Y-48090256D01*
X160396063Y-48259774D01*
X160540226Y-48403937D01*
X160709744Y-48517205D01*
X160898102Y-48595226D01*
X161098061Y-48635000D01*
X161301939Y-48635000D01*
X161501898Y-48595226D01*
X161690256Y-48517205D01*
X161859774Y-48403937D01*
X162003937Y-48259774D01*
X162117205Y-48090256D01*
X162195226Y-47901898D01*
X162235000Y-47701939D01*
X162235000Y-47498061D01*
X162195226Y-47298102D01*
X162117205Y-47109744D01*
X162003937Y-46940226D01*
X161859774Y-46796063D01*
X161690256Y-46682795D01*
X161501898Y-46604774D01*
X161301939Y-46565000D01*
X161098061Y-46565000D01*
X160898102Y-46604774D01*
X160709744Y-46682795D01*
X160540226Y-46796063D01*
X160396063Y-46940226D01*
X160282795Y-47109744D01*
X160204774Y-47298102D01*
X160165000Y-47498061D01*
X143047300Y-47498061D01*
X142967636Y-47276977D01*
X142905656Y-47161020D01*
X142665565Y-47094040D01*
X141879605Y-47880000D01*
X141520395Y-47880000D01*
X140734435Y-47094040D01*
X140494344Y-47161020D01*
X140377244Y-47410048D01*
X140310977Y-47677135D01*
X140298090Y-47952017D01*
X91795000Y-47952017D01*
X91795000Y-46305565D01*
X140914040Y-46305565D01*
X140981020Y-46545656D01*
X141111644Y-46607079D01*
X141096977Y-46612364D01*
X140981020Y-46674344D01*
X140914040Y-46914435D01*
X141700000Y-47700395D01*
X142485960Y-46914435D01*
X142418980Y-46674344D01*
X142288356Y-46612921D01*
X142303023Y-46607636D01*
X142418980Y-46545656D01*
X142485960Y-46305565D01*
X141700000Y-45519605D01*
X140914040Y-46305565D01*
X91795000Y-46305565D01*
X91795000Y-45412017D01*
X140298090Y-45412017D01*
X140339078Y-45684133D01*
X140432364Y-45943023D01*
X140494344Y-46058980D01*
X140734435Y-46125960D01*
X141520395Y-45340000D01*
X141879605Y-45340000D01*
X142665565Y-46125960D01*
X142905656Y-46058980D01*
X143022756Y-45809952D01*
X143089023Y-45542865D01*
X143101910Y-45267983D01*
X143060922Y-44995867D01*
X142967636Y-44736977D01*
X142905656Y-44621020D01*
X142665565Y-44554040D01*
X141879605Y-45340000D01*
X141520395Y-45340000D01*
X140734435Y-44554040D01*
X140494344Y-44621020D01*
X140377244Y-44870048D01*
X140310977Y-45137135D01*
X140298090Y-45412017D01*
X91795000Y-45412017D01*
X91795000Y-43765565D01*
X140914040Y-43765565D01*
X140981020Y-44005656D01*
X141111644Y-44067079D01*
X141096977Y-44072364D01*
X140981020Y-44134344D01*
X140914040Y-44374435D01*
X141700000Y-45160395D01*
X142485960Y-44374435D01*
X142418980Y-44134344D01*
X142288356Y-44072921D01*
X142303023Y-44067636D01*
X142418980Y-44005656D01*
X142485960Y-43765565D01*
X141700000Y-42979605D01*
X140914040Y-43765565D01*
X91795000Y-43765565D01*
X91795000Y-42872017D01*
X140298090Y-42872017D01*
X140339078Y-43144133D01*
X140432364Y-43403023D01*
X140494344Y-43518980D01*
X140734435Y-43585960D01*
X141520395Y-42800000D01*
X141879605Y-42800000D01*
X142665565Y-43585960D01*
X142905656Y-43518980D01*
X143022756Y-43269952D01*
X143089023Y-43002865D01*
X143101910Y-42727983D01*
X143092033Y-42662408D01*
X183483000Y-42662408D01*
X183483000Y-42937592D01*
X183536686Y-43207490D01*
X183641995Y-43461727D01*
X183794880Y-43690535D01*
X183989465Y-43885120D01*
X184218273Y-44038005D01*
X184295515Y-44070000D01*
X184218273Y-44101995D01*
X183989465Y-44254880D01*
X183794880Y-44449465D01*
X183641995Y-44678273D01*
X183536686Y-44932510D01*
X183483000Y-45202408D01*
X183483000Y-45477592D01*
X183536686Y-45747490D01*
X183641995Y-46001727D01*
X183794880Y-46230535D01*
X183989465Y-46425120D01*
X184218273Y-46578005D01*
X184295515Y-46610000D01*
X184218273Y-46641995D01*
X183989465Y-46794880D01*
X183794880Y-46989465D01*
X183641995Y-47218273D01*
X183536686Y-47472510D01*
X183483000Y-47742408D01*
X183483000Y-48017592D01*
X183536686Y-48287490D01*
X183641995Y-48541727D01*
X183794880Y-48770535D01*
X183989465Y-48965120D01*
X184218273Y-49118005D01*
X184295515Y-49150000D01*
X184218273Y-49181995D01*
X183989465Y-49334880D01*
X183794880Y-49529465D01*
X183641995Y-49758273D01*
X183536686Y-50012510D01*
X183483000Y-50282408D01*
X183483000Y-50557592D01*
X183536686Y-50827490D01*
X183641995Y-51081727D01*
X183794880Y-51310535D01*
X183989465Y-51505120D01*
X184218273Y-51658005D01*
X184295515Y-51690000D01*
X184218273Y-51721995D01*
X183989465Y-51874880D01*
X183794880Y-52069465D01*
X183641995Y-52298273D01*
X183536686Y-52552510D01*
X183483000Y-52822408D01*
X183483000Y-53097592D01*
X183536686Y-53367490D01*
X183641995Y-53621727D01*
X183794880Y-53850535D01*
X183989465Y-54045120D01*
X184218273Y-54198005D01*
X184295515Y-54230000D01*
X184218273Y-54261995D01*
X183989465Y-54414880D01*
X183794880Y-54609465D01*
X183641995Y-54838273D01*
X183536686Y-55092510D01*
X183483000Y-55362408D01*
X183483000Y-55637592D01*
X183536686Y-55907490D01*
X183641995Y-56161727D01*
X183794880Y-56390535D01*
X183989465Y-56585120D01*
X184218273Y-56738005D01*
X184295515Y-56770000D01*
X184218273Y-56801995D01*
X183989465Y-56954880D01*
X183794880Y-57149465D01*
X183641995Y-57378273D01*
X183536686Y-57632510D01*
X183483000Y-57902408D01*
X183483000Y-58177592D01*
X183536686Y-58447490D01*
X183641995Y-58701727D01*
X183794880Y-58930535D01*
X183989465Y-59125120D01*
X184218273Y-59278005D01*
X184295515Y-59310000D01*
X184218273Y-59341995D01*
X183989465Y-59494880D01*
X183794880Y-59689465D01*
X183641995Y-59918273D01*
X183536686Y-60172510D01*
X183483000Y-60442408D01*
X183483000Y-60717592D01*
X183536686Y-60987490D01*
X183641995Y-61241727D01*
X183794880Y-61470535D01*
X183989465Y-61665120D01*
X184218273Y-61818005D01*
X184472510Y-61923314D01*
X184742408Y-61977000D01*
X185017592Y-61977000D01*
X185287490Y-61923314D01*
X185541727Y-61818005D01*
X185770535Y-61665120D01*
X185965120Y-61470535D01*
X186118005Y-61241727D01*
X186223314Y-60987490D01*
X186277000Y-60717592D01*
X186277000Y-60442408D01*
X186223314Y-60172510D01*
X186118005Y-59918273D01*
X185965120Y-59689465D01*
X185770535Y-59494880D01*
X185541727Y-59341995D01*
X185464485Y-59310000D01*
X185541727Y-59278005D01*
X185770535Y-59125120D01*
X185965120Y-58930535D01*
X186118005Y-58701727D01*
X186223314Y-58447490D01*
X186277000Y-58177592D01*
X186277000Y-57902408D01*
X186223314Y-57632510D01*
X186118005Y-57378273D01*
X185965120Y-57149465D01*
X185770535Y-56954880D01*
X185541727Y-56801995D01*
X185464485Y-56770000D01*
X185541727Y-56738005D01*
X185770535Y-56585120D01*
X185815180Y-56540475D01*
X190965000Y-56540475D01*
X190965000Y-57059525D01*
X191066261Y-57568601D01*
X191264893Y-58048141D01*
X191553262Y-58479715D01*
X191920285Y-58846738D01*
X192351859Y-59135107D01*
X192831399Y-59333739D01*
X193340475Y-59435000D01*
X193859525Y-59435000D01*
X194368601Y-59333739D01*
X194848141Y-59135107D01*
X195279715Y-58846738D01*
X195646738Y-58479715D01*
X195935107Y-58048141D01*
X196133739Y-57568601D01*
X196235000Y-57059525D01*
X196235000Y-56540475D01*
X226965000Y-56540475D01*
X226965000Y-57059525D01*
X227066261Y-57568601D01*
X227264893Y-58048141D01*
X227553262Y-58479715D01*
X227920285Y-58846738D01*
X228351859Y-59135107D01*
X228831399Y-59333739D01*
X229340475Y-59435000D01*
X229859525Y-59435000D01*
X230368601Y-59333739D01*
X230848141Y-59135107D01*
X231279715Y-58846738D01*
X231646738Y-58479715D01*
X231935107Y-58048141D01*
X232133739Y-57568601D01*
X232235000Y-57059525D01*
X232235000Y-56540475D01*
X232133739Y-56031399D01*
X231935107Y-55551859D01*
X231646738Y-55120285D01*
X231279715Y-54753262D01*
X230848141Y-54464893D01*
X230368601Y-54266261D01*
X229859525Y-54165000D01*
X229340475Y-54165000D01*
X228831399Y-54266261D01*
X228351859Y-54464893D01*
X227920285Y-54753262D01*
X227553262Y-55120285D01*
X227264893Y-55551859D01*
X227066261Y-56031399D01*
X226965000Y-56540475D01*
X196235000Y-56540475D01*
X196133739Y-56031399D01*
X195935107Y-55551859D01*
X195646738Y-55120285D01*
X195279715Y-54753262D01*
X194848141Y-54464893D01*
X194368601Y-54266261D01*
X193859525Y-54165000D01*
X193340475Y-54165000D01*
X192831399Y-54266261D01*
X192351859Y-54464893D01*
X191920285Y-54753262D01*
X191553262Y-55120285D01*
X191264893Y-55551859D01*
X191066261Y-56031399D01*
X190965000Y-56540475D01*
X185815180Y-56540475D01*
X185965120Y-56390535D01*
X186118005Y-56161727D01*
X186223314Y-55907490D01*
X186277000Y-55637592D01*
X186277000Y-55362408D01*
X186223314Y-55092510D01*
X186118005Y-54838273D01*
X185965120Y-54609465D01*
X185770535Y-54414880D01*
X185541727Y-54261995D01*
X185464485Y-54230000D01*
X185541727Y-54198005D01*
X185770535Y-54045120D01*
X185965120Y-53850535D01*
X186118005Y-53621727D01*
X186223314Y-53367490D01*
X186277000Y-53097592D01*
X186277000Y-52822408D01*
X186223314Y-52552510D01*
X186118005Y-52298273D01*
X185965120Y-52069465D01*
X185770535Y-51874880D01*
X185541727Y-51721995D01*
X185464485Y-51690000D01*
X185541727Y-51658005D01*
X185770535Y-51505120D01*
X185965120Y-51310535D01*
X186118005Y-51081727D01*
X186223314Y-50827490D01*
X186277000Y-50557592D01*
X186277000Y-50282408D01*
X186223314Y-50012510D01*
X186118005Y-49758273D01*
X185965120Y-49529465D01*
X185770535Y-49334880D01*
X185541727Y-49181995D01*
X185464485Y-49150000D01*
X185541727Y-49118005D01*
X185770535Y-48965120D01*
X185965120Y-48770535D01*
X186118005Y-48541727D01*
X186223314Y-48287490D01*
X186277000Y-48017592D01*
X186277000Y-47742408D01*
X186223314Y-47472510D01*
X186118005Y-47218273D01*
X185965120Y-46989465D01*
X185770535Y-46794880D01*
X185541727Y-46641995D01*
X185464485Y-46610000D01*
X185541727Y-46578005D01*
X185770535Y-46425120D01*
X185965120Y-46230535D01*
X186118005Y-46001727D01*
X186223314Y-45747490D01*
X186277000Y-45477592D01*
X186277000Y-45202408D01*
X186223314Y-44932510D01*
X186118005Y-44678273D01*
X185965120Y-44449465D01*
X185770535Y-44254880D01*
X185541727Y-44101995D01*
X185464485Y-44070000D01*
X185541727Y-44038005D01*
X185770535Y-43885120D01*
X185965120Y-43690535D01*
X186118005Y-43461727D01*
X186223314Y-43207490D01*
X186277000Y-42937592D01*
X186277000Y-42662408D01*
X186223314Y-42392510D01*
X186118005Y-42138273D01*
X185965120Y-41909465D01*
X185770535Y-41714880D01*
X185541727Y-41561995D01*
X185287490Y-41456686D01*
X185017592Y-41403000D01*
X184742408Y-41403000D01*
X184472510Y-41456686D01*
X184218273Y-41561995D01*
X183989465Y-41714880D01*
X183794880Y-41909465D01*
X183641995Y-42138273D01*
X183536686Y-42392510D01*
X183483000Y-42662408D01*
X143092033Y-42662408D01*
X143060922Y-42455867D01*
X142967636Y-42196977D01*
X142905656Y-42081020D01*
X142665565Y-42014040D01*
X141879605Y-42800000D01*
X141520395Y-42800000D01*
X140734435Y-42014040D01*
X140494344Y-42081020D01*
X140377244Y-42330048D01*
X140310977Y-42597135D01*
X140298090Y-42872017D01*
X91795000Y-42872017D01*
X91795000Y-41834435D01*
X140914040Y-41834435D01*
X141700000Y-42620395D01*
X142485960Y-41834435D01*
X142418980Y-41594344D01*
X142169952Y-41477244D01*
X141902865Y-41410977D01*
X141627983Y-41398090D01*
X141355867Y-41439078D01*
X141096977Y-41532364D01*
X140981020Y-41594344D01*
X140914040Y-41834435D01*
X91795000Y-41834435D01*
X91795000Y-40695000D01*
X233405000Y-40695000D01*
X233405001Y-121305000D01*
G37*
X233405001Y-121305000D02*
X91795000Y-121305000D01*
X91795000Y-114850000D01*
X157611928Y-114850000D01*
X157611928Y-116550000D01*
X157624188Y-116674482D01*
X157660498Y-116794180D01*
X157719463Y-116904494D01*
X157798815Y-117001185D01*
X157895506Y-117080537D01*
X158005820Y-117139502D01*
X158078380Y-117161513D01*
X157946525Y-117293368D01*
X157784010Y-117536589D01*
X157672068Y-117806842D01*
X157615000Y-118093740D01*
X157615000Y-118386260D01*
X157672068Y-118673158D01*
X157784010Y-118943411D01*
X157946525Y-119186632D01*
X158153368Y-119393475D01*
X158396589Y-119555990D01*
X158666842Y-119667932D01*
X158953740Y-119725000D01*
X159246260Y-119725000D01*
X159533158Y-119667932D01*
X159803411Y-119555990D01*
X160046632Y-119393475D01*
X160253475Y-119186632D01*
X160415990Y-118943411D01*
X160527932Y-118673158D01*
X160585000Y-118386260D01*
X160585000Y-118093740D01*
X160527932Y-117806842D01*
X160415990Y-117536589D01*
X160253475Y-117293368D01*
X160121620Y-117161513D01*
X160194180Y-117139502D01*
X160304494Y-117080537D01*
X160401185Y-117001185D01*
X160480537Y-116904494D01*
X160539502Y-116794180D01*
X160575812Y-116674482D01*
X160588072Y-116550000D01*
X160588072Y-114950000D01*
X162611928Y-114950000D01*
X162611928Y-116650000D01*
X162624188Y-116774482D01*
X162660498Y-116894180D01*
X162719463Y-117004494D01*
X162798815Y-117101185D01*
X162895506Y-117180537D01*
X163005820Y-117239502D01*
X163078380Y-117261513D01*
X162946525Y-117393368D01*
X162784010Y-117636589D01*
X162672068Y-117906842D01*
X162615000Y-118193740D01*
X162615000Y-118486260D01*
X162672068Y-118773158D01*
X162784010Y-119043411D01*
X162946525Y-119286632D01*
X163153368Y-119493475D01*
X163396589Y-119655990D01*
X163666842Y-119767932D01*
X163953740Y-119825000D01*
X164246260Y-119825000D01*
X164533158Y-119767932D01*
X164803411Y-119655990D01*
X165046632Y-119493475D01*
X165253475Y-119286632D01*
X165415990Y-119043411D01*
X165527932Y-118773158D01*
X165585000Y-118486260D01*
X165585000Y-118193740D01*
X165527932Y-117906842D01*
X165415990Y-117636589D01*
X165253475Y-117393368D01*
X165121620Y-117261513D01*
X165194180Y-117239502D01*
X165304494Y-117180537D01*
X165401185Y-117101185D01*
X165480537Y-117004494D01*
X165539502Y-116894180D01*
X165575812Y-116774482D01*
X165588072Y-116650000D01*
X165588072Y-114950000D01*
X165575812Y-114825518D01*
X165539502Y-114705820D01*
X165480537Y-114595506D01*
X165401185Y-114498815D01*
X165304494Y-114419463D01*
X165194180Y-114360498D01*
X165074482Y-114324188D01*
X164950000Y-114311928D01*
X163250000Y-114311928D01*
X163125518Y-114324188D01*
X163005820Y-114360498D01*
X162895506Y-114419463D01*
X162798815Y-114498815D01*
X162719463Y-114595506D01*
X162660498Y-114705820D01*
X162624188Y-114825518D01*
X162611928Y-114950000D01*
X160588072Y-114950000D01*
X160588072Y-114850000D01*
X160575812Y-114725518D01*
X160539502Y-114605820D01*
X160480537Y-114495506D01*
X160401185Y-114398815D01*
X160304494Y-114319463D01*
X160194180Y-114260498D01*
X160074482Y-114224188D01*
X159950000Y-114211928D01*
X158250000Y-114211928D01*
X158125518Y-114224188D01*
X158005820Y-114260498D01*
X157895506Y-114319463D01*
X157798815Y-114398815D01*
X157719463Y-114495506D01*
X157660498Y-114605820D01*
X157624188Y-114725518D01*
X157611928Y-114850000D01*
X91795000Y-114850000D01*
X91795000Y-107247338D01*
X138950000Y-107247338D01*
X138950000Y-107552662D01*
X139009565Y-107852118D01*
X139126408Y-108134200D01*
X139296036Y-108388068D01*
X139511932Y-108603964D01*
X139765800Y-108773592D01*
X140047882Y-108890435D01*
X140347338Y-108950000D01*
X140652662Y-108950000D01*
X140952118Y-108890435D01*
X141234200Y-108773592D01*
X141443504Y-108633740D01*
X157615000Y-108633740D01*
X157615000Y-108926260D01*
X157672068Y-109213158D01*
X157784010Y-109483411D01*
X157946525Y-109726632D01*
X158153368Y-109933475D01*
X158396589Y-110095990D01*
X158666842Y-110207932D01*
X158953740Y-110265000D01*
X159246260Y-110265000D01*
X159533158Y-110207932D01*
X159803411Y-110095990D01*
X160046632Y-109933475D01*
X160253475Y-109726632D01*
X160415990Y-109483411D01*
X160527932Y-109213158D01*
X160566589Y-109018816D01*
X175395000Y-109018816D01*
X175395000Y-109321184D01*
X175453989Y-109617743D01*
X175569701Y-109897095D01*
X175737688Y-110148505D01*
X175951495Y-110362312D01*
X176202905Y-110530299D01*
X176482257Y-110646011D01*
X176778816Y-110705000D01*
X177081184Y-110705000D01*
X177377743Y-110646011D01*
X177657095Y-110530299D01*
X177908505Y-110362312D01*
X178122312Y-110148505D01*
X178200000Y-110032237D01*
X178277688Y-110148505D01*
X178491495Y-110362312D01*
X178742905Y-110530299D01*
X179022257Y-110646011D01*
X179318816Y-110705000D01*
X179621184Y-110705000D01*
X179917743Y-110646011D01*
X180197095Y-110530299D01*
X180448505Y-110362312D01*
X180662312Y-110148505D01*
X180830299Y-109897095D01*
X180946011Y-109617743D01*
X181005000Y-109321184D01*
X181005000Y-109018816D01*
X180946011Y-108722257D01*
X180830299Y-108442905D01*
X180662312Y-108191495D01*
X180448505Y-107977688D01*
X180197095Y-107809701D01*
X179917743Y-107693989D01*
X179621184Y-107635000D01*
X179318816Y-107635000D01*
X179022257Y-107693989D01*
X178742905Y-107809701D01*
X178491495Y-107977688D01*
X178277688Y-108191495D01*
X178200000Y-108307763D01*
X178122312Y-108191495D01*
X177908505Y-107977688D01*
X177657095Y-107809701D01*
X177377743Y-107693989D01*
X177081184Y-107635000D01*
X176778816Y-107635000D01*
X176482257Y-107693989D01*
X176202905Y-107809701D01*
X175951495Y-107977688D01*
X175737688Y-108191495D01*
X175569701Y-108442905D01*
X175453989Y-108722257D01*
X175395000Y-109018816D01*
X160566589Y-109018816D01*
X160585000Y-108926260D01*
X160585000Y-108633740D01*
X160527932Y-108346842D01*
X160415990Y-108076589D01*
X160253475Y-107833368D01*
X160046632Y-107626525D01*
X159864466Y-107504805D01*
X159981355Y-107435178D01*
X160197588Y-107240269D01*
X160371641Y-107006920D01*
X160496825Y-106744099D01*
X160541476Y-106596890D01*
X160420155Y-106367000D01*
X159227000Y-106367000D01*
X159227000Y-106387000D01*
X158973000Y-106387000D01*
X158973000Y-106367000D01*
X157779845Y-106367000D01*
X157658524Y-106596890D01*
X157703175Y-106744099D01*
X157828359Y-107006920D01*
X158002412Y-107240269D01*
X158218645Y-107435178D01*
X158335534Y-107504805D01*
X158153368Y-107626525D01*
X157946525Y-107833368D01*
X157784010Y-108076589D01*
X157672068Y-108346842D01*
X157615000Y-108633740D01*
X141443504Y-108633740D01*
X141488068Y-108603964D01*
X141703964Y-108388068D01*
X141873592Y-108134200D01*
X141990435Y-107852118D01*
X142050000Y-107552662D01*
X142050000Y-107247338D01*
X141990435Y-106947882D01*
X141873592Y-106665800D01*
X141703964Y-106411932D01*
X141488068Y-106196036D01*
X141234200Y-106026408D01*
X140952118Y-105909565D01*
X140652662Y-105850000D01*
X140347338Y-105850000D01*
X140047882Y-105909565D01*
X139765800Y-106026408D01*
X139511932Y-106196036D01*
X139296036Y-106411932D01*
X139126408Y-106665800D01*
X139009565Y-106947882D01*
X138950000Y-107247338D01*
X91795000Y-107247338D01*
X91795000Y-104340475D01*
X94165000Y-104340475D01*
X94165000Y-104859525D01*
X94266261Y-105368601D01*
X94464893Y-105848141D01*
X94753262Y-106279715D01*
X95120285Y-106646738D01*
X95551859Y-106935107D01*
X96031399Y-107133739D01*
X96540475Y-107235000D01*
X97059525Y-107235000D01*
X97568601Y-107133739D01*
X98048141Y-106935107D01*
X98479715Y-106646738D01*
X98846738Y-106279715D01*
X99135107Y-105848141D01*
X99333739Y-105368601D01*
X99435000Y-104859525D01*
X99435000Y-104340475D01*
X130165000Y-104340475D01*
X130165000Y-104859525D01*
X130266261Y-105368601D01*
X130464893Y-105848141D01*
X130753262Y-106279715D01*
X131120285Y-106646738D01*
X131551859Y-106935107D01*
X132031399Y-107133739D01*
X132540475Y-107235000D01*
X133059525Y-107235000D01*
X133568601Y-107133739D01*
X134048141Y-106935107D01*
X134479715Y-106646738D01*
X134846738Y-106279715D01*
X135135107Y-105848141D01*
X135333739Y-105368601D01*
X135435000Y-104859525D01*
X135435000Y-104340475D01*
X135333739Y-103831399D01*
X135135107Y-103351859D01*
X134846738Y-102920285D01*
X134479715Y-102553262D01*
X134048141Y-102264893D01*
X134005760Y-102247338D01*
X151450000Y-102247338D01*
X151450000Y-102552662D01*
X151509565Y-102852118D01*
X151626408Y-103134200D01*
X151796036Y-103388068D01*
X152011932Y-103603964D01*
X152265800Y-103773592D01*
X152547882Y-103890435D01*
X152847338Y-103950000D01*
X153152662Y-103950000D01*
X153452118Y-103890435D01*
X153734200Y-103773592D01*
X153988068Y-103603964D01*
X154203964Y-103388068D01*
X154373592Y-103134200D01*
X154490435Y-102852118D01*
X154490856Y-102850000D01*
X157611928Y-102850000D01*
X157611928Y-104550000D01*
X157624188Y-104674482D01*
X157660498Y-104794180D01*
X157719463Y-104904494D01*
X157798815Y-105001185D01*
X157895506Y-105080537D01*
X158005820Y-105139502D01*
X158086466Y-105163966D01*
X158002412Y-105239731D01*
X157828359Y-105473080D01*
X157703175Y-105735901D01*
X157658524Y-105883110D01*
X157779845Y-106113000D01*
X158973000Y-106113000D01*
X158973000Y-106093000D01*
X159227000Y-106093000D01*
X159227000Y-106113000D01*
X160420155Y-106113000D01*
X160541476Y-105883110D01*
X160496825Y-105735901D01*
X160371641Y-105473080D01*
X160197588Y-105239731D01*
X160113534Y-105163966D01*
X160194180Y-105139502D01*
X160304494Y-105080537D01*
X160401185Y-105001185D01*
X160480537Y-104904494D01*
X160539502Y-104794180D01*
X160555793Y-104740475D01*
X190865000Y-104740475D01*
X190865000Y-105259525D01*
X190966261Y-105768601D01*
X191164893Y-106248141D01*
X191453262Y-106679715D01*
X191820285Y-107046738D01*
X192251859Y-107335107D01*
X192731399Y-107533739D01*
X193240475Y-107635000D01*
X193759525Y-107635000D01*
X194268601Y-107533739D01*
X194748141Y-107335107D01*
X195179715Y-107046738D01*
X195546738Y-106679715D01*
X195835107Y-106248141D01*
X196033739Y-105768601D01*
X196135000Y-105259525D01*
X196135000Y-104740475D01*
X226865000Y-104740475D01*
X226865000Y-105259525D01*
X226966261Y-105768601D01*
X227164893Y-106248141D01*
X227453262Y-106679715D01*
X227820285Y-107046738D01*
X228251859Y-107335107D01*
X228731399Y-107533739D01*
X229240475Y-107635000D01*
X229759525Y-107635000D01*
X230268601Y-107533739D01*
X230748141Y-107335107D01*
X231179715Y-107046738D01*
X231546738Y-106679715D01*
X231835107Y-106248141D01*
X232033739Y-105768601D01*
X232135000Y-105259525D01*
X232135000Y-104740475D01*
X232033739Y-104231399D01*
X231835107Y-103751859D01*
X231546738Y-103320285D01*
X231179715Y-102953262D01*
X230748141Y-102664893D01*
X230268601Y-102466261D01*
X229759525Y-102365000D01*
X229240475Y-102365000D01*
X228731399Y-102466261D01*
X228251859Y-102664893D01*
X227820285Y-102953262D01*
X227453262Y-103320285D01*
X227164893Y-103751859D01*
X226966261Y-104231399D01*
X226865000Y-104740475D01*
X196135000Y-104740475D01*
X196033739Y-104231399D01*
X195835107Y-103751859D01*
X195546738Y-103320285D01*
X195179715Y-102953262D01*
X194748141Y-102664893D01*
X194268601Y-102466261D01*
X193759525Y-102365000D01*
X193240475Y-102365000D01*
X192731399Y-102466261D01*
X192251859Y-102664893D01*
X191820285Y-102953262D01*
X191453262Y-103320285D01*
X191164893Y-103751859D01*
X190966261Y-104231399D01*
X190865000Y-104740475D01*
X160555793Y-104740475D01*
X160575812Y-104674482D01*
X160588072Y-104550000D01*
X160588072Y-102850000D01*
X160575812Y-102725518D01*
X160539502Y-102605820D01*
X160480537Y-102495506D01*
X160401185Y-102398815D01*
X160304494Y-102319463D01*
X160194180Y-102260498D01*
X160074482Y-102224188D01*
X159950000Y-102211928D01*
X158250000Y-102211928D01*
X158125518Y-102224188D01*
X158005820Y-102260498D01*
X157895506Y-102319463D01*
X157798815Y-102398815D01*
X157719463Y-102495506D01*
X157660498Y-102605820D01*
X157624188Y-102725518D01*
X157611928Y-102850000D01*
X154490856Y-102850000D01*
X154550000Y-102552662D01*
X154550000Y-102247338D01*
X154490435Y-101947882D01*
X154373592Y-101665800D01*
X154203964Y-101411932D01*
X153988068Y-101196036D01*
X153734200Y-101026408D01*
X153452118Y-100909565D01*
X153152662Y-100850000D01*
X152847338Y-100850000D01*
X152547882Y-100909565D01*
X152265800Y-101026408D01*
X152011932Y-101196036D01*
X151796036Y-101411932D01*
X151626408Y-101665800D01*
X151509565Y-101947882D01*
X151450000Y-102247338D01*
X134005760Y-102247338D01*
X133568601Y-102066261D01*
X133059525Y-101965000D01*
X132540475Y-101965000D01*
X132031399Y-102066261D01*
X131551859Y-102264893D01*
X131120285Y-102553262D01*
X130753262Y-102920285D01*
X130464893Y-103351859D01*
X130266261Y-103831399D01*
X130165000Y-104340475D01*
X99435000Y-104340475D01*
X99333739Y-103831399D01*
X99135107Y-103351859D01*
X98846738Y-102920285D01*
X98479715Y-102553262D01*
X98048141Y-102264893D01*
X97568601Y-102066261D01*
X97059525Y-101965000D01*
X96540475Y-101965000D01*
X96031399Y-102066261D01*
X95551859Y-102264893D01*
X95120285Y-102553262D01*
X94753262Y-102920285D01*
X94464893Y-103351859D01*
X94266261Y-103831399D01*
X94165000Y-104340475D01*
X91795000Y-104340475D01*
X91795000Y-97247338D01*
X138950000Y-97247338D01*
X138950000Y-97552662D01*
X139009565Y-97852118D01*
X139126408Y-98134200D01*
X139296036Y-98388068D01*
X139511932Y-98603964D01*
X139765800Y-98773592D01*
X140047882Y-98890435D01*
X140347338Y-98950000D01*
X140652662Y-98950000D01*
X140952118Y-98890435D01*
X141234200Y-98773592D01*
X141488068Y-98603964D01*
X141703964Y-98388068D01*
X141873592Y-98134200D01*
X141990435Y-97852118D01*
X142050000Y-97552662D01*
X142050000Y-97247338D01*
X141990435Y-96947882D01*
X141873592Y-96665800D01*
X141703964Y-96411932D01*
X141488068Y-96196036D01*
X141234200Y-96026408D01*
X140952118Y-95909565D01*
X140652662Y-95850000D01*
X140347338Y-95850000D01*
X140047882Y-95909565D01*
X139765800Y-96026408D01*
X139511932Y-96196036D01*
X139296036Y-96411932D01*
X139126408Y-96665800D01*
X139009565Y-96947882D01*
X138950000Y-97247338D01*
X91795000Y-97247338D01*
X91795000Y-90710000D01*
X156831928Y-90710000D01*
X156831928Y-92410000D01*
X156844188Y-92534482D01*
X156880498Y-92654180D01*
X156939463Y-92764494D01*
X157018815Y-92861185D01*
X157115506Y-92940537D01*
X157225820Y-92999502D01*
X157298380Y-93021513D01*
X157166525Y-93153368D01*
X157004010Y-93396589D01*
X156892068Y-93666842D01*
X156835000Y-93953740D01*
X156835000Y-94246260D01*
X156892068Y-94533158D01*
X157004010Y-94803411D01*
X157166525Y-95046632D01*
X157373368Y-95253475D01*
X157547760Y-95370000D01*
X157373368Y-95486525D01*
X157166525Y-95693368D01*
X157004010Y-95936589D01*
X156892068Y-96206842D01*
X156835000Y-96493740D01*
X156835000Y-96786260D01*
X156892068Y-97073158D01*
X157004010Y-97343411D01*
X157166525Y-97586632D01*
X157373368Y-97793475D01*
X157616589Y-97955990D01*
X157886842Y-98067932D01*
X158173740Y-98125000D01*
X158466260Y-98125000D01*
X158753158Y-98067932D01*
X159023411Y-97955990D01*
X159266632Y-97793475D01*
X159473475Y-97586632D01*
X159635990Y-97343411D01*
X159747932Y-97073158D01*
X159805000Y-96786260D01*
X159805000Y-96493740D01*
X159747932Y-96206842D01*
X159635990Y-95936589D01*
X159473475Y-95693368D01*
X159266632Y-95486525D01*
X159092240Y-95370000D01*
X159266632Y-95253475D01*
X159473475Y-95046632D01*
X159635990Y-94803411D01*
X159747932Y-94533158D01*
X159805000Y-94246260D01*
X159805000Y-93953740D01*
X159747932Y-93666842D01*
X159635990Y-93396589D01*
X159473475Y-93153368D01*
X159341620Y-93021513D01*
X159414180Y-92999502D01*
X159524494Y-92940537D01*
X159621185Y-92861185D01*
X159700537Y-92764494D01*
X159759502Y-92654180D01*
X159795812Y-92534482D01*
X159808072Y-92410000D01*
X159808072Y-90710000D01*
X162411928Y-90710000D01*
X162411928Y-92410000D01*
X162424188Y-92534482D01*
X162460498Y-92654180D01*
X162519463Y-92764494D01*
X162598815Y-92861185D01*
X162695506Y-92940537D01*
X162805820Y-92999502D01*
X162878380Y-93021513D01*
X162746525Y-93153368D01*
X162584010Y-93396589D01*
X162472068Y-93666842D01*
X162415000Y-93953740D01*
X162415000Y-94246260D01*
X162472068Y-94533158D01*
X162584010Y-94803411D01*
X162746525Y-95046632D01*
X162953368Y-95253475D01*
X163127760Y-95370000D01*
X162953368Y-95486525D01*
X162746525Y-95693368D01*
X162584010Y-95936589D01*
X162472068Y-96206842D01*
X162415000Y-96493740D01*
X162415000Y-96786260D01*
X162472068Y-97073158D01*
X162584010Y-97343411D01*
X162746525Y-97586632D01*
X162953368Y-97793475D01*
X163196589Y-97955990D01*
X163466842Y-98067932D01*
X163753740Y-98125000D01*
X164046260Y-98125000D01*
X164333158Y-98067932D01*
X164603411Y-97955990D01*
X164846632Y-97793475D01*
X165053475Y-97586632D01*
X165215990Y-97343411D01*
X165327932Y-97073158D01*
X165385000Y-96786260D01*
X165385000Y-96493740D01*
X165327932Y-96206842D01*
X165215990Y-95936589D01*
X165053475Y-95693368D01*
X164846632Y-95486525D01*
X164672240Y-95370000D01*
X164846632Y-95253475D01*
X165053475Y-95046632D01*
X165092610Y-94988061D01*
X169545000Y-94988061D01*
X169545000Y-95191939D01*
X169584774Y-95391898D01*
X169662795Y-95580256D01*
X169776063Y-95749774D01*
X169920226Y-95893937D01*
X170089744Y-96007205D01*
X170278102Y-96085226D01*
X170478061Y-96125000D01*
X170681939Y-96125000D01*
X170881898Y-96085226D01*
X171070256Y-96007205D01*
X171239774Y-95893937D01*
X171383937Y-95749774D01*
X171497205Y-95580256D01*
X171575226Y-95391898D01*
X171615000Y-95191939D01*
X171615000Y-94988061D01*
X171575226Y-94788102D01*
X171497205Y-94599744D01*
X171383937Y-94430226D01*
X171239774Y-94286063D01*
X171070256Y-94172795D01*
X170881898Y-94094774D01*
X170681939Y-94055000D01*
X170478061Y-94055000D01*
X170278102Y-94094774D01*
X170089744Y-94172795D01*
X169920226Y-94286063D01*
X169776063Y-94430226D01*
X169662795Y-94599744D01*
X169584774Y-94788102D01*
X169545000Y-94988061D01*
X165092610Y-94988061D01*
X165215990Y-94803411D01*
X165327932Y-94533158D01*
X165385000Y-94246260D01*
X165385000Y-93953740D01*
X165327932Y-93666842D01*
X165215990Y-93396589D01*
X165053475Y-93153368D01*
X164921620Y-93021513D01*
X164994180Y-92999502D01*
X165104494Y-92940537D01*
X165201185Y-92861185D01*
X165280537Y-92764494D01*
X165339502Y-92654180D01*
X165375812Y-92534482D01*
X165388072Y-92410000D01*
X165388072Y-90710000D01*
X165375812Y-90585518D01*
X165339502Y-90465820D01*
X165280537Y-90355506D01*
X165201185Y-90258815D01*
X165104494Y-90179463D01*
X164994180Y-90120498D01*
X164874482Y-90084188D01*
X164750000Y-90071928D01*
X163050000Y-90071928D01*
X162925518Y-90084188D01*
X162805820Y-90120498D01*
X162695506Y-90179463D01*
X162598815Y-90258815D01*
X162519463Y-90355506D01*
X162460498Y-90465820D01*
X162424188Y-90585518D01*
X162411928Y-90710000D01*
X159808072Y-90710000D01*
X159795812Y-90585518D01*
X159759502Y-90465820D01*
X159700537Y-90355506D01*
X159621185Y-90258815D01*
X159524494Y-90179463D01*
X159414180Y-90120498D01*
X159294482Y-90084188D01*
X159170000Y-90071928D01*
X157470000Y-90071928D01*
X157345518Y-90084188D01*
X157225820Y-90120498D01*
X157115506Y-90179463D01*
X157018815Y-90258815D01*
X156939463Y-90355506D01*
X156880498Y-90465820D01*
X156844188Y-90585518D01*
X156831928Y-90710000D01*
X91795000Y-90710000D01*
X91795000Y-88598061D01*
X171265000Y-88598061D01*
X171265000Y-88801939D01*
X171304774Y-89001898D01*
X171382795Y-89190256D01*
X171496063Y-89359774D01*
X171640226Y-89503937D01*
X171809744Y-89617205D01*
X171998102Y-89695226D01*
X172198061Y-89735000D01*
X172401939Y-89735000D01*
X172601898Y-89695226D01*
X172790256Y-89617205D01*
X172959774Y-89503937D01*
X173103937Y-89359774D01*
X173217205Y-89190256D01*
X173295226Y-89001898D01*
X173335000Y-88801939D01*
X173335000Y-88598061D01*
X173295226Y-88398102D01*
X173217205Y-88209744D01*
X173103937Y-88040226D01*
X172959774Y-87896063D01*
X172790256Y-87782795D01*
X172601898Y-87704774D01*
X172401939Y-87665000D01*
X172198061Y-87665000D01*
X171998102Y-87704774D01*
X171809744Y-87782795D01*
X171640226Y-87896063D01*
X171496063Y-88040226D01*
X171382795Y-88209744D01*
X171304774Y-88398102D01*
X171265000Y-88598061D01*
X91795000Y-88598061D01*
X91795000Y-87084130D01*
X173670000Y-87084130D01*
X173670000Y-87283870D01*
X173708968Y-87479773D01*
X173785405Y-87664309D01*
X173896375Y-87830387D01*
X174037613Y-87971625D01*
X174203691Y-88082595D01*
X174388227Y-88159032D01*
X174584130Y-88198000D01*
X174686000Y-88198000D01*
X174686000Y-88202000D01*
X174584130Y-88202000D01*
X174388227Y-88240968D01*
X174203691Y-88317405D01*
X174037613Y-88428375D01*
X173896375Y-88569613D01*
X173785405Y-88735691D01*
X173708968Y-88920227D01*
X173670000Y-89116130D01*
X173670000Y-89315870D01*
X173708968Y-89511773D01*
X173785405Y-89696309D01*
X173896375Y-89862387D01*
X174037613Y-90003625D01*
X174203691Y-90114595D01*
X174388227Y-90191032D01*
X174584130Y-90230000D01*
X174783870Y-90230000D01*
X174979773Y-90191032D01*
X175164309Y-90114595D01*
X175330387Y-90003625D01*
X175471625Y-89862387D01*
X175582595Y-89696309D01*
X175659032Y-89511773D01*
X175698000Y-89315870D01*
X175698000Y-89214000D01*
X175702000Y-89214000D01*
X175702000Y-89315870D01*
X175740968Y-89511773D01*
X175817405Y-89696309D01*
X175928375Y-89862387D01*
X176069613Y-90003625D01*
X176235691Y-90114595D01*
X176420227Y-90191032D01*
X176616130Y-90230000D01*
X176815870Y-90230000D01*
X177011773Y-90191032D01*
X177196309Y-90114595D01*
X177362387Y-90003625D01*
X177503625Y-89862387D01*
X177614595Y-89696309D01*
X177691032Y-89511773D01*
X177730000Y-89315870D01*
X177730000Y-89116130D01*
X177691032Y-88920227D01*
X177614595Y-88735691D01*
X177503625Y-88569613D01*
X177362387Y-88428375D01*
X177196309Y-88317405D01*
X177011773Y-88240968D01*
X176815870Y-88202000D01*
X176714000Y-88202000D01*
X176714000Y-88198000D01*
X176815870Y-88198000D01*
X177011773Y-88159032D01*
X177196309Y-88082595D01*
X177362387Y-87971625D01*
X177503625Y-87830387D01*
X177614595Y-87664309D01*
X177691032Y-87479773D01*
X177730000Y-87283870D01*
X177730000Y-87084130D01*
X177691032Y-86888227D01*
X177614595Y-86703691D01*
X177503625Y-86537613D01*
X177362387Y-86396375D01*
X177196309Y-86285405D01*
X177011773Y-86208968D01*
X176815870Y-86170000D01*
X176616130Y-86170000D01*
X176420227Y-86208968D01*
X176235691Y-86285405D01*
X176069613Y-86396375D01*
X175928375Y-86537613D01*
X175817405Y-86703691D01*
X175740968Y-86888227D01*
X175702000Y-87084130D01*
X175702000Y-87186000D01*
X175698000Y-87186000D01*
X175698000Y-87084130D01*
X175659032Y-86888227D01*
X175582595Y-86703691D01*
X175471625Y-86537613D01*
X175330387Y-86396375D01*
X175164309Y-86285405D01*
X174979773Y-86208968D01*
X174783870Y-86170000D01*
X174584130Y-86170000D01*
X174388227Y-86208968D01*
X174203691Y-86285405D01*
X174037613Y-86396375D01*
X173896375Y-86537613D01*
X173785405Y-86703691D01*
X173708968Y-86888227D01*
X173670000Y-87084130D01*
X91795000Y-87084130D01*
X91795000Y-84148061D01*
X171315000Y-84148061D01*
X171315000Y-84351939D01*
X171354774Y-84551898D01*
X171432795Y-84740256D01*
X171546063Y-84909774D01*
X171690226Y-85053937D01*
X171859744Y-85167205D01*
X172048102Y-85245226D01*
X172248061Y-85285000D01*
X172451939Y-85285000D01*
X172651898Y-85245226D01*
X172840256Y-85167205D01*
X173009774Y-85053937D01*
X173055650Y-85008061D01*
X183465000Y-85008061D01*
X183465000Y-85211939D01*
X183504774Y-85411898D01*
X183582795Y-85600256D01*
X183696063Y-85769774D01*
X183840226Y-85913937D01*
X184009744Y-86027205D01*
X184198102Y-86105226D01*
X184398061Y-86145000D01*
X184601939Y-86145000D01*
X184801898Y-86105226D01*
X184990256Y-86027205D01*
X185159774Y-85913937D01*
X185303937Y-85769774D01*
X185417205Y-85600256D01*
X185495226Y-85411898D01*
X185535000Y-85211939D01*
X185535000Y-85008061D01*
X185495226Y-84808102D01*
X185417205Y-84619744D01*
X185303937Y-84450226D01*
X185159774Y-84306063D01*
X184990256Y-84192795D01*
X184801898Y-84114774D01*
X184601939Y-84075000D01*
X184398061Y-84075000D01*
X184198102Y-84114774D01*
X184009744Y-84192795D01*
X183840226Y-84306063D01*
X183696063Y-84450226D01*
X183582795Y-84619744D01*
X183504774Y-84808102D01*
X183465000Y-85008061D01*
X173055650Y-85008061D01*
X173153937Y-84909774D01*
X173267205Y-84740256D01*
X173345226Y-84551898D01*
X173385000Y-84351939D01*
X173385000Y-84148061D01*
X173345226Y-83948102D01*
X173283077Y-83798061D01*
X174465000Y-83798061D01*
X174465000Y-84001939D01*
X174504774Y-84201898D01*
X174582795Y-84390256D01*
X174696063Y-84559774D01*
X174840226Y-84703937D01*
X175009744Y-84817205D01*
X175198102Y-84895226D01*
X175398061Y-84935000D01*
X175601939Y-84935000D01*
X175801898Y-84895226D01*
X175990256Y-84817205D01*
X176159774Y-84703937D01*
X176303937Y-84559774D01*
X176417205Y-84390256D01*
X176495226Y-84201898D01*
X176535000Y-84001939D01*
X176535000Y-83798061D01*
X176495226Y-83598102D01*
X176417205Y-83409744D01*
X176303937Y-83240226D01*
X176159774Y-83096063D01*
X175990256Y-82982795D01*
X175801898Y-82904774D01*
X175601939Y-82865000D01*
X175398061Y-82865000D01*
X175198102Y-82904774D01*
X175009744Y-82982795D01*
X174840226Y-83096063D01*
X174696063Y-83240226D01*
X174582795Y-83409744D01*
X174504774Y-83598102D01*
X174465000Y-83798061D01*
X173283077Y-83798061D01*
X173267205Y-83759744D01*
X173153937Y-83590226D01*
X173009774Y-83446063D01*
X172840256Y-83332795D01*
X172651898Y-83254774D01*
X172451939Y-83215000D01*
X172248061Y-83215000D01*
X172048102Y-83254774D01*
X171859744Y-83332795D01*
X171690226Y-83446063D01*
X171546063Y-83590226D01*
X171432795Y-83759744D01*
X171354774Y-83948102D01*
X171315000Y-84148061D01*
X91795000Y-84148061D01*
X91795000Y-80220475D01*
X94165000Y-80220475D01*
X94165000Y-80739525D01*
X94266261Y-81248601D01*
X94464893Y-81728141D01*
X94753262Y-82159715D01*
X95120285Y-82526738D01*
X95551859Y-82815107D01*
X96031399Y-83013739D01*
X96540475Y-83115000D01*
X97059525Y-83115000D01*
X97568601Y-83013739D01*
X98048141Y-82815107D01*
X98479715Y-82526738D01*
X98846738Y-82159715D01*
X99135107Y-81728141D01*
X99333739Y-81248601D01*
X99435000Y-80739525D01*
X99435000Y-80220475D01*
X130165000Y-80220475D01*
X130165000Y-80739525D01*
X130266261Y-81248601D01*
X130464893Y-81728141D01*
X130753262Y-82159715D01*
X131120285Y-82526738D01*
X131551859Y-82815107D01*
X132031399Y-83013739D01*
X132540475Y-83115000D01*
X133059525Y-83115000D01*
X133568601Y-83013739D01*
X134048141Y-82815107D01*
X134479715Y-82526738D01*
X134846738Y-82159715D01*
X135135107Y-81728141D01*
X135333739Y-81248601D01*
X135435000Y-80739525D01*
X135435000Y-80660475D01*
X190965000Y-80660475D01*
X190965000Y-81179525D01*
X191066261Y-81688601D01*
X191264893Y-82168141D01*
X191553262Y-82599715D01*
X191920285Y-82966738D01*
X192351859Y-83255107D01*
X192831399Y-83453739D01*
X193340475Y-83555000D01*
X193859525Y-83555000D01*
X194368601Y-83453739D01*
X194848141Y-83255107D01*
X195279715Y-82966738D01*
X195646738Y-82599715D01*
X195935107Y-82168141D01*
X196133739Y-81688601D01*
X196235000Y-81179525D01*
X196235000Y-80660475D01*
X226965000Y-80660475D01*
X226965000Y-81179525D01*
X227066261Y-81688601D01*
X227264893Y-82168141D01*
X227553262Y-82599715D01*
X227920285Y-82966738D01*
X228351859Y-83255107D01*
X228831399Y-83453739D01*
X229340475Y-83555000D01*
X229859525Y-83555000D01*
X230368601Y-83453739D01*
X230848141Y-83255107D01*
X231279715Y-82966738D01*
X231646738Y-82599715D01*
X231935107Y-82168141D01*
X232133739Y-81688601D01*
X232235000Y-81179525D01*
X232235000Y-80660475D01*
X232133739Y-80151399D01*
X231935107Y-79671859D01*
X231646738Y-79240285D01*
X231279715Y-78873262D01*
X230848141Y-78584893D01*
X230368601Y-78386261D01*
X229859525Y-78285000D01*
X229340475Y-78285000D01*
X228831399Y-78386261D01*
X228351859Y-78584893D01*
X227920285Y-78873262D01*
X227553262Y-79240285D01*
X227264893Y-79671859D01*
X227066261Y-80151399D01*
X226965000Y-80660475D01*
X196235000Y-80660475D01*
X196133739Y-80151399D01*
X195935107Y-79671859D01*
X195646738Y-79240285D01*
X195279715Y-78873262D01*
X194848141Y-78584893D01*
X194368601Y-78386261D01*
X193859525Y-78285000D01*
X193340475Y-78285000D01*
X192831399Y-78386261D01*
X192351859Y-78584893D01*
X191920285Y-78873262D01*
X191553262Y-79240285D01*
X191264893Y-79671859D01*
X191066261Y-80151399D01*
X190965000Y-80660475D01*
X135435000Y-80660475D01*
X135435000Y-80220475D01*
X135333739Y-79711399D01*
X135135107Y-79231859D01*
X134846738Y-78800285D01*
X134479715Y-78433262D01*
X134048141Y-78144893D01*
X133693658Y-77998061D01*
X176165000Y-77998061D01*
X176165000Y-78201939D01*
X176204774Y-78401898D01*
X176282795Y-78590256D01*
X176396063Y-78759774D01*
X176540226Y-78903937D01*
X176709744Y-79017205D01*
X176898102Y-79095226D01*
X177098061Y-79135000D01*
X177301939Y-79135000D01*
X177501898Y-79095226D01*
X177690256Y-79017205D01*
X177859774Y-78903937D01*
X178003937Y-78759774D01*
X178117205Y-78590256D01*
X178195226Y-78401898D01*
X178235000Y-78201939D01*
X178235000Y-77998061D01*
X178195226Y-77798102D01*
X178117205Y-77609744D01*
X178003937Y-77440226D01*
X177859774Y-77296063D01*
X177690256Y-77182795D01*
X177501898Y-77104774D01*
X177301939Y-77065000D01*
X177098061Y-77065000D01*
X176898102Y-77104774D01*
X176709744Y-77182795D01*
X176540226Y-77296063D01*
X176396063Y-77440226D01*
X176282795Y-77609744D01*
X176204774Y-77798102D01*
X176165000Y-77998061D01*
X133693658Y-77998061D01*
X133568601Y-77946261D01*
X133059525Y-77845000D01*
X132540475Y-77845000D01*
X132031399Y-77946261D01*
X131551859Y-78144893D01*
X131120285Y-78433262D01*
X130753262Y-78800285D01*
X130464893Y-79231859D01*
X130266261Y-79711399D01*
X130165000Y-80220475D01*
X99435000Y-80220475D01*
X99333739Y-79711399D01*
X99135107Y-79231859D01*
X98846738Y-78800285D01*
X98479715Y-78433262D01*
X98048141Y-78144893D01*
X97568601Y-77946261D01*
X97059525Y-77845000D01*
X96540475Y-77845000D01*
X96031399Y-77946261D01*
X95551859Y-78144893D01*
X95120285Y-78433262D01*
X94753262Y-78800285D01*
X94464893Y-79231859D01*
X94266261Y-79711399D01*
X94165000Y-80220475D01*
X91795000Y-80220475D01*
X91795000Y-61998061D01*
X170565000Y-61998061D01*
X170565000Y-62201939D01*
X170604774Y-62401898D01*
X170682795Y-62590256D01*
X170796063Y-62759774D01*
X170940226Y-62903937D01*
X171109744Y-63017205D01*
X171298102Y-63095226D01*
X171498061Y-63135000D01*
X171701939Y-63135000D01*
X171901898Y-63095226D01*
X172090256Y-63017205D01*
X172259774Y-62903937D01*
X172403937Y-62759774D01*
X172517205Y-62590256D01*
X172595226Y-62401898D01*
X172635000Y-62201939D01*
X172635000Y-61998061D01*
X172595226Y-61798102D01*
X172517205Y-61609744D01*
X172403937Y-61440226D01*
X172259774Y-61296063D01*
X172090256Y-61182795D01*
X171901898Y-61104774D01*
X171701939Y-61065000D01*
X171498061Y-61065000D01*
X171298102Y-61104774D01*
X171109744Y-61182795D01*
X170940226Y-61296063D01*
X170796063Y-61440226D01*
X170682795Y-61609744D01*
X170604774Y-61798102D01*
X170565000Y-61998061D01*
X91795000Y-61998061D01*
X91795000Y-55740475D01*
X94065000Y-55740475D01*
X94065000Y-56259525D01*
X94166261Y-56768601D01*
X94364893Y-57248141D01*
X94653262Y-57679715D01*
X95020285Y-58046738D01*
X95451859Y-58335107D01*
X95931399Y-58533739D01*
X96440475Y-58635000D01*
X96959525Y-58635000D01*
X97468601Y-58533739D01*
X97948141Y-58335107D01*
X98379715Y-58046738D01*
X98746738Y-57679715D01*
X99035107Y-57248141D01*
X99233739Y-56768601D01*
X99335000Y-56259525D01*
X99335000Y-55740475D01*
X130065000Y-55740475D01*
X130065000Y-56259525D01*
X130166261Y-56768601D01*
X130364893Y-57248141D01*
X130653262Y-57679715D01*
X131020285Y-58046738D01*
X131451859Y-58335107D01*
X131931399Y-58533739D01*
X132440475Y-58635000D01*
X132959525Y-58635000D01*
X133468601Y-58533739D01*
X133948141Y-58335107D01*
X134379715Y-58046738D01*
X134746738Y-57679715D01*
X135035107Y-57248141D01*
X135233739Y-56768601D01*
X135335000Y-56259525D01*
X135335000Y-55740475D01*
X135233739Y-55231399D01*
X135035107Y-54751859D01*
X134746738Y-54320285D01*
X134379715Y-53953262D01*
X133948141Y-53664893D01*
X133468601Y-53466261D01*
X132959525Y-53365000D01*
X132440475Y-53365000D01*
X131931399Y-53466261D01*
X131451859Y-53664893D01*
X131020285Y-53953262D01*
X130653262Y-54320285D01*
X130364893Y-54751859D01*
X130166261Y-55231399D01*
X130065000Y-55740475D01*
X99335000Y-55740475D01*
X99233739Y-55231399D01*
X99035107Y-54751859D01*
X98746738Y-54320285D01*
X98379715Y-53953262D01*
X97948141Y-53664893D01*
X97468601Y-53466261D01*
X96959525Y-53365000D01*
X96440475Y-53365000D01*
X95931399Y-53466261D01*
X95451859Y-53664893D01*
X95020285Y-53953262D01*
X94653262Y-54320285D01*
X94364893Y-54751859D01*
X94166261Y-55231399D01*
X94065000Y-55740475D01*
X91795000Y-55740475D01*
X91795000Y-52822408D01*
X140303000Y-52822408D01*
X140303000Y-53097592D01*
X140356686Y-53367490D01*
X140461995Y-53621727D01*
X140614880Y-53850535D01*
X140809465Y-54045120D01*
X141038273Y-54198005D01*
X141115515Y-54230000D01*
X141038273Y-54261995D01*
X140809465Y-54414880D01*
X140614880Y-54609465D01*
X140461995Y-54838273D01*
X140356686Y-55092510D01*
X140303000Y-55362408D01*
X140303000Y-55637592D01*
X140356686Y-55907490D01*
X140461995Y-56161727D01*
X140614880Y-56390535D01*
X140809465Y-56585120D01*
X141038273Y-56738005D01*
X141115515Y-56770000D01*
X141038273Y-56801995D01*
X140809465Y-56954880D01*
X140614880Y-57149465D01*
X140461995Y-57378273D01*
X140356686Y-57632510D01*
X140303000Y-57902408D01*
X140303000Y-58177592D01*
X140356686Y-58447490D01*
X140461995Y-58701727D01*
X140614880Y-58930535D01*
X140809465Y-59125120D01*
X141038273Y-59278005D01*
X141115515Y-59310000D01*
X141038273Y-59341995D01*
X140809465Y-59494880D01*
X140614880Y-59689465D01*
X140461995Y-59918273D01*
X140356686Y-60172510D01*
X140303000Y-60442408D01*
X140303000Y-60717592D01*
X140356686Y-60987490D01*
X140461995Y-61241727D01*
X140614880Y-61470535D01*
X140809465Y-61665120D01*
X141038273Y-61818005D01*
X141292510Y-61923314D01*
X141562408Y-61977000D01*
X141837592Y-61977000D01*
X142107490Y-61923314D01*
X142361727Y-61818005D01*
X142590535Y-61665120D01*
X142785120Y-61470535D01*
X142938005Y-61241727D01*
X143043314Y-60987490D01*
X143097000Y-60717592D01*
X143097000Y-60442408D01*
X143043314Y-60172510D01*
X142938005Y-59918273D01*
X142785120Y-59689465D01*
X142693716Y-59598061D01*
X152035000Y-59598061D01*
X152035000Y-59801939D01*
X152074774Y-60001898D01*
X152152795Y-60190256D01*
X152266063Y-60359774D01*
X152410226Y-60503937D01*
X152579744Y-60617205D01*
X152768102Y-60695226D01*
X152968061Y-60735000D01*
X153171939Y-60735000D01*
X153371898Y-60695226D01*
X153560256Y-60617205D01*
X153729774Y-60503937D01*
X153873937Y-60359774D01*
X153987205Y-60190256D01*
X154065226Y-60001898D01*
X154105000Y-59801939D01*
X154105000Y-59598061D01*
X154065226Y-59398102D01*
X153987205Y-59209744D01*
X153873937Y-59040226D01*
X153729774Y-58896063D01*
X153560256Y-58782795D01*
X153371898Y-58704774D01*
X153171939Y-58665000D01*
X152968061Y-58665000D01*
X152768102Y-58704774D01*
X152579744Y-58782795D01*
X152410226Y-58896063D01*
X152266063Y-59040226D01*
X152152795Y-59209744D01*
X152074774Y-59398102D01*
X152035000Y-59598061D01*
X142693716Y-59598061D01*
X142590535Y-59494880D01*
X142361727Y-59341995D01*
X142284485Y-59310000D01*
X142361727Y-59278005D01*
X142590535Y-59125120D01*
X142785120Y-58930535D01*
X142938005Y-58701727D01*
X143043314Y-58447490D01*
X143097000Y-58177592D01*
X143097000Y-57902408D01*
X143043314Y-57632510D01*
X142938005Y-57378273D01*
X142785120Y-57149465D01*
X142590535Y-56954880D01*
X142361727Y-56801995D01*
X142284485Y-56770000D01*
X142361727Y-56738005D01*
X142590535Y-56585120D01*
X142785120Y-56390535D01*
X142938005Y-56161727D01*
X143043314Y-55907490D01*
X143097000Y-55637592D01*
X143097000Y-55362408D01*
X143043314Y-55092510D01*
X142938005Y-54838273D01*
X142785120Y-54609465D01*
X142590535Y-54414880D01*
X142361727Y-54261995D01*
X142284485Y-54230000D01*
X142361727Y-54198005D01*
X142590535Y-54045120D01*
X142785120Y-53850535D01*
X142938005Y-53621727D01*
X143043314Y-53367490D01*
X143097000Y-53097592D01*
X143097000Y-52822408D01*
X143092158Y-52798061D01*
X158165000Y-52798061D01*
X158165000Y-53001939D01*
X158204774Y-53201898D01*
X158282795Y-53390256D01*
X158396063Y-53559774D01*
X158540226Y-53703937D01*
X158709744Y-53817205D01*
X158898102Y-53895226D01*
X159098061Y-53935000D01*
X159301939Y-53935000D01*
X159501898Y-53895226D01*
X159690256Y-53817205D01*
X159859774Y-53703937D01*
X160003937Y-53559774D01*
X160117205Y-53390256D01*
X160195226Y-53201898D01*
X160235000Y-53001939D01*
X160235000Y-52798061D01*
X160195226Y-52598102D01*
X160117205Y-52409744D01*
X160003937Y-52240226D01*
X159859774Y-52096063D01*
X159690256Y-51982795D01*
X159501898Y-51904774D01*
X159301939Y-51865000D01*
X159098061Y-51865000D01*
X158898102Y-51904774D01*
X158709744Y-51982795D01*
X158540226Y-52096063D01*
X158396063Y-52240226D01*
X158282795Y-52409744D01*
X158204774Y-52598102D01*
X158165000Y-52798061D01*
X143092158Y-52798061D01*
X143043314Y-52552510D01*
X142938005Y-52298273D01*
X142785120Y-52069465D01*
X142590535Y-51874880D01*
X142361727Y-51721995D01*
X142290057Y-51692308D01*
X142303023Y-51687636D01*
X142418980Y-51625656D01*
X142485960Y-51385565D01*
X141700000Y-50599605D01*
X140914040Y-51385565D01*
X140981020Y-51625656D01*
X141116760Y-51689485D01*
X141038273Y-51721995D01*
X140809465Y-51874880D01*
X140614880Y-52069465D01*
X140461995Y-52298273D01*
X140356686Y-52552510D01*
X140303000Y-52822408D01*
X91795000Y-52822408D01*
X91795000Y-50492017D01*
X140298090Y-50492017D01*
X140339078Y-50764133D01*
X140432364Y-51023023D01*
X140494344Y-51138980D01*
X140734435Y-51205960D01*
X141520395Y-50420000D01*
X141879605Y-50420000D01*
X142665565Y-51205960D01*
X142905656Y-51138980D01*
X143022756Y-50889952D01*
X143043073Y-50808061D01*
X166655000Y-50808061D01*
X166655000Y-51011939D01*
X166694774Y-51211898D01*
X166772795Y-51400256D01*
X166886063Y-51569774D01*
X167030226Y-51713937D01*
X167199744Y-51827205D01*
X167388102Y-51905226D01*
X167588061Y-51945000D01*
X167791939Y-51945000D01*
X167991898Y-51905226D01*
X168180256Y-51827205D01*
X168349774Y-51713937D01*
X168493937Y-51569774D01*
X168607205Y-51400256D01*
X168685226Y-51211898D01*
X168725000Y-51011939D01*
X168725000Y-50808061D01*
X168685226Y-50608102D01*
X168607205Y-50419744D01*
X168493937Y-50250226D01*
X168349774Y-50106063D01*
X168180256Y-49992795D01*
X167991898Y-49914774D01*
X167791939Y-49875000D01*
X167588061Y-49875000D01*
X167388102Y-49914774D01*
X167199744Y-49992795D01*
X167030226Y-50106063D01*
X166886063Y-50250226D01*
X166772795Y-50419744D01*
X166694774Y-50608102D01*
X166655000Y-50808061D01*
X143043073Y-50808061D01*
X143089023Y-50622865D01*
X143101910Y-50347983D01*
X143060922Y-50075867D01*
X142967636Y-49816977D01*
X142905656Y-49701020D01*
X142665565Y-49634040D01*
X141879605Y-50420000D01*
X141520395Y-50420000D01*
X140734435Y-49634040D01*
X140494344Y-49701020D01*
X140377244Y-49950048D01*
X140310977Y-50217135D01*
X140298090Y-50492017D01*
X91795000Y-50492017D01*
X91795000Y-48845565D01*
X140914040Y-48845565D01*
X140981020Y-49085656D01*
X141111644Y-49147079D01*
X141096977Y-49152364D01*
X140981020Y-49214344D01*
X140914040Y-49454435D01*
X141700000Y-50240395D01*
X142485960Y-49454435D01*
X142418980Y-49214344D01*
X142288356Y-49152921D01*
X142303023Y-49147636D01*
X142418980Y-49085656D01*
X142485960Y-48845565D01*
X141700000Y-48059605D01*
X140914040Y-48845565D01*
X91795000Y-48845565D01*
X91795000Y-47952017D01*
X140298090Y-47952017D01*
X140339078Y-48224133D01*
X140432364Y-48483023D01*
X140494344Y-48598980D01*
X140734435Y-48665960D01*
X141520395Y-47880000D01*
X141879605Y-47880000D01*
X142665565Y-48665960D01*
X142905656Y-48598980D01*
X143022756Y-48349952D01*
X143089023Y-48082865D01*
X143101910Y-47807983D01*
X143060922Y-47535867D01*
X143047300Y-47498061D01*
X160165000Y-47498061D01*
X160165000Y-47701939D01*
X160204774Y-47901898D01*
X160282795Y-48090256D01*
X160396063Y-48259774D01*
X160540226Y-48403937D01*
X160709744Y-48517205D01*
X160898102Y-48595226D01*
X161098061Y-48635000D01*
X161301939Y-48635000D01*
X161501898Y-48595226D01*
X161690256Y-48517205D01*
X161859774Y-48403937D01*
X162003937Y-48259774D01*
X162117205Y-48090256D01*
X162195226Y-47901898D01*
X162235000Y-47701939D01*
X162235000Y-47498061D01*
X162195226Y-47298102D01*
X162117205Y-47109744D01*
X162003937Y-46940226D01*
X161859774Y-46796063D01*
X161690256Y-46682795D01*
X161501898Y-46604774D01*
X161301939Y-46565000D01*
X161098061Y-46565000D01*
X160898102Y-46604774D01*
X160709744Y-46682795D01*
X160540226Y-46796063D01*
X160396063Y-46940226D01*
X160282795Y-47109744D01*
X160204774Y-47298102D01*
X160165000Y-47498061D01*
X143047300Y-47498061D01*
X142967636Y-47276977D01*
X142905656Y-47161020D01*
X142665565Y-47094040D01*
X141879605Y-47880000D01*
X141520395Y-47880000D01*
X140734435Y-47094040D01*
X140494344Y-47161020D01*
X140377244Y-47410048D01*
X140310977Y-47677135D01*
X140298090Y-47952017D01*
X91795000Y-47952017D01*
X91795000Y-46305565D01*
X140914040Y-46305565D01*
X140981020Y-46545656D01*
X141111644Y-46607079D01*
X141096977Y-46612364D01*
X140981020Y-46674344D01*
X140914040Y-46914435D01*
X141700000Y-47700395D01*
X142485960Y-46914435D01*
X142418980Y-46674344D01*
X142288356Y-46612921D01*
X142303023Y-46607636D01*
X142418980Y-46545656D01*
X142485960Y-46305565D01*
X141700000Y-45519605D01*
X140914040Y-46305565D01*
X91795000Y-46305565D01*
X91795000Y-45412017D01*
X140298090Y-45412017D01*
X140339078Y-45684133D01*
X140432364Y-45943023D01*
X140494344Y-46058980D01*
X140734435Y-46125960D01*
X141520395Y-45340000D01*
X141879605Y-45340000D01*
X142665565Y-46125960D01*
X142905656Y-46058980D01*
X143022756Y-45809952D01*
X143089023Y-45542865D01*
X143101910Y-45267983D01*
X143060922Y-44995867D01*
X142967636Y-44736977D01*
X142905656Y-44621020D01*
X142665565Y-44554040D01*
X141879605Y-45340000D01*
X141520395Y-45340000D01*
X140734435Y-44554040D01*
X140494344Y-44621020D01*
X140377244Y-44870048D01*
X140310977Y-45137135D01*
X140298090Y-45412017D01*
X91795000Y-45412017D01*
X91795000Y-43765565D01*
X140914040Y-43765565D01*
X140981020Y-44005656D01*
X141111644Y-44067079D01*
X141096977Y-44072364D01*
X140981020Y-44134344D01*
X140914040Y-44374435D01*
X141700000Y-45160395D01*
X142485960Y-44374435D01*
X142418980Y-44134344D01*
X142288356Y-44072921D01*
X142303023Y-44067636D01*
X142418980Y-44005656D01*
X142485960Y-43765565D01*
X141700000Y-42979605D01*
X140914040Y-43765565D01*
X91795000Y-43765565D01*
X91795000Y-42872017D01*
X140298090Y-42872017D01*
X140339078Y-43144133D01*
X140432364Y-43403023D01*
X140494344Y-43518980D01*
X140734435Y-43585960D01*
X141520395Y-42800000D01*
X141879605Y-42800000D01*
X142665565Y-43585960D01*
X142905656Y-43518980D01*
X143022756Y-43269952D01*
X143089023Y-43002865D01*
X143101910Y-42727983D01*
X143092033Y-42662408D01*
X183483000Y-42662408D01*
X183483000Y-42937592D01*
X183536686Y-43207490D01*
X183641995Y-43461727D01*
X183794880Y-43690535D01*
X183989465Y-43885120D01*
X184218273Y-44038005D01*
X184295515Y-44070000D01*
X184218273Y-44101995D01*
X183989465Y-44254880D01*
X183794880Y-44449465D01*
X183641995Y-44678273D01*
X183536686Y-44932510D01*
X183483000Y-45202408D01*
X183483000Y-45477592D01*
X183536686Y-45747490D01*
X183641995Y-46001727D01*
X183794880Y-46230535D01*
X183989465Y-46425120D01*
X184218273Y-46578005D01*
X184295515Y-46610000D01*
X184218273Y-46641995D01*
X183989465Y-46794880D01*
X183794880Y-46989465D01*
X183641995Y-47218273D01*
X183536686Y-47472510D01*
X183483000Y-47742408D01*
X183483000Y-48017592D01*
X183536686Y-48287490D01*
X183641995Y-48541727D01*
X183794880Y-48770535D01*
X183989465Y-48965120D01*
X184218273Y-49118005D01*
X184295515Y-49150000D01*
X184218273Y-49181995D01*
X183989465Y-49334880D01*
X183794880Y-49529465D01*
X183641995Y-49758273D01*
X183536686Y-50012510D01*
X183483000Y-50282408D01*
X183483000Y-50557592D01*
X183536686Y-50827490D01*
X183641995Y-51081727D01*
X183794880Y-51310535D01*
X183989465Y-51505120D01*
X184218273Y-51658005D01*
X184295515Y-51690000D01*
X184218273Y-51721995D01*
X183989465Y-51874880D01*
X183794880Y-52069465D01*
X183641995Y-52298273D01*
X183536686Y-52552510D01*
X183483000Y-52822408D01*
X183483000Y-53097592D01*
X183536686Y-53367490D01*
X183641995Y-53621727D01*
X183794880Y-53850535D01*
X183989465Y-54045120D01*
X184218273Y-54198005D01*
X184295515Y-54230000D01*
X184218273Y-54261995D01*
X183989465Y-54414880D01*
X183794880Y-54609465D01*
X183641995Y-54838273D01*
X183536686Y-55092510D01*
X183483000Y-55362408D01*
X183483000Y-55637592D01*
X183536686Y-55907490D01*
X183641995Y-56161727D01*
X183794880Y-56390535D01*
X183989465Y-56585120D01*
X184218273Y-56738005D01*
X184295515Y-56770000D01*
X184218273Y-56801995D01*
X183989465Y-56954880D01*
X183794880Y-57149465D01*
X183641995Y-57378273D01*
X183536686Y-57632510D01*
X183483000Y-57902408D01*
X183483000Y-58177592D01*
X183536686Y-58447490D01*
X183641995Y-58701727D01*
X183794880Y-58930535D01*
X183989465Y-59125120D01*
X184218273Y-59278005D01*
X184295515Y-59310000D01*
X184218273Y-59341995D01*
X183989465Y-59494880D01*
X183794880Y-59689465D01*
X183641995Y-59918273D01*
X183536686Y-60172510D01*
X183483000Y-60442408D01*
X183483000Y-60717592D01*
X183536686Y-60987490D01*
X183641995Y-61241727D01*
X183794880Y-61470535D01*
X183989465Y-61665120D01*
X184218273Y-61818005D01*
X184472510Y-61923314D01*
X184742408Y-61977000D01*
X185017592Y-61977000D01*
X185287490Y-61923314D01*
X185541727Y-61818005D01*
X185770535Y-61665120D01*
X185965120Y-61470535D01*
X186118005Y-61241727D01*
X186223314Y-60987490D01*
X186277000Y-60717592D01*
X186277000Y-60442408D01*
X186223314Y-60172510D01*
X186118005Y-59918273D01*
X185965120Y-59689465D01*
X185770535Y-59494880D01*
X185541727Y-59341995D01*
X185464485Y-59310000D01*
X185541727Y-59278005D01*
X185770535Y-59125120D01*
X185965120Y-58930535D01*
X186118005Y-58701727D01*
X186223314Y-58447490D01*
X186277000Y-58177592D01*
X186277000Y-57902408D01*
X186223314Y-57632510D01*
X186118005Y-57378273D01*
X185965120Y-57149465D01*
X185770535Y-56954880D01*
X185541727Y-56801995D01*
X185464485Y-56770000D01*
X185541727Y-56738005D01*
X185770535Y-56585120D01*
X185815180Y-56540475D01*
X190965000Y-56540475D01*
X190965000Y-57059525D01*
X191066261Y-57568601D01*
X191264893Y-58048141D01*
X191553262Y-58479715D01*
X191920285Y-58846738D01*
X192351859Y-59135107D01*
X192831399Y-59333739D01*
X193340475Y-59435000D01*
X193859525Y-59435000D01*
X194368601Y-59333739D01*
X194848141Y-59135107D01*
X195279715Y-58846738D01*
X195646738Y-58479715D01*
X195935107Y-58048141D01*
X196133739Y-57568601D01*
X196235000Y-57059525D01*
X196235000Y-56540475D01*
X226965000Y-56540475D01*
X226965000Y-57059525D01*
X227066261Y-57568601D01*
X227264893Y-58048141D01*
X227553262Y-58479715D01*
X227920285Y-58846738D01*
X228351859Y-59135107D01*
X228831399Y-59333739D01*
X229340475Y-59435000D01*
X229859525Y-59435000D01*
X230368601Y-59333739D01*
X230848141Y-59135107D01*
X231279715Y-58846738D01*
X231646738Y-58479715D01*
X231935107Y-58048141D01*
X232133739Y-57568601D01*
X232235000Y-57059525D01*
X232235000Y-56540475D01*
X232133739Y-56031399D01*
X231935107Y-55551859D01*
X231646738Y-55120285D01*
X231279715Y-54753262D01*
X230848141Y-54464893D01*
X230368601Y-54266261D01*
X229859525Y-54165000D01*
X229340475Y-54165000D01*
X228831399Y-54266261D01*
X228351859Y-54464893D01*
X227920285Y-54753262D01*
X227553262Y-55120285D01*
X227264893Y-55551859D01*
X227066261Y-56031399D01*
X226965000Y-56540475D01*
X196235000Y-56540475D01*
X196133739Y-56031399D01*
X195935107Y-55551859D01*
X195646738Y-55120285D01*
X195279715Y-54753262D01*
X194848141Y-54464893D01*
X194368601Y-54266261D01*
X193859525Y-54165000D01*
X193340475Y-54165000D01*
X192831399Y-54266261D01*
X192351859Y-54464893D01*
X191920285Y-54753262D01*
X191553262Y-55120285D01*
X191264893Y-55551859D01*
X191066261Y-56031399D01*
X190965000Y-56540475D01*
X185815180Y-56540475D01*
X185965120Y-56390535D01*
X186118005Y-56161727D01*
X186223314Y-55907490D01*
X186277000Y-55637592D01*
X186277000Y-55362408D01*
X186223314Y-55092510D01*
X186118005Y-54838273D01*
X185965120Y-54609465D01*
X185770535Y-54414880D01*
X185541727Y-54261995D01*
X185464485Y-54230000D01*
X185541727Y-54198005D01*
X185770535Y-54045120D01*
X185965120Y-53850535D01*
X186118005Y-53621727D01*
X186223314Y-53367490D01*
X186277000Y-53097592D01*
X186277000Y-52822408D01*
X186223314Y-52552510D01*
X186118005Y-52298273D01*
X185965120Y-52069465D01*
X185770535Y-51874880D01*
X185541727Y-51721995D01*
X185464485Y-51690000D01*
X185541727Y-51658005D01*
X185770535Y-51505120D01*
X185965120Y-51310535D01*
X186118005Y-51081727D01*
X186223314Y-50827490D01*
X186277000Y-50557592D01*
X186277000Y-50282408D01*
X186223314Y-50012510D01*
X186118005Y-49758273D01*
X185965120Y-49529465D01*
X185770535Y-49334880D01*
X185541727Y-49181995D01*
X185464485Y-49150000D01*
X185541727Y-49118005D01*
X185770535Y-48965120D01*
X185965120Y-48770535D01*
X186118005Y-48541727D01*
X186223314Y-48287490D01*
X186277000Y-48017592D01*
X186277000Y-47742408D01*
X186223314Y-47472510D01*
X186118005Y-47218273D01*
X185965120Y-46989465D01*
X185770535Y-46794880D01*
X185541727Y-46641995D01*
X185464485Y-46610000D01*
X185541727Y-46578005D01*
X185770535Y-46425120D01*
X185965120Y-46230535D01*
X186118005Y-46001727D01*
X186223314Y-45747490D01*
X186277000Y-45477592D01*
X186277000Y-45202408D01*
X186223314Y-44932510D01*
X186118005Y-44678273D01*
X185965120Y-44449465D01*
X185770535Y-44254880D01*
X185541727Y-44101995D01*
X185464485Y-44070000D01*
X185541727Y-44038005D01*
X185770535Y-43885120D01*
X185965120Y-43690535D01*
X186118005Y-43461727D01*
X186223314Y-43207490D01*
X186277000Y-42937592D01*
X186277000Y-42662408D01*
X186223314Y-42392510D01*
X186118005Y-42138273D01*
X185965120Y-41909465D01*
X185770535Y-41714880D01*
X185541727Y-41561995D01*
X185287490Y-41456686D01*
X185017592Y-41403000D01*
X184742408Y-41403000D01*
X184472510Y-41456686D01*
X184218273Y-41561995D01*
X183989465Y-41714880D01*
X183794880Y-41909465D01*
X183641995Y-42138273D01*
X183536686Y-42392510D01*
X183483000Y-42662408D01*
X143092033Y-42662408D01*
X143060922Y-42455867D01*
X142967636Y-42196977D01*
X142905656Y-42081020D01*
X142665565Y-42014040D01*
X141879605Y-42800000D01*
X141520395Y-42800000D01*
X140734435Y-42014040D01*
X140494344Y-42081020D01*
X140377244Y-42330048D01*
X140310977Y-42597135D01*
X140298090Y-42872017D01*
X91795000Y-42872017D01*
X91795000Y-41834435D01*
X140914040Y-41834435D01*
X141700000Y-42620395D01*
X142485960Y-41834435D01*
X142418980Y-41594344D01*
X142169952Y-41477244D01*
X141902865Y-41410977D01*
X141627983Y-41398090D01*
X141355867Y-41439078D01*
X141096977Y-41532364D01*
X140981020Y-41594344D01*
X140914040Y-41834435D01*
X91795000Y-41834435D01*
X91795000Y-40695000D01*
X233405000Y-40695000D01*
X233405001Y-121305000D01*
M02*
