G04 #@! TF.GenerationSoftware,KiCad,Pcbnew,(5.1.4)-1*
G04 #@! TF.CreationDate,2020-02-25T16:56:55+01:00*
G04 #@! TF.ProjectId,Master Thesis PCB,4d617374-6572-4205-9468-657369732050,rev?*
G04 #@! TF.SameCoordinates,Original*
G04 #@! TF.FileFunction,Copper,L1,Top*
G04 #@! TF.FilePolarity,Positive*
%FSLAX46Y46*%
G04 Gerber Fmt 4.6, Leading zero omitted, Abs format (unit mm)*
G04 Created by KiCad (PCBNEW (5.1.4)-1) date 2020-02-25 16:56:55*
%MOMM*%
%LPD*%
G04 APERTURE LIST*
%ADD10C,0.001000*%
%ADD11R,1.000000X0.900000*%
%ADD12R,0.800000X0.600000*%
%ADD13C,0.100000*%
%ADD14C,0.875000*%
%ADD15C,2.026000*%
%ADD16C,1.561000*%
%ADD17O,1.700000X1.700000*%
%ADD18R,1.700000X1.700000*%
%ADD19C,0.600000*%
%ADD20R,0.800000X0.500000*%
%ADD21R,0.500000X0.800000*%
%ADD22R,1.600000X1.600000*%
%ADD23R,0.800000X0.800000*%
%ADD24R,1.650000X5.600000*%
%ADD25R,0.900000X5.600000*%
%ADD26C,0.800000*%
%ADD27C,0.250000*%
%ADD28C,0.221000*%
G04 APERTURE END LIST*
D10*
G36*
X125650000Y-89300000D02*
G01*
X125650000Y-90900000D01*
X124050000Y-90900000D01*
X124050000Y-89800000D01*
X124550000Y-89300000D01*
X125650000Y-89300000D01*
G37*
X125650000Y-89300000D02*
X125650000Y-90900000D01*
X124050000Y-90900000D01*
X124050000Y-89800000D01*
X124550000Y-89300000D01*
X125650000Y-89300000D01*
D11*
X131200000Y-108600000D03*
X128200000Y-108600000D03*
D12*
X129700000Y-108450000D03*
D13*
G36*
X128440191Y-105726053D02*
G01*
X128461426Y-105729203D01*
X128482250Y-105734419D01*
X128502462Y-105741651D01*
X128521868Y-105750830D01*
X128540281Y-105761866D01*
X128557524Y-105774654D01*
X128573430Y-105789070D01*
X128587846Y-105804976D01*
X128600634Y-105822219D01*
X128611670Y-105840632D01*
X128620849Y-105860038D01*
X128628081Y-105880250D01*
X128633297Y-105901074D01*
X128636447Y-105922309D01*
X128637500Y-105943750D01*
X128637500Y-106456250D01*
X128636447Y-106477691D01*
X128633297Y-106498926D01*
X128628081Y-106519750D01*
X128620849Y-106539962D01*
X128611670Y-106559368D01*
X128600634Y-106577781D01*
X128587846Y-106595024D01*
X128573430Y-106610930D01*
X128557524Y-106625346D01*
X128540281Y-106638134D01*
X128521868Y-106649170D01*
X128502462Y-106658349D01*
X128482250Y-106665581D01*
X128461426Y-106670797D01*
X128440191Y-106673947D01*
X128418750Y-106675000D01*
X127981250Y-106675000D01*
X127959809Y-106673947D01*
X127938574Y-106670797D01*
X127917750Y-106665581D01*
X127897538Y-106658349D01*
X127878132Y-106649170D01*
X127859719Y-106638134D01*
X127842476Y-106625346D01*
X127826570Y-106610930D01*
X127812154Y-106595024D01*
X127799366Y-106577781D01*
X127788330Y-106559368D01*
X127779151Y-106539962D01*
X127771919Y-106519750D01*
X127766703Y-106498926D01*
X127763553Y-106477691D01*
X127762500Y-106456250D01*
X127762500Y-105943750D01*
X127763553Y-105922309D01*
X127766703Y-105901074D01*
X127771919Y-105880250D01*
X127779151Y-105860038D01*
X127788330Y-105840632D01*
X127799366Y-105822219D01*
X127812154Y-105804976D01*
X127826570Y-105789070D01*
X127842476Y-105774654D01*
X127859719Y-105761866D01*
X127878132Y-105750830D01*
X127897538Y-105741651D01*
X127917750Y-105734419D01*
X127938574Y-105729203D01*
X127959809Y-105726053D01*
X127981250Y-105725000D01*
X128418750Y-105725000D01*
X128440191Y-105726053D01*
X128440191Y-105726053D01*
G37*
D14*
X128200000Y-106200000D03*
D13*
G36*
X130015191Y-105726053D02*
G01*
X130036426Y-105729203D01*
X130057250Y-105734419D01*
X130077462Y-105741651D01*
X130096868Y-105750830D01*
X130115281Y-105761866D01*
X130132524Y-105774654D01*
X130148430Y-105789070D01*
X130162846Y-105804976D01*
X130175634Y-105822219D01*
X130186670Y-105840632D01*
X130195849Y-105860038D01*
X130203081Y-105880250D01*
X130208297Y-105901074D01*
X130211447Y-105922309D01*
X130212500Y-105943750D01*
X130212500Y-106456250D01*
X130211447Y-106477691D01*
X130208297Y-106498926D01*
X130203081Y-106519750D01*
X130195849Y-106539962D01*
X130186670Y-106559368D01*
X130175634Y-106577781D01*
X130162846Y-106595024D01*
X130148430Y-106610930D01*
X130132524Y-106625346D01*
X130115281Y-106638134D01*
X130096868Y-106649170D01*
X130077462Y-106658349D01*
X130057250Y-106665581D01*
X130036426Y-106670797D01*
X130015191Y-106673947D01*
X129993750Y-106675000D01*
X129556250Y-106675000D01*
X129534809Y-106673947D01*
X129513574Y-106670797D01*
X129492750Y-106665581D01*
X129472538Y-106658349D01*
X129453132Y-106649170D01*
X129434719Y-106638134D01*
X129417476Y-106625346D01*
X129401570Y-106610930D01*
X129387154Y-106595024D01*
X129374366Y-106577781D01*
X129363330Y-106559368D01*
X129354151Y-106539962D01*
X129346919Y-106519750D01*
X129341703Y-106498926D01*
X129338553Y-106477691D01*
X129337500Y-106456250D01*
X129337500Y-105943750D01*
X129338553Y-105922309D01*
X129341703Y-105901074D01*
X129346919Y-105880250D01*
X129354151Y-105860038D01*
X129363330Y-105840632D01*
X129374366Y-105822219D01*
X129387154Y-105804976D01*
X129401570Y-105789070D01*
X129417476Y-105774654D01*
X129434719Y-105761866D01*
X129453132Y-105750830D01*
X129472538Y-105741651D01*
X129492750Y-105734419D01*
X129513574Y-105729203D01*
X129534809Y-105726053D01*
X129556250Y-105725000D01*
X129993750Y-105725000D01*
X130015191Y-105726053D01*
X130015191Y-105726053D01*
G37*
D14*
X129775000Y-106200000D03*
D15*
X111600000Y-105200000D03*
X104590000Y-105200000D03*
D16*
X110345000Y-107690000D03*
X105845000Y-107690000D03*
D13*
G36*
X108040191Y-101326053D02*
G01*
X108061426Y-101329203D01*
X108082250Y-101334419D01*
X108102462Y-101341651D01*
X108121868Y-101350830D01*
X108140281Y-101361866D01*
X108157524Y-101374654D01*
X108173430Y-101389070D01*
X108187846Y-101404976D01*
X108200634Y-101422219D01*
X108211670Y-101440632D01*
X108220849Y-101460038D01*
X108228081Y-101480250D01*
X108233297Y-101501074D01*
X108236447Y-101522309D01*
X108237500Y-101543750D01*
X108237500Y-102056250D01*
X108236447Y-102077691D01*
X108233297Y-102098926D01*
X108228081Y-102119750D01*
X108220849Y-102139962D01*
X108211670Y-102159368D01*
X108200634Y-102177781D01*
X108187846Y-102195024D01*
X108173430Y-102210930D01*
X108157524Y-102225346D01*
X108140281Y-102238134D01*
X108121868Y-102249170D01*
X108102462Y-102258349D01*
X108082250Y-102265581D01*
X108061426Y-102270797D01*
X108040191Y-102273947D01*
X108018750Y-102275000D01*
X107581250Y-102275000D01*
X107559809Y-102273947D01*
X107538574Y-102270797D01*
X107517750Y-102265581D01*
X107497538Y-102258349D01*
X107478132Y-102249170D01*
X107459719Y-102238134D01*
X107442476Y-102225346D01*
X107426570Y-102210930D01*
X107412154Y-102195024D01*
X107399366Y-102177781D01*
X107388330Y-102159368D01*
X107379151Y-102139962D01*
X107371919Y-102119750D01*
X107366703Y-102098926D01*
X107363553Y-102077691D01*
X107362500Y-102056250D01*
X107362500Y-101543750D01*
X107363553Y-101522309D01*
X107366703Y-101501074D01*
X107371919Y-101480250D01*
X107379151Y-101460038D01*
X107388330Y-101440632D01*
X107399366Y-101422219D01*
X107412154Y-101404976D01*
X107426570Y-101389070D01*
X107442476Y-101374654D01*
X107459719Y-101361866D01*
X107478132Y-101350830D01*
X107497538Y-101341651D01*
X107517750Y-101334419D01*
X107538574Y-101329203D01*
X107559809Y-101326053D01*
X107581250Y-101325000D01*
X108018750Y-101325000D01*
X108040191Y-101326053D01*
X108040191Y-101326053D01*
G37*
D14*
X107800000Y-101800000D03*
D13*
G36*
X109615191Y-101326053D02*
G01*
X109636426Y-101329203D01*
X109657250Y-101334419D01*
X109677462Y-101341651D01*
X109696868Y-101350830D01*
X109715281Y-101361866D01*
X109732524Y-101374654D01*
X109748430Y-101389070D01*
X109762846Y-101404976D01*
X109775634Y-101422219D01*
X109786670Y-101440632D01*
X109795849Y-101460038D01*
X109803081Y-101480250D01*
X109808297Y-101501074D01*
X109811447Y-101522309D01*
X109812500Y-101543750D01*
X109812500Y-102056250D01*
X109811447Y-102077691D01*
X109808297Y-102098926D01*
X109803081Y-102119750D01*
X109795849Y-102139962D01*
X109786670Y-102159368D01*
X109775634Y-102177781D01*
X109762846Y-102195024D01*
X109748430Y-102210930D01*
X109732524Y-102225346D01*
X109715281Y-102238134D01*
X109696868Y-102249170D01*
X109677462Y-102258349D01*
X109657250Y-102265581D01*
X109636426Y-102270797D01*
X109615191Y-102273947D01*
X109593750Y-102275000D01*
X109156250Y-102275000D01*
X109134809Y-102273947D01*
X109113574Y-102270797D01*
X109092750Y-102265581D01*
X109072538Y-102258349D01*
X109053132Y-102249170D01*
X109034719Y-102238134D01*
X109017476Y-102225346D01*
X109001570Y-102210930D01*
X108987154Y-102195024D01*
X108974366Y-102177781D01*
X108963330Y-102159368D01*
X108954151Y-102139962D01*
X108946919Y-102119750D01*
X108941703Y-102098926D01*
X108938553Y-102077691D01*
X108937500Y-102056250D01*
X108937500Y-101543750D01*
X108938553Y-101522309D01*
X108941703Y-101501074D01*
X108946919Y-101480250D01*
X108954151Y-101460038D01*
X108963330Y-101440632D01*
X108974366Y-101422219D01*
X108987154Y-101404976D01*
X109001570Y-101389070D01*
X109017476Y-101374654D01*
X109034719Y-101361866D01*
X109053132Y-101350830D01*
X109072538Y-101341651D01*
X109092750Y-101334419D01*
X109113574Y-101329203D01*
X109134809Y-101326053D01*
X109156250Y-101325000D01*
X109593750Y-101325000D01*
X109615191Y-101326053D01*
X109615191Y-101326053D01*
G37*
D14*
X109375000Y-101800000D03*
D15*
X124000000Y-105200000D03*
X116990000Y-105200000D03*
D16*
X122745000Y-107690000D03*
X118245000Y-107690000D03*
D17*
X142200000Y-76000000D03*
X139660000Y-76000000D03*
X137120000Y-76000000D03*
X134580000Y-76000000D03*
X132040000Y-76000000D03*
D18*
X129500000Y-76000000D03*
D17*
X117880000Y-76000000D03*
X115340000Y-76000000D03*
D18*
X112800000Y-76000000D03*
D17*
X125000000Y-76000000D03*
D18*
X122460000Y-76000000D03*
D17*
X100800000Y-97800000D03*
X100800000Y-95260000D03*
X100800000Y-92720000D03*
X100800000Y-90180000D03*
X100800000Y-87640000D03*
X100800000Y-85100000D03*
X100800000Y-82560000D03*
D18*
X100800000Y-80020000D03*
D17*
X143980000Y-97800000D03*
X143980000Y-95260000D03*
X143980000Y-92720000D03*
X143980000Y-90180000D03*
X143980000Y-87640000D03*
X143980000Y-85100000D03*
X143980000Y-82560000D03*
D18*
X143980000Y-80020000D03*
D13*
G36*
X107259703Y-88100722D02*
G01*
X107274264Y-88102882D01*
X107288543Y-88106459D01*
X107302403Y-88111418D01*
X107315710Y-88117712D01*
X107328336Y-88125280D01*
X107340159Y-88134048D01*
X107351066Y-88143934D01*
X107360952Y-88154841D01*
X107369720Y-88166664D01*
X107377288Y-88179290D01*
X107383582Y-88192597D01*
X107388541Y-88206457D01*
X107392118Y-88220736D01*
X107394278Y-88235297D01*
X107395000Y-88250000D01*
X107395000Y-89550000D01*
X107394278Y-89564703D01*
X107392118Y-89579264D01*
X107388541Y-89593543D01*
X107383582Y-89607403D01*
X107377288Y-89620710D01*
X107369720Y-89633336D01*
X107360952Y-89645159D01*
X107351066Y-89656066D01*
X107340159Y-89665952D01*
X107328336Y-89674720D01*
X107315710Y-89682288D01*
X107302403Y-89688582D01*
X107288543Y-89693541D01*
X107274264Y-89697118D01*
X107259703Y-89699278D01*
X107245000Y-89700000D01*
X106945000Y-89700000D01*
X106930297Y-89699278D01*
X106915736Y-89697118D01*
X106901457Y-89693541D01*
X106887597Y-89688582D01*
X106874290Y-89682288D01*
X106861664Y-89674720D01*
X106849841Y-89665952D01*
X106838934Y-89656066D01*
X106829048Y-89645159D01*
X106820280Y-89633336D01*
X106812712Y-89620710D01*
X106806418Y-89607403D01*
X106801459Y-89593543D01*
X106797882Y-89579264D01*
X106795722Y-89564703D01*
X106795000Y-89550000D01*
X106795000Y-88250000D01*
X106795722Y-88235297D01*
X106797882Y-88220736D01*
X106801459Y-88206457D01*
X106806418Y-88192597D01*
X106812712Y-88179290D01*
X106820280Y-88166664D01*
X106829048Y-88154841D01*
X106838934Y-88143934D01*
X106849841Y-88134048D01*
X106861664Y-88125280D01*
X106874290Y-88117712D01*
X106887597Y-88111418D01*
X106901457Y-88106459D01*
X106915736Y-88102882D01*
X106930297Y-88100722D01*
X106945000Y-88100000D01*
X107245000Y-88100000D01*
X107259703Y-88100722D01*
X107259703Y-88100722D01*
G37*
D19*
X107095000Y-88900000D03*
D13*
G36*
X108529703Y-88100722D02*
G01*
X108544264Y-88102882D01*
X108558543Y-88106459D01*
X108572403Y-88111418D01*
X108585710Y-88117712D01*
X108598336Y-88125280D01*
X108610159Y-88134048D01*
X108621066Y-88143934D01*
X108630952Y-88154841D01*
X108639720Y-88166664D01*
X108647288Y-88179290D01*
X108653582Y-88192597D01*
X108658541Y-88206457D01*
X108662118Y-88220736D01*
X108664278Y-88235297D01*
X108665000Y-88250000D01*
X108665000Y-89550000D01*
X108664278Y-89564703D01*
X108662118Y-89579264D01*
X108658541Y-89593543D01*
X108653582Y-89607403D01*
X108647288Y-89620710D01*
X108639720Y-89633336D01*
X108630952Y-89645159D01*
X108621066Y-89656066D01*
X108610159Y-89665952D01*
X108598336Y-89674720D01*
X108585710Y-89682288D01*
X108572403Y-89688582D01*
X108558543Y-89693541D01*
X108544264Y-89697118D01*
X108529703Y-89699278D01*
X108515000Y-89700000D01*
X108215000Y-89700000D01*
X108200297Y-89699278D01*
X108185736Y-89697118D01*
X108171457Y-89693541D01*
X108157597Y-89688582D01*
X108144290Y-89682288D01*
X108131664Y-89674720D01*
X108119841Y-89665952D01*
X108108934Y-89656066D01*
X108099048Y-89645159D01*
X108090280Y-89633336D01*
X108082712Y-89620710D01*
X108076418Y-89607403D01*
X108071459Y-89593543D01*
X108067882Y-89579264D01*
X108065722Y-89564703D01*
X108065000Y-89550000D01*
X108065000Y-88250000D01*
X108065722Y-88235297D01*
X108067882Y-88220736D01*
X108071459Y-88206457D01*
X108076418Y-88192597D01*
X108082712Y-88179290D01*
X108090280Y-88166664D01*
X108099048Y-88154841D01*
X108108934Y-88143934D01*
X108119841Y-88134048D01*
X108131664Y-88125280D01*
X108144290Y-88117712D01*
X108157597Y-88111418D01*
X108171457Y-88106459D01*
X108185736Y-88102882D01*
X108200297Y-88100722D01*
X108215000Y-88100000D01*
X108515000Y-88100000D01*
X108529703Y-88100722D01*
X108529703Y-88100722D01*
G37*
D19*
X108365000Y-88900000D03*
D13*
G36*
X109799703Y-88100722D02*
G01*
X109814264Y-88102882D01*
X109828543Y-88106459D01*
X109842403Y-88111418D01*
X109855710Y-88117712D01*
X109868336Y-88125280D01*
X109880159Y-88134048D01*
X109891066Y-88143934D01*
X109900952Y-88154841D01*
X109909720Y-88166664D01*
X109917288Y-88179290D01*
X109923582Y-88192597D01*
X109928541Y-88206457D01*
X109932118Y-88220736D01*
X109934278Y-88235297D01*
X109935000Y-88250000D01*
X109935000Y-89550000D01*
X109934278Y-89564703D01*
X109932118Y-89579264D01*
X109928541Y-89593543D01*
X109923582Y-89607403D01*
X109917288Y-89620710D01*
X109909720Y-89633336D01*
X109900952Y-89645159D01*
X109891066Y-89656066D01*
X109880159Y-89665952D01*
X109868336Y-89674720D01*
X109855710Y-89682288D01*
X109842403Y-89688582D01*
X109828543Y-89693541D01*
X109814264Y-89697118D01*
X109799703Y-89699278D01*
X109785000Y-89700000D01*
X109485000Y-89700000D01*
X109470297Y-89699278D01*
X109455736Y-89697118D01*
X109441457Y-89693541D01*
X109427597Y-89688582D01*
X109414290Y-89682288D01*
X109401664Y-89674720D01*
X109389841Y-89665952D01*
X109378934Y-89656066D01*
X109369048Y-89645159D01*
X109360280Y-89633336D01*
X109352712Y-89620710D01*
X109346418Y-89607403D01*
X109341459Y-89593543D01*
X109337882Y-89579264D01*
X109335722Y-89564703D01*
X109335000Y-89550000D01*
X109335000Y-88250000D01*
X109335722Y-88235297D01*
X109337882Y-88220736D01*
X109341459Y-88206457D01*
X109346418Y-88192597D01*
X109352712Y-88179290D01*
X109360280Y-88166664D01*
X109369048Y-88154841D01*
X109378934Y-88143934D01*
X109389841Y-88134048D01*
X109401664Y-88125280D01*
X109414290Y-88117712D01*
X109427597Y-88111418D01*
X109441457Y-88106459D01*
X109455736Y-88102882D01*
X109470297Y-88100722D01*
X109485000Y-88100000D01*
X109785000Y-88100000D01*
X109799703Y-88100722D01*
X109799703Y-88100722D01*
G37*
D19*
X109635000Y-88900000D03*
D13*
G36*
X111069703Y-88100722D02*
G01*
X111084264Y-88102882D01*
X111098543Y-88106459D01*
X111112403Y-88111418D01*
X111125710Y-88117712D01*
X111138336Y-88125280D01*
X111150159Y-88134048D01*
X111161066Y-88143934D01*
X111170952Y-88154841D01*
X111179720Y-88166664D01*
X111187288Y-88179290D01*
X111193582Y-88192597D01*
X111198541Y-88206457D01*
X111202118Y-88220736D01*
X111204278Y-88235297D01*
X111205000Y-88250000D01*
X111205000Y-89550000D01*
X111204278Y-89564703D01*
X111202118Y-89579264D01*
X111198541Y-89593543D01*
X111193582Y-89607403D01*
X111187288Y-89620710D01*
X111179720Y-89633336D01*
X111170952Y-89645159D01*
X111161066Y-89656066D01*
X111150159Y-89665952D01*
X111138336Y-89674720D01*
X111125710Y-89682288D01*
X111112403Y-89688582D01*
X111098543Y-89693541D01*
X111084264Y-89697118D01*
X111069703Y-89699278D01*
X111055000Y-89700000D01*
X110755000Y-89700000D01*
X110740297Y-89699278D01*
X110725736Y-89697118D01*
X110711457Y-89693541D01*
X110697597Y-89688582D01*
X110684290Y-89682288D01*
X110671664Y-89674720D01*
X110659841Y-89665952D01*
X110648934Y-89656066D01*
X110639048Y-89645159D01*
X110630280Y-89633336D01*
X110622712Y-89620710D01*
X110616418Y-89607403D01*
X110611459Y-89593543D01*
X110607882Y-89579264D01*
X110605722Y-89564703D01*
X110605000Y-89550000D01*
X110605000Y-88250000D01*
X110605722Y-88235297D01*
X110607882Y-88220736D01*
X110611459Y-88206457D01*
X110616418Y-88192597D01*
X110622712Y-88179290D01*
X110630280Y-88166664D01*
X110639048Y-88154841D01*
X110648934Y-88143934D01*
X110659841Y-88134048D01*
X110671664Y-88125280D01*
X110684290Y-88117712D01*
X110697597Y-88111418D01*
X110711457Y-88106459D01*
X110725736Y-88102882D01*
X110740297Y-88100722D01*
X110755000Y-88100000D01*
X111055000Y-88100000D01*
X111069703Y-88100722D01*
X111069703Y-88100722D01*
G37*
D19*
X110905000Y-88900000D03*
D13*
G36*
X111069703Y-95300722D02*
G01*
X111084264Y-95302882D01*
X111098543Y-95306459D01*
X111112403Y-95311418D01*
X111125710Y-95317712D01*
X111138336Y-95325280D01*
X111150159Y-95334048D01*
X111161066Y-95343934D01*
X111170952Y-95354841D01*
X111179720Y-95366664D01*
X111187288Y-95379290D01*
X111193582Y-95392597D01*
X111198541Y-95406457D01*
X111202118Y-95420736D01*
X111204278Y-95435297D01*
X111205000Y-95450000D01*
X111205000Y-96750000D01*
X111204278Y-96764703D01*
X111202118Y-96779264D01*
X111198541Y-96793543D01*
X111193582Y-96807403D01*
X111187288Y-96820710D01*
X111179720Y-96833336D01*
X111170952Y-96845159D01*
X111161066Y-96856066D01*
X111150159Y-96865952D01*
X111138336Y-96874720D01*
X111125710Y-96882288D01*
X111112403Y-96888582D01*
X111098543Y-96893541D01*
X111084264Y-96897118D01*
X111069703Y-96899278D01*
X111055000Y-96900000D01*
X110755000Y-96900000D01*
X110740297Y-96899278D01*
X110725736Y-96897118D01*
X110711457Y-96893541D01*
X110697597Y-96888582D01*
X110684290Y-96882288D01*
X110671664Y-96874720D01*
X110659841Y-96865952D01*
X110648934Y-96856066D01*
X110639048Y-96845159D01*
X110630280Y-96833336D01*
X110622712Y-96820710D01*
X110616418Y-96807403D01*
X110611459Y-96793543D01*
X110607882Y-96779264D01*
X110605722Y-96764703D01*
X110605000Y-96750000D01*
X110605000Y-95450000D01*
X110605722Y-95435297D01*
X110607882Y-95420736D01*
X110611459Y-95406457D01*
X110616418Y-95392597D01*
X110622712Y-95379290D01*
X110630280Y-95366664D01*
X110639048Y-95354841D01*
X110648934Y-95343934D01*
X110659841Y-95334048D01*
X110671664Y-95325280D01*
X110684290Y-95317712D01*
X110697597Y-95311418D01*
X110711457Y-95306459D01*
X110725736Y-95302882D01*
X110740297Y-95300722D01*
X110755000Y-95300000D01*
X111055000Y-95300000D01*
X111069703Y-95300722D01*
X111069703Y-95300722D01*
G37*
D19*
X110905000Y-96100000D03*
D13*
G36*
X109799703Y-95300722D02*
G01*
X109814264Y-95302882D01*
X109828543Y-95306459D01*
X109842403Y-95311418D01*
X109855710Y-95317712D01*
X109868336Y-95325280D01*
X109880159Y-95334048D01*
X109891066Y-95343934D01*
X109900952Y-95354841D01*
X109909720Y-95366664D01*
X109917288Y-95379290D01*
X109923582Y-95392597D01*
X109928541Y-95406457D01*
X109932118Y-95420736D01*
X109934278Y-95435297D01*
X109935000Y-95450000D01*
X109935000Y-96750000D01*
X109934278Y-96764703D01*
X109932118Y-96779264D01*
X109928541Y-96793543D01*
X109923582Y-96807403D01*
X109917288Y-96820710D01*
X109909720Y-96833336D01*
X109900952Y-96845159D01*
X109891066Y-96856066D01*
X109880159Y-96865952D01*
X109868336Y-96874720D01*
X109855710Y-96882288D01*
X109842403Y-96888582D01*
X109828543Y-96893541D01*
X109814264Y-96897118D01*
X109799703Y-96899278D01*
X109785000Y-96900000D01*
X109485000Y-96900000D01*
X109470297Y-96899278D01*
X109455736Y-96897118D01*
X109441457Y-96893541D01*
X109427597Y-96888582D01*
X109414290Y-96882288D01*
X109401664Y-96874720D01*
X109389841Y-96865952D01*
X109378934Y-96856066D01*
X109369048Y-96845159D01*
X109360280Y-96833336D01*
X109352712Y-96820710D01*
X109346418Y-96807403D01*
X109341459Y-96793543D01*
X109337882Y-96779264D01*
X109335722Y-96764703D01*
X109335000Y-96750000D01*
X109335000Y-95450000D01*
X109335722Y-95435297D01*
X109337882Y-95420736D01*
X109341459Y-95406457D01*
X109346418Y-95392597D01*
X109352712Y-95379290D01*
X109360280Y-95366664D01*
X109369048Y-95354841D01*
X109378934Y-95343934D01*
X109389841Y-95334048D01*
X109401664Y-95325280D01*
X109414290Y-95317712D01*
X109427597Y-95311418D01*
X109441457Y-95306459D01*
X109455736Y-95302882D01*
X109470297Y-95300722D01*
X109485000Y-95300000D01*
X109785000Y-95300000D01*
X109799703Y-95300722D01*
X109799703Y-95300722D01*
G37*
D19*
X109635000Y-96100000D03*
D13*
G36*
X108529703Y-95300722D02*
G01*
X108544264Y-95302882D01*
X108558543Y-95306459D01*
X108572403Y-95311418D01*
X108585710Y-95317712D01*
X108598336Y-95325280D01*
X108610159Y-95334048D01*
X108621066Y-95343934D01*
X108630952Y-95354841D01*
X108639720Y-95366664D01*
X108647288Y-95379290D01*
X108653582Y-95392597D01*
X108658541Y-95406457D01*
X108662118Y-95420736D01*
X108664278Y-95435297D01*
X108665000Y-95450000D01*
X108665000Y-96750000D01*
X108664278Y-96764703D01*
X108662118Y-96779264D01*
X108658541Y-96793543D01*
X108653582Y-96807403D01*
X108647288Y-96820710D01*
X108639720Y-96833336D01*
X108630952Y-96845159D01*
X108621066Y-96856066D01*
X108610159Y-96865952D01*
X108598336Y-96874720D01*
X108585710Y-96882288D01*
X108572403Y-96888582D01*
X108558543Y-96893541D01*
X108544264Y-96897118D01*
X108529703Y-96899278D01*
X108515000Y-96900000D01*
X108215000Y-96900000D01*
X108200297Y-96899278D01*
X108185736Y-96897118D01*
X108171457Y-96893541D01*
X108157597Y-96888582D01*
X108144290Y-96882288D01*
X108131664Y-96874720D01*
X108119841Y-96865952D01*
X108108934Y-96856066D01*
X108099048Y-96845159D01*
X108090280Y-96833336D01*
X108082712Y-96820710D01*
X108076418Y-96807403D01*
X108071459Y-96793543D01*
X108067882Y-96779264D01*
X108065722Y-96764703D01*
X108065000Y-96750000D01*
X108065000Y-95450000D01*
X108065722Y-95435297D01*
X108067882Y-95420736D01*
X108071459Y-95406457D01*
X108076418Y-95392597D01*
X108082712Y-95379290D01*
X108090280Y-95366664D01*
X108099048Y-95354841D01*
X108108934Y-95343934D01*
X108119841Y-95334048D01*
X108131664Y-95325280D01*
X108144290Y-95317712D01*
X108157597Y-95311418D01*
X108171457Y-95306459D01*
X108185736Y-95302882D01*
X108200297Y-95300722D01*
X108215000Y-95300000D01*
X108515000Y-95300000D01*
X108529703Y-95300722D01*
X108529703Y-95300722D01*
G37*
D19*
X108365000Y-96100000D03*
D13*
G36*
X107259703Y-95300722D02*
G01*
X107274264Y-95302882D01*
X107288543Y-95306459D01*
X107302403Y-95311418D01*
X107315710Y-95317712D01*
X107328336Y-95325280D01*
X107340159Y-95334048D01*
X107351066Y-95343934D01*
X107360952Y-95354841D01*
X107369720Y-95366664D01*
X107377288Y-95379290D01*
X107383582Y-95392597D01*
X107388541Y-95406457D01*
X107392118Y-95420736D01*
X107394278Y-95435297D01*
X107395000Y-95450000D01*
X107395000Y-96750000D01*
X107394278Y-96764703D01*
X107392118Y-96779264D01*
X107388541Y-96793543D01*
X107383582Y-96807403D01*
X107377288Y-96820710D01*
X107369720Y-96833336D01*
X107360952Y-96845159D01*
X107351066Y-96856066D01*
X107340159Y-96865952D01*
X107328336Y-96874720D01*
X107315710Y-96882288D01*
X107302403Y-96888582D01*
X107288543Y-96893541D01*
X107274264Y-96897118D01*
X107259703Y-96899278D01*
X107245000Y-96900000D01*
X106945000Y-96900000D01*
X106930297Y-96899278D01*
X106915736Y-96897118D01*
X106901457Y-96893541D01*
X106887597Y-96888582D01*
X106874290Y-96882288D01*
X106861664Y-96874720D01*
X106849841Y-96865952D01*
X106838934Y-96856066D01*
X106829048Y-96845159D01*
X106820280Y-96833336D01*
X106812712Y-96820710D01*
X106806418Y-96807403D01*
X106801459Y-96793543D01*
X106797882Y-96779264D01*
X106795722Y-96764703D01*
X106795000Y-96750000D01*
X106795000Y-95450000D01*
X106795722Y-95435297D01*
X106797882Y-95420736D01*
X106801459Y-95406457D01*
X106806418Y-95392597D01*
X106812712Y-95379290D01*
X106820280Y-95366664D01*
X106829048Y-95354841D01*
X106838934Y-95343934D01*
X106849841Y-95334048D01*
X106861664Y-95325280D01*
X106874290Y-95317712D01*
X106887597Y-95311418D01*
X106901457Y-95306459D01*
X106915736Y-95302882D01*
X106930297Y-95300722D01*
X106945000Y-95300000D01*
X107245000Y-95300000D01*
X107259703Y-95300722D01*
X107259703Y-95300722D01*
G37*
D19*
X107095000Y-96100000D03*
D13*
G36*
X111615191Y-86226053D02*
G01*
X111636426Y-86229203D01*
X111657250Y-86234419D01*
X111677462Y-86241651D01*
X111696868Y-86250830D01*
X111715281Y-86261866D01*
X111732524Y-86274654D01*
X111748430Y-86289070D01*
X111762846Y-86304976D01*
X111775634Y-86322219D01*
X111786670Y-86340632D01*
X111795849Y-86360038D01*
X111803081Y-86380250D01*
X111808297Y-86401074D01*
X111811447Y-86422309D01*
X111812500Y-86443750D01*
X111812500Y-86956250D01*
X111811447Y-86977691D01*
X111808297Y-86998926D01*
X111803081Y-87019750D01*
X111795849Y-87039962D01*
X111786670Y-87059368D01*
X111775634Y-87077781D01*
X111762846Y-87095024D01*
X111748430Y-87110930D01*
X111732524Y-87125346D01*
X111715281Y-87138134D01*
X111696868Y-87149170D01*
X111677462Y-87158349D01*
X111657250Y-87165581D01*
X111636426Y-87170797D01*
X111615191Y-87173947D01*
X111593750Y-87175000D01*
X111156250Y-87175000D01*
X111134809Y-87173947D01*
X111113574Y-87170797D01*
X111092750Y-87165581D01*
X111072538Y-87158349D01*
X111053132Y-87149170D01*
X111034719Y-87138134D01*
X111017476Y-87125346D01*
X111001570Y-87110930D01*
X110987154Y-87095024D01*
X110974366Y-87077781D01*
X110963330Y-87059368D01*
X110954151Y-87039962D01*
X110946919Y-87019750D01*
X110941703Y-86998926D01*
X110938553Y-86977691D01*
X110937500Y-86956250D01*
X110937500Y-86443750D01*
X110938553Y-86422309D01*
X110941703Y-86401074D01*
X110946919Y-86380250D01*
X110954151Y-86360038D01*
X110963330Y-86340632D01*
X110974366Y-86322219D01*
X110987154Y-86304976D01*
X111001570Y-86289070D01*
X111017476Y-86274654D01*
X111034719Y-86261866D01*
X111053132Y-86250830D01*
X111072538Y-86241651D01*
X111092750Y-86234419D01*
X111113574Y-86229203D01*
X111134809Y-86226053D01*
X111156250Y-86225000D01*
X111593750Y-86225000D01*
X111615191Y-86226053D01*
X111615191Y-86226053D01*
G37*
D14*
X111375000Y-86700000D03*
D13*
G36*
X110040191Y-86226053D02*
G01*
X110061426Y-86229203D01*
X110082250Y-86234419D01*
X110102462Y-86241651D01*
X110121868Y-86250830D01*
X110140281Y-86261866D01*
X110157524Y-86274654D01*
X110173430Y-86289070D01*
X110187846Y-86304976D01*
X110200634Y-86322219D01*
X110211670Y-86340632D01*
X110220849Y-86360038D01*
X110228081Y-86380250D01*
X110233297Y-86401074D01*
X110236447Y-86422309D01*
X110237500Y-86443750D01*
X110237500Y-86956250D01*
X110236447Y-86977691D01*
X110233297Y-86998926D01*
X110228081Y-87019750D01*
X110220849Y-87039962D01*
X110211670Y-87059368D01*
X110200634Y-87077781D01*
X110187846Y-87095024D01*
X110173430Y-87110930D01*
X110157524Y-87125346D01*
X110140281Y-87138134D01*
X110121868Y-87149170D01*
X110102462Y-87158349D01*
X110082250Y-87165581D01*
X110061426Y-87170797D01*
X110040191Y-87173947D01*
X110018750Y-87175000D01*
X109581250Y-87175000D01*
X109559809Y-87173947D01*
X109538574Y-87170797D01*
X109517750Y-87165581D01*
X109497538Y-87158349D01*
X109478132Y-87149170D01*
X109459719Y-87138134D01*
X109442476Y-87125346D01*
X109426570Y-87110930D01*
X109412154Y-87095024D01*
X109399366Y-87077781D01*
X109388330Y-87059368D01*
X109379151Y-87039962D01*
X109371919Y-87019750D01*
X109366703Y-86998926D01*
X109363553Y-86977691D01*
X109362500Y-86956250D01*
X109362500Y-86443750D01*
X109363553Y-86422309D01*
X109366703Y-86401074D01*
X109371919Y-86380250D01*
X109379151Y-86360038D01*
X109388330Y-86340632D01*
X109399366Y-86322219D01*
X109412154Y-86304976D01*
X109426570Y-86289070D01*
X109442476Y-86274654D01*
X109459719Y-86261866D01*
X109478132Y-86250830D01*
X109497538Y-86241651D01*
X109517750Y-86234419D01*
X109538574Y-86229203D01*
X109559809Y-86226053D01*
X109581250Y-86225000D01*
X110018750Y-86225000D01*
X110040191Y-86226053D01*
X110040191Y-86226053D01*
G37*
D14*
X109800000Y-86700000D03*
D20*
X121700000Y-92200000D03*
X121700000Y-91400000D03*
X121700000Y-90600000D03*
X121700000Y-89800000D03*
X121700000Y-89000000D03*
X121700000Y-88200000D03*
X121700000Y-93000000D03*
X121700000Y-93800000D03*
X121700000Y-94600000D03*
X121700000Y-95400000D03*
X121700000Y-96200000D03*
X121700000Y-97000000D03*
D21*
X122950000Y-97800000D03*
X123750000Y-97800000D03*
X124550000Y-97800000D03*
X125350000Y-97800000D03*
X126150000Y-97800000D03*
X126950000Y-97800000D03*
X127750000Y-97800000D03*
X128550000Y-97800000D03*
X129350000Y-97800000D03*
X130150000Y-97800000D03*
X130950000Y-97800000D03*
X131750000Y-97800000D03*
D20*
X133000000Y-97000000D03*
X133000000Y-96200000D03*
X133000000Y-95400000D03*
X133000000Y-94600000D03*
X133000000Y-93800000D03*
X133000000Y-93000000D03*
X133000000Y-92200000D03*
X133000000Y-91400000D03*
X133000000Y-90600000D03*
X133000000Y-89800000D03*
X133000000Y-89000000D03*
X133000000Y-88200000D03*
D21*
X131750000Y-87400000D03*
X130950000Y-87400000D03*
X130150000Y-87400000D03*
X129350000Y-87400000D03*
X128550000Y-87400000D03*
X127750000Y-87400000D03*
X126950000Y-87400000D03*
X126150000Y-87400000D03*
X125350000Y-87400000D03*
X124550000Y-87400000D03*
X123750000Y-87400000D03*
X122950000Y-87400000D03*
D22*
X127350000Y-92600000D03*
D23*
X124850000Y-90100000D03*
D22*
X127350000Y-90100000D03*
X129850000Y-90100000D03*
X124850000Y-92600000D03*
X129850000Y-92600000D03*
X124850000Y-95100000D03*
X127350000Y-95100000D03*
X129850000Y-95100000D03*
D13*
G36*
X126840191Y-84726053D02*
G01*
X126861426Y-84729203D01*
X126882250Y-84734419D01*
X126902462Y-84741651D01*
X126921868Y-84750830D01*
X126940281Y-84761866D01*
X126957524Y-84774654D01*
X126973430Y-84789070D01*
X126987846Y-84804976D01*
X127000634Y-84822219D01*
X127011670Y-84840632D01*
X127020849Y-84860038D01*
X127028081Y-84880250D01*
X127033297Y-84901074D01*
X127036447Y-84922309D01*
X127037500Y-84943750D01*
X127037500Y-85456250D01*
X127036447Y-85477691D01*
X127033297Y-85498926D01*
X127028081Y-85519750D01*
X127020849Y-85539962D01*
X127011670Y-85559368D01*
X127000634Y-85577781D01*
X126987846Y-85595024D01*
X126973430Y-85610930D01*
X126957524Y-85625346D01*
X126940281Y-85638134D01*
X126921868Y-85649170D01*
X126902462Y-85658349D01*
X126882250Y-85665581D01*
X126861426Y-85670797D01*
X126840191Y-85673947D01*
X126818750Y-85675000D01*
X126381250Y-85675000D01*
X126359809Y-85673947D01*
X126338574Y-85670797D01*
X126317750Y-85665581D01*
X126297538Y-85658349D01*
X126278132Y-85649170D01*
X126259719Y-85638134D01*
X126242476Y-85625346D01*
X126226570Y-85610930D01*
X126212154Y-85595024D01*
X126199366Y-85577781D01*
X126188330Y-85559368D01*
X126179151Y-85539962D01*
X126171919Y-85519750D01*
X126166703Y-85498926D01*
X126163553Y-85477691D01*
X126162500Y-85456250D01*
X126162500Y-84943750D01*
X126163553Y-84922309D01*
X126166703Y-84901074D01*
X126171919Y-84880250D01*
X126179151Y-84860038D01*
X126188330Y-84840632D01*
X126199366Y-84822219D01*
X126212154Y-84804976D01*
X126226570Y-84789070D01*
X126242476Y-84774654D01*
X126259719Y-84761866D01*
X126278132Y-84750830D01*
X126297538Y-84741651D01*
X126317750Y-84734419D01*
X126338574Y-84729203D01*
X126359809Y-84726053D01*
X126381250Y-84725000D01*
X126818750Y-84725000D01*
X126840191Y-84726053D01*
X126840191Y-84726053D01*
G37*
D14*
X126600000Y-85200000D03*
D13*
G36*
X125265191Y-84726053D02*
G01*
X125286426Y-84729203D01*
X125307250Y-84734419D01*
X125327462Y-84741651D01*
X125346868Y-84750830D01*
X125365281Y-84761866D01*
X125382524Y-84774654D01*
X125398430Y-84789070D01*
X125412846Y-84804976D01*
X125425634Y-84822219D01*
X125436670Y-84840632D01*
X125445849Y-84860038D01*
X125453081Y-84880250D01*
X125458297Y-84901074D01*
X125461447Y-84922309D01*
X125462500Y-84943750D01*
X125462500Y-85456250D01*
X125461447Y-85477691D01*
X125458297Y-85498926D01*
X125453081Y-85519750D01*
X125445849Y-85539962D01*
X125436670Y-85559368D01*
X125425634Y-85577781D01*
X125412846Y-85595024D01*
X125398430Y-85610930D01*
X125382524Y-85625346D01*
X125365281Y-85638134D01*
X125346868Y-85649170D01*
X125327462Y-85658349D01*
X125307250Y-85665581D01*
X125286426Y-85670797D01*
X125265191Y-85673947D01*
X125243750Y-85675000D01*
X124806250Y-85675000D01*
X124784809Y-85673947D01*
X124763574Y-85670797D01*
X124742750Y-85665581D01*
X124722538Y-85658349D01*
X124703132Y-85649170D01*
X124684719Y-85638134D01*
X124667476Y-85625346D01*
X124651570Y-85610930D01*
X124637154Y-85595024D01*
X124624366Y-85577781D01*
X124613330Y-85559368D01*
X124604151Y-85539962D01*
X124596919Y-85519750D01*
X124591703Y-85498926D01*
X124588553Y-85477691D01*
X124587500Y-85456250D01*
X124587500Y-84943750D01*
X124588553Y-84922309D01*
X124591703Y-84901074D01*
X124596919Y-84880250D01*
X124604151Y-84860038D01*
X124613330Y-84840632D01*
X124624366Y-84822219D01*
X124637154Y-84804976D01*
X124651570Y-84789070D01*
X124667476Y-84774654D01*
X124684719Y-84761866D01*
X124703132Y-84750830D01*
X124722538Y-84741651D01*
X124742750Y-84734419D01*
X124763574Y-84729203D01*
X124784809Y-84726053D01*
X124806250Y-84725000D01*
X125243750Y-84725000D01*
X125265191Y-84726053D01*
X125265191Y-84726053D01*
G37*
D14*
X125025000Y-85200000D03*
D24*
X143125000Y-106400000D03*
X134875000Y-106400000D03*
D25*
X139000000Y-106400000D03*
D13*
G36*
X135677691Y-92538553D02*
G01*
X135698926Y-92541703D01*
X135719750Y-92546919D01*
X135739962Y-92554151D01*
X135759368Y-92563330D01*
X135777781Y-92574366D01*
X135795024Y-92587154D01*
X135810930Y-92601570D01*
X135825346Y-92617476D01*
X135838134Y-92634719D01*
X135849170Y-92653132D01*
X135858349Y-92672538D01*
X135865581Y-92692750D01*
X135870797Y-92713574D01*
X135873947Y-92734809D01*
X135875000Y-92756250D01*
X135875000Y-93193750D01*
X135873947Y-93215191D01*
X135870797Y-93236426D01*
X135865581Y-93257250D01*
X135858349Y-93277462D01*
X135849170Y-93296868D01*
X135838134Y-93315281D01*
X135825346Y-93332524D01*
X135810930Y-93348430D01*
X135795024Y-93362846D01*
X135777781Y-93375634D01*
X135759368Y-93386670D01*
X135739962Y-93395849D01*
X135719750Y-93403081D01*
X135698926Y-93408297D01*
X135677691Y-93411447D01*
X135656250Y-93412500D01*
X135143750Y-93412500D01*
X135122309Y-93411447D01*
X135101074Y-93408297D01*
X135080250Y-93403081D01*
X135060038Y-93395849D01*
X135040632Y-93386670D01*
X135022219Y-93375634D01*
X135004976Y-93362846D01*
X134989070Y-93348430D01*
X134974654Y-93332524D01*
X134961866Y-93315281D01*
X134950830Y-93296868D01*
X134941651Y-93277462D01*
X134934419Y-93257250D01*
X134929203Y-93236426D01*
X134926053Y-93215191D01*
X134925000Y-93193750D01*
X134925000Y-92756250D01*
X134926053Y-92734809D01*
X134929203Y-92713574D01*
X134934419Y-92692750D01*
X134941651Y-92672538D01*
X134950830Y-92653132D01*
X134961866Y-92634719D01*
X134974654Y-92617476D01*
X134989070Y-92601570D01*
X135004976Y-92587154D01*
X135022219Y-92574366D01*
X135040632Y-92563330D01*
X135060038Y-92554151D01*
X135080250Y-92546919D01*
X135101074Y-92541703D01*
X135122309Y-92538553D01*
X135143750Y-92537500D01*
X135656250Y-92537500D01*
X135677691Y-92538553D01*
X135677691Y-92538553D01*
G37*
D14*
X135400000Y-92975000D03*
D13*
G36*
X135677691Y-90963553D02*
G01*
X135698926Y-90966703D01*
X135719750Y-90971919D01*
X135739962Y-90979151D01*
X135759368Y-90988330D01*
X135777781Y-90999366D01*
X135795024Y-91012154D01*
X135810930Y-91026570D01*
X135825346Y-91042476D01*
X135838134Y-91059719D01*
X135849170Y-91078132D01*
X135858349Y-91097538D01*
X135865581Y-91117750D01*
X135870797Y-91138574D01*
X135873947Y-91159809D01*
X135875000Y-91181250D01*
X135875000Y-91618750D01*
X135873947Y-91640191D01*
X135870797Y-91661426D01*
X135865581Y-91682250D01*
X135858349Y-91702462D01*
X135849170Y-91721868D01*
X135838134Y-91740281D01*
X135825346Y-91757524D01*
X135810930Y-91773430D01*
X135795024Y-91787846D01*
X135777781Y-91800634D01*
X135759368Y-91811670D01*
X135739962Y-91820849D01*
X135719750Y-91828081D01*
X135698926Y-91833297D01*
X135677691Y-91836447D01*
X135656250Y-91837500D01*
X135143750Y-91837500D01*
X135122309Y-91836447D01*
X135101074Y-91833297D01*
X135080250Y-91828081D01*
X135060038Y-91820849D01*
X135040632Y-91811670D01*
X135022219Y-91800634D01*
X135004976Y-91787846D01*
X134989070Y-91773430D01*
X134974654Y-91757524D01*
X134961866Y-91740281D01*
X134950830Y-91721868D01*
X134941651Y-91702462D01*
X134934419Y-91682250D01*
X134929203Y-91661426D01*
X134926053Y-91640191D01*
X134925000Y-91618750D01*
X134925000Y-91181250D01*
X134926053Y-91159809D01*
X134929203Y-91138574D01*
X134934419Y-91117750D01*
X134941651Y-91097538D01*
X134950830Y-91078132D01*
X134961866Y-91059719D01*
X134974654Y-91042476D01*
X134989070Y-91026570D01*
X135004976Y-91012154D01*
X135022219Y-90999366D01*
X135040632Y-90988330D01*
X135060038Y-90979151D01*
X135080250Y-90971919D01*
X135101074Y-90966703D01*
X135122309Y-90963553D01*
X135143750Y-90962500D01*
X135656250Y-90962500D01*
X135677691Y-90963553D01*
X135677691Y-90963553D01*
G37*
D14*
X135400000Y-91400000D03*
D13*
G36*
X116077691Y-94563553D02*
G01*
X116098926Y-94566703D01*
X116119750Y-94571919D01*
X116139962Y-94579151D01*
X116159368Y-94588330D01*
X116177781Y-94599366D01*
X116195024Y-94612154D01*
X116210930Y-94626570D01*
X116225346Y-94642476D01*
X116238134Y-94659719D01*
X116249170Y-94678132D01*
X116258349Y-94697538D01*
X116265581Y-94717750D01*
X116270797Y-94738574D01*
X116273947Y-94759809D01*
X116275000Y-94781250D01*
X116275000Y-95218750D01*
X116273947Y-95240191D01*
X116270797Y-95261426D01*
X116265581Y-95282250D01*
X116258349Y-95302462D01*
X116249170Y-95321868D01*
X116238134Y-95340281D01*
X116225346Y-95357524D01*
X116210930Y-95373430D01*
X116195024Y-95387846D01*
X116177781Y-95400634D01*
X116159368Y-95411670D01*
X116139962Y-95420849D01*
X116119750Y-95428081D01*
X116098926Y-95433297D01*
X116077691Y-95436447D01*
X116056250Y-95437500D01*
X115543750Y-95437500D01*
X115522309Y-95436447D01*
X115501074Y-95433297D01*
X115480250Y-95428081D01*
X115460038Y-95420849D01*
X115440632Y-95411670D01*
X115422219Y-95400634D01*
X115404976Y-95387846D01*
X115389070Y-95373430D01*
X115374654Y-95357524D01*
X115361866Y-95340281D01*
X115350830Y-95321868D01*
X115341651Y-95302462D01*
X115334419Y-95282250D01*
X115329203Y-95261426D01*
X115326053Y-95240191D01*
X115325000Y-95218750D01*
X115325000Y-94781250D01*
X115326053Y-94759809D01*
X115329203Y-94738574D01*
X115334419Y-94717750D01*
X115341651Y-94697538D01*
X115350830Y-94678132D01*
X115361866Y-94659719D01*
X115374654Y-94642476D01*
X115389070Y-94626570D01*
X115404976Y-94612154D01*
X115422219Y-94599366D01*
X115440632Y-94588330D01*
X115460038Y-94579151D01*
X115480250Y-94571919D01*
X115501074Y-94566703D01*
X115522309Y-94563553D01*
X115543750Y-94562500D01*
X116056250Y-94562500D01*
X116077691Y-94563553D01*
X116077691Y-94563553D01*
G37*
D14*
X115800000Y-95000000D03*
D13*
G36*
X116077691Y-92988553D02*
G01*
X116098926Y-92991703D01*
X116119750Y-92996919D01*
X116139962Y-93004151D01*
X116159368Y-93013330D01*
X116177781Y-93024366D01*
X116195024Y-93037154D01*
X116210930Y-93051570D01*
X116225346Y-93067476D01*
X116238134Y-93084719D01*
X116249170Y-93103132D01*
X116258349Y-93122538D01*
X116265581Y-93142750D01*
X116270797Y-93163574D01*
X116273947Y-93184809D01*
X116275000Y-93206250D01*
X116275000Y-93643750D01*
X116273947Y-93665191D01*
X116270797Y-93686426D01*
X116265581Y-93707250D01*
X116258349Y-93727462D01*
X116249170Y-93746868D01*
X116238134Y-93765281D01*
X116225346Y-93782524D01*
X116210930Y-93798430D01*
X116195024Y-93812846D01*
X116177781Y-93825634D01*
X116159368Y-93836670D01*
X116139962Y-93845849D01*
X116119750Y-93853081D01*
X116098926Y-93858297D01*
X116077691Y-93861447D01*
X116056250Y-93862500D01*
X115543750Y-93862500D01*
X115522309Y-93861447D01*
X115501074Y-93858297D01*
X115480250Y-93853081D01*
X115460038Y-93845849D01*
X115440632Y-93836670D01*
X115422219Y-93825634D01*
X115404976Y-93812846D01*
X115389070Y-93798430D01*
X115374654Y-93782524D01*
X115361866Y-93765281D01*
X115350830Y-93746868D01*
X115341651Y-93727462D01*
X115334419Y-93707250D01*
X115329203Y-93686426D01*
X115326053Y-93665191D01*
X115325000Y-93643750D01*
X115325000Y-93206250D01*
X115326053Y-93184809D01*
X115329203Y-93163574D01*
X115334419Y-93142750D01*
X115341651Y-93122538D01*
X115350830Y-93103132D01*
X115361866Y-93084719D01*
X115374654Y-93067476D01*
X115389070Y-93051570D01*
X115404976Y-93037154D01*
X115422219Y-93024366D01*
X115440632Y-93013330D01*
X115460038Y-93004151D01*
X115480250Y-92996919D01*
X115501074Y-92991703D01*
X115522309Y-92988553D01*
X115543750Y-92987500D01*
X116056250Y-92987500D01*
X116077691Y-92988553D01*
X116077691Y-92988553D01*
G37*
D14*
X115800000Y-93425000D03*
D13*
G36*
X117677691Y-94551053D02*
G01*
X117698926Y-94554203D01*
X117719750Y-94559419D01*
X117739962Y-94566651D01*
X117759368Y-94575830D01*
X117777781Y-94586866D01*
X117795024Y-94599654D01*
X117810930Y-94614070D01*
X117825346Y-94629976D01*
X117838134Y-94647219D01*
X117849170Y-94665632D01*
X117858349Y-94685038D01*
X117865581Y-94705250D01*
X117870797Y-94726074D01*
X117873947Y-94747309D01*
X117875000Y-94768750D01*
X117875000Y-95206250D01*
X117873947Y-95227691D01*
X117870797Y-95248926D01*
X117865581Y-95269750D01*
X117858349Y-95289962D01*
X117849170Y-95309368D01*
X117838134Y-95327781D01*
X117825346Y-95345024D01*
X117810930Y-95360930D01*
X117795024Y-95375346D01*
X117777781Y-95388134D01*
X117759368Y-95399170D01*
X117739962Y-95408349D01*
X117719750Y-95415581D01*
X117698926Y-95420797D01*
X117677691Y-95423947D01*
X117656250Y-95425000D01*
X117143750Y-95425000D01*
X117122309Y-95423947D01*
X117101074Y-95420797D01*
X117080250Y-95415581D01*
X117060038Y-95408349D01*
X117040632Y-95399170D01*
X117022219Y-95388134D01*
X117004976Y-95375346D01*
X116989070Y-95360930D01*
X116974654Y-95345024D01*
X116961866Y-95327781D01*
X116950830Y-95309368D01*
X116941651Y-95289962D01*
X116934419Y-95269750D01*
X116929203Y-95248926D01*
X116926053Y-95227691D01*
X116925000Y-95206250D01*
X116925000Y-94768750D01*
X116926053Y-94747309D01*
X116929203Y-94726074D01*
X116934419Y-94705250D01*
X116941651Y-94685038D01*
X116950830Y-94665632D01*
X116961866Y-94647219D01*
X116974654Y-94629976D01*
X116989070Y-94614070D01*
X117004976Y-94599654D01*
X117022219Y-94586866D01*
X117040632Y-94575830D01*
X117060038Y-94566651D01*
X117080250Y-94559419D01*
X117101074Y-94554203D01*
X117122309Y-94551053D01*
X117143750Y-94550000D01*
X117656250Y-94550000D01*
X117677691Y-94551053D01*
X117677691Y-94551053D01*
G37*
D14*
X117400000Y-94987500D03*
D13*
G36*
X117677691Y-92976053D02*
G01*
X117698926Y-92979203D01*
X117719750Y-92984419D01*
X117739962Y-92991651D01*
X117759368Y-93000830D01*
X117777781Y-93011866D01*
X117795024Y-93024654D01*
X117810930Y-93039070D01*
X117825346Y-93054976D01*
X117838134Y-93072219D01*
X117849170Y-93090632D01*
X117858349Y-93110038D01*
X117865581Y-93130250D01*
X117870797Y-93151074D01*
X117873947Y-93172309D01*
X117875000Y-93193750D01*
X117875000Y-93631250D01*
X117873947Y-93652691D01*
X117870797Y-93673926D01*
X117865581Y-93694750D01*
X117858349Y-93714962D01*
X117849170Y-93734368D01*
X117838134Y-93752781D01*
X117825346Y-93770024D01*
X117810930Y-93785930D01*
X117795024Y-93800346D01*
X117777781Y-93813134D01*
X117759368Y-93824170D01*
X117739962Y-93833349D01*
X117719750Y-93840581D01*
X117698926Y-93845797D01*
X117677691Y-93848947D01*
X117656250Y-93850000D01*
X117143750Y-93850000D01*
X117122309Y-93848947D01*
X117101074Y-93845797D01*
X117080250Y-93840581D01*
X117060038Y-93833349D01*
X117040632Y-93824170D01*
X117022219Y-93813134D01*
X117004976Y-93800346D01*
X116989070Y-93785930D01*
X116974654Y-93770024D01*
X116961866Y-93752781D01*
X116950830Y-93734368D01*
X116941651Y-93714962D01*
X116934419Y-93694750D01*
X116929203Y-93673926D01*
X116926053Y-93652691D01*
X116925000Y-93631250D01*
X116925000Y-93193750D01*
X116926053Y-93172309D01*
X116929203Y-93151074D01*
X116934419Y-93130250D01*
X116941651Y-93110038D01*
X116950830Y-93090632D01*
X116961866Y-93072219D01*
X116974654Y-93054976D01*
X116989070Y-93039070D01*
X117004976Y-93024654D01*
X117022219Y-93011866D01*
X117040632Y-93000830D01*
X117060038Y-92991651D01*
X117080250Y-92984419D01*
X117101074Y-92979203D01*
X117122309Y-92976053D01*
X117143750Y-92975000D01*
X117656250Y-92975000D01*
X117677691Y-92976053D01*
X117677691Y-92976053D01*
G37*
D14*
X117400000Y-93412500D03*
D13*
G36*
X119277691Y-94563553D02*
G01*
X119298926Y-94566703D01*
X119319750Y-94571919D01*
X119339962Y-94579151D01*
X119359368Y-94588330D01*
X119377781Y-94599366D01*
X119395024Y-94612154D01*
X119410930Y-94626570D01*
X119425346Y-94642476D01*
X119438134Y-94659719D01*
X119449170Y-94678132D01*
X119458349Y-94697538D01*
X119465581Y-94717750D01*
X119470797Y-94738574D01*
X119473947Y-94759809D01*
X119475000Y-94781250D01*
X119475000Y-95218750D01*
X119473947Y-95240191D01*
X119470797Y-95261426D01*
X119465581Y-95282250D01*
X119458349Y-95302462D01*
X119449170Y-95321868D01*
X119438134Y-95340281D01*
X119425346Y-95357524D01*
X119410930Y-95373430D01*
X119395024Y-95387846D01*
X119377781Y-95400634D01*
X119359368Y-95411670D01*
X119339962Y-95420849D01*
X119319750Y-95428081D01*
X119298926Y-95433297D01*
X119277691Y-95436447D01*
X119256250Y-95437500D01*
X118743750Y-95437500D01*
X118722309Y-95436447D01*
X118701074Y-95433297D01*
X118680250Y-95428081D01*
X118660038Y-95420849D01*
X118640632Y-95411670D01*
X118622219Y-95400634D01*
X118604976Y-95387846D01*
X118589070Y-95373430D01*
X118574654Y-95357524D01*
X118561866Y-95340281D01*
X118550830Y-95321868D01*
X118541651Y-95302462D01*
X118534419Y-95282250D01*
X118529203Y-95261426D01*
X118526053Y-95240191D01*
X118525000Y-95218750D01*
X118525000Y-94781250D01*
X118526053Y-94759809D01*
X118529203Y-94738574D01*
X118534419Y-94717750D01*
X118541651Y-94697538D01*
X118550830Y-94678132D01*
X118561866Y-94659719D01*
X118574654Y-94642476D01*
X118589070Y-94626570D01*
X118604976Y-94612154D01*
X118622219Y-94599366D01*
X118640632Y-94588330D01*
X118660038Y-94579151D01*
X118680250Y-94571919D01*
X118701074Y-94566703D01*
X118722309Y-94563553D01*
X118743750Y-94562500D01*
X119256250Y-94562500D01*
X119277691Y-94563553D01*
X119277691Y-94563553D01*
G37*
D14*
X119000000Y-95000000D03*
D13*
G36*
X119277691Y-92988553D02*
G01*
X119298926Y-92991703D01*
X119319750Y-92996919D01*
X119339962Y-93004151D01*
X119359368Y-93013330D01*
X119377781Y-93024366D01*
X119395024Y-93037154D01*
X119410930Y-93051570D01*
X119425346Y-93067476D01*
X119438134Y-93084719D01*
X119449170Y-93103132D01*
X119458349Y-93122538D01*
X119465581Y-93142750D01*
X119470797Y-93163574D01*
X119473947Y-93184809D01*
X119475000Y-93206250D01*
X119475000Y-93643750D01*
X119473947Y-93665191D01*
X119470797Y-93686426D01*
X119465581Y-93707250D01*
X119458349Y-93727462D01*
X119449170Y-93746868D01*
X119438134Y-93765281D01*
X119425346Y-93782524D01*
X119410930Y-93798430D01*
X119395024Y-93812846D01*
X119377781Y-93825634D01*
X119359368Y-93836670D01*
X119339962Y-93845849D01*
X119319750Y-93853081D01*
X119298926Y-93858297D01*
X119277691Y-93861447D01*
X119256250Y-93862500D01*
X118743750Y-93862500D01*
X118722309Y-93861447D01*
X118701074Y-93858297D01*
X118680250Y-93853081D01*
X118660038Y-93845849D01*
X118640632Y-93836670D01*
X118622219Y-93825634D01*
X118604976Y-93812846D01*
X118589070Y-93798430D01*
X118574654Y-93782524D01*
X118561866Y-93765281D01*
X118550830Y-93746868D01*
X118541651Y-93727462D01*
X118534419Y-93707250D01*
X118529203Y-93686426D01*
X118526053Y-93665191D01*
X118525000Y-93643750D01*
X118525000Y-93206250D01*
X118526053Y-93184809D01*
X118529203Y-93163574D01*
X118534419Y-93142750D01*
X118541651Y-93122538D01*
X118550830Y-93103132D01*
X118561866Y-93084719D01*
X118574654Y-93067476D01*
X118589070Y-93051570D01*
X118604976Y-93037154D01*
X118622219Y-93024366D01*
X118640632Y-93013330D01*
X118660038Y-93004151D01*
X118680250Y-92996919D01*
X118701074Y-92991703D01*
X118722309Y-92988553D01*
X118743750Y-92987500D01*
X119256250Y-92987500D01*
X119277691Y-92988553D01*
X119277691Y-92988553D01*
G37*
D14*
X119000000Y-93425000D03*
D13*
G36*
X117665191Y-89726053D02*
G01*
X117686426Y-89729203D01*
X117707250Y-89734419D01*
X117727462Y-89741651D01*
X117746868Y-89750830D01*
X117765281Y-89761866D01*
X117782524Y-89774654D01*
X117798430Y-89789070D01*
X117812846Y-89804976D01*
X117825634Y-89822219D01*
X117836670Y-89840632D01*
X117845849Y-89860038D01*
X117853081Y-89880250D01*
X117858297Y-89901074D01*
X117861447Y-89922309D01*
X117862500Y-89943750D01*
X117862500Y-90456250D01*
X117861447Y-90477691D01*
X117858297Y-90498926D01*
X117853081Y-90519750D01*
X117845849Y-90539962D01*
X117836670Y-90559368D01*
X117825634Y-90577781D01*
X117812846Y-90595024D01*
X117798430Y-90610930D01*
X117782524Y-90625346D01*
X117765281Y-90638134D01*
X117746868Y-90649170D01*
X117727462Y-90658349D01*
X117707250Y-90665581D01*
X117686426Y-90670797D01*
X117665191Y-90673947D01*
X117643750Y-90675000D01*
X117206250Y-90675000D01*
X117184809Y-90673947D01*
X117163574Y-90670797D01*
X117142750Y-90665581D01*
X117122538Y-90658349D01*
X117103132Y-90649170D01*
X117084719Y-90638134D01*
X117067476Y-90625346D01*
X117051570Y-90610930D01*
X117037154Y-90595024D01*
X117024366Y-90577781D01*
X117013330Y-90559368D01*
X117004151Y-90539962D01*
X116996919Y-90519750D01*
X116991703Y-90498926D01*
X116988553Y-90477691D01*
X116987500Y-90456250D01*
X116987500Y-89943750D01*
X116988553Y-89922309D01*
X116991703Y-89901074D01*
X116996919Y-89880250D01*
X117004151Y-89860038D01*
X117013330Y-89840632D01*
X117024366Y-89822219D01*
X117037154Y-89804976D01*
X117051570Y-89789070D01*
X117067476Y-89774654D01*
X117084719Y-89761866D01*
X117103132Y-89750830D01*
X117122538Y-89741651D01*
X117142750Y-89734419D01*
X117163574Y-89729203D01*
X117184809Y-89726053D01*
X117206250Y-89725000D01*
X117643750Y-89725000D01*
X117665191Y-89726053D01*
X117665191Y-89726053D01*
G37*
D14*
X117425000Y-90200000D03*
D13*
G36*
X119240191Y-89726053D02*
G01*
X119261426Y-89729203D01*
X119282250Y-89734419D01*
X119302462Y-89741651D01*
X119321868Y-89750830D01*
X119340281Y-89761866D01*
X119357524Y-89774654D01*
X119373430Y-89789070D01*
X119387846Y-89804976D01*
X119400634Y-89822219D01*
X119411670Y-89840632D01*
X119420849Y-89860038D01*
X119428081Y-89880250D01*
X119433297Y-89901074D01*
X119436447Y-89922309D01*
X119437500Y-89943750D01*
X119437500Y-90456250D01*
X119436447Y-90477691D01*
X119433297Y-90498926D01*
X119428081Y-90519750D01*
X119420849Y-90539962D01*
X119411670Y-90559368D01*
X119400634Y-90577781D01*
X119387846Y-90595024D01*
X119373430Y-90610930D01*
X119357524Y-90625346D01*
X119340281Y-90638134D01*
X119321868Y-90649170D01*
X119302462Y-90658349D01*
X119282250Y-90665581D01*
X119261426Y-90670797D01*
X119240191Y-90673947D01*
X119218750Y-90675000D01*
X118781250Y-90675000D01*
X118759809Y-90673947D01*
X118738574Y-90670797D01*
X118717750Y-90665581D01*
X118697538Y-90658349D01*
X118678132Y-90649170D01*
X118659719Y-90638134D01*
X118642476Y-90625346D01*
X118626570Y-90610930D01*
X118612154Y-90595024D01*
X118599366Y-90577781D01*
X118588330Y-90559368D01*
X118579151Y-90539962D01*
X118571919Y-90519750D01*
X118566703Y-90498926D01*
X118563553Y-90477691D01*
X118562500Y-90456250D01*
X118562500Y-89943750D01*
X118563553Y-89922309D01*
X118566703Y-89901074D01*
X118571919Y-89880250D01*
X118579151Y-89860038D01*
X118588330Y-89840632D01*
X118599366Y-89822219D01*
X118612154Y-89804976D01*
X118626570Y-89789070D01*
X118642476Y-89774654D01*
X118659719Y-89761866D01*
X118678132Y-89750830D01*
X118697538Y-89741651D01*
X118717750Y-89734419D01*
X118738574Y-89729203D01*
X118759809Y-89726053D01*
X118781250Y-89725000D01*
X119218750Y-89725000D01*
X119240191Y-89726053D01*
X119240191Y-89726053D01*
G37*
D14*
X119000000Y-90200000D03*
D13*
G36*
X117665191Y-91326053D02*
G01*
X117686426Y-91329203D01*
X117707250Y-91334419D01*
X117727462Y-91341651D01*
X117746868Y-91350830D01*
X117765281Y-91361866D01*
X117782524Y-91374654D01*
X117798430Y-91389070D01*
X117812846Y-91404976D01*
X117825634Y-91422219D01*
X117836670Y-91440632D01*
X117845849Y-91460038D01*
X117853081Y-91480250D01*
X117858297Y-91501074D01*
X117861447Y-91522309D01*
X117862500Y-91543750D01*
X117862500Y-92056250D01*
X117861447Y-92077691D01*
X117858297Y-92098926D01*
X117853081Y-92119750D01*
X117845849Y-92139962D01*
X117836670Y-92159368D01*
X117825634Y-92177781D01*
X117812846Y-92195024D01*
X117798430Y-92210930D01*
X117782524Y-92225346D01*
X117765281Y-92238134D01*
X117746868Y-92249170D01*
X117727462Y-92258349D01*
X117707250Y-92265581D01*
X117686426Y-92270797D01*
X117665191Y-92273947D01*
X117643750Y-92275000D01*
X117206250Y-92275000D01*
X117184809Y-92273947D01*
X117163574Y-92270797D01*
X117142750Y-92265581D01*
X117122538Y-92258349D01*
X117103132Y-92249170D01*
X117084719Y-92238134D01*
X117067476Y-92225346D01*
X117051570Y-92210930D01*
X117037154Y-92195024D01*
X117024366Y-92177781D01*
X117013330Y-92159368D01*
X117004151Y-92139962D01*
X116996919Y-92119750D01*
X116991703Y-92098926D01*
X116988553Y-92077691D01*
X116987500Y-92056250D01*
X116987500Y-91543750D01*
X116988553Y-91522309D01*
X116991703Y-91501074D01*
X116996919Y-91480250D01*
X117004151Y-91460038D01*
X117013330Y-91440632D01*
X117024366Y-91422219D01*
X117037154Y-91404976D01*
X117051570Y-91389070D01*
X117067476Y-91374654D01*
X117084719Y-91361866D01*
X117103132Y-91350830D01*
X117122538Y-91341651D01*
X117142750Y-91334419D01*
X117163574Y-91329203D01*
X117184809Y-91326053D01*
X117206250Y-91325000D01*
X117643750Y-91325000D01*
X117665191Y-91326053D01*
X117665191Y-91326053D01*
G37*
D14*
X117425000Y-91800000D03*
D13*
G36*
X119240191Y-91326053D02*
G01*
X119261426Y-91329203D01*
X119282250Y-91334419D01*
X119302462Y-91341651D01*
X119321868Y-91350830D01*
X119340281Y-91361866D01*
X119357524Y-91374654D01*
X119373430Y-91389070D01*
X119387846Y-91404976D01*
X119400634Y-91422219D01*
X119411670Y-91440632D01*
X119420849Y-91460038D01*
X119428081Y-91480250D01*
X119433297Y-91501074D01*
X119436447Y-91522309D01*
X119437500Y-91543750D01*
X119437500Y-92056250D01*
X119436447Y-92077691D01*
X119433297Y-92098926D01*
X119428081Y-92119750D01*
X119420849Y-92139962D01*
X119411670Y-92159368D01*
X119400634Y-92177781D01*
X119387846Y-92195024D01*
X119373430Y-92210930D01*
X119357524Y-92225346D01*
X119340281Y-92238134D01*
X119321868Y-92249170D01*
X119302462Y-92258349D01*
X119282250Y-92265581D01*
X119261426Y-92270797D01*
X119240191Y-92273947D01*
X119218750Y-92275000D01*
X118781250Y-92275000D01*
X118759809Y-92273947D01*
X118738574Y-92270797D01*
X118717750Y-92265581D01*
X118697538Y-92258349D01*
X118678132Y-92249170D01*
X118659719Y-92238134D01*
X118642476Y-92225346D01*
X118626570Y-92210930D01*
X118612154Y-92195024D01*
X118599366Y-92177781D01*
X118588330Y-92159368D01*
X118579151Y-92139962D01*
X118571919Y-92119750D01*
X118566703Y-92098926D01*
X118563553Y-92077691D01*
X118562500Y-92056250D01*
X118562500Y-91543750D01*
X118563553Y-91522309D01*
X118566703Y-91501074D01*
X118571919Y-91480250D01*
X118579151Y-91460038D01*
X118588330Y-91440632D01*
X118599366Y-91422219D01*
X118612154Y-91404976D01*
X118626570Y-91389070D01*
X118642476Y-91374654D01*
X118659719Y-91361866D01*
X118678132Y-91350830D01*
X118697538Y-91341651D01*
X118717750Y-91334419D01*
X118738574Y-91329203D01*
X118759809Y-91326053D01*
X118781250Y-91325000D01*
X119218750Y-91325000D01*
X119240191Y-91326053D01*
X119240191Y-91326053D01*
G37*
D14*
X119000000Y-91800000D03*
D13*
G36*
X119277691Y-86588553D02*
G01*
X119298926Y-86591703D01*
X119319750Y-86596919D01*
X119339962Y-86604151D01*
X119359368Y-86613330D01*
X119377781Y-86624366D01*
X119395024Y-86637154D01*
X119410930Y-86651570D01*
X119425346Y-86667476D01*
X119438134Y-86684719D01*
X119449170Y-86703132D01*
X119458349Y-86722538D01*
X119465581Y-86742750D01*
X119470797Y-86763574D01*
X119473947Y-86784809D01*
X119475000Y-86806250D01*
X119475000Y-87243750D01*
X119473947Y-87265191D01*
X119470797Y-87286426D01*
X119465581Y-87307250D01*
X119458349Y-87327462D01*
X119449170Y-87346868D01*
X119438134Y-87365281D01*
X119425346Y-87382524D01*
X119410930Y-87398430D01*
X119395024Y-87412846D01*
X119377781Y-87425634D01*
X119359368Y-87436670D01*
X119339962Y-87445849D01*
X119319750Y-87453081D01*
X119298926Y-87458297D01*
X119277691Y-87461447D01*
X119256250Y-87462500D01*
X118743750Y-87462500D01*
X118722309Y-87461447D01*
X118701074Y-87458297D01*
X118680250Y-87453081D01*
X118660038Y-87445849D01*
X118640632Y-87436670D01*
X118622219Y-87425634D01*
X118604976Y-87412846D01*
X118589070Y-87398430D01*
X118574654Y-87382524D01*
X118561866Y-87365281D01*
X118550830Y-87346868D01*
X118541651Y-87327462D01*
X118534419Y-87307250D01*
X118529203Y-87286426D01*
X118526053Y-87265191D01*
X118525000Y-87243750D01*
X118525000Y-86806250D01*
X118526053Y-86784809D01*
X118529203Y-86763574D01*
X118534419Y-86742750D01*
X118541651Y-86722538D01*
X118550830Y-86703132D01*
X118561866Y-86684719D01*
X118574654Y-86667476D01*
X118589070Y-86651570D01*
X118604976Y-86637154D01*
X118622219Y-86624366D01*
X118640632Y-86613330D01*
X118660038Y-86604151D01*
X118680250Y-86596919D01*
X118701074Y-86591703D01*
X118722309Y-86588553D01*
X118743750Y-86587500D01*
X119256250Y-86587500D01*
X119277691Y-86588553D01*
X119277691Y-86588553D01*
G37*
D14*
X119000000Y-87025000D03*
D13*
G36*
X119277691Y-88163553D02*
G01*
X119298926Y-88166703D01*
X119319750Y-88171919D01*
X119339962Y-88179151D01*
X119359368Y-88188330D01*
X119377781Y-88199366D01*
X119395024Y-88212154D01*
X119410930Y-88226570D01*
X119425346Y-88242476D01*
X119438134Y-88259719D01*
X119449170Y-88278132D01*
X119458349Y-88297538D01*
X119465581Y-88317750D01*
X119470797Y-88338574D01*
X119473947Y-88359809D01*
X119475000Y-88381250D01*
X119475000Y-88818750D01*
X119473947Y-88840191D01*
X119470797Y-88861426D01*
X119465581Y-88882250D01*
X119458349Y-88902462D01*
X119449170Y-88921868D01*
X119438134Y-88940281D01*
X119425346Y-88957524D01*
X119410930Y-88973430D01*
X119395024Y-88987846D01*
X119377781Y-89000634D01*
X119359368Y-89011670D01*
X119339962Y-89020849D01*
X119319750Y-89028081D01*
X119298926Y-89033297D01*
X119277691Y-89036447D01*
X119256250Y-89037500D01*
X118743750Y-89037500D01*
X118722309Y-89036447D01*
X118701074Y-89033297D01*
X118680250Y-89028081D01*
X118660038Y-89020849D01*
X118640632Y-89011670D01*
X118622219Y-89000634D01*
X118604976Y-88987846D01*
X118589070Y-88973430D01*
X118574654Y-88957524D01*
X118561866Y-88940281D01*
X118550830Y-88921868D01*
X118541651Y-88902462D01*
X118534419Y-88882250D01*
X118529203Y-88861426D01*
X118526053Y-88840191D01*
X118525000Y-88818750D01*
X118525000Y-88381250D01*
X118526053Y-88359809D01*
X118529203Y-88338574D01*
X118534419Y-88317750D01*
X118541651Y-88297538D01*
X118550830Y-88278132D01*
X118561866Y-88259719D01*
X118574654Y-88242476D01*
X118589070Y-88226570D01*
X118604976Y-88212154D01*
X118622219Y-88199366D01*
X118640632Y-88188330D01*
X118660038Y-88179151D01*
X118680250Y-88171919D01*
X118701074Y-88166703D01*
X118722309Y-88163553D01*
X118743750Y-88162500D01*
X119256250Y-88162500D01*
X119277691Y-88163553D01*
X119277691Y-88163553D01*
G37*
D14*
X119000000Y-88600000D03*
D13*
G36*
X117677691Y-86588553D02*
G01*
X117698926Y-86591703D01*
X117719750Y-86596919D01*
X117739962Y-86604151D01*
X117759368Y-86613330D01*
X117777781Y-86624366D01*
X117795024Y-86637154D01*
X117810930Y-86651570D01*
X117825346Y-86667476D01*
X117838134Y-86684719D01*
X117849170Y-86703132D01*
X117858349Y-86722538D01*
X117865581Y-86742750D01*
X117870797Y-86763574D01*
X117873947Y-86784809D01*
X117875000Y-86806250D01*
X117875000Y-87243750D01*
X117873947Y-87265191D01*
X117870797Y-87286426D01*
X117865581Y-87307250D01*
X117858349Y-87327462D01*
X117849170Y-87346868D01*
X117838134Y-87365281D01*
X117825346Y-87382524D01*
X117810930Y-87398430D01*
X117795024Y-87412846D01*
X117777781Y-87425634D01*
X117759368Y-87436670D01*
X117739962Y-87445849D01*
X117719750Y-87453081D01*
X117698926Y-87458297D01*
X117677691Y-87461447D01*
X117656250Y-87462500D01*
X117143750Y-87462500D01*
X117122309Y-87461447D01*
X117101074Y-87458297D01*
X117080250Y-87453081D01*
X117060038Y-87445849D01*
X117040632Y-87436670D01*
X117022219Y-87425634D01*
X117004976Y-87412846D01*
X116989070Y-87398430D01*
X116974654Y-87382524D01*
X116961866Y-87365281D01*
X116950830Y-87346868D01*
X116941651Y-87327462D01*
X116934419Y-87307250D01*
X116929203Y-87286426D01*
X116926053Y-87265191D01*
X116925000Y-87243750D01*
X116925000Y-86806250D01*
X116926053Y-86784809D01*
X116929203Y-86763574D01*
X116934419Y-86742750D01*
X116941651Y-86722538D01*
X116950830Y-86703132D01*
X116961866Y-86684719D01*
X116974654Y-86667476D01*
X116989070Y-86651570D01*
X117004976Y-86637154D01*
X117022219Y-86624366D01*
X117040632Y-86613330D01*
X117060038Y-86604151D01*
X117080250Y-86596919D01*
X117101074Y-86591703D01*
X117122309Y-86588553D01*
X117143750Y-86587500D01*
X117656250Y-86587500D01*
X117677691Y-86588553D01*
X117677691Y-86588553D01*
G37*
D14*
X117400000Y-87025000D03*
D13*
G36*
X117677691Y-88163553D02*
G01*
X117698926Y-88166703D01*
X117719750Y-88171919D01*
X117739962Y-88179151D01*
X117759368Y-88188330D01*
X117777781Y-88199366D01*
X117795024Y-88212154D01*
X117810930Y-88226570D01*
X117825346Y-88242476D01*
X117838134Y-88259719D01*
X117849170Y-88278132D01*
X117858349Y-88297538D01*
X117865581Y-88317750D01*
X117870797Y-88338574D01*
X117873947Y-88359809D01*
X117875000Y-88381250D01*
X117875000Y-88818750D01*
X117873947Y-88840191D01*
X117870797Y-88861426D01*
X117865581Y-88882250D01*
X117858349Y-88902462D01*
X117849170Y-88921868D01*
X117838134Y-88940281D01*
X117825346Y-88957524D01*
X117810930Y-88973430D01*
X117795024Y-88987846D01*
X117777781Y-89000634D01*
X117759368Y-89011670D01*
X117739962Y-89020849D01*
X117719750Y-89028081D01*
X117698926Y-89033297D01*
X117677691Y-89036447D01*
X117656250Y-89037500D01*
X117143750Y-89037500D01*
X117122309Y-89036447D01*
X117101074Y-89033297D01*
X117080250Y-89028081D01*
X117060038Y-89020849D01*
X117040632Y-89011670D01*
X117022219Y-89000634D01*
X117004976Y-88987846D01*
X116989070Y-88973430D01*
X116974654Y-88957524D01*
X116961866Y-88940281D01*
X116950830Y-88921868D01*
X116941651Y-88902462D01*
X116934419Y-88882250D01*
X116929203Y-88861426D01*
X116926053Y-88840191D01*
X116925000Y-88818750D01*
X116925000Y-88381250D01*
X116926053Y-88359809D01*
X116929203Y-88338574D01*
X116934419Y-88317750D01*
X116941651Y-88297538D01*
X116950830Y-88278132D01*
X116961866Y-88259719D01*
X116974654Y-88242476D01*
X116989070Y-88226570D01*
X117004976Y-88212154D01*
X117022219Y-88199366D01*
X117040632Y-88188330D01*
X117060038Y-88179151D01*
X117080250Y-88171919D01*
X117101074Y-88166703D01*
X117122309Y-88163553D01*
X117143750Y-88162500D01*
X117656250Y-88162500D01*
X117677691Y-88163553D01*
X117677691Y-88163553D01*
G37*
D14*
X117400000Y-88600000D03*
D26*
X134800000Y-106400000D03*
X143200000Y-106400000D03*
X129600000Y-95200000D03*
X127400000Y-95200000D03*
X124800000Y-95200000D03*
X124800000Y-92800000D03*
X127200000Y-92600000D03*
X130000000Y-93000000D03*
X129800000Y-89800000D03*
X127400000Y-89800000D03*
X124800000Y-90200000D03*
X134625000Y-94525010D03*
X124000000Y-84800000D03*
X116200000Y-86200000D03*
X114600000Y-95600000D03*
X116000000Y-90600000D03*
X122800000Y-90000000D03*
X122800000Y-93200000D03*
X133600000Y-98000000D03*
X132000000Y-107400000D03*
X108900000Y-90900000D03*
X112500000Y-86800000D03*
X120400000Y-91400000D03*
X137399992Y-90000000D03*
X106400000Y-101400000D03*
X114800000Y-90000000D03*
X141500000Y-95200000D03*
X131800000Y-97000000D03*
X130849457Y-96575862D03*
X129800000Y-96600000D03*
X128600000Y-96600000D03*
X127525010Y-96600000D03*
X110800000Y-98200000D03*
X110900000Y-101274990D03*
X108400000Y-100675010D03*
X108300000Y-98200000D03*
X107500000Y-91000000D03*
X118400000Y-84600000D03*
X131600000Y-90200000D03*
X135800000Y-89800000D03*
D27*
X133750010Y-95400000D02*
X134625000Y-94525010D01*
X135400000Y-93750010D02*
X134625000Y-94525010D01*
X133000000Y-95400000D02*
X133750010Y-95400000D01*
X135400000Y-92975000D02*
X135400000Y-93750010D01*
X126150000Y-86325000D02*
X125025000Y-85200000D01*
X126150000Y-87400000D02*
X126150000Y-86325000D01*
X125025000Y-85200000D02*
X124400000Y-85200000D01*
X124400000Y-85200000D02*
X124000000Y-84800000D01*
X119000000Y-87025000D02*
X117400000Y-87025000D01*
X117400000Y-87025000D02*
X117025000Y-87025000D01*
X117025000Y-87025000D02*
X116200000Y-86200000D01*
X117412500Y-95000000D02*
X117400000Y-94987500D01*
X119000000Y-95000000D02*
X117412500Y-95000000D01*
X115812500Y-94987500D02*
X115800000Y-95000000D01*
X117400000Y-94987500D02*
X115812500Y-94987500D01*
X115800000Y-95000000D02*
X115200000Y-95000000D01*
X115200000Y-95000000D02*
X114600000Y-95600000D01*
X117425000Y-91800000D02*
X117425000Y-90200000D01*
X117425000Y-90200000D02*
X116400000Y-90200000D01*
X116400000Y-90200000D02*
X116000000Y-90600000D01*
X121700000Y-89800000D02*
X122600000Y-89800000D01*
X122600000Y-89800000D02*
X122800000Y-90000000D01*
X121700000Y-93000000D02*
X122600000Y-93000000D01*
X122600000Y-93000000D02*
X122800000Y-93200000D01*
X133000000Y-97000000D02*
X133000000Y-97400000D01*
X133000000Y-97400000D02*
X133600000Y-98000000D01*
X131200000Y-108600000D02*
X131200000Y-108200000D01*
X131200000Y-108200000D02*
X132000000Y-107400000D01*
X108365000Y-88900000D02*
X108365000Y-90365000D01*
X108365000Y-90365000D02*
X108900000Y-90900000D01*
X111375000Y-86700000D02*
X112400000Y-86700000D01*
X112400000Y-86700000D02*
X112500000Y-86800000D01*
X121000000Y-90600000D02*
X119000000Y-88600000D01*
X121700000Y-90600000D02*
X121000000Y-90600000D01*
X119000000Y-88600000D02*
X117400000Y-88600000D01*
X117400000Y-88600000D02*
X115300000Y-88600000D01*
X115300000Y-88600000D02*
X113300000Y-86600000D01*
X113300000Y-86600000D02*
X113300000Y-82200000D01*
X111120000Y-80020000D02*
X100800000Y-80020000D01*
X113300000Y-82200000D02*
X111120000Y-80020000D01*
X133000000Y-91400000D02*
X135400000Y-91400000D01*
X119400000Y-91400000D02*
X119000000Y-91800000D01*
X121700000Y-91400000D02*
X120400000Y-91400000D01*
X119000000Y-90200000D02*
X119000000Y-91800000D01*
X120400000Y-91400000D02*
X119400000Y-91400000D01*
X135400000Y-91400000D02*
X136800000Y-90000000D01*
X136800000Y-90000000D02*
X137399992Y-90000000D01*
X107800000Y-101800000D02*
X106800000Y-101800000D01*
X106800000Y-101800000D02*
X106400000Y-101400000D01*
X120225000Y-92200000D02*
X119000000Y-93425000D01*
X121700000Y-92200000D02*
X120225000Y-92200000D01*
X117412500Y-93425000D02*
X117400000Y-93412500D01*
X119000000Y-93425000D02*
X117412500Y-93425000D01*
X115812500Y-93412500D02*
X115800000Y-93425000D01*
X117400000Y-93412500D02*
X115812500Y-93412500D01*
X115800000Y-92887500D02*
X114800000Y-91887500D01*
X115800000Y-93425000D02*
X115800000Y-92887500D01*
X114800000Y-91887500D02*
X114800000Y-90000000D01*
X142800000Y-97800000D02*
X143600000Y-97800000D01*
X142300000Y-97300000D02*
X142800000Y-97800000D01*
X142300000Y-89200000D02*
X142300000Y-97300000D01*
X133000000Y-88200000D02*
X141300000Y-88200000D01*
X141300000Y-88200000D02*
X142300000Y-89200000D01*
X140600000Y-89000000D02*
X133000000Y-89000000D01*
X141500000Y-95200000D02*
X141500000Y-89900000D01*
X141500000Y-89900000D02*
X140600000Y-89000000D01*
X131750000Y-97800000D02*
X131750000Y-97050000D01*
X131750000Y-97050000D02*
X131800000Y-97000000D01*
X130950000Y-97800000D02*
X130950000Y-96676405D01*
X130950000Y-96676405D02*
X130849457Y-96575862D01*
X130150000Y-97800000D02*
X130150000Y-96950000D01*
X130150000Y-96950000D02*
X129800000Y-96600000D01*
X127750000Y-97800000D02*
X127750000Y-97450000D01*
X127750000Y-97450000D02*
X128600000Y-96600000D01*
X126950000Y-97150000D02*
X127500000Y-96600000D01*
X127500000Y-96600000D02*
X127525010Y-96600000D01*
X126950000Y-97800000D02*
X126950000Y-97150000D01*
X110800000Y-96205000D02*
X110905000Y-96100000D01*
X110800000Y-98200000D02*
X110800000Y-96205000D01*
X111465685Y-101274990D02*
X110900000Y-101274990D01*
X111540675Y-101200000D02*
X111465685Y-101274990D01*
X125000000Y-101200000D02*
X111540675Y-101200000D01*
X126150000Y-97800000D02*
X126150000Y-100050000D01*
X126150000Y-100050000D02*
X125000000Y-101200000D01*
X108300000Y-96165000D02*
X108365000Y-96100000D01*
X108300000Y-98200000D02*
X108300000Y-96165000D01*
X108965685Y-100675010D02*
X108400000Y-100675010D01*
X109240695Y-100400000D02*
X108965685Y-100675010D01*
X124200000Y-100400000D02*
X109240695Y-100400000D01*
X125350000Y-97800000D02*
X125350000Y-99250000D01*
X125350000Y-99250000D02*
X124200000Y-100400000D01*
X106469990Y-89525010D02*
X107095000Y-88900000D01*
X106320000Y-92720000D02*
X100800000Y-92720000D01*
X106469990Y-92869990D02*
X106320000Y-92720000D01*
X106469990Y-92869990D02*
X106469990Y-89525010D01*
X106469990Y-98706400D02*
X106469990Y-92869990D01*
X107713579Y-99949989D02*
X106469990Y-98706400D01*
X123450011Y-99949989D02*
X107713579Y-99949989D01*
X124550000Y-97800000D02*
X124550000Y-98850000D01*
X124550000Y-98850000D02*
X123450011Y-99949989D01*
X107095000Y-96100000D02*
X107095000Y-91405000D01*
X107095000Y-91405000D02*
X107500000Y-91000000D01*
X107899978Y-99499978D02*
X107095000Y-98695000D01*
X107095000Y-98695000D02*
X107095000Y-96100000D01*
X122700022Y-99499978D02*
X107899978Y-99499978D01*
X123750000Y-98450000D02*
X122700022Y-99499978D01*
X123750000Y-97800000D02*
X123750000Y-98450000D01*
X126950000Y-85550000D02*
X126600000Y-85200000D01*
X126950000Y-87400000D02*
X126950000Y-85550000D01*
X126600000Y-77600000D02*
X125000000Y-76000000D01*
X126600000Y-85200000D02*
X126600000Y-77600000D01*
X121700000Y-88200000D02*
X121700000Y-86100000D01*
X121700000Y-86100000D02*
X120200000Y-84600000D01*
X120200000Y-84600000D02*
X118400000Y-84600000D01*
X122950000Y-83610000D02*
X121340000Y-82000000D01*
X122950000Y-87400000D02*
X122950000Y-83610000D01*
X121340000Y-82000000D02*
X117000000Y-82000000D01*
X115340000Y-80340000D02*
X115340000Y-76000000D01*
X117000000Y-82000000D02*
X115340000Y-80340000D01*
X133000000Y-89800000D02*
X132000000Y-89800000D01*
X132000000Y-89800000D02*
X131600000Y-90200000D01*
X133000000Y-89800000D02*
X135800000Y-89800000D01*
X137120000Y-83280000D02*
X137120000Y-76000000D01*
X136000000Y-84400000D02*
X137120000Y-83280000D01*
X129400000Y-84400000D02*
X136000000Y-84400000D01*
X128550000Y-87400000D02*
X128550000Y-85250000D01*
X128550000Y-85250000D02*
X129400000Y-84400000D01*
X132040000Y-82760000D02*
X132040000Y-76000000D01*
X131000000Y-83800000D02*
X132040000Y-82760000D01*
X128600000Y-83800000D02*
X131000000Y-83800000D01*
X127750000Y-87400000D02*
X127750000Y-84650000D01*
X127750000Y-84650000D02*
X128600000Y-83800000D01*
D28*
X133000000Y-96200000D02*
X136200000Y-96200000D01*
X139000000Y-99000000D02*
X139000000Y-106400000D01*
X136200000Y-96200000D02*
X139000000Y-99000000D01*
D27*
X109635000Y-88900000D02*
X110905000Y-88900000D01*
X109635000Y-86865000D02*
X109800000Y-86700000D01*
X109635000Y-88900000D02*
X109635000Y-86865000D01*
X108860000Y-87640000D02*
X109800000Y-86700000D01*
X100800000Y-87640000D02*
X108860000Y-87640000D01*
X109800000Y-89065000D02*
X109635000Y-88900000D01*
X109635000Y-96100000D02*
X109800000Y-95935000D01*
X109800000Y-95935000D02*
X109800000Y-89065000D01*
X128200000Y-106200000D02*
X128200000Y-108600000D01*
X109375000Y-106720000D02*
X110345000Y-107690000D01*
X109375000Y-101800000D02*
X109375000Y-106720000D01*
X128550000Y-100250000D02*
X128550000Y-97800000D01*
X126800000Y-102000000D02*
X128550000Y-100250000D01*
X109375000Y-101800000D02*
X109575000Y-102000000D01*
X109575000Y-102000000D02*
X126800000Y-102000000D01*
X129350000Y-105200000D02*
X129350000Y-97800000D01*
X129775000Y-105625000D02*
X129350000Y-105200000D01*
X129775000Y-106200000D02*
X129775000Y-105625000D01*
M02*
