G04 #@! TF.GenerationSoftware,KiCad,Pcbnew,(5.1.4)-1*
G04 #@! TF.CreationDate,2020-02-25T16:56:55+01:00*
G04 #@! TF.ProjectId,Master Thesis PCB,4d617374-6572-4205-9468-657369732050,rev?*
G04 #@! TF.SameCoordinates,Original*
G04 #@! TF.FileFunction,Soldermask,Bot*
G04 #@! TF.FilePolarity,Negative*
%FSLAX46Y46*%
G04 Gerber Fmt 4.6, Leading zero omitted, Abs format (unit mm)*
G04 Created by KiCad (PCBNEW (5.1.4)-1) date 2020-02-25 16:56:55*
%MOMM*%
%LPD*%
G04 APERTURE LIST*
%ADD10C,0.100000*%
G04 APERTURE END LIST*
D10*
G36*
X144001000Y-109251000D02*
G01*
X142249000Y-109251000D01*
X142249000Y-103549000D01*
X144001000Y-103549000D01*
X144001000Y-109251000D01*
X144001000Y-109251000D01*
G37*
G36*
X135751000Y-109251000D02*
G01*
X133999000Y-109251000D01*
X133999000Y-103549000D01*
X135751000Y-103549000D01*
X135751000Y-109251000D01*
X135751000Y-109251000D01*
G37*
G36*
X122880444Y-106869151D02*
G01*
X122987540Y-106890454D01*
X123138863Y-106953134D01*
X123138864Y-106953135D01*
X123275048Y-107044130D01*
X123390870Y-107159952D01*
X123451533Y-107250741D01*
X123481866Y-107296137D01*
X123544546Y-107447460D01*
X123576500Y-107608104D01*
X123576500Y-107771896D01*
X123544546Y-107932540D01*
X123481866Y-108083863D01*
X123481865Y-108083864D01*
X123390870Y-108220048D01*
X123275048Y-108335870D01*
X123184259Y-108396533D01*
X123138863Y-108426866D01*
X122987540Y-108489546D01*
X122880444Y-108510849D01*
X122826897Y-108521500D01*
X122663103Y-108521500D01*
X122609556Y-108510849D01*
X122502460Y-108489546D01*
X122351137Y-108426866D01*
X122305741Y-108396533D01*
X122214952Y-108335870D01*
X122099130Y-108220048D01*
X122008135Y-108083864D01*
X122008134Y-108083863D01*
X121945454Y-107932540D01*
X121913500Y-107771896D01*
X121913500Y-107608104D01*
X121945454Y-107447460D01*
X122008134Y-107296137D01*
X122038467Y-107250741D01*
X122099130Y-107159952D01*
X122214952Y-107044130D01*
X122351136Y-106953135D01*
X122351137Y-106953134D01*
X122502460Y-106890454D01*
X122609556Y-106869151D01*
X122663103Y-106858500D01*
X122826897Y-106858500D01*
X122880444Y-106869151D01*
X122880444Y-106869151D01*
G37*
G36*
X118380444Y-106869151D02*
G01*
X118487540Y-106890454D01*
X118638863Y-106953134D01*
X118638864Y-106953135D01*
X118775048Y-107044130D01*
X118890870Y-107159952D01*
X118951533Y-107250741D01*
X118981866Y-107296137D01*
X119044546Y-107447460D01*
X119076500Y-107608104D01*
X119076500Y-107771896D01*
X119044546Y-107932540D01*
X118981866Y-108083863D01*
X118981865Y-108083864D01*
X118890870Y-108220048D01*
X118775048Y-108335870D01*
X118684259Y-108396533D01*
X118638863Y-108426866D01*
X118487540Y-108489546D01*
X118380444Y-108510849D01*
X118326897Y-108521500D01*
X118163103Y-108521500D01*
X118109556Y-108510849D01*
X118002460Y-108489546D01*
X117851137Y-108426866D01*
X117805741Y-108396533D01*
X117714952Y-108335870D01*
X117599130Y-108220048D01*
X117508135Y-108083864D01*
X117508134Y-108083863D01*
X117445454Y-107932540D01*
X117413500Y-107771896D01*
X117413500Y-107608104D01*
X117445454Y-107447460D01*
X117508134Y-107296137D01*
X117538467Y-107250741D01*
X117599130Y-107159952D01*
X117714952Y-107044130D01*
X117851136Y-106953135D01*
X117851137Y-106953134D01*
X118002460Y-106890454D01*
X118109556Y-106869151D01*
X118163103Y-106858500D01*
X118326897Y-106858500D01*
X118380444Y-106869151D01*
X118380444Y-106869151D01*
G37*
G36*
X105980444Y-106869151D02*
G01*
X106087540Y-106890454D01*
X106238863Y-106953134D01*
X106238864Y-106953135D01*
X106375048Y-107044130D01*
X106490870Y-107159952D01*
X106551533Y-107250741D01*
X106581866Y-107296137D01*
X106644546Y-107447460D01*
X106676500Y-107608104D01*
X106676500Y-107771896D01*
X106644546Y-107932540D01*
X106581866Y-108083863D01*
X106581865Y-108083864D01*
X106490870Y-108220048D01*
X106375048Y-108335870D01*
X106284259Y-108396533D01*
X106238863Y-108426866D01*
X106087540Y-108489546D01*
X105980444Y-108510849D01*
X105926897Y-108521500D01*
X105763103Y-108521500D01*
X105709556Y-108510849D01*
X105602460Y-108489546D01*
X105451137Y-108426866D01*
X105405741Y-108396533D01*
X105314952Y-108335870D01*
X105199130Y-108220048D01*
X105108135Y-108083864D01*
X105108134Y-108083863D01*
X105045454Y-107932540D01*
X105013500Y-107771896D01*
X105013500Y-107608104D01*
X105045454Y-107447460D01*
X105108134Y-107296137D01*
X105138467Y-107250741D01*
X105199130Y-107159952D01*
X105314952Y-107044130D01*
X105451136Y-106953135D01*
X105451137Y-106953134D01*
X105602460Y-106890454D01*
X105709556Y-106869151D01*
X105763103Y-106858500D01*
X105926897Y-106858500D01*
X105980444Y-106869151D01*
X105980444Y-106869151D01*
G37*
G36*
X110480444Y-106869151D02*
G01*
X110587540Y-106890454D01*
X110738863Y-106953134D01*
X110738864Y-106953135D01*
X110875048Y-107044130D01*
X110990870Y-107159952D01*
X111051533Y-107250741D01*
X111081866Y-107296137D01*
X111144546Y-107447460D01*
X111176500Y-107608104D01*
X111176500Y-107771896D01*
X111144546Y-107932540D01*
X111081866Y-108083863D01*
X111081865Y-108083864D01*
X110990870Y-108220048D01*
X110875048Y-108335870D01*
X110784259Y-108396533D01*
X110738863Y-108426866D01*
X110587540Y-108489546D01*
X110480444Y-108510849D01*
X110426897Y-108521500D01*
X110263103Y-108521500D01*
X110209556Y-108510849D01*
X110102460Y-108489546D01*
X109951137Y-108426866D01*
X109905741Y-108396533D01*
X109814952Y-108335870D01*
X109699130Y-108220048D01*
X109608135Y-108083864D01*
X109608134Y-108083863D01*
X109545454Y-107932540D01*
X109513500Y-107771896D01*
X109513500Y-107608104D01*
X109545454Y-107447460D01*
X109608134Y-107296137D01*
X109638467Y-107250741D01*
X109699130Y-107159952D01*
X109814952Y-107044130D01*
X109951136Y-106953135D01*
X109951137Y-106953134D01*
X110102460Y-106890454D01*
X110209556Y-106869151D01*
X110263103Y-106858500D01*
X110426897Y-106858500D01*
X110480444Y-106869151D01*
X110480444Y-106869151D01*
G37*
G36*
X117197576Y-104156444D02*
G01*
X117300357Y-104176889D01*
X117397175Y-104216993D01*
X117493994Y-104257096D01*
X117668258Y-104373535D01*
X117816465Y-104521742D01*
X117932904Y-104696006D01*
X118013111Y-104889644D01*
X118054000Y-105095204D01*
X118054000Y-105304796D01*
X118013111Y-105510356D01*
X117932904Y-105703994D01*
X117816465Y-105878258D01*
X117668258Y-106026465D01*
X117493994Y-106142904D01*
X117397175Y-106183007D01*
X117300357Y-106223111D01*
X117197576Y-106243556D01*
X117094796Y-106264000D01*
X116885204Y-106264000D01*
X116782424Y-106243555D01*
X116679643Y-106223111D01*
X116582825Y-106183008D01*
X116486006Y-106142904D01*
X116311742Y-106026465D01*
X116163535Y-105878258D01*
X116047096Y-105703994D01*
X115966889Y-105510356D01*
X115926000Y-105304796D01*
X115926000Y-105095204D01*
X115966889Y-104889644D01*
X116047096Y-104696006D01*
X116163535Y-104521742D01*
X116311742Y-104373535D01*
X116486006Y-104257096D01*
X116582825Y-104216992D01*
X116679643Y-104176889D01*
X116782424Y-104156444D01*
X116885204Y-104136000D01*
X117094796Y-104136000D01*
X117197576Y-104156444D01*
X117197576Y-104156444D01*
G37*
G36*
X124207576Y-104156444D02*
G01*
X124310357Y-104176889D01*
X124407175Y-104216993D01*
X124503994Y-104257096D01*
X124678258Y-104373535D01*
X124826465Y-104521742D01*
X124942904Y-104696006D01*
X125023111Y-104889644D01*
X125064000Y-105095204D01*
X125064000Y-105304796D01*
X125023111Y-105510356D01*
X124942904Y-105703994D01*
X124826465Y-105878258D01*
X124678258Y-106026465D01*
X124503994Y-106142904D01*
X124407175Y-106183007D01*
X124310357Y-106223111D01*
X124207576Y-106243556D01*
X124104796Y-106264000D01*
X123895204Y-106264000D01*
X123792424Y-106243555D01*
X123689643Y-106223111D01*
X123592825Y-106183008D01*
X123496006Y-106142904D01*
X123321742Y-106026465D01*
X123173535Y-105878258D01*
X123057096Y-105703994D01*
X122976889Y-105510356D01*
X122936000Y-105304796D01*
X122936000Y-105095204D01*
X122976889Y-104889644D01*
X123057096Y-104696006D01*
X123173535Y-104521742D01*
X123321742Y-104373535D01*
X123496006Y-104257096D01*
X123592825Y-104216992D01*
X123689643Y-104176889D01*
X123792424Y-104156444D01*
X123895204Y-104136000D01*
X124104796Y-104136000D01*
X124207576Y-104156444D01*
X124207576Y-104156444D01*
G37*
G36*
X111807576Y-104156444D02*
G01*
X111910357Y-104176889D01*
X112007175Y-104216993D01*
X112103994Y-104257096D01*
X112278258Y-104373535D01*
X112426465Y-104521742D01*
X112542904Y-104696006D01*
X112623111Y-104889644D01*
X112664000Y-105095204D01*
X112664000Y-105304796D01*
X112623111Y-105510356D01*
X112542904Y-105703994D01*
X112426465Y-105878258D01*
X112278258Y-106026465D01*
X112103994Y-106142904D01*
X112007175Y-106183007D01*
X111910357Y-106223111D01*
X111807576Y-106243556D01*
X111704796Y-106264000D01*
X111495204Y-106264000D01*
X111392424Y-106243555D01*
X111289643Y-106223111D01*
X111192825Y-106183008D01*
X111096006Y-106142904D01*
X110921742Y-106026465D01*
X110773535Y-105878258D01*
X110657096Y-105703994D01*
X110576889Y-105510356D01*
X110536000Y-105304796D01*
X110536000Y-105095204D01*
X110576889Y-104889644D01*
X110657096Y-104696006D01*
X110773535Y-104521742D01*
X110921742Y-104373535D01*
X111096006Y-104257096D01*
X111192825Y-104216992D01*
X111289643Y-104176889D01*
X111392424Y-104156444D01*
X111495204Y-104136000D01*
X111704796Y-104136000D01*
X111807576Y-104156444D01*
X111807576Y-104156444D01*
G37*
G36*
X104797576Y-104156444D02*
G01*
X104900357Y-104176889D01*
X104997175Y-104216993D01*
X105093994Y-104257096D01*
X105268258Y-104373535D01*
X105416465Y-104521742D01*
X105532904Y-104696006D01*
X105613111Y-104889644D01*
X105654000Y-105095204D01*
X105654000Y-105304796D01*
X105613111Y-105510356D01*
X105532904Y-105703994D01*
X105416465Y-105878258D01*
X105268258Y-106026465D01*
X105093994Y-106142904D01*
X104997175Y-106183007D01*
X104900357Y-106223111D01*
X104797576Y-106243556D01*
X104694796Y-106264000D01*
X104485204Y-106264000D01*
X104382424Y-106243555D01*
X104279643Y-106223111D01*
X104182825Y-106183008D01*
X104086006Y-106142904D01*
X103911742Y-106026465D01*
X103763535Y-105878258D01*
X103647096Y-105703994D01*
X103566889Y-105510356D01*
X103526000Y-105304796D01*
X103526000Y-105095204D01*
X103566889Y-104889644D01*
X103647096Y-104696006D01*
X103763535Y-104521742D01*
X103911742Y-104373535D01*
X104086006Y-104257096D01*
X104182825Y-104216992D01*
X104279643Y-104176889D01*
X104382424Y-104156444D01*
X104485204Y-104136000D01*
X104694796Y-104136000D01*
X104797576Y-104156444D01*
X104797576Y-104156444D01*
G37*
G36*
X100910443Y-96905519D02*
G01*
X100976627Y-96912037D01*
X101146466Y-96963557D01*
X101302991Y-97047222D01*
X101338729Y-97076552D01*
X101440186Y-97159814D01*
X101523448Y-97261271D01*
X101552778Y-97297009D01*
X101636443Y-97453534D01*
X101687963Y-97623373D01*
X101705359Y-97800000D01*
X101687963Y-97976627D01*
X101636443Y-98146466D01*
X101552778Y-98302991D01*
X101523448Y-98338729D01*
X101440186Y-98440186D01*
X101338729Y-98523448D01*
X101302991Y-98552778D01*
X101146466Y-98636443D01*
X100976627Y-98687963D01*
X100910443Y-98694481D01*
X100844260Y-98701000D01*
X100755740Y-98701000D01*
X100689557Y-98694481D01*
X100623373Y-98687963D01*
X100453534Y-98636443D01*
X100297009Y-98552778D01*
X100261271Y-98523448D01*
X100159814Y-98440186D01*
X100076552Y-98338729D01*
X100047222Y-98302991D01*
X99963557Y-98146466D01*
X99912037Y-97976627D01*
X99894641Y-97800000D01*
X99912037Y-97623373D01*
X99963557Y-97453534D01*
X100047222Y-97297009D01*
X100076552Y-97261271D01*
X100159814Y-97159814D01*
X100261271Y-97076552D01*
X100297009Y-97047222D01*
X100453534Y-96963557D01*
X100623373Y-96912037D01*
X100689557Y-96905519D01*
X100755740Y-96899000D01*
X100844260Y-96899000D01*
X100910443Y-96905519D01*
X100910443Y-96905519D01*
G37*
G36*
X144090443Y-96905519D02*
G01*
X144156627Y-96912037D01*
X144326466Y-96963557D01*
X144482991Y-97047222D01*
X144518729Y-97076552D01*
X144620186Y-97159814D01*
X144703448Y-97261271D01*
X144732778Y-97297009D01*
X144816443Y-97453534D01*
X144867963Y-97623373D01*
X144885359Y-97800000D01*
X144867963Y-97976627D01*
X144816443Y-98146466D01*
X144732778Y-98302991D01*
X144703448Y-98338729D01*
X144620186Y-98440186D01*
X144518729Y-98523448D01*
X144482991Y-98552778D01*
X144326466Y-98636443D01*
X144156627Y-98687963D01*
X144090443Y-98694481D01*
X144024260Y-98701000D01*
X143935740Y-98701000D01*
X143869557Y-98694481D01*
X143803373Y-98687963D01*
X143633534Y-98636443D01*
X143477009Y-98552778D01*
X143441271Y-98523448D01*
X143339814Y-98440186D01*
X143256552Y-98338729D01*
X143227222Y-98302991D01*
X143143557Y-98146466D01*
X143092037Y-97976627D01*
X143074641Y-97800000D01*
X143092037Y-97623373D01*
X143143557Y-97453534D01*
X143227222Y-97297009D01*
X143256552Y-97261271D01*
X143339814Y-97159814D01*
X143441271Y-97076552D01*
X143477009Y-97047222D01*
X143633534Y-96963557D01*
X143803373Y-96912037D01*
X143869557Y-96905519D01*
X143935740Y-96899000D01*
X144024260Y-96899000D01*
X144090443Y-96905519D01*
X144090443Y-96905519D01*
G37*
G36*
X144090443Y-94365519D02*
G01*
X144156627Y-94372037D01*
X144326466Y-94423557D01*
X144482991Y-94507222D01*
X144518729Y-94536552D01*
X144620186Y-94619814D01*
X144703448Y-94721271D01*
X144732778Y-94757009D01*
X144816443Y-94913534D01*
X144867963Y-95083373D01*
X144885359Y-95260000D01*
X144867963Y-95436627D01*
X144816443Y-95606466D01*
X144732778Y-95762991D01*
X144703448Y-95798729D01*
X144620186Y-95900186D01*
X144518729Y-95983448D01*
X144482991Y-96012778D01*
X144326466Y-96096443D01*
X144156627Y-96147963D01*
X144090442Y-96154482D01*
X144024260Y-96161000D01*
X143935740Y-96161000D01*
X143869558Y-96154482D01*
X143803373Y-96147963D01*
X143633534Y-96096443D01*
X143477009Y-96012778D01*
X143441271Y-95983448D01*
X143339814Y-95900186D01*
X143256552Y-95798729D01*
X143227222Y-95762991D01*
X143143557Y-95606466D01*
X143092037Y-95436627D01*
X143074641Y-95260000D01*
X143092037Y-95083373D01*
X143143557Y-94913534D01*
X143227222Y-94757009D01*
X143256552Y-94721271D01*
X143339814Y-94619814D01*
X143441271Y-94536552D01*
X143477009Y-94507222D01*
X143633534Y-94423557D01*
X143803373Y-94372037D01*
X143869558Y-94365518D01*
X143935740Y-94359000D01*
X144024260Y-94359000D01*
X144090443Y-94365519D01*
X144090443Y-94365519D01*
G37*
G36*
X100910443Y-94365519D02*
G01*
X100976627Y-94372037D01*
X101146466Y-94423557D01*
X101302991Y-94507222D01*
X101338729Y-94536552D01*
X101440186Y-94619814D01*
X101523448Y-94721271D01*
X101552778Y-94757009D01*
X101636443Y-94913534D01*
X101687963Y-95083373D01*
X101705359Y-95260000D01*
X101687963Y-95436627D01*
X101636443Y-95606466D01*
X101552778Y-95762991D01*
X101523448Y-95798729D01*
X101440186Y-95900186D01*
X101338729Y-95983448D01*
X101302991Y-96012778D01*
X101146466Y-96096443D01*
X100976627Y-96147963D01*
X100910442Y-96154482D01*
X100844260Y-96161000D01*
X100755740Y-96161000D01*
X100689558Y-96154482D01*
X100623373Y-96147963D01*
X100453534Y-96096443D01*
X100297009Y-96012778D01*
X100261271Y-95983448D01*
X100159814Y-95900186D01*
X100076552Y-95798729D01*
X100047222Y-95762991D01*
X99963557Y-95606466D01*
X99912037Y-95436627D01*
X99894641Y-95260000D01*
X99912037Y-95083373D01*
X99963557Y-94913534D01*
X100047222Y-94757009D01*
X100076552Y-94721271D01*
X100159814Y-94619814D01*
X100261271Y-94536552D01*
X100297009Y-94507222D01*
X100453534Y-94423557D01*
X100623373Y-94372037D01*
X100689557Y-94365519D01*
X100755740Y-94359000D01*
X100844260Y-94359000D01*
X100910443Y-94365519D01*
X100910443Y-94365519D01*
G37*
G36*
X100910443Y-91825519D02*
G01*
X100976627Y-91832037D01*
X101146466Y-91883557D01*
X101302991Y-91967222D01*
X101338729Y-91996552D01*
X101440186Y-92079814D01*
X101523448Y-92181271D01*
X101552778Y-92217009D01*
X101636443Y-92373534D01*
X101687963Y-92543373D01*
X101705359Y-92720000D01*
X101687963Y-92896627D01*
X101636443Y-93066466D01*
X101552778Y-93222991D01*
X101523448Y-93258729D01*
X101440186Y-93360186D01*
X101338729Y-93443448D01*
X101302991Y-93472778D01*
X101146466Y-93556443D01*
X100976627Y-93607963D01*
X100910443Y-93614481D01*
X100844260Y-93621000D01*
X100755740Y-93621000D01*
X100689557Y-93614481D01*
X100623373Y-93607963D01*
X100453534Y-93556443D01*
X100297009Y-93472778D01*
X100261271Y-93443448D01*
X100159814Y-93360186D01*
X100076552Y-93258729D01*
X100047222Y-93222991D01*
X99963557Y-93066466D01*
X99912037Y-92896627D01*
X99894641Y-92720000D01*
X99912037Y-92543373D01*
X99963557Y-92373534D01*
X100047222Y-92217009D01*
X100076552Y-92181271D01*
X100159814Y-92079814D01*
X100261271Y-91996552D01*
X100297009Y-91967222D01*
X100453534Y-91883557D01*
X100623373Y-91832037D01*
X100689557Y-91825519D01*
X100755740Y-91819000D01*
X100844260Y-91819000D01*
X100910443Y-91825519D01*
X100910443Y-91825519D01*
G37*
G36*
X144090443Y-91825519D02*
G01*
X144156627Y-91832037D01*
X144326466Y-91883557D01*
X144482991Y-91967222D01*
X144518729Y-91996552D01*
X144620186Y-92079814D01*
X144703448Y-92181271D01*
X144732778Y-92217009D01*
X144816443Y-92373534D01*
X144867963Y-92543373D01*
X144885359Y-92720000D01*
X144867963Y-92896627D01*
X144816443Y-93066466D01*
X144732778Y-93222991D01*
X144703448Y-93258729D01*
X144620186Y-93360186D01*
X144518729Y-93443448D01*
X144482991Y-93472778D01*
X144326466Y-93556443D01*
X144156627Y-93607963D01*
X144090443Y-93614481D01*
X144024260Y-93621000D01*
X143935740Y-93621000D01*
X143869557Y-93614481D01*
X143803373Y-93607963D01*
X143633534Y-93556443D01*
X143477009Y-93472778D01*
X143441271Y-93443448D01*
X143339814Y-93360186D01*
X143256552Y-93258729D01*
X143227222Y-93222991D01*
X143143557Y-93066466D01*
X143092037Y-92896627D01*
X143074641Y-92720000D01*
X143092037Y-92543373D01*
X143143557Y-92373534D01*
X143227222Y-92217009D01*
X143256552Y-92181271D01*
X143339814Y-92079814D01*
X143441271Y-91996552D01*
X143477009Y-91967222D01*
X143633534Y-91883557D01*
X143803373Y-91832037D01*
X143869557Y-91825519D01*
X143935740Y-91819000D01*
X144024260Y-91819000D01*
X144090443Y-91825519D01*
X144090443Y-91825519D01*
G37*
G36*
X144090442Y-89285518D02*
G01*
X144156627Y-89292037D01*
X144326466Y-89343557D01*
X144482991Y-89427222D01*
X144518729Y-89456552D01*
X144620186Y-89539814D01*
X144703448Y-89641271D01*
X144732778Y-89677009D01*
X144816443Y-89833534D01*
X144867963Y-90003373D01*
X144885359Y-90180000D01*
X144867963Y-90356627D01*
X144816443Y-90526466D01*
X144732778Y-90682991D01*
X144703448Y-90718729D01*
X144620186Y-90820186D01*
X144518729Y-90903448D01*
X144482991Y-90932778D01*
X144326466Y-91016443D01*
X144156627Y-91067963D01*
X144090443Y-91074481D01*
X144024260Y-91081000D01*
X143935740Y-91081000D01*
X143869557Y-91074481D01*
X143803373Y-91067963D01*
X143633534Y-91016443D01*
X143477009Y-90932778D01*
X143441271Y-90903448D01*
X143339814Y-90820186D01*
X143256552Y-90718729D01*
X143227222Y-90682991D01*
X143143557Y-90526466D01*
X143092037Y-90356627D01*
X143074641Y-90180000D01*
X143092037Y-90003373D01*
X143143557Y-89833534D01*
X143227222Y-89677009D01*
X143256552Y-89641271D01*
X143339814Y-89539814D01*
X143441271Y-89456552D01*
X143477009Y-89427222D01*
X143633534Y-89343557D01*
X143803373Y-89292037D01*
X143869558Y-89285518D01*
X143935740Y-89279000D01*
X144024260Y-89279000D01*
X144090442Y-89285518D01*
X144090442Y-89285518D01*
G37*
G36*
X100910442Y-89285518D02*
G01*
X100976627Y-89292037D01*
X101146466Y-89343557D01*
X101302991Y-89427222D01*
X101338729Y-89456552D01*
X101440186Y-89539814D01*
X101523448Y-89641271D01*
X101552778Y-89677009D01*
X101636443Y-89833534D01*
X101687963Y-90003373D01*
X101705359Y-90180000D01*
X101687963Y-90356627D01*
X101636443Y-90526466D01*
X101552778Y-90682991D01*
X101523448Y-90718729D01*
X101440186Y-90820186D01*
X101338729Y-90903448D01*
X101302991Y-90932778D01*
X101146466Y-91016443D01*
X100976627Y-91067963D01*
X100910443Y-91074481D01*
X100844260Y-91081000D01*
X100755740Y-91081000D01*
X100689557Y-91074481D01*
X100623373Y-91067963D01*
X100453534Y-91016443D01*
X100297009Y-90932778D01*
X100261271Y-90903448D01*
X100159814Y-90820186D01*
X100076552Y-90718729D01*
X100047222Y-90682991D01*
X99963557Y-90526466D01*
X99912037Y-90356627D01*
X99894641Y-90180000D01*
X99912037Y-90003373D01*
X99963557Y-89833534D01*
X100047222Y-89677009D01*
X100076552Y-89641271D01*
X100159814Y-89539814D01*
X100261271Y-89456552D01*
X100297009Y-89427222D01*
X100453534Y-89343557D01*
X100623373Y-89292037D01*
X100689558Y-89285518D01*
X100755740Y-89279000D01*
X100844260Y-89279000D01*
X100910442Y-89285518D01*
X100910442Y-89285518D01*
G37*
G36*
X100910443Y-86745519D02*
G01*
X100976627Y-86752037D01*
X101146466Y-86803557D01*
X101302991Y-86887222D01*
X101338729Y-86916552D01*
X101440186Y-86999814D01*
X101523448Y-87101271D01*
X101552778Y-87137009D01*
X101636443Y-87293534D01*
X101687963Y-87463373D01*
X101705359Y-87640000D01*
X101687963Y-87816627D01*
X101636443Y-87986466D01*
X101552778Y-88142991D01*
X101523448Y-88178729D01*
X101440186Y-88280186D01*
X101338729Y-88363448D01*
X101302991Y-88392778D01*
X101146466Y-88476443D01*
X100976627Y-88527963D01*
X100910443Y-88534481D01*
X100844260Y-88541000D01*
X100755740Y-88541000D01*
X100689557Y-88534481D01*
X100623373Y-88527963D01*
X100453534Y-88476443D01*
X100297009Y-88392778D01*
X100261271Y-88363448D01*
X100159814Y-88280186D01*
X100076552Y-88178729D01*
X100047222Y-88142991D01*
X99963557Y-87986466D01*
X99912037Y-87816627D01*
X99894641Y-87640000D01*
X99912037Y-87463373D01*
X99963557Y-87293534D01*
X100047222Y-87137009D01*
X100076552Y-87101271D01*
X100159814Y-86999814D01*
X100261271Y-86916552D01*
X100297009Y-86887222D01*
X100453534Y-86803557D01*
X100623373Y-86752037D01*
X100689557Y-86745519D01*
X100755740Y-86739000D01*
X100844260Y-86739000D01*
X100910443Y-86745519D01*
X100910443Y-86745519D01*
G37*
G36*
X144090443Y-86745519D02*
G01*
X144156627Y-86752037D01*
X144326466Y-86803557D01*
X144482991Y-86887222D01*
X144518729Y-86916552D01*
X144620186Y-86999814D01*
X144703448Y-87101271D01*
X144732778Y-87137009D01*
X144816443Y-87293534D01*
X144867963Y-87463373D01*
X144885359Y-87640000D01*
X144867963Y-87816627D01*
X144816443Y-87986466D01*
X144732778Y-88142991D01*
X144703448Y-88178729D01*
X144620186Y-88280186D01*
X144518729Y-88363448D01*
X144482991Y-88392778D01*
X144326466Y-88476443D01*
X144156627Y-88527963D01*
X144090443Y-88534481D01*
X144024260Y-88541000D01*
X143935740Y-88541000D01*
X143869557Y-88534481D01*
X143803373Y-88527963D01*
X143633534Y-88476443D01*
X143477009Y-88392778D01*
X143441271Y-88363448D01*
X143339814Y-88280186D01*
X143256552Y-88178729D01*
X143227222Y-88142991D01*
X143143557Y-87986466D01*
X143092037Y-87816627D01*
X143074641Y-87640000D01*
X143092037Y-87463373D01*
X143143557Y-87293534D01*
X143227222Y-87137009D01*
X143256552Y-87101271D01*
X143339814Y-86999814D01*
X143441271Y-86916552D01*
X143477009Y-86887222D01*
X143633534Y-86803557D01*
X143803373Y-86752037D01*
X143869557Y-86745519D01*
X143935740Y-86739000D01*
X144024260Y-86739000D01*
X144090443Y-86745519D01*
X144090443Y-86745519D01*
G37*
G36*
X100910443Y-84205519D02*
G01*
X100976627Y-84212037D01*
X101146466Y-84263557D01*
X101302991Y-84347222D01*
X101338729Y-84376552D01*
X101440186Y-84459814D01*
X101523448Y-84561271D01*
X101552778Y-84597009D01*
X101636443Y-84753534D01*
X101687963Y-84923373D01*
X101705359Y-85100000D01*
X101687963Y-85276627D01*
X101636443Y-85446466D01*
X101552778Y-85602991D01*
X101523448Y-85638729D01*
X101440186Y-85740186D01*
X101338729Y-85823448D01*
X101302991Y-85852778D01*
X101146466Y-85936443D01*
X100976627Y-85987963D01*
X100910442Y-85994482D01*
X100844260Y-86001000D01*
X100755740Y-86001000D01*
X100689558Y-85994482D01*
X100623373Y-85987963D01*
X100453534Y-85936443D01*
X100297009Y-85852778D01*
X100261271Y-85823448D01*
X100159814Y-85740186D01*
X100076552Y-85638729D01*
X100047222Y-85602991D01*
X99963557Y-85446466D01*
X99912037Y-85276627D01*
X99894641Y-85100000D01*
X99912037Y-84923373D01*
X99963557Y-84753534D01*
X100047222Y-84597009D01*
X100076552Y-84561271D01*
X100159814Y-84459814D01*
X100261271Y-84376552D01*
X100297009Y-84347222D01*
X100453534Y-84263557D01*
X100623373Y-84212037D01*
X100689557Y-84205519D01*
X100755740Y-84199000D01*
X100844260Y-84199000D01*
X100910443Y-84205519D01*
X100910443Y-84205519D01*
G37*
G36*
X144090443Y-84205519D02*
G01*
X144156627Y-84212037D01*
X144326466Y-84263557D01*
X144482991Y-84347222D01*
X144518729Y-84376552D01*
X144620186Y-84459814D01*
X144703448Y-84561271D01*
X144732778Y-84597009D01*
X144816443Y-84753534D01*
X144867963Y-84923373D01*
X144885359Y-85100000D01*
X144867963Y-85276627D01*
X144816443Y-85446466D01*
X144732778Y-85602991D01*
X144703448Y-85638729D01*
X144620186Y-85740186D01*
X144518729Y-85823448D01*
X144482991Y-85852778D01*
X144326466Y-85936443D01*
X144156627Y-85987963D01*
X144090442Y-85994482D01*
X144024260Y-86001000D01*
X143935740Y-86001000D01*
X143869558Y-85994482D01*
X143803373Y-85987963D01*
X143633534Y-85936443D01*
X143477009Y-85852778D01*
X143441271Y-85823448D01*
X143339814Y-85740186D01*
X143256552Y-85638729D01*
X143227222Y-85602991D01*
X143143557Y-85446466D01*
X143092037Y-85276627D01*
X143074641Y-85100000D01*
X143092037Y-84923373D01*
X143143557Y-84753534D01*
X143227222Y-84597009D01*
X143256552Y-84561271D01*
X143339814Y-84459814D01*
X143441271Y-84376552D01*
X143477009Y-84347222D01*
X143633534Y-84263557D01*
X143803373Y-84212037D01*
X143869557Y-84205519D01*
X143935740Y-84199000D01*
X144024260Y-84199000D01*
X144090443Y-84205519D01*
X144090443Y-84205519D01*
G37*
G36*
X144090442Y-81665518D02*
G01*
X144156627Y-81672037D01*
X144326466Y-81723557D01*
X144482991Y-81807222D01*
X144518729Y-81836552D01*
X144620186Y-81919814D01*
X144703448Y-82021271D01*
X144732778Y-82057009D01*
X144816443Y-82213534D01*
X144867963Y-82383373D01*
X144885359Y-82560000D01*
X144867963Y-82736627D01*
X144816443Y-82906466D01*
X144732778Y-83062991D01*
X144703448Y-83098729D01*
X144620186Y-83200186D01*
X144518729Y-83283448D01*
X144482991Y-83312778D01*
X144326466Y-83396443D01*
X144156627Y-83447963D01*
X144090442Y-83454482D01*
X144024260Y-83461000D01*
X143935740Y-83461000D01*
X143869558Y-83454482D01*
X143803373Y-83447963D01*
X143633534Y-83396443D01*
X143477009Y-83312778D01*
X143441271Y-83283448D01*
X143339814Y-83200186D01*
X143256552Y-83098729D01*
X143227222Y-83062991D01*
X143143557Y-82906466D01*
X143092037Y-82736627D01*
X143074641Y-82560000D01*
X143092037Y-82383373D01*
X143143557Y-82213534D01*
X143227222Y-82057009D01*
X143256552Y-82021271D01*
X143339814Y-81919814D01*
X143441271Y-81836552D01*
X143477009Y-81807222D01*
X143633534Y-81723557D01*
X143803373Y-81672037D01*
X143869558Y-81665518D01*
X143935740Y-81659000D01*
X144024260Y-81659000D01*
X144090442Y-81665518D01*
X144090442Y-81665518D01*
G37*
G36*
X100910442Y-81665518D02*
G01*
X100976627Y-81672037D01*
X101146466Y-81723557D01*
X101302991Y-81807222D01*
X101338729Y-81836552D01*
X101440186Y-81919814D01*
X101523448Y-82021271D01*
X101552778Y-82057009D01*
X101636443Y-82213534D01*
X101687963Y-82383373D01*
X101705359Y-82560000D01*
X101687963Y-82736627D01*
X101636443Y-82906466D01*
X101552778Y-83062991D01*
X101523448Y-83098729D01*
X101440186Y-83200186D01*
X101338729Y-83283448D01*
X101302991Y-83312778D01*
X101146466Y-83396443D01*
X100976627Y-83447963D01*
X100910442Y-83454482D01*
X100844260Y-83461000D01*
X100755740Y-83461000D01*
X100689558Y-83454482D01*
X100623373Y-83447963D01*
X100453534Y-83396443D01*
X100297009Y-83312778D01*
X100261271Y-83283448D01*
X100159814Y-83200186D01*
X100076552Y-83098729D01*
X100047222Y-83062991D01*
X99963557Y-82906466D01*
X99912037Y-82736627D01*
X99894641Y-82560000D01*
X99912037Y-82383373D01*
X99963557Y-82213534D01*
X100047222Y-82057009D01*
X100076552Y-82021271D01*
X100159814Y-81919814D01*
X100261271Y-81836552D01*
X100297009Y-81807222D01*
X100453534Y-81723557D01*
X100623373Y-81672037D01*
X100689558Y-81665518D01*
X100755740Y-81659000D01*
X100844260Y-81659000D01*
X100910442Y-81665518D01*
X100910442Y-81665518D01*
G37*
G36*
X144881000Y-80921000D02*
G01*
X143079000Y-80921000D01*
X143079000Y-79119000D01*
X144881000Y-79119000D01*
X144881000Y-80921000D01*
X144881000Y-80921000D01*
G37*
G36*
X101701000Y-80921000D02*
G01*
X99899000Y-80921000D01*
X99899000Y-79119000D01*
X101701000Y-79119000D01*
X101701000Y-80921000D01*
X101701000Y-80921000D01*
G37*
G36*
X115450442Y-75105518D02*
G01*
X115516627Y-75112037D01*
X115686466Y-75163557D01*
X115842991Y-75247222D01*
X115878729Y-75276552D01*
X115980186Y-75359814D01*
X116063448Y-75461271D01*
X116092778Y-75497009D01*
X116176443Y-75653534D01*
X116227963Y-75823373D01*
X116245359Y-76000000D01*
X116227963Y-76176627D01*
X116176443Y-76346466D01*
X116092778Y-76502991D01*
X116063448Y-76538729D01*
X115980186Y-76640186D01*
X115878729Y-76723448D01*
X115842991Y-76752778D01*
X115686466Y-76836443D01*
X115516627Y-76887963D01*
X115450442Y-76894482D01*
X115384260Y-76901000D01*
X115295740Y-76901000D01*
X115229558Y-76894482D01*
X115163373Y-76887963D01*
X114993534Y-76836443D01*
X114837009Y-76752778D01*
X114801271Y-76723448D01*
X114699814Y-76640186D01*
X114616552Y-76538729D01*
X114587222Y-76502991D01*
X114503557Y-76346466D01*
X114452037Y-76176627D01*
X114434641Y-76000000D01*
X114452037Y-75823373D01*
X114503557Y-75653534D01*
X114587222Y-75497009D01*
X114616552Y-75461271D01*
X114699814Y-75359814D01*
X114801271Y-75276552D01*
X114837009Y-75247222D01*
X114993534Y-75163557D01*
X115163373Y-75112037D01*
X115229558Y-75105518D01*
X115295740Y-75099000D01*
X115384260Y-75099000D01*
X115450442Y-75105518D01*
X115450442Y-75105518D01*
G37*
G36*
X117990442Y-75105518D02*
G01*
X118056627Y-75112037D01*
X118226466Y-75163557D01*
X118382991Y-75247222D01*
X118418729Y-75276552D01*
X118520186Y-75359814D01*
X118603448Y-75461271D01*
X118632778Y-75497009D01*
X118716443Y-75653534D01*
X118767963Y-75823373D01*
X118785359Y-76000000D01*
X118767963Y-76176627D01*
X118716443Y-76346466D01*
X118632778Y-76502991D01*
X118603448Y-76538729D01*
X118520186Y-76640186D01*
X118418729Y-76723448D01*
X118382991Y-76752778D01*
X118226466Y-76836443D01*
X118056627Y-76887963D01*
X117990442Y-76894482D01*
X117924260Y-76901000D01*
X117835740Y-76901000D01*
X117769558Y-76894482D01*
X117703373Y-76887963D01*
X117533534Y-76836443D01*
X117377009Y-76752778D01*
X117341271Y-76723448D01*
X117239814Y-76640186D01*
X117156552Y-76538729D01*
X117127222Y-76502991D01*
X117043557Y-76346466D01*
X116992037Y-76176627D01*
X116974641Y-76000000D01*
X116992037Y-75823373D01*
X117043557Y-75653534D01*
X117127222Y-75497009D01*
X117156552Y-75461271D01*
X117239814Y-75359814D01*
X117341271Y-75276552D01*
X117377009Y-75247222D01*
X117533534Y-75163557D01*
X117703373Y-75112037D01*
X117769558Y-75105518D01*
X117835740Y-75099000D01*
X117924260Y-75099000D01*
X117990442Y-75105518D01*
X117990442Y-75105518D01*
G37*
G36*
X123361000Y-76901000D02*
G01*
X121559000Y-76901000D01*
X121559000Y-75099000D01*
X123361000Y-75099000D01*
X123361000Y-76901000D01*
X123361000Y-76901000D01*
G37*
G36*
X113701000Y-76901000D02*
G01*
X111899000Y-76901000D01*
X111899000Y-75099000D01*
X113701000Y-75099000D01*
X113701000Y-76901000D01*
X113701000Y-76901000D01*
G37*
G36*
X130401000Y-76901000D02*
G01*
X128599000Y-76901000D01*
X128599000Y-75099000D01*
X130401000Y-75099000D01*
X130401000Y-76901000D01*
X130401000Y-76901000D01*
G37*
G36*
X132150442Y-75105518D02*
G01*
X132216627Y-75112037D01*
X132386466Y-75163557D01*
X132542991Y-75247222D01*
X132578729Y-75276552D01*
X132680186Y-75359814D01*
X132763448Y-75461271D01*
X132792778Y-75497009D01*
X132876443Y-75653534D01*
X132927963Y-75823373D01*
X132945359Y-76000000D01*
X132927963Y-76176627D01*
X132876443Y-76346466D01*
X132792778Y-76502991D01*
X132763448Y-76538729D01*
X132680186Y-76640186D01*
X132578729Y-76723448D01*
X132542991Y-76752778D01*
X132386466Y-76836443D01*
X132216627Y-76887963D01*
X132150442Y-76894482D01*
X132084260Y-76901000D01*
X131995740Y-76901000D01*
X131929558Y-76894482D01*
X131863373Y-76887963D01*
X131693534Y-76836443D01*
X131537009Y-76752778D01*
X131501271Y-76723448D01*
X131399814Y-76640186D01*
X131316552Y-76538729D01*
X131287222Y-76502991D01*
X131203557Y-76346466D01*
X131152037Y-76176627D01*
X131134641Y-76000000D01*
X131152037Y-75823373D01*
X131203557Y-75653534D01*
X131287222Y-75497009D01*
X131316552Y-75461271D01*
X131399814Y-75359814D01*
X131501271Y-75276552D01*
X131537009Y-75247222D01*
X131693534Y-75163557D01*
X131863373Y-75112037D01*
X131929558Y-75105518D01*
X131995740Y-75099000D01*
X132084260Y-75099000D01*
X132150442Y-75105518D01*
X132150442Y-75105518D01*
G37*
G36*
X134690442Y-75105518D02*
G01*
X134756627Y-75112037D01*
X134926466Y-75163557D01*
X135082991Y-75247222D01*
X135118729Y-75276552D01*
X135220186Y-75359814D01*
X135303448Y-75461271D01*
X135332778Y-75497009D01*
X135416443Y-75653534D01*
X135467963Y-75823373D01*
X135485359Y-76000000D01*
X135467963Y-76176627D01*
X135416443Y-76346466D01*
X135332778Y-76502991D01*
X135303448Y-76538729D01*
X135220186Y-76640186D01*
X135118729Y-76723448D01*
X135082991Y-76752778D01*
X134926466Y-76836443D01*
X134756627Y-76887963D01*
X134690442Y-76894482D01*
X134624260Y-76901000D01*
X134535740Y-76901000D01*
X134469558Y-76894482D01*
X134403373Y-76887963D01*
X134233534Y-76836443D01*
X134077009Y-76752778D01*
X134041271Y-76723448D01*
X133939814Y-76640186D01*
X133856552Y-76538729D01*
X133827222Y-76502991D01*
X133743557Y-76346466D01*
X133692037Y-76176627D01*
X133674641Y-76000000D01*
X133692037Y-75823373D01*
X133743557Y-75653534D01*
X133827222Y-75497009D01*
X133856552Y-75461271D01*
X133939814Y-75359814D01*
X134041271Y-75276552D01*
X134077009Y-75247222D01*
X134233534Y-75163557D01*
X134403373Y-75112037D01*
X134469558Y-75105518D01*
X134535740Y-75099000D01*
X134624260Y-75099000D01*
X134690442Y-75105518D01*
X134690442Y-75105518D01*
G37*
G36*
X137230442Y-75105518D02*
G01*
X137296627Y-75112037D01*
X137466466Y-75163557D01*
X137622991Y-75247222D01*
X137658729Y-75276552D01*
X137760186Y-75359814D01*
X137843448Y-75461271D01*
X137872778Y-75497009D01*
X137956443Y-75653534D01*
X138007963Y-75823373D01*
X138025359Y-76000000D01*
X138007963Y-76176627D01*
X137956443Y-76346466D01*
X137872778Y-76502991D01*
X137843448Y-76538729D01*
X137760186Y-76640186D01*
X137658729Y-76723448D01*
X137622991Y-76752778D01*
X137466466Y-76836443D01*
X137296627Y-76887963D01*
X137230442Y-76894482D01*
X137164260Y-76901000D01*
X137075740Y-76901000D01*
X137009558Y-76894482D01*
X136943373Y-76887963D01*
X136773534Y-76836443D01*
X136617009Y-76752778D01*
X136581271Y-76723448D01*
X136479814Y-76640186D01*
X136396552Y-76538729D01*
X136367222Y-76502991D01*
X136283557Y-76346466D01*
X136232037Y-76176627D01*
X136214641Y-76000000D01*
X136232037Y-75823373D01*
X136283557Y-75653534D01*
X136367222Y-75497009D01*
X136396552Y-75461271D01*
X136479814Y-75359814D01*
X136581271Y-75276552D01*
X136617009Y-75247222D01*
X136773534Y-75163557D01*
X136943373Y-75112037D01*
X137009558Y-75105518D01*
X137075740Y-75099000D01*
X137164260Y-75099000D01*
X137230442Y-75105518D01*
X137230442Y-75105518D01*
G37*
G36*
X139770442Y-75105518D02*
G01*
X139836627Y-75112037D01*
X140006466Y-75163557D01*
X140162991Y-75247222D01*
X140198729Y-75276552D01*
X140300186Y-75359814D01*
X140383448Y-75461271D01*
X140412778Y-75497009D01*
X140496443Y-75653534D01*
X140547963Y-75823373D01*
X140565359Y-76000000D01*
X140547963Y-76176627D01*
X140496443Y-76346466D01*
X140412778Y-76502991D01*
X140383448Y-76538729D01*
X140300186Y-76640186D01*
X140198729Y-76723448D01*
X140162991Y-76752778D01*
X140006466Y-76836443D01*
X139836627Y-76887963D01*
X139770442Y-76894482D01*
X139704260Y-76901000D01*
X139615740Y-76901000D01*
X139549558Y-76894482D01*
X139483373Y-76887963D01*
X139313534Y-76836443D01*
X139157009Y-76752778D01*
X139121271Y-76723448D01*
X139019814Y-76640186D01*
X138936552Y-76538729D01*
X138907222Y-76502991D01*
X138823557Y-76346466D01*
X138772037Y-76176627D01*
X138754641Y-76000000D01*
X138772037Y-75823373D01*
X138823557Y-75653534D01*
X138907222Y-75497009D01*
X138936552Y-75461271D01*
X139019814Y-75359814D01*
X139121271Y-75276552D01*
X139157009Y-75247222D01*
X139313534Y-75163557D01*
X139483373Y-75112037D01*
X139549558Y-75105518D01*
X139615740Y-75099000D01*
X139704260Y-75099000D01*
X139770442Y-75105518D01*
X139770442Y-75105518D01*
G37*
G36*
X142310442Y-75105518D02*
G01*
X142376627Y-75112037D01*
X142546466Y-75163557D01*
X142702991Y-75247222D01*
X142738729Y-75276552D01*
X142840186Y-75359814D01*
X142923448Y-75461271D01*
X142952778Y-75497009D01*
X143036443Y-75653534D01*
X143087963Y-75823373D01*
X143105359Y-76000000D01*
X143087963Y-76176627D01*
X143036443Y-76346466D01*
X142952778Y-76502991D01*
X142923448Y-76538729D01*
X142840186Y-76640186D01*
X142738729Y-76723448D01*
X142702991Y-76752778D01*
X142546466Y-76836443D01*
X142376627Y-76887963D01*
X142310442Y-76894482D01*
X142244260Y-76901000D01*
X142155740Y-76901000D01*
X142089558Y-76894482D01*
X142023373Y-76887963D01*
X141853534Y-76836443D01*
X141697009Y-76752778D01*
X141661271Y-76723448D01*
X141559814Y-76640186D01*
X141476552Y-76538729D01*
X141447222Y-76502991D01*
X141363557Y-76346466D01*
X141312037Y-76176627D01*
X141294641Y-76000000D01*
X141312037Y-75823373D01*
X141363557Y-75653534D01*
X141447222Y-75497009D01*
X141476552Y-75461271D01*
X141559814Y-75359814D01*
X141661271Y-75276552D01*
X141697009Y-75247222D01*
X141853534Y-75163557D01*
X142023373Y-75112037D01*
X142089558Y-75105518D01*
X142155740Y-75099000D01*
X142244260Y-75099000D01*
X142310442Y-75105518D01*
X142310442Y-75105518D01*
G37*
G36*
X125110442Y-75105518D02*
G01*
X125176627Y-75112037D01*
X125346466Y-75163557D01*
X125502991Y-75247222D01*
X125538729Y-75276552D01*
X125640186Y-75359814D01*
X125723448Y-75461271D01*
X125752778Y-75497009D01*
X125836443Y-75653534D01*
X125887963Y-75823373D01*
X125905359Y-76000000D01*
X125887963Y-76176627D01*
X125836443Y-76346466D01*
X125752778Y-76502991D01*
X125723448Y-76538729D01*
X125640186Y-76640186D01*
X125538729Y-76723448D01*
X125502991Y-76752778D01*
X125346466Y-76836443D01*
X125176627Y-76887963D01*
X125110442Y-76894482D01*
X125044260Y-76901000D01*
X124955740Y-76901000D01*
X124889558Y-76894482D01*
X124823373Y-76887963D01*
X124653534Y-76836443D01*
X124497009Y-76752778D01*
X124461271Y-76723448D01*
X124359814Y-76640186D01*
X124276552Y-76538729D01*
X124247222Y-76502991D01*
X124163557Y-76346466D01*
X124112037Y-76176627D01*
X124094641Y-76000000D01*
X124112037Y-75823373D01*
X124163557Y-75653534D01*
X124247222Y-75497009D01*
X124276552Y-75461271D01*
X124359814Y-75359814D01*
X124461271Y-75276552D01*
X124497009Y-75247222D01*
X124653534Y-75163557D01*
X124823373Y-75112037D01*
X124889558Y-75105518D01*
X124955740Y-75099000D01*
X125044260Y-75099000D01*
X125110442Y-75105518D01*
X125110442Y-75105518D01*
G37*
M02*
