G04 #@! TF.GenerationSoftware,KiCad,Pcbnew,(5.1.4)-1*
G04 #@! TF.CreationDate,2020-02-25T16:56:55+01:00*
G04 #@! TF.ProjectId,Master Thesis PCB,4d617374-6572-4205-9468-657369732050,rev?*
G04 #@! TF.SameCoordinates,Original*
G04 #@! TF.FileFunction,Soldermask,Top*
G04 #@! TF.FilePolarity,Negative*
%FSLAX46Y46*%
G04 Gerber Fmt 4.6, Leading zero omitted, Abs format (unit mm)*
G04 Created by KiCad (PCBNEW (5.1.4)-1) date 2020-02-25 16:56:55*
%MOMM*%
%LPD*%
G04 APERTURE LIST*
%ADD10C,0.001000*%
%ADD11C,0.100000*%
G04 APERTURE END LIST*
D10*
G36*
X125750000Y-89200000D02*
G01*
X125750000Y-91000000D01*
X123950000Y-91000000D01*
X123950000Y-89700000D01*
X124450000Y-89200000D01*
X125750000Y-89200000D01*
G37*
X125750000Y-89200000D02*
X125750000Y-91000000D01*
X123950000Y-91000000D01*
X123950000Y-89700000D01*
X124450000Y-89200000D01*
X125750000Y-89200000D01*
D11*
G36*
X144001000Y-109251000D02*
G01*
X142249000Y-109251000D01*
X142249000Y-103549000D01*
X144001000Y-103549000D01*
X144001000Y-109251000D01*
X144001000Y-109251000D01*
G37*
G36*
X139501000Y-109251000D02*
G01*
X138499000Y-109251000D01*
X138499000Y-103549000D01*
X139501000Y-103549000D01*
X139501000Y-109251000D01*
X139501000Y-109251000D01*
G37*
G36*
X135751000Y-109251000D02*
G01*
X133999000Y-109251000D01*
X133999000Y-103549000D01*
X135751000Y-103549000D01*
X135751000Y-109251000D01*
X135751000Y-109251000D01*
G37*
G36*
X131751000Y-109101000D02*
G01*
X130649000Y-109101000D01*
X130649000Y-108099000D01*
X131751000Y-108099000D01*
X131751000Y-109101000D01*
X131751000Y-109101000D01*
G37*
G36*
X128751000Y-109101000D02*
G01*
X127649000Y-109101000D01*
X127649000Y-108099000D01*
X128751000Y-108099000D01*
X128751000Y-109101000D01*
X128751000Y-109101000D01*
G37*
G36*
X130151000Y-108801000D02*
G01*
X129249000Y-108801000D01*
X129249000Y-108099000D01*
X130151000Y-108099000D01*
X130151000Y-108801000D01*
X130151000Y-108801000D01*
G37*
G36*
X122880444Y-106869151D02*
G01*
X122987540Y-106890454D01*
X123138863Y-106953134D01*
X123138864Y-106953135D01*
X123275048Y-107044130D01*
X123390870Y-107159952D01*
X123451533Y-107250741D01*
X123481866Y-107296137D01*
X123544546Y-107447460D01*
X123576500Y-107608104D01*
X123576500Y-107771896D01*
X123544546Y-107932540D01*
X123481866Y-108083863D01*
X123451533Y-108129259D01*
X123390870Y-108220048D01*
X123275048Y-108335870D01*
X123184259Y-108396533D01*
X123138863Y-108426866D01*
X122987540Y-108489546D01*
X122880444Y-108510849D01*
X122826897Y-108521500D01*
X122663103Y-108521500D01*
X122609556Y-108510849D01*
X122502460Y-108489546D01*
X122351137Y-108426866D01*
X122305741Y-108396533D01*
X122214952Y-108335870D01*
X122099130Y-108220048D01*
X122038467Y-108129259D01*
X122008134Y-108083863D01*
X121945454Y-107932540D01*
X121913500Y-107771896D01*
X121913500Y-107608104D01*
X121945454Y-107447460D01*
X122008134Y-107296137D01*
X122038467Y-107250741D01*
X122099130Y-107159952D01*
X122214952Y-107044130D01*
X122351136Y-106953135D01*
X122351137Y-106953134D01*
X122502460Y-106890454D01*
X122609556Y-106869151D01*
X122663103Y-106858500D01*
X122826897Y-106858500D01*
X122880444Y-106869151D01*
X122880444Y-106869151D01*
G37*
G36*
X110480444Y-106869151D02*
G01*
X110587540Y-106890454D01*
X110738863Y-106953134D01*
X110738864Y-106953135D01*
X110875048Y-107044130D01*
X110990870Y-107159952D01*
X111051533Y-107250741D01*
X111081866Y-107296137D01*
X111144546Y-107447460D01*
X111176500Y-107608104D01*
X111176500Y-107771896D01*
X111144546Y-107932540D01*
X111081866Y-108083863D01*
X111051533Y-108129259D01*
X110990870Y-108220048D01*
X110875048Y-108335870D01*
X110784259Y-108396533D01*
X110738863Y-108426866D01*
X110587540Y-108489546D01*
X110480444Y-108510849D01*
X110426897Y-108521500D01*
X110263103Y-108521500D01*
X110209556Y-108510849D01*
X110102460Y-108489546D01*
X109951137Y-108426866D01*
X109905741Y-108396533D01*
X109814952Y-108335870D01*
X109699130Y-108220048D01*
X109638467Y-108129259D01*
X109608134Y-108083863D01*
X109545454Y-107932540D01*
X109513500Y-107771896D01*
X109513500Y-107608104D01*
X109545454Y-107447460D01*
X109608134Y-107296137D01*
X109638467Y-107250741D01*
X109699130Y-107159952D01*
X109814952Y-107044130D01*
X109951136Y-106953135D01*
X109951137Y-106953134D01*
X110102460Y-106890454D01*
X110209556Y-106869151D01*
X110263103Y-106858500D01*
X110426897Y-106858500D01*
X110480444Y-106869151D01*
X110480444Y-106869151D01*
G37*
G36*
X105980444Y-106869151D02*
G01*
X106087540Y-106890454D01*
X106238863Y-106953134D01*
X106238864Y-106953135D01*
X106375048Y-107044130D01*
X106490870Y-107159952D01*
X106551533Y-107250741D01*
X106581866Y-107296137D01*
X106644546Y-107447460D01*
X106676500Y-107608104D01*
X106676500Y-107771896D01*
X106644546Y-107932540D01*
X106581866Y-108083863D01*
X106551533Y-108129259D01*
X106490870Y-108220048D01*
X106375048Y-108335870D01*
X106284259Y-108396533D01*
X106238863Y-108426866D01*
X106087540Y-108489546D01*
X105980444Y-108510849D01*
X105926897Y-108521500D01*
X105763103Y-108521500D01*
X105709556Y-108510849D01*
X105602460Y-108489546D01*
X105451137Y-108426866D01*
X105405741Y-108396533D01*
X105314952Y-108335870D01*
X105199130Y-108220048D01*
X105138467Y-108129259D01*
X105108134Y-108083863D01*
X105045454Y-107932540D01*
X105013500Y-107771896D01*
X105013500Y-107608104D01*
X105045454Y-107447460D01*
X105108134Y-107296137D01*
X105138467Y-107250741D01*
X105199130Y-107159952D01*
X105314952Y-107044130D01*
X105451136Y-106953135D01*
X105451137Y-106953134D01*
X105602460Y-106890454D01*
X105709556Y-106869151D01*
X105763103Y-106858500D01*
X105926897Y-106858500D01*
X105980444Y-106869151D01*
X105980444Y-106869151D01*
G37*
G36*
X118380444Y-106869151D02*
G01*
X118487540Y-106890454D01*
X118638863Y-106953134D01*
X118638864Y-106953135D01*
X118775048Y-107044130D01*
X118890870Y-107159952D01*
X118951533Y-107250741D01*
X118981866Y-107296137D01*
X119044546Y-107447460D01*
X119076500Y-107608104D01*
X119076500Y-107771896D01*
X119044546Y-107932540D01*
X118981866Y-108083863D01*
X118951533Y-108129259D01*
X118890870Y-108220048D01*
X118775048Y-108335870D01*
X118684259Y-108396533D01*
X118638863Y-108426866D01*
X118487540Y-108489546D01*
X118380444Y-108510849D01*
X118326897Y-108521500D01*
X118163103Y-108521500D01*
X118109556Y-108510849D01*
X118002460Y-108489546D01*
X117851137Y-108426866D01*
X117805741Y-108396533D01*
X117714952Y-108335870D01*
X117599130Y-108220048D01*
X117538467Y-108129259D01*
X117508134Y-108083863D01*
X117445454Y-107932540D01*
X117413500Y-107771896D01*
X117413500Y-107608104D01*
X117445454Y-107447460D01*
X117508134Y-107296137D01*
X117538467Y-107250741D01*
X117599130Y-107159952D01*
X117714952Y-107044130D01*
X117851136Y-106953135D01*
X117851137Y-106953134D01*
X118002460Y-106890454D01*
X118109556Y-106869151D01*
X118163103Y-106858500D01*
X118326897Y-106858500D01*
X118380444Y-106869151D01*
X118380444Y-106869151D01*
G37*
G36*
X130117091Y-105678085D02*
G01*
X130151069Y-105688393D01*
X130182390Y-105705134D01*
X130209839Y-105727661D01*
X130232366Y-105755110D01*
X130249107Y-105786431D01*
X130259415Y-105820409D01*
X130263500Y-105861890D01*
X130263500Y-106538110D01*
X130259415Y-106579591D01*
X130249107Y-106613569D01*
X130232366Y-106644890D01*
X130209839Y-106672339D01*
X130182390Y-106694866D01*
X130151069Y-106711607D01*
X130117091Y-106721915D01*
X130075610Y-106726000D01*
X129474390Y-106726000D01*
X129432909Y-106721915D01*
X129398931Y-106711607D01*
X129367610Y-106694866D01*
X129340161Y-106672339D01*
X129317634Y-106644890D01*
X129300893Y-106613569D01*
X129290585Y-106579591D01*
X129286500Y-106538110D01*
X129286500Y-105861890D01*
X129290585Y-105820409D01*
X129300893Y-105786431D01*
X129317634Y-105755110D01*
X129340161Y-105727661D01*
X129367610Y-105705134D01*
X129398931Y-105688393D01*
X129432909Y-105678085D01*
X129474390Y-105674000D01*
X130075610Y-105674000D01*
X130117091Y-105678085D01*
X130117091Y-105678085D01*
G37*
G36*
X128542091Y-105678085D02*
G01*
X128576069Y-105688393D01*
X128607390Y-105705134D01*
X128634839Y-105727661D01*
X128657366Y-105755110D01*
X128674107Y-105786431D01*
X128684415Y-105820409D01*
X128688500Y-105861890D01*
X128688500Y-106538110D01*
X128684415Y-106579591D01*
X128674107Y-106613569D01*
X128657366Y-106644890D01*
X128634839Y-106672339D01*
X128607390Y-106694866D01*
X128576069Y-106711607D01*
X128542091Y-106721915D01*
X128500610Y-106726000D01*
X127899390Y-106726000D01*
X127857909Y-106721915D01*
X127823931Y-106711607D01*
X127792610Y-106694866D01*
X127765161Y-106672339D01*
X127742634Y-106644890D01*
X127725893Y-106613569D01*
X127715585Y-106579591D01*
X127711500Y-106538110D01*
X127711500Y-105861890D01*
X127715585Y-105820409D01*
X127725893Y-105786431D01*
X127742634Y-105755110D01*
X127765161Y-105727661D01*
X127792610Y-105705134D01*
X127823931Y-105688393D01*
X127857909Y-105678085D01*
X127899390Y-105674000D01*
X128500610Y-105674000D01*
X128542091Y-105678085D01*
X128542091Y-105678085D01*
G37*
G36*
X111807576Y-104156444D02*
G01*
X111910357Y-104176889D01*
X112007175Y-104216993D01*
X112103994Y-104257096D01*
X112278258Y-104373535D01*
X112426465Y-104521742D01*
X112542904Y-104696006D01*
X112623111Y-104889644D01*
X112664000Y-105095204D01*
X112664000Y-105304796D01*
X112623111Y-105510356D01*
X112542904Y-105703994D01*
X112426465Y-105878258D01*
X112278258Y-106026465D01*
X112103994Y-106142904D01*
X112007175Y-106183007D01*
X111910357Y-106223111D01*
X111807576Y-106243556D01*
X111704796Y-106264000D01*
X111495204Y-106264000D01*
X111392424Y-106243555D01*
X111289643Y-106223111D01*
X111192825Y-106183008D01*
X111096006Y-106142904D01*
X110921742Y-106026465D01*
X110773535Y-105878258D01*
X110657096Y-105703994D01*
X110576889Y-105510356D01*
X110536000Y-105304796D01*
X110536000Y-105095204D01*
X110576889Y-104889644D01*
X110657096Y-104696006D01*
X110773535Y-104521742D01*
X110921742Y-104373535D01*
X111096006Y-104257096D01*
X111192825Y-104216992D01*
X111289643Y-104176889D01*
X111392424Y-104156444D01*
X111495204Y-104136000D01*
X111704796Y-104136000D01*
X111807576Y-104156444D01*
X111807576Y-104156444D01*
G37*
G36*
X124207576Y-104156444D02*
G01*
X124310357Y-104176889D01*
X124407175Y-104216993D01*
X124503994Y-104257096D01*
X124678258Y-104373535D01*
X124826465Y-104521742D01*
X124942904Y-104696006D01*
X125023111Y-104889644D01*
X125064000Y-105095204D01*
X125064000Y-105304796D01*
X125023111Y-105510356D01*
X124942904Y-105703994D01*
X124826465Y-105878258D01*
X124678258Y-106026465D01*
X124503994Y-106142904D01*
X124407175Y-106183007D01*
X124310357Y-106223111D01*
X124207576Y-106243556D01*
X124104796Y-106264000D01*
X123895204Y-106264000D01*
X123792424Y-106243555D01*
X123689643Y-106223111D01*
X123592825Y-106183008D01*
X123496006Y-106142904D01*
X123321742Y-106026465D01*
X123173535Y-105878258D01*
X123057096Y-105703994D01*
X122976889Y-105510356D01*
X122936000Y-105304796D01*
X122936000Y-105095204D01*
X122976889Y-104889644D01*
X123057096Y-104696006D01*
X123173535Y-104521742D01*
X123321742Y-104373535D01*
X123496006Y-104257096D01*
X123592825Y-104216992D01*
X123689643Y-104176889D01*
X123792424Y-104156444D01*
X123895204Y-104136000D01*
X124104796Y-104136000D01*
X124207576Y-104156444D01*
X124207576Y-104156444D01*
G37*
G36*
X117197576Y-104156444D02*
G01*
X117300357Y-104176889D01*
X117397175Y-104216993D01*
X117493994Y-104257096D01*
X117668258Y-104373535D01*
X117816465Y-104521742D01*
X117932904Y-104696006D01*
X118013111Y-104889644D01*
X118054000Y-105095204D01*
X118054000Y-105304796D01*
X118013111Y-105510356D01*
X117932904Y-105703994D01*
X117816465Y-105878258D01*
X117668258Y-106026465D01*
X117493994Y-106142904D01*
X117397175Y-106183007D01*
X117300357Y-106223111D01*
X117197576Y-106243556D01*
X117094796Y-106264000D01*
X116885204Y-106264000D01*
X116782424Y-106243555D01*
X116679643Y-106223111D01*
X116582825Y-106183008D01*
X116486006Y-106142904D01*
X116311742Y-106026465D01*
X116163535Y-105878258D01*
X116047096Y-105703994D01*
X115966889Y-105510356D01*
X115926000Y-105304796D01*
X115926000Y-105095204D01*
X115966889Y-104889644D01*
X116047096Y-104696006D01*
X116163535Y-104521742D01*
X116311742Y-104373535D01*
X116486006Y-104257096D01*
X116582825Y-104216992D01*
X116679643Y-104176889D01*
X116782424Y-104156444D01*
X116885204Y-104136000D01*
X117094796Y-104136000D01*
X117197576Y-104156444D01*
X117197576Y-104156444D01*
G37*
G36*
X104797576Y-104156444D02*
G01*
X104900357Y-104176889D01*
X104997175Y-104216993D01*
X105093994Y-104257096D01*
X105268258Y-104373535D01*
X105416465Y-104521742D01*
X105532904Y-104696006D01*
X105613111Y-104889644D01*
X105654000Y-105095204D01*
X105654000Y-105304796D01*
X105613111Y-105510356D01*
X105532904Y-105703994D01*
X105416465Y-105878258D01*
X105268258Y-106026465D01*
X105093994Y-106142904D01*
X104997175Y-106183007D01*
X104900357Y-106223111D01*
X104797576Y-106243556D01*
X104694796Y-106264000D01*
X104485204Y-106264000D01*
X104382424Y-106243555D01*
X104279643Y-106223111D01*
X104182825Y-106183008D01*
X104086006Y-106142904D01*
X103911742Y-106026465D01*
X103763535Y-105878258D01*
X103647096Y-105703994D01*
X103566889Y-105510356D01*
X103526000Y-105304796D01*
X103526000Y-105095204D01*
X103566889Y-104889644D01*
X103647096Y-104696006D01*
X103763535Y-104521742D01*
X103911742Y-104373535D01*
X104086006Y-104257096D01*
X104182825Y-104216992D01*
X104279643Y-104176889D01*
X104382424Y-104156444D01*
X104485204Y-104136000D01*
X104694796Y-104136000D01*
X104797576Y-104156444D01*
X104797576Y-104156444D01*
G37*
G36*
X108142091Y-101278085D02*
G01*
X108176069Y-101288393D01*
X108207390Y-101305134D01*
X108234839Y-101327661D01*
X108257366Y-101355110D01*
X108274107Y-101386431D01*
X108284415Y-101420409D01*
X108288500Y-101461890D01*
X108288500Y-102138110D01*
X108284415Y-102179591D01*
X108274107Y-102213569D01*
X108257366Y-102244890D01*
X108234839Y-102272339D01*
X108207390Y-102294866D01*
X108176069Y-102311607D01*
X108142091Y-102321915D01*
X108100610Y-102326000D01*
X107499390Y-102326000D01*
X107457909Y-102321915D01*
X107423931Y-102311607D01*
X107392610Y-102294866D01*
X107365161Y-102272339D01*
X107342634Y-102244890D01*
X107325893Y-102213569D01*
X107315585Y-102179591D01*
X107311500Y-102138110D01*
X107311500Y-101461890D01*
X107315585Y-101420409D01*
X107325893Y-101386431D01*
X107342634Y-101355110D01*
X107365161Y-101327661D01*
X107392610Y-101305134D01*
X107423931Y-101288393D01*
X107457909Y-101278085D01*
X107499390Y-101274000D01*
X108100610Y-101274000D01*
X108142091Y-101278085D01*
X108142091Y-101278085D01*
G37*
G36*
X109717091Y-101278085D02*
G01*
X109751069Y-101288393D01*
X109782390Y-101305134D01*
X109809839Y-101327661D01*
X109832366Y-101355110D01*
X109849107Y-101386431D01*
X109859415Y-101420409D01*
X109863500Y-101461890D01*
X109863500Y-102138110D01*
X109859415Y-102179591D01*
X109849107Y-102213569D01*
X109832366Y-102244890D01*
X109809839Y-102272339D01*
X109782390Y-102294866D01*
X109751069Y-102311607D01*
X109717091Y-102321915D01*
X109675610Y-102326000D01*
X109074390Y-102326000D01*
X109032909Y-102321915D01*
X108998931Y-102311607D01*
X108967610Y-102294866D01*
X108940161Y-102272339D01*
X108917634Y-102244890D01*
X108900893Y-102213569D01*
X108890585Y-102179591D01*
X108886500Y-102138110D01*
X108886500Y-101461890D01*
X108890585Y-101420409D01*
X108900893Y-101386431D01*
X108917634Y-101355110D01*
X108940161Y-101327661D01*
X108967610Y-101305134D01*
X108998931Y-101288393D01*
X109032909Y-101278085D01*
X109074390Y-101274000D01*
X109675610Y-101274000D01*
X109717091Y-101278085D01*
X109717091Y-101278085D01*
G37*
G36*
X100910443Y-96905519D02*
G01*
X100976627Y-96912037D01*
X101146466Y-96963557D01*
X101302991Y-97047222D01*
X101338729Y-97076552D01*
X101440186Y-97159814D01*
X101523448Y-97261271D01*
X101552778Y-97297009D01*
X101636443Y-97453534D01*
X101687963Y-97623373D01*
X101705359Y-97800000D01*
X101687963Y-97976627D01*
X101636443Y-98146466D01*
X101552778Y-98302991D01*
X101523448Y-98338729D01*
X101440186Y-98440186D01*
X101338729Y-98523448D01*
X101302991Y-98552778D01*
X101146466Y-98636443D01*
X100976627Y-98687963D01*
X100910443Y-98694481D01*
X100844260Y-98701000D01*
X100755740Y-98701000D01*
X100689557Y-98694481D01*
X100623373Y-98687963D01*
X100453534Y-98636443D01*
X100297009Y-98552778D01*
X100261271Y-98523448D01*
X100159814Y-98440186D01*
X100076552Y-98338729D01*
X100047222Y-98302991D01*
X99963557Y-98146466D01*
X99912037Y-97976627D01*
X99894641Y-97800000D01*
X99912037Y-97623373D01*
X99963557Y-97453534D01*
X100047222Y-97297009D01*
X100076552Y-97261271D01*
X100159814Y-97159814D01*
X100261271Y-97076552D01*
X100297009Y-97047222D01*
X100453534Y-96963557D01*
X100623373Y-96912037D01*
X100689557Y-96905519D01*
X100755740Y-96899000D01*
X100844260Y-96899000D01*
X100910443Y-96905519D01*
X100910443Y-96905519D01*
G37*
G36*
X144090443Y-96905519D02*
G01*
X144156627Y-96912037D01*
X144326466Y-96963557D01*
X144482991Y-97047222D01*
X144518729Y-97076552D01*
X144620186Y-97159814D01*
X144703448Y-97261271D01*
X144732778Y-97297009D01*
X144816443Y-97453534D01*
X144867963Y-97623373D01*
X144885359Y-97800000D01*
X144867963Y-97976627D01*
X144816443Y-98146466D01*
X144732778Y-98302991D01*
X144703448Y-98338729D01*
X144620186Y-98440186D01*
X144518729Y-98523448D01*
X144482991Y-98552778D01*
X144326466Y-98636443D01*
X144156627Y-98687963D01*
X144090443Y-98694481D01*
X144024260Y-98701000D01*
X143935740Y-98701000D01*
X143869557Y-98694481D01*
X143803373Y-98687963D01*
X143633534Y-98636443D01*
X143477009Y-98552778D01*
X143441271Y-98523448D01*
X143339814Y-98440186D01*
X143256552Y-98338729D01*
X143227222Y-98302991D01*
X143143557Y-98146466D01*
X143092037Y-97976627D01*
X143074641Y-97800000D01*
X143092037Y-97623373D01*
X143143557Y-97453534D01*
X143227222Y-97297009D01*
X143256552Y-97261271D01*
X143339814Y-97159814D01*
X143441271Y-97076552D01*
X143477009Y-97047222D01*
X143633534Y-96963557D01*
X143803373Y-96912037D01*
X143869557Y-96905519D01*
X143935740Y-96899000D01*
X144024260Y-96899000D01*
X144090443Y-96905519D01*
X144090443Y-96905519D01*
G37*
G36*
X132051000Y-98251000D02*
G01*
X122649000Y-98251000D01*
X122649000Y-97349000D01*
X132051000Y-97349000D01*
X132051000Y-98251000D01*
X132051000Y-98251000D01*
G37*
G36*
X122151000Y-97301000D02*
G01*
X121249000Y-97301000D01*
X121249000Y-87899000D01*
X122151000Y-87899000D01*
X122151000Y-97301000D01*
X122151000Y-97301000D01*
G37*
G36*
X133451000Y-97301000D02*
G01*
X132549000Y-97301000D01*
X132549000Y-87899000D01*
X133451000Y-87899000D01*
X133451000Y-97301000D01*
X133451000Y-97301000D01*
G37*
G36*
X111164928Y-95251764D02*
G01*
X111186009Y-95258160D01*
X111205445Y-95268548D01*
X111222476Y-95282524D01*
X111236452Y-95299555D01*
X111246840Y-95318991D01*
X111253236Y-95340072D01*
X111256000Y-95368140D01*
X111256000Y-96831860D01*
X111253236Y-96859928D01*
X111246840Y-96881009D01*
X111236452Y-96900445D01*
X111222476Y-96917476D01*
X111205445Y-96931452D01*
X111186009Y-96941840D01*
X111164928Y-96948236D01*
X111136860Y-96951000D01*
X110673140Y-96951000D01*
X110645072Y-96948236D01*
X110623991Y-96941840D01*
X110604555Y-96931452D01*
X110587524Y-96917476D01*
X110573548Y-96900445D01*
X110563160Y-96881009D01*
X110556764Y-96859928D01*
X110554000Y-96831860D01*
X110554000Y-95368140D01*
X110556764Y-95340072D01*
X110563160Y-95318991D01*
X110573548Y-95299555D01*
X110587524Y-95282524D01*
X110604555Y-95268548D01*
X110623991Y-95258160D01*
X110645072Y-95251764D01*
X110673140Y-95249000D01*
X111136860Y-95249000D01*
X111164928Y-95251764D01*
X111164928Y-95251764D01*
G37*
G36*
X107354928Y-95251764D02*
G01*
X107376009Y-95258160D01*
X107395445Y-95268548D01*
X107412476Y-95282524D01*
X107426452Y-95299555D01*
X107436840Y-95318991D01*
X107443236Y-95340072D01*
X107446000Y-95368140D01*
X107446000Y-96831860D01*
X107443236Y-96859928D01*
X107436840Y-96881009D01*
X107426452Y-96900445D01*
X107412476Y-96917476D01*
X107395445Y-96931452D01*
X107376009Y-96941840D01*
X107354928Y-96948236D01*
X107326860Y-96951000D01*
X106863140Y-96951000D01*
X106835072Y-96948236D01*
X106813991Y-96941840D01*
X106794555Y-96931452D01*
X106777524Y-96917476D01*
X106763548Y-96900445D01*
X106753160Y-96881009D01*
X106746764Y-96859928D01*
X106744000Y-96831860D01*
X106744000Y-95368140D01*
X106746764Y-95340072D01*
X106753160Y-95318991D01*
X106763548Y-95299555D01*
X106777524Y-95282524D01*
X106794555Y-95268548D01*
X106813991Y-95258160D01*
X106835072Y-95251764D01*
X106863140Y-95249000D01*
X107326860Y-95249000D01*
X107354928Y-95251764D01*
X107354928Y-95251764D01*
G37*
G36*
X109894928Y-95251764D02*
G01*
X109916009Y-95258160D01*
X109935445Y-95268548D01*
X109952476Y-95282524D01*
X109966452Y-95299555D01*
X109976840Y-95318991D01*
X109983236Y-95340072D01*
X109986000Y-95368140D01*
X109986000Y-96831860D01*
X109983236Y-96859928D01*
X109976840Y-96881009D01*
X109966452Y-96900445D01*
X109952476Y-96917476D01*
X109935445Y-96931452D01*
X109916009Y-96941840D01*
X109894928Y-96948236D01*
X109866860Y-96951000D01*
X109403140Y-96951000D01*
X109375072Y-96948236D01*
X109353991Y-96941840D01*
X109334555Y-96931452D01*
X109317524Y-96917476D01*
X109303548Y-96900445D01*
X109293160Y-96881009D01*
X109286764Y-96859928D01*
X109284000Y-96831860D01*
X109284000Y-95368140D01*
X109286764Y-95340072D01*
X109293160Y-95318991D01*
X109303548Y-95299555D01*
X109317524Y-95282524D01*
X109334555Y-95268548D01*
X109353991Y-95258160D01*
X109375072Y-95251764D01*
X109403140Y-95249000D01*
X109866860Y-95249000D01*
X109894928Y-95251764D01*
X109894928Y-95251764D01*
G37*
G36*
X108624928Y-95251764D02*
G01*
X108646009Y-95258160D01*
X108665445Y-95268548D01*
X108682476Y-95282524D01*
X108696452Y-95299555D01*
X108706840Y-95318991D01*
X108713236Y-95340072D01*
X108716000Y-95368140D01*
X108716000Y-96831860D01*
X108713236Y-96859928D01*
X108706840Y-96881009D01*
X108696452Y-96900445D01*
X108682476Y-96917476D01*
X108665445Y-96931452D01*
X108646009Y-96941840D01*
X108624928Y-96948236D01*
X108596860Y-96951000D01*
X108133140Y-96951000D01*
X108105072Y-96948236D01*
X108083991Y-96941840D01*
X108064555Y-96931452D01*
X108047524Y-96917476D01*
X108033548Y-96900445D01*
X108023160Y-96881009D01*
X108016764Y-96859928D01*
X108014000Y-96831860D01*
X108014000Y-95368140D01*
X108016764Y-95340072D01*
X108023160Y-95318991D01*
X108033548Y-95299555D01*
X108047524Y-95282524D01*
X108064555Y-95268548D01*
X108083991Y-95258160D01*
X108105072Y-95251764D01*
X108133140Y-95249000D01*
X108596860Y-95249000D01*
X108624928Y-95251764D01*
X108624928Y-95251764D01*
G37*
G36*
X144090443Y-94365519D02*
G01*
X144156627Y-94372037D01*
X144326466Y-94423557D01*
X144482991Y-94507222D01*
X144510858Y-94530092D01*
X144620186Y-94619814D01*
X144703448Y-94721271D01*
X144732778Y-94757009D01*
X144816443Y-94913534D01*
X144867963Y-95083373D01*
X144885359Y-95260000D01*
X144867963Y-95436627D01*
X144816443Y-95606466D01*
X144732778Y-95762991D01*
X144703448Y-95798729D01*
X144620186Y-95900186D01*
X144518729Y-95983448D01*
X144482991Y-96012778D01*
X144326466Y-96096443D01*
X144156627Y-96147963D01*
X144090442Y-96154482D01*
X144024260Y-96161000D01*
X143935740Y-96161000D01*
X143869558Y-96154482D01*
X143803373Y-96147963D01*
X143633534Y-96096443D01*
X143477009Y-96012778D01*
X143441271Y-95983448D01*
X143339814Y-95900186D01*
X143256552Y-95798729D01*
X143227222Y-95762991D01*
X143143557Y-95606466D01*
X143092037Y-95436627D01*
X143074641Y-95260000D01*
X143092037Y-95083373D01*
X143143557Y-94913534D01*
X143227222Y-94757009D01*
X143256552Y-94721271D01*
X143339814Y-94619814D01*
X143449142Y-94530092D01*
X143477009Y-94507222D01*
X143633534Y-94423557D01*
X143803373Y-94372037D01*
X143869558Y-94365518D01*
X143935740Y-94359000D01*
X144024260Y-94359000D01*
X144090443Y-94365519D01*
X144090443Y-94365519D01*
G37*
G36*
X100910443Y-94365519D02*
G01*
X100976627Y-94372037D01*
X101146466Y-94423557D01*
X101302991Y-94507222D01*
X101330858Y-94530092D01*
X101440186Y-94619814D01*
X101523448Y-94721271D01*
X101552778Y-94757009D01*
X101636443Y-94913534D01*
X101687963Y-95083373D01*
X101705359Y-95260000D01*
X101687963Y-95436627D01*
X101636443Y-95606466D01*
X101552778Y-95762991D01*
X101523448Y-95798729D01*
X101440186Y-95900186D01*
X101338729Y-95983448D01*
X101302991Y-96012778D01*
X101146466Y-96096443D01*
X100976627Y-96147963D01*
X100910442Y-96154482D01*
X100844260Y-96161000D01*
X100755740Y-96161000D01*
X100689558Y-96154482D01*
X100623373Y-96147963D01*
X100453534Y-96096443D01*
X100297009Y-96012778D01*
X100261271Y-95983448D01*
X100159814Y-95900186D01*
X100076552Y-95798729D01*
X100047222Y-95762991D01*
X99963557Y-95606466D01*
X99912037Y-95436627D01*
X99894641Y-95260000D01*
X99912037Y-95083373D01*
X99963557Y-94913534D01*
X100047222Y-94757009D01*
X100076552Y-94721271D01*
X100159814Y-94619814D01*
X100269142Y-94530092D01*
X100297009Y-94507222D01*
X100453534Y-94423557D01*
X100623373Y-94372037D01*
X100689557Y-94365519D01*
X100755740Y-94359000D01*
X100844260Y-94359000D01*
X100910443Y-94365519D01*
X100910443Y-94365519D01*
G37*
G36*
X125701000Y-95951000D02*
G01*
X123999000Y-95951000D01*
X123999000Y-94249000D01*
X125701000Y-94249000D01*
X125701000Y-95951000D01*
X125701000Y-95951000D01*
G37*
G36*
X128201000Y-95951000D02*
G01*
X126499000Y-95951000D01*
X126499000Y-94249000D01*
X128201000Y-94249000D01*
X128201000Y-95951000D01*
X128201000Y-95951000D01*
G37*
G36*
X130701000Y-95951000D02*
G01*
X128999000Y-95951000D01*
X128999000Y-94249000D01*
X130701000Y-94249000D01*
X130701000Y-95951000D01*
X130701000Y-95951000D01*
G37*
G36*
X119379591Y-94515585D02*
G01*
X119413569Y-94525893D01*
X119444890Y-94542634D01*
X119472339Y-94565161D01*
X119494866Y-94592610D01*
X119511607Y-94623931D01*
X119521915Y-94657909D01*
X119526000Y-94699390D01*
X119526000Y-95300610D01*
X119521915Y-95342091D01*
X119511607Y-95376069D01*
X119494866Y-95407390D01*
X119472339Y-95434839D01*
X119444890Y-95457366D01*
X119413569Y-95474107D01*
X119379591Y-95484415D01*
X119338110Y-95488500D01*
X118661890Y-95488500D01*
X118620409Y-95484415D01*
X118586431Y-95474107D01*
X118555110Y-95457366D01*
X118527661Y-95434839D01*
X118505134Y-95407390D01*
X118488393Y-95376069D01*
X118478085Y-95342091D01*
X118474000Y-95300610D01*
X118474000Y-94699390D01*
X118478085Y-94657909D01*
X118488393Y-94623931D01*
X118505134Y-94592610D01*
X118527661Y-94565161D01*
X118555110Y-94542634D01*
X118586431Y-94525893D01*
X118620409Y-94515585D01*
X118661890Y-94511500D01*
X119338110Y-94511500D01*
X119379591Y-94515585D01*
X119379591Y-94515585D01*
G37*
G36*
X116179591Y-94515585D02*
G01*
X116213569Y-94525893D01*
X116244890Y-94542634D01*
X116272339Y-94565161D01*
X116294866Y-94592610D01*
X116311607Y-94623931D01*
X116321915Y-94657909D01*
X116326000Y-94699390D01*
X116326000Y-95300610D01*
X116321915Y-95342091D01*
X116311607Y-95376069D01*
X116294866Y-95407390D01*
X116272339Y-95434839D01*
X116244890Y-95457366D01*
X116213569Y-95474107D01*
X116179591Y-95484415D01*
X116138110Y-95488500D01*
X115461890Y-95488500D01*
X115420409Y-95484415D01*
X115386431Y-95474107D01*
X115355110Y-95457366D01*
X115327661Y-95434839D01*
X115305134Y-95407390D01*
X115288393Y-95376069D01*
X115278085Y-95342091D01*
X115274000Y-95300610D01*
X115274000Y-94699390D01*
X115278085Y-94657909D01*
X115288393Y-94623931D01*
X115305134Y-94592610D01*
X115327661Y-94565161D01*
X115355110Y-94542634D01*
X115386431Y-94525893D01*
X115420409Y-94515585D01*
X115461890Y-94511500D01*
X116138110Y-94511500D01*
X116179591Y-94515585D01*
X116179591Y-94515585D01*
G37*
G36*
X117779591Y-94503085D02*
G01*
X117813569Y-94513393D01*
X117844890Y-94530134D01*
X117872339Y-94552661D01*
X117894866Y-94580110D01*
X117911607Y-94611431D01*
X117921915Y-94645409D01*
X117926000Y-94686890D01*
X117926000Y-95288110D01*
X117921915Y-95329591D01*
X117911607Y-95363569D01*
X117894866Y-95394890D01*
X117872339Y-95422339D01*
X117844890Y-95444866D01*
X117813569Y-95461607D01*
X117779591Y-95471915D01*
X117738110Y-95476000D01*
X117061890Y-95476000D01*
X117020409Y-95471915D01*
X116986431Y-95461607D01*
X116955110Y-95444866D01*
X116927661Y-95422339D01*
X116905134Y-95394890D01*
X116888393Y-95363569D01*
X116878085Y-95329591D01*
X116874000Y-95288110D01*
X116874000Y-94686890D01*
X116878085Y-94645409D01*
X116888393Y-94611431D01*
X116905134Y-94580110D01*
X116927661Y-94552661D01*
X116955110Y-94530134D01*
X116986431Y-94513393D01*
X117020409Y-94503085D01*
X117061890Y-94499000D01*
X117738110Y-94499000D01*
X117779591Y-94503085D01*
X117779591Y-94503085D01*
G37*
G36*
X119379591Y-92940585D02*
G01*
X119413569Y-92950893D01*
X119444890Y-92967634D01*
X119472339Y-92990161D01*
X119494866Y-93017610D01*
X119511607Y-93048931D01*
X119521915Y-93082909D01*
X119526000Y-93124390D01*
X119526000Y-93725610D01*
X119521915Y-93767091D01*
X119511607Y-93801069D01*
X119494866Y-93832390D01*
X119472339Y-93859839D01*
X119444890Y-93882366D01*
X119413569Y-93899107D01*
X119379591Y-93909415D01*
X119338110Y-93913500D01*
X118661890Y-93913500D01*
X118620409Y-93909415D01*
X118586431Y-93899107D01*
X118555110Y-93882366D01*
X118527661Y-93859839D01*
X118505134Y-93832390D01*
X118488393Y-93801069D01*
X118478085Y-93767091D01*
X118474000Y-93725610D01*
X118474000Y-93124390D01*
X118478085Y-93082909D01*
X118488393Y-93048931D01*
X118505134Y-93017610D01*
X118527661Y-92990161D01*
X118555110Y-92967634D01*
X118586431Y-92950893D01*
X118620409Y-92940585D01*
X118661890Y-92936500D01*
X119338110Y-92936500D01*
X119379591Y-92940585D01*
X119379591Y-92940585D01*
G37*
G36*
X116179591Y-92940585D02*
G01*
X116213569Y-92950893D01*
X116244890Y-92967634D01*
X116272339Y-92990161D01*
X116294866Y-93017610D01*
X116311607Y-93048931D01*
X116321915Y-93082909D01*
X116326000Y-93124390D01*
X116326000Y-93725610D01*
X116321915Y-93767091D01*
X116311607Y-93801069D01*
X116294866Y-93832390D01*
X116272339Y-93859839D01*
X116244890Y-93882366D01*
X116213569Y-93899107D01*
X116179591Y-93909415D01*
X116138110Y-93913500D01*
X115461890Y-93913500D01*
X115420409Y-93909415D01*
X115386431Y-93899107D01*
X115355110Y-93882366D01*
X115327661Y-93859839D01*
X115305134Y-93832390D01*
X115288393Y-93801069D01*
X115278085Y-93767091D01*
X115274000Y-93725610D01*
X115274000Y-93124390D01*
X115278085Y-93082909D01*
X115288393Y-93048931D01*
X115305134Y-93017610D01*
X115327661Y-92990161D01*
X115355110Y-92967634D01*
X115386431Y-92950893D01*
X115420409Y-92940585D01*
X115461890Y-92936500D01*
X116138110Y-92936500D01*
X116179591Y-92940585D01*
X116179591Y-92940585D01*
G37*
G36*
X117779591Y-92928085D02*
G01*
X117813569Y-92938393D01*
X117844890Y-92955134D01*
X117872339Y-92977661D01*
X117894866Y-93005110D01*
X117911607Y-93036431D01*
X117921915Y-93070409D01*
X117926000Y-93111890D01*
X117926000Y-93713110D01*
X117921915Y-93754591D01*
X117911607Y-93788569D01*
X117894866Y-93819890D01*
X117872339Y-93847339D01*
X117844890Y-93869866D01*
X117813569Y-93886607D01*
X117779591Y-93896915D01*
X117738110Y-93901000D01*
X117061890Y-93901000D01*
X117020409Y-93896915D01*
X116986431Y-93886607D01*
X116955110Y-93869866D01*
X116927661Y-93847339D01*
X116905134Y-93819890D01*
X116888393Y-93788569D01*
X116878085Y-93754591D01*
X116874000Y-93713110D01*
X116874000Y-93111890D01*
X116878085Y-93070409D01*
X116888393Y-93036431D01*
X116905134Y-93005110D01*
X116927661Y-92977661D01*
X116955110Y-92955134D01*
X116986431Y-92938393D01*
X117020409Y-92928085D01*
X117061890Y-92924000D01*
X117738110Y-92924000D01*
X117779591Y-92928085D01*
X117779591Y-92928085D01*
G37*
G36*
X100910443Y-91825519D02*
G01*
X100976627Y-91832037D01*
X101146466Y-91883557D01*
X101302991Y-91967222D01*
X101338729Y-91996552D01*
X101440186Y-92079814D01*
X101522070Y-92179591D01*
X101552778Y-92217009D01*
X101636443Y-92373534D01*
X101687963Y-92543373D01*
X101705359Y-92720000D01*
X101687963Y-92896627D01*
X101636443Y-93066466D01*
X101552778Y-93222991D01*
X101523448Y-93258729D01*
X101440186Y-93360186D01*
X101352233Y-93432366D01*
X101302991Y-93472778D01*
X101146466Y-93556443D01*
X100976627Y-93607963D01*
X100910443Y-93614481D01*
X100844260Y-93621000D01*
X100755740Y-93621000D01*
X100689557Y-93614481D01*
X100623373Y-93607963D01*
X100453534Y-93556443D01*
X100297009Y-93472778D01*
X100247767Y-93432366D01*
X100159814Y-93360186D01*
X100076552Y-93258729D01*
X100047222Y-93222991D01*
X99963557Y-93066466D01*
X99912037Y-92896627D01*
X99894641Y-92720000D01*
X99912037Y-92543373D01*
X99963557Y-92373534D01*
X100047222Y-92217009D01*
X100077930Y-92179591D01*
X100159814Y-92079814D01*
X100261271Y-91996552D01*
X100297009Y-91967222D01*
X100453534Y-91883557D01*
X100623373Y-91832037D01*
X100689557Y-91825519D01*
X100755740Y-91819000D01*
X100844260Y-91819000D01*
X100910443Y-91825519D01*
X100910443Y-91825519D01*
G37*
G36*
X144090443Y-91825519D02*
G01*
X144156627Y-91832037D01*
X144326466Y-91883557D01*
X144482991Y-91967222D01*
X144518729Y-91996552D01*
X144620186Y-92079814D01*
X144702070Y-92179591D01*
X144732778Y-92217009D01*
X144816443Y-92373534D01*
X144867963Y-92543373D01*
X144885359Y-92720000D01*
X144867963Y-92896627D01*
X144816443Y-93066466D01*
X144732778Y-93222991D01*
X144703448Y-93258729D01*
X144620186Y-93360186D01*
X144532233Y-93432366D01*
X144482991Y-93472778D01*
X144326466Y-93556443D01*
X144156627Y-93607963D01*
X144090443Y-93614481D01*
X144024260Y-93621000D01*
X143935740Y-93621000D01*
X143869557Y-93614481D01*
X143803373Y-93607963D01*
X143633534Y-93556443D01*
X143477009Y-93472778D01*
X143427767Y-93432366D01*
X143339814Y-93360186D01*
X143256552Y-93258729D01*
X143227222Y-93222991D01*
X143143557Y-93066466D01*
X143092037Y-92896627D01*
X143074641Y-92720000D01*
X143092037Y-92543373D01*
X143143557Y-92373534D01*
X143227222Y-92217009D01*
X143257930Y-92179591D01*
X143339814Y-92079814D01*
X143441271Y-91996552D01*
X143477009Y-91967222D01*
X143633534Y-91883557D01*
X143803373Y-91832037D01*
X143869557Y-91825519D01*
X143935740Y-91819000D01*
X144024260Y-91819000D01*
X144090443Y-91825519D01*
X144090443Y-91825519D01*
G37*
G36*
X135779591Y-92490585D02*
G01*
X135813569Y-92500893D01*
X135844890Y-92517634D01*
X135872339Y-92540161D01*
X135894866Y-92567610D01*
X135911607Y-92598931D01*
X135921915Y-92632909D01*
X135926000Y-92674390D01*
X135926000Y-93275610D01*
X135921915Y-93317091D01*
X135911607Y-93351069D01*
X135894866Y-93382390D01*
X135872339Y-93409839D01*
X135844890Y-93432366D01*
X135813569Y-93449107D01*
X135779591Y-93459415D01*
X135738110Y-93463500D01*
X135061890Y-93463500D01*
X135020409Y-93459415D01*
X134986431Y-93449107D01*
X134955110Y-93432366D01*
X134927661Y-93409839D01*
X134905134Y-93382390D01*
X134888393Y-93351069D01*
X134878085Y-93317091D01*
X134874000Y-93275610D01*
X134874000Y-92674390D01*
X134878085Y-92632909D01*
X134888393Y-92598931D01*
X134905134Y-92567610D01*
X134927661Y-92540161D01*
X134955110Y-92517634D01*
X134986431Y-92500893D01*
X135020409Y-92490585D01*
X135061890Y-92486500D01*
X135738110Y-92486500D01*
X135779591Y-92490585D01*
X135779591Y-92490585D01*
G37*
G36*
X130701000Y-93451000D02*
G01*
X128999000Y-93451000D01*
X128999000Y-91749000D01*
X130701000Y-91749000D01*
X130701000Y-93451000D01*
X130701000Y-93451000D01*
G37*
G36*
X125701000Y-93451000D02*
G01*
X123999000Y-93451000D01*
X123999000Y-91749000D01*
X125701000Y-91749000D01*
X125701000Y-93451000D01*
X125701000Y-93451000D01*
G37*
G36*
X128201000Y-93451000D02*
G01*
X126499000Y-93451000D01*
X126499000Y-91749000D01*
X128201000Y-91749000D01*
X128201000Y-93451000D01*
X128201000Y-93451000D01*
G37*
G36*
X117767091Y-91278085D02*
G01*
X117801069Y-91288393D01*
X117832390Y-91305134D01*
X117859839Y-91327661D01*
X117882366Y-91355110D01*
X117899107Y-91386431D01*
X117909415Y-91420409D01*
X117913500Y-91461890D01*
X117913500Y-92138110D01*
X117909415Y-92179591D01*
X117899107Y-92213569D01*
X117882366Y-92244890D01*
X117859839Y-92272339D01*
X117832390Y-92294866D01*
X117801069Y-92311607D01*
X117767091Y-92321915D01*
X117725610Y-92326000D01*
X117124390Y-92326000D01*
X117082909Y-92321915D01*
X117048931Y-92311607D01*
X117017610Y-92294866D01*
X116990161Y-92272339D01*
X116967634Y-92244890D01*
X116950893Y-92213569D01*
X116940585Y-92179591D01*
X116936500Y-92138110D01*
X116936500Y-91461890D01*
X116940585Y-91420409D01*
X116950893Y-91386431D01*
X116967634Y-91355110D01*
X116990161Y-91327661D01*
X117017610Y-91305134D01*
X117048931Y-91288393D01*
X117082909Y-91278085D01*
X117124390Y-91274000D01*
X117725610Y-91274000D01*
X117767091Y-91278085D01*
X117767091Y-91278085D01*
G37*
G36*
X119342091Y-91278085D02*
G01*
X119376069Y-91288393D01*
X119407390Y-91305134D01*
X119434839Y-91327661D01*
X119457366Y-91355110D01*
X119474107Y-91386431D01*
X119484415Y-91420409D01*
X119488500Y-91461890D01*
X119488500Y-92138110D01*
X119484415Y-92179591D01*
X119474107Y-92213569D01*
X119457366Y-92244890D01*
X119434839Y-92272339D01*
X119407390Y-92294866D01*
X119376069Y-92311607D01*
X119342091Y-92321915D01*
X119300610Y-92326000D01*
X118699390Y-92326000D01*
X118657909Y-92321915D01*
X118623931Y-92311607D01*
X118592610Y-92294866D01*
X118565161Y-92272339D01*
X118542634Y-92244890D01*
X118525893Y-92213569D01*
X118515585Y-92179591D01*
X118511500Y-92138110D01*
X118511500Y-91461890D01*
X118515585Y-91420409D01*
X118525893Y-91386431D01*
X118542634Y-91355110D01*
X118565161Y-91327661D01*
X118592610Y-91305134D01*
X118623931Y-91288393D01*
X118657909Y-91278085D01*
X118699390Y-91274000D01*
X119300610Y-91274000D01*
X119342091Y-91278085D01*
X119342091Y-91278085D01*
G37*
G36*
X135779591Y-90915585D02*
G01*
X135813569Y-90925893D01*
X135844890Y-90942634D01*
X135872339Y-90965161D01*
X135894866Y-90992610D01*
X135911607Y-91023931D01*
X135921915Y-91057909D01*
X135926000Y-91099390D01*
X135926000Y-91700610D01*
X135921915Y-91742091D01*
X135911607Y-91776069D01*
X135894866Y-91807390D01*
X135872339Y-91834839D01*
X135844890Y-91857366D01*
X135813569Y-91874107D01*
X135779591Y-91884415D01*
X135738110Y-91888500D01*
X135061890Y-91888500D01*
X135020409Y-91884415D01*
X134986431Y-91874107D01*
X134955110Y-91857366D01*
X134927661Y-91834839D01*
X134905134Y-91807390D01*
X134888393Y-91776069D01*
X134878085Y-91742091D01*
X134874000Y-91700610D01*
X134874000Y-91099390D01*
X134878085Y-91057909D01*
X134888393Y-91023931D01*
X134905134Y-90992610D01*
X134927661Y-90965161D01*
X134955110Y-90942634D01*
X134986431Y-90925893D01*
X135020409Y-90915585D01*
X135061890Y-90911500D01*
X135738110Y-90911500D01*
X135779591Y-90915585D01*
X135779591Y-90915585D01*
G37*
G36*
X144090442Y-89285518D02*
G01*
X144156627Y-89292037D01*
X144326466Y-89343557D01*
X144482991Y-89427222D01*
X144518729Y-89456552D01*
X144620186Y-89539814D01*
X144677570Y-89609738D01*
X144732778Y-89677009D01*
X144732779Y-89677011D01*
X144809428Y-89820409D01*
X144816443Y-89833534D01*
X144867963Y-90003373D01*
X144885359Y-90180000D01*
X144867963Y-90356627D01*
X144816443Y-90526466D01*
X144732778Y-90682991D01*
X144723032Y-90694866D01*
X144620186Y-90820186D01*
X144521712Y-90901000D01*
X144482991Y-90932778D01*
X144326466Y-91016443D01*
X144156627Y-91067963D01*
X144090443Y-91074481D01*
X144024260Y-91081000D01*
X143935740Y-91081000D01*
X143869557Y-91074481D01*
X143803373Y-91067963D01*
X143633534Y-91016443D01*
X143477009Y-90932778D01*
X143438288Y-90901000D01*
X143339814Y-90820186D01*
X143236968Y-90694866D01*
X143227222Y-90682991D01*
X143143557Y-90526466D01*
X143092037Y-90356627D01*
X143074641Y-90180000D01*
X143092037Y-90003373D01*
X143143557Y-89833534D01*
X143150573Y-89820409D01*
X143227221Y-89677011D01*
X143227222Y-89677009D01*
X143282430Y-89609738D01*
X143339814Y-89539814D01*
X143441271Y-89456552D01*
X143477009Y-89427222D01*
X143633534Y-89343557D01*
X143803373Y-89292037D01*
X143869558Y-89285518D01*
X143935740Y-89279000D01*
X144024260Y-89279000D01*
X144090442Y-89285518D01*
X144090442Y-89285518D01*
G37*
G36*
X100910442Y-89285518D02*
G01*
X100976627Y-89292037D01*
X101146466Y-89343557D01*
X101302991Y-89427222D01*
X101338729Y-89456552D01*
X101440186Y-89539814D01*
X101497570Y-89609738D01*
X101552778Y-89677009D01*
X101552779Y-89677011D01*
X101629428Y-89820409D01*
X101636443Y-89833534D01*
X101687963Y-90003373D01*
X101705359Y-90180000D01*
X101687963Y-90356627D01*
X101636443Y-90526466D01*
X101552778Y-90682991D01*
X101543032Y-90694866D01*
X101440186Y-90820186D01*
X101341712Y-90901000D01*
X101302991Y-90932778D01*
X101146466Y-91016443D01*
X100976627Y-91067963D01*
X100910443Y-91074481D01*
X100844260Y-91081000D01*
X100755740Y-91081000D01*
X100689557Y-91074481D01*
X100623373Y-91067963D01*
X100453534Y-91016443D01*
X100297009Y-90932778D01*
X100258288Y-90901000D01*
X100159814Y-90820186D01*
X100056968Y-90694866D01*
X100047222Y-90682991D01*
X99963557Y-90526466D01*
X99912037Y-90356627D01*
X99894641Y-90180000D01*
X99912037Y-90003373D01*
X99963557Y-89833534D01*
X99970573Y-89820409D01*
X100047221Y-89677011D01*
X100047222Y-89677009D01*
X100102430Y-89609738D01*
X100159814Y-89539814D01*
X100261271Y-89456552D01*
X100297009Y-89427222D01*
X100453534Y-89343557D01*
X100623373Y-89292037D01*
X100689558Y-89285518D01*
X100755740Y-89279000D01*
X100844260Y-89279000D01*
X100910442Y-89285518D01*
X100910442Y-89285518D01*
G37*
G36*
X130701000Y-90951000D02*
G01*
X128999000Y-90951000D01*
X128999000Y-89249000D01*
X130701000Y-89249000D01*
X130701000Y-90951000D01*
X130701000Y-90951000D01*
G37*
G36*
X128201000Y-90951000D02*
G01*
X126499000Y-90951000D01*
X126499000Y-89249000D01*
X128201000Y-89249000D01*
X128201000Y-90951000D01*
X128201000Y-90951000D01*
G37*
G36*
X119342091Y-89678085D02*
G01*
X119376069Y-89688393D01*
X119407390Y-89705134D01*
X119434839Y-89727661D01*
X119457366Y-89755110D01*
X119474107Y-89786431D01*
X119484415Y-89820409D01*
X119488500Y-89861890D01*
X119488500Y-90538110D01*
X119484415Y-90579591D01*
X119474107Y-90613569D01*
X119457366Y-90644890D01*
X119434839Y-90672339D01*
X119407390Y-90694866D01*
X119376069Y-90711607D01*
X119342091Y-90721915D01*
X119300610Y-90726000D01*
X118699390Y-90726000D01*
X118657909Y-90721915D01*
X118623931Y-90711607D01*
X118592610Y-90694866D01*
X118565161Y-90672339D01*
X118542634Y-90644890D01*
X118525893Y-90613569D01*
X118515585Y-90579591D01*
X118511500Y-90538110D01*
X118511500Y-89861890D01*
X118515585Y-89820409D01*
X118525893Y-89786431D01*
X118542634Y-89755110D01*
X118565161Y-89727661D01*
X118592610Y-89705134D01*
X118623931Y-89688393D01*
X118657909Y-89678085D01*
X118699390Y-89674000D01*
X119300610Y-89674000D01*
X119342091Y-89678085D01*
X119342091Y-89678085D01*
G37*
G36*
X117767091Y-89678085D02*
G01*
X117801069Y-89688393D01*
X117832390Y-89705134D01*
X117859839Y-89727661D01*
X117882366Y-89755110D01*
X117899107Y-89786431D01*
X117909415Y-89820409D01*
X117913500Y-89861890D01*
X117913500Y-90538110D01*
X117909415Y-90579591D01*
X117899107Y-90613569D01*
X117882366Y-90644890D01*
X117859839Y-90672339D01*
X117832390Y-90694866D01*
X117801069Y-90711607D01*
X117767091Y-90721915D01*
X117725610Y-90726000D01*
X117124390Y-90726000D01*
X117082909Y-90721915D01*
X117048931Y-90711607D01*
X117017610Y-90694866D01*
X116990161Y-90672339D01*
X116967634Y-90644890D01*
X116950893Y-90613569D01*
X116940585Y-90579591D01*
X116936500Y-90538110D01*
X116936500Y-89861890D01*
X116940585Y-89820409D01*
X116950893Y-89786431D01*
X116967634Y-89755110D01*
X116990161Y-89727661D01*
X117017610Y-89705134D01*
X117048931Y-89688393D01*
X117082909Y-89678085D01*
X117124390Y-89674000D01*
X117725610Y-89674000D01*
X117767091Y-89678085D01*
X117767091Y-89678085D01*
G37*
G36*
X125301000Y-90551000D02*
G01*
X124399000Y-90551000D01*
X124399000Y-89649000D01*
X125301000Y-89649000D01*
X125301000Y-90551000D01*
X125301000Y-90551000D01*
G37*
G36*
X111164928Y-88051764D02*
G01*
X111186009Y-88058160D01*
X111205445Y-88068548D01*
X111222476Y-88082524D01*
X111236452Y-88099555D01*
X111246840Y-88118991D01*
X111253236Y-88140072D01*
X111256000Y-88168140D01*
X111256000Y-89631860D01*
X111253236Y-89659928D01*
X111246840Y-89681009D01*
X111236452Y-89700445D01*
X111222476Y-89717476D01*
X111205445Y-89731452D01*
X111186009Y-89741840D01*
X111164928Y-89748236D01*
X111136860Y-89751000D01*
X110673140Y-89751000D01*
X110645072Y-89748236D01*
X110623991Y-89741840D01*
X110604555Y-89731452D01*
X110587524Y-89717476D01*
X110573548Y-89700445D01*
X110563160Y-89681009D01*
X110556764Y-89659928D01*
X110554000Y-89631860D01*
X110554000Y-88168140D01*
X110556764Y-88140072D01*
X110563160Y-88118991D01*
X110573548Y-88099555D01*
X110587524Y-88082524D01*
X110604555Y-88068548D01*
X110623991Y-88058160D01*
X110645072Y-88051764D01*
X110673140Y-88049000D01*
X111136860Y-88049000D01*
X111164928Y-88051764D01*
X111164928Y-88051764D01*
G37*
G36*
X107354928Y-88051764D02*
G01*
X107376009Y-88058160D01*
X107395445Y-88068548D01*
X107412476Y-88082524D01*
X107426452Y-88099555D01*
X107436840Y-88118991D01*
X107443236Y-88140072D01*
X107446000Y-88168140D01*
X107446000Y-89631860D01*
X107443236Y-89659928D01*
X107436840Y-89681009D01*
X107426452Y-89700445D01*
X107412476Y-89717476D01*
X107395445Y-89731452D01*
X107376009Y-89741840D01*
X107354928Y-89748236D01*
X107326860Y-89751000D01*
X106863140Y-89751000D01*
X106835072Y-89748236D01*
X106813991Y-89741840D01*
X106794555Y-89731452D01*
X106777524Y-89717476D01*
X106763548Y-89700445D01*
X106753160Y-89681009D01*
X106746764Y-89659928D01*
X106744000Y-89631860D01*
X106744000Y-88168140D01*
X106746764Y-88140072D01*
X106753160Y-88118991D01*
X106763548Y-88099555D01*
X106777524Y-88082524D01*
X106794555Y-88068548D01*
X106813991Y-88058160D01*
X106835072Y-88051764D01*
X106863140Y-88049000D01*
X107326860Y-88049000D01*
X107354928Y-88051764D01*
X107354928Y-88051764D01*
G37*
G36*
X108624928Y-88051764D02*
G01*
X108646009Y-88058160D01*
X108665445Y-88068548D01*
X108682476Y-88082524D01*
X108696452Y-88099555D01*
X108706840Y-88118991D01*
X108713236Y-88140072D01*
X108716000Y-88168140D01*
X108716000Y-89631860D01*
X108713236Y-89659928D01*
X108706840Y-89681009D01*
X108696452Y-89700445D01*
X108682476Y-89717476D01*
X108665445Y-89731452D01*
X108646009Y-89741840D01*
X108624928Y-89748236D01*
X108596860Y-89751000D01*
X108133140Y-89751000D01*
X108105072Y-89748236D01*
X108083991Y-89741840D01*
X108064555Y-89731452D01*
X108047524Y-89717476D01*
X108033548Y-89700445D01*
X108023160Y-89681009D01*
X108016764Y-89659928D01*
X108014000Y-89631860D01*
X108014000Y-88168140D01*
X108016764Y-88140072D01*
X108023160Y-88118991D01*
X108033548Y-88099555D01*
X108047524Y-88082524D01*
X108064555Y-88068548D01*
X108083991Y-88058160D01*
X108105072Y-88051764D01*
X108133140Y-88049000D01*
X108596860Y-88049000D01*
X108624928Y-88051764D01*
X108624928Y-88051764D01*
G37*
G36*
X109894928Y-88051764D02*
G01*
X109916009Y-88058160D01*
X109935445Y-88068548D01*
X109952476Y-88082524D01*
X109966452Y-88099555D01*
X109976840Y-88118991D01*
X109983236Y-88140072D01*
X109986000Y-88168140D01*
X109986000Y-89631860D01*
X109983236Y-89659928D01*
X109976840Y-89681009D01*
X109966452Y-89700445D01*
X109952476Y-89717476D01*
X109935445Y-89731452D01*
X109916009Y-89741840D01*
X109894928Y-89748236D01*
X109866860Y-89751000D01*
X109403140Y-89751000D01*
X109375072Y-89748236D01*
X109353991Y-89741840D01*
X109334555Y-89731452D01*
X109317524Y-89717476D01*
X109303548Y-89700445D01*
X109293160Y-89681009D01*
X109286764Y-89659928D01*
X109284000Y-89631860D01*
X109284000Y-88168140D01*
X109286764Y-88140072D01*
X109293160Y-88118991D01*
X109303548Y-88099555D01*
X109317524Y-88082524D01*
X109334555Y-88068548D01*
X109353991Y-88058160D01*
X109375072Y-88051764D01*
X109403140Y-88049000D01*
X109866860Y-88049000D01*
X109894928Y-88051764D01*
X109894928Y-88051764D01*
G37*
G36*
X117779591Y-88115585D02*
G01*
X117813569Y-88125893D01*
X117844890Y-88142634D01*
X117872339Y-88165161D01*
X117894866Y-88192610D01*
X117911607Y-88223931D01*
X117921915Y-88257909D01*
X117926000Y-88299390D01*
X117926000Y-88900610D01*
X117921915Y-88942091D01*
X117911607Y-88976069D01*
X117894866Y-89007390D01*
X117872339Y-89034839D01*
X117844890Y-89057366D01*
X117813569Y-89074107D01*
X117779591Y-89084415D01*
X117738110Y-89088500D01*
X117061890Y-89088500D01*
X117020409Y-89084415D01*
X116986431Y-89074107D01*
X116955110Y-89057366D01*
X116927661Y-89034839D01*
X116905134Y-89007390D01*
X116888393Y-88976069D01*
X116878085Y-88942091D01*
X116874000Y-88900610D01*
X116874000Y-88299390D01*
X116878085Y-88257909D01*
X116888393Y-88223931D01*
X116905134Y-88192610D01*
X116927661Y-88165161D01*
X116955110Y-88142634D01*
X116986431Y-88125893D01*
X117020409Y-88115585D01*
X117061890Y-88111500D01*
X117738110Y-88111500D01*
X117779591Y-88115585D01*
X117779591Y-88115585D01*
G37*
G36*
X119379591Y-88115585D02*
G01*
X119413569Y-88125893D01*
X119444890Y-88142634D01*
X119472339Y-88165161D01*
X119494866Y-88192610D01*
X119511607Y-88223931D01*
X119521915Y-88257909D01*
X119526000Y-88299390D01*
X119526000Y-88900610D01*
X119521915Y-88942091D01*
X119511607Y-88976069D01*
X119494866Y-89007390D01*
X119472339Y-89034839D01*
X119444890Y-89057366D01*
X119413569Y-89074107D01*
X119379591Y-89084415D01*
X119338110Y-89088500D01*
X118661890Y-89088500D01*
X118620409Y-89084415D01*
X118586431Y-89074107D01*
X118555110Y-89057366D01*
X118527661Y-89034839D01*
X118505134Y-89007390D01*
X118488393Y-88976069D01*
X118478085Y-88942091D01*
X118474000Y-88900610D01*
X118474000Y-88299390D01*
X118478085Y-88257909D01*
X118488393Y-88223931D01*
X118505134Y-88192610D01*
X118527661Y-88165161D01*
X118555110Y-88142634D01*
X118586431Y-88125893D01*
X118620409Y-88115585D01*
X118661890Y-88111500D01*
X119338110Y-88111500D01*
X119379591Y-88115585D01*
X119379591Y-88115585D01*
G37*
G36*
X100910443Y-86745519D02*
G01*
X100976627Y-86752037D01*
X101146466Y-86803557D01*
X101302991Y-86887222D01*
X101338729Y-86916552D01*
X101440186Y-86999814D01*
X101502069Y-87075220D01*
X101552778Y-87137009D01*
X101636443Y-87293534D01*
X101687963Y-87463373D01*
X101705359Y-87640000D01*
X101687963Y-87816627D01*
X101636443Y-87986466D01*
X101552778Y-88142991D01*
X101523448Y-88178729D01*
X101440186Y-88280186D01*
X101338729Y-88363448D01*
X101302991Y-88392778D01*
X101146466Y-88476443D01*
X100976627Y-88527963D01*
X100910443Y-88534481D01*
X100844260Y-88541000D01*
X100755740Y-88541000D01*
X100689557Y-88534481D01*
X100623373Y-88527963D01*
X100453534Y-88476443D01*
X100297009Y-88392778D01*
X100261271Y-88363448D01*
X100159814Y-88280186D01*
X100076552Y-88178729D01*
X100047222Y-88142991D01*
X99963557Y-87986466D01*
X99912037Y-87816627D01*
X99894641Y-87640000D01*
X99912037Y-87463373D01*
X99963557Y-87293534D01*
X100047222Y-87137009D01*
X100097931Y-87075220D01*
X100159814Y-86999814D01*
X100261271Y-86916552D01*
X100297009Y-86887222D01*
X100453534Y-86803557D01*
X100623373Y-86752037D01*
X100689557Y-86745519D01*
X100755740Y-86739000D01*
X100844260Y-86739000D01*
X100910443Y-86745519D01*
X100910443Y-86745519D01*
G37*
G36*
X144090443Y-86745519D02*
G01*
X144156627Y-86752037D01*
X144326466Y-86803557D01*
X144482991Y-86887222D01*
X144518729Y-86916552D01*
X144620186Y-86999814D01*
X144682069Y-87075220D01*
X144732778Y-87137009D01*
X144816443Y-87293534D01*
X144867963Y-87463373D01*
X144885359Y-87640000D01*
X144867963Y-87816627D01*
X144816443Y-87986466D01*
X144732778Y-88142991D01*
X144703448Y-88178729D01*
X144620186Y-88280186D01*
X144518729Y-88363448D01*
X144482991Y-88392778D01*
X144326466Y-88476443D01*
X144156627Y-88527963D01*
X144090443Y-88534481D01*
X144024260Y-88541000D01*
X143935740Y-88541000D01*
X143869557Y-88534481D01*
X143803373Y-88527963D01*
X143633534Y-88476443D01*
X143477009Y-88392778D01*
X143441271Y-88363448D01*
X143339814Y-88280186D01*
X143256552Y-88178729D01*
X143227222Y-88142991D01*
X143143557Y-87986466D01*
X143092037Y-87816627D01*
X143074641Y-87640000D01*
X143092037Y-87463373D01*
X143143557Y-87293534D01*
X143227222Y-87137009D01*
X143277931Y-87075220D01*
X143339814Y-86999814D01*
X143441271Y-86916552D01*
X143477009Y-86887222D01*
X143633534Y-86803557D01*
X143803373Y-86752037D01*
X143869557Y-86745519D01*
X143935740Y-86739000D01*
X144024260Y-86739000D01*
X144090443Y-86745519D01*
X144090443Y-86745519D01*
G37*
G36*
X132051000Y-87851000D02*
G01*
X122649000Y-87851000D01*
X122649000Y-86949000D01*
X132051000Y-86949000D01*
X132051000Y-87851000D01*
X132051000Y-87851000D01*
G37*
G36*
X119379591Y-86540585D02*
G01*
X119413569Y-86550893D01*
X119444890Y-86567634D01*
X119472339Y-86590161D01*
X119494866Y-86617610D01*
X119511607Y-86648931D01*
X119521915Y-86682909D01*
X119526000Y-86724390D01*
X119526000Y-87325610D01*
X119521915Y-87367091D01*
X119511607Y-87401069D01*
X119494866Y-87432390D01*
X119472339Y-87459839D01*
X119444890Y-87482366D01*
X119413569Y-87499107D01*
X119379591Y-87509415D01*
X119338110Y-87513500D01*
X118661890Y-87513500D01*
X118620409Y-87509415D01*
X118586431Y-87499107D01*
X118555110Y-87482366D01*
X118527661Y-87459839D01*
X118505134Y-87432390D01*
X118488393Y-87401069D01*
X118478085Y-87367091D01*
X118474000Y-87325610D01*
X118474000Y-86724390D01*
X118478085Y-86682909D01*
X118488393Y-86648931D01*
X118505134Y-86617610D01*
X118527661Y-86590161D01*
X118555110Y-86567634D01*
X118586431Y-86550893D01*
X118620409Y-86540585D01*
X118661890Y-86536500D01*
X119338110Y-86536500D01*
X119379591Y-86540585D01*
X119379591Y-86540585D01*
G37*
G36*
X117779591Y-86540585D02*
G01*
X117813569Y-86550893D01*
X117844890Y-86567634D01*
X117872339Y-86590161D01*
X117894866Y-86617610D01*
X117911607Y-86648931D01*
X117921915Y-86682909D01*
X117926000Y-86724390D01*
X117926000Y-87325610D01*
X117921915Y-87367091D01*
X117911607Y-87401069D01*
X117894866Y-87432390D01*
X117872339Y-87459839D01*
X117844890Y-87482366D01*
X117813569Y-87499107D01*
X117779591Y-87509415D01*
X117738110Y-87513500D01*
X117061890Y-87513500D01*
X117020409Y-87509415D01*
X116986431Y-87499107D01*
X116955110Y-87482366D01*
X116927661Y-87459839D01*
X116905134Y-87432390D01*
X116888393Y-87401069D01*
X116878085Y-87367091D01*
X116874000Y-87325610D01*
X116874000Y-86724390D01*
X116878085Y-86682909D01*
X116888393Y-86648931D01*
X116905134Y-86617610D01*
X116927661Y-86590161D01*
X116955110Y-86567634D01*
X116986431Y-86550893D01*
X117020409Y-86540585D01*
X117061890Y-86536500D01*
X117738110Y-86536500D01*
X117779591Y-86540585D01*
X117779591Y-86540585D01*
G37*
G36*
X110142091Y-86178085D02*
G01*
X110176069Y-86188393D01*
X110207390Y-86205134D01*
X110234839Y-86227661D01*
X110257366Y-86255110D01*
X110274107Y-86286431D01*
X110284415Y-86320409D01*
X110288500Y-86361890D01*
X110288500Y-87038110D01*
X110284415Y-87079591D01*
X110274107Y-87113569D01*
X110257366Y-87144890D01*
X110234839Y-87172339D01*
X110207390Y-87194866D01*
X110176069Y-87211607D01*
X110142091Y-87221915D01*
X110100610Y-87226000D01*
X109499390Y-87226000D01*
X109457909Y-87221915D01*
X109423931Y-87211607D01*
X109392610Y-87194866D01*
X109365161Y-87172339D01*
X109342634Y-87144890D01*
X109325893Y-87113569D01*
X109315585Y-87079591D01*
X109311500Y-87038110D01*
X109311500Y-86361890D01*
X109315585Y-86320409D01*
X109325893Y-86286431D01*
X109342634Y-86255110D01*
X109365161Y-86227661D01*
X109392610Y-86205134D01*
X109423931Y-86188393D01*
X109457909Y-86178085D01*
X109499390Y-86174000D01*
X110100610Y-86174000D01*
X110142091Y-86178085D01*
X110142091Y-86178085D01*
G37*
G36*
X111717091Y-86178085D02*
G01*
X111751069Y-86188393D01*
X111782390Y-86205134D01*
X111809839Y-86227661D01*
X111832366Y-86255110D01*
X111849107Y-86286431D01*
X111859415Y-86320409D01*
X111863500Y-86361890D01*
X111863500Y-87038110D01*
X111859415Y-87079591D01*
X111849107Y-87113569D01*
X111832366Y-87144890D01*
X111809839Y-87172339D01*
X111782390Y-87194866D01*
X111751069Y-87211607D01*
X111717091Y-87221915D01*
X111675610Y-87226000D01*
X111074390Y-87226000D01*
X111032909Y-87221915D01*
X110998931Y-87211607D01*
X110967610Y-87194866D01*
X110940161Y-87172339D01*
X110917634Y-87144890D01*
X110900893Y-87113569D01*
X110890585Y-87079591D01*
X110886500Y-87038110D01*
X110886500Y-86361890D01*
X110890585Y-86320409D01*
X110900893Y-86286431D01*
X110917634Y-86255110D01*
X110940161Y-86227661D01*
X110967610Y-86205134D01*
X110998931Y-86188393D01*
X111032909Y-86178085D01*
X111074390Y-86174000D01*
X111675610Y-86174000D01*
X111717091Y-86178085D01*
X111717091Y-86178085D01*
G37*
G36*
X144090443Y-84205519D02*
G01*
X144156627Y-84212037D01*
X144326466Y-84263557D01*
X144482991Y-84347222D01*
X144518729Y-84376552D01*
X144620186Y-84459814D01*
X144703448Y-84561271D01*
X144732778Y-84597009D01*
X144732779Y-84597011D01*
X144802614Y-84727661D01*
X144816443Y-84753534D01*
X144867963Y-84923373D01*
X144885359Y-85100000D01*
X144867963Y-85276627D01*
X144816443Y-85446466D01*
X144732778Y-85602991D01*
X144720913Y-85617448D01*
X144620186Y-85740186D01*
X144518729Y-85823448D01*
X144482991Y-85852778D01*
X144326466Y-85936443D01*
X144156627Y-85987963D01*
X144090442Y-85994482D01*
X144024260Y-86001000D01*
X143935740Y-86001000D01*
X143869558Y-85994482D01*
X143803373Y-85987963D01*
X143633534Y-85936443D01*
X143477009Y-85852778D01*
X143441271Y-85823448D01*
X143339814Y-85740186D01*
X143239087Y-85617448D01*
X143227222Y-85602991D01*
X143143557Y-85446466D01*
X143092037Y-85276627D01*
X143074641Y-85100000D01*
X143092037Y-84923373D01*
X143143557Y-84753534D01*
X143157387Y-84727661D01*
X143227221Y-84597011D01*
X143227222Y-84597009D01*
X143256552Y-84561271D01*
X143339814Y-84459814D01*
X143441271Y-84376552D01*
X143477009Y-84347222D01*
X143633534Y-84263557D01*
X143803373Y-84212037D01*
X143869557Y-84205519D01*
X143935740Y-84199000D01*
X144024260Y-84199000D01*
X144090443Y-84205519D01*
X144090443Y-84205519D01*
G37*
G36*
X100910443Y-84205519D02*
G01*
X100976627Y-84212037D01*
X101146466Y-84263557D01*
X101302991Y-84347222D01*
X101338729Y-84376552D01*
X101440186Y-84459814D01*
X101523448Y-84561271D01*
X101552778Y-84597009D01*
X101552779Y-84597011D01*
X101622614Y-84727661D01*
X101636443Y-84753534D01*
X101687963Y-84923373D01*
X101705359Y-85100000D01*
X101687963Y-85276627D01*
X101636443Y-85446466D01*
X101552778Y-85602991D01*
X101540913Y-85617448D01*
X101440186Y-85740186D01*
X101338729Y-85823448D01*
X101302991Y-85852778D01*
X101146466Y-85936443D01*
X100976627Y-85987963D01*
X100910442Y-85994482D01*
X100844260Y-86001000D01*
X100755740Y-86001000D01*
X100689558Y-85994482D01*
X100623373Y-85987963D01*
X100453534Y-85936443D01*
X100297009Y-85852778D01*
X100261271Y-85823448D01*
X100159814Y-85740186D01*
X100059087Y-85617448D01*
X100047222Y-85602991D01*
X99963557Y-85446466D01*
X99912037Y-85276627D01*
X99894641Y-85100000D01*
X99912037Y-84923373D01*
X99963557Y-84753534D01*
X99977387Y-84727661D01*
X100047221Y-84597011D01*
X100047222Y-84597009D01*
X100076552Y-84561271D01*
X100159814Y-84459814D01*
X100261271Y-84376552D01*
X100297009Y-84347222D01*
X100453534Y-84263557D01*
X100623373Y-84212037D01*
X100689557Y-84205519D01*
X100755740Y-84199000D01*
X100844260Y-84199000D01*
X100910443Y-84205519D01*
X100910443Y-84205519D01*
G37*
G36*
X126942091Y-84678085D02*
G01*
X126976069Y-84688393D01*
X127007390Y-84705134D01*
X127034839Y-84727661D01*
X127057366Y-84755110D01*
X127074107Y-84786431D01*
X127084415Y-84820409D01*
X127088500Y-84861890D01*
X127088500Y-85538110D01*
X127084415Y-85579591D01*
X127074107Y-85613569D01*
X127057366Y-85644890D01*
X127034839Y-85672339D01*
X127007390Y-85694866D01*
X126976069Y-85711607D01*
X126942091Y-85721915D01*
X126900610Y-85726000D01*
X126299390Y-85726000D01*
X126257909Y-85721915D01*
X126223931Y-85711607D01*
X126192610Y-85694866D01*
X126165161Y-85672339D01*
X126142634Y-85644890D01*
X126125893Y-85613569D01*
X126115585Y-85579591D01*
X126111500Y-85538110D01*
X126111500Y-84861890D01*
X126115585Y-84820409D01*
X126125893Y-84786431D01*
X126142634Y-84755110D01*
X126165161Y-84727661D01*
X126192610Y-84705134D01*
X126223931Y-84688393D01*
X126257909Y-84678085D01*
X126299390Y-84674000D01*
X126900610Y-84674000D01*
X126942091Y-84678085D01*
X126942091Y-84678085D01*
G37*
G36*
X125367091Y-84678085D02*
G01*
X125401069Y-84688393D01*
X125432390Y-84705134D01*
X125459839Y-84727661D01*
X125482366Y-84755110D01*
X125499107Y-84786431D01*
X125509415Y-84820409D01*
X125513500Y-84861890D01*
X125513500Y-85538110D01*
X125509415Y-85579591D01*
X125499107Y-85613569D01*
X125482366Y-85644890D01*
X125459839Y-85672339D01*
X125432390Y-85694866D01*
X125401069Y-85711607D01*
X125367091Y-85721915D01*
X125325610Y-85726000D01*
X124724390Y-85726000D01*
X124682909Y-85721915D01*
X124648931Y-85711607D01*
X124617610Y-85694866D01*
X124590161Y-85672339D01*
X124567634Y-85644890D01*
X124550893Y-85613569D01*
X124540585Y-85579591D01*
X124536500Y-85538110D01*
X124536500Y-84861890D01*
X124540585Y-84820409D01*
X124550893Y-84786431D01*
X124567634Y-84755110D01*
X124590161Y-84727661D01*
X124617610Y-84705134D01*
X124648931Y-84688393D01*
X124682909Y-84678085D01*
X124724390Y-84674000D01*
X125325610Y-84674000D01*
X125367091Y-84678085D01*
X125367091Y-84678085D01*
G37*
G36*
X144090442Y-81665518D02*
G01*
X144156627Y-81672037D01*
X144326466Y-81723557D01*
X144482991Y-81807222D01*
X144518729Y-81836552D01*
X144620186Y-81919814D01*
X144703448Y-82021271D01*
X144732778Y-82057009D01*
X144816443Y-82213534D01*
X144867963Y-82383373D01*
X144885359Y-82560000D01*
X144867963Y-82736627D01*
X144816443Y-82906466D01*
X144732778Y-83062991D01*
X144703448Y-83098729D01*
X144620186Y-83200186D01*
X144518729Y-83283448D01*
X144482991Y-83312778D01*
X144326466Y-83396443D01*
X144156627Y-83447963D01*
X144090442Y-83454482D01*
X144024260Y-83461000D01*
X143935740Y-83461000D01*
X143869558Y-83454482D01*
X143803373Y-83447963D01*
X143633534Y-83396443D01*
X143477009Y-83312778D01*
X143441271Y-83283448D01*
X143339814Y-83200186D01*
X143256552Y-83098729D01*
X143227222Y-83062991D01*
X143143557Y-82906466D01*
X143092037Y-82736627D01*
X143074641Y-82560000D01*
X143092037Y-82383373D01*
X143143557Y-82213534D01*
X143227222Y-82057009D01*
X143256552Y-82021271D01*
X143339814Y-81919814D01*
X143441271Y-81836552D01*
X143477009Y-81807222D01*
X143633534Y-81723557D01*
X143803373Y-81672037D01*
X143869558Y-81665518D01*
X143935740Y-81659000D01*
X144024260Y-81659000D01*
X144090442Y-81665518D01*
X144090442Y-81665518D01*
G37*
G36*
X100910442Y-81665518D02*
G01*
X100976627Y-81672037D01*
X101146466Y-81723557D01*
X101302991Y-81807222D01*
X101338729Y-81836552D01*
X101440186Y-81919814D01*
X101523448Y-82021271D01*
X101552778Y-82057009D01*
X101636443Y-82213534D01*
X101687963Y-82383373D01*
X101705359Y-82560000D01*
X101687963Y-82736627D01*
X101636443Y-82906466D01*
X101552778Y-83062991D01*
X101523448Y-83098729D01*
X101440186Y-83200186D01*
X101338729Y-83283448D01*
X101302991Y-83312778D01*
X101146466Y-83396443D01*
X100976627Y-83447963D01*
X100910442Y-83454482D01*
X100844260Y-83461000D01*
X100755740Y-83461000D01*
X100689558Y-83454482D01*
X100623373Y-83447963D01*
X100453534Y-83396443D01*
X100297009Y-83312778D01*
X100261271Y-83283448D01*
X100159814Y-83200186D01*
X100076552Y-83098729D01*
X100047222Y-83062991D01*
X99963557Y-82906466D01*
X99912037Y-82736627D01*
X99894641Y-82560000D01*
X99912037Y-82383373D01*
X99963557Y-82213534D01*
X100047222Y-82057009D01*
X100076552Y-82021271D01*
X100159814Y-81919814D01*
X100261271Y-81836552D01*
X100297009Y-81807222D01*
X100453534Y-81723557D01*
X100623373Y-81672037D01*
X100689558Y-81665518D01*
X100755740Y-81659000D01*
X100844260Y-81659000D01*
X100910442Y-81665518D01*
X100910442Y-81665518D01*
G37*
G36*
X101701000Y-80921000D02*
G01*
X99899000Y-80921000D01*
X99899000Y-79119000D01*
X101701000Y-79119000D01*
X101701000Y-80921000D01*
X101701000Y-80921000D01*
G37*
G36*
X144881000Y-80921000D02*
G01*
X143079000Y-80921000D01*
X143079000Y-79119000D01*
X144881000Y-79119000D01*
X144881000Y-80921000D01*
X144881000Y-80921000D01*
G37*
G36*
X123361000Y-76901000D02*
G01*
X121559000Y-76901000D01*
X121559000Y-75099000D01*
X123361000Y-75099000D01*
X123361000Y-76901000D01*
X123361000Y-76901000D01*
G37*
G36*
X142310442Y-75105518D02*
G01*
X142376627Y-75112037D01*
X142546466Y-75163557D01*
X142702991Y-75247222D01*
X142738729Y-75276552D01*
X142840186Y-75359814D01*
X142923448Y-75461271D01*
X142952778Y-75497009D01*
X143036443Y-75653534D01*
X143087963Y-75823373D01*
X143105359Y-76000000D01*
X143087963Y-76176627D01*
X143036443Y-76346466D01*
X142952778Y-76502991D01*
X142923448Y-76538729D01*
X142840186Y-76640186D01*
X142738729Y-76723448D01*
X142702991Y-76752778D01*
X142546466Y-76836443D01*
X142376627Y-76887963D01*
X142310442Y-76894482D01*
X142244260Y-76901000D01*
X142155740Y-76901000D01*
X142089558Y-76894482D01*
X142023373Y-76887963D01*
X141853534Y-76836443D01*
X141697009Y-76752778D01*
X141661271Y-76723448D01*
X141559814Y-76640186D01*
X141476552Y-76538729D01*
X141447222Y-76502991D01*
X141363557Y-76346466D01*
X141312037Y-76176627D01*
X141294641Y-76000000D01*
X141312037Y-75823373D01*
X141363557Y-75653534D01*
X141447222Y-75497009D01*
X141476552Y-75461271D01*
X141559814Y-75359814D01*
X141661271Y-75276552D01*
X141697009Y-75247222D01*
X141853534Y-75163557D01*
X142023373Y-75112037D01*
X142089558Y-75105518D01*
X142155740Y-75099000D01*
X142244260Y-75099000D01*
X142310442Y-75105518D01*
X142310442Y-75105518D01*
G37*
G36*
X117990442Y-75105518D02*
G01*
X118056627Y-75112037D01*
X118226466Y-75163557D01*
X118382991Y-75247222D01*
X118418729Y-75276552D01*
X118520186Y-75359814D01*
X118603448Y-75461271D01*
X118632778Y-75497009D01*
X118716443Y-75653534D01*
X118767963Y-75823373D01*
X118785359Y-76000000D01*
X118767963Y-76176627D01*
X118716443Y-76346466D01*
X118632778Y-76502991D01*
X118603448Y-76538729D01*
X118520186Y-76640186D01*
X118418729Y-76723448D01*
X118382991Y-76752778D01*
X118226466Y-76836443D01*
X118056627Y-76887963D01*
X117990442Y-76894482D01*
X117924260Y-76901000D01*
X117835740Y-76901000D01*
X117769558Y-76894482D01*
X117703373Y-76887963D01*
X117533534Y-76836443D01*
X117377009Y-76752778D01*
X117341271Y-76723448D01*
X117239814Y-76640186D01*
X117156552Y-76538729D01*
X117127222Y-76502991D01*
X117043557Y-76346466D01*
X116992037Y-76176627D01*
X116974641Y-76000000D01*
X116992037Y-75823373D01*
X117043557Y-75653534D01*
X117127222Y-75497009D01*
X117156552Y-75461271D01*
X117239814Y-75359814D01*
X117341271Y-75276552D01*
X117377009Y-75247222D01*
X117533534Y-75163557D01*
X117703373Y-75112037D01*
X117769558Y-75105518D01*
X117835740Y-75099000D01*
X117924260Y-75099000D01*
X117990442Y-75105518D01*
X117990442Y-75105518D01*
G37*
G36*
X130401000Y-76901000D02*
G01*
X128599000Y-76901000D01*
X128599000Y-75099000D01*
X130401000Y-75099000D01*
X130401000Y-76901000D01*
X130401000Y-76901000D01*
G37*
G36*
X132150442Y-75105518D02*
G01*
X132216627Y-75112037D01*
X132386466Y-75163557D01*
X132542991Y-75247222D01*
X132578729Y-75276552D01*
X132680186Y-75359814D01*
X132763448Y-75461271D01*
X132792778Y-75497009D01*
X132876443Y-75653534D01*
X132927963Y-75823373D01*
X132945359Y-76000000D01*
X132927963Y-76176627D01*
X132876443Y-76346466D01*
X132792778Y-76502991D01*
X132763448Y-76538729D01*
X132680186Y-76640186D01*
X132578729Y-76723448D01*
X132542991Y-76752778D01*
X132386466Y-76836443D01*
X132216627Y-76887963D01*
X132150442Y-76894482D01*
X132084260Y-76901000D01*
X131995740Y-76901000D01*
X131929558Y-76894482D01*
X131863373Y-76887963D01*
X131693534Y-76836443D01*
X131537009Y-76752778D01*
X131501271Y-76723448D01*
X131399814Y-76640186D01*
X131316552Y-76538729D01*
X131287222Y-76502991D01*
X131203557Y-76346466D01*
X131152037Y-76176627D01*
X131134641Y-76000000D01*
X131152037Y-75823373D01*
X131203557Y-75653534D01*
X131287222Y-75497009D01*
X131316552Y-75461271D01*
X131399814Y-75359814D01*
X131501271Y-75276552D01*
X131537009Y-75247222D01*
X131693534Y-75163557D01*
X131863373Y-75112037D01*
X131929558Y-75105518D01*
X131995740Y-75099000D01*
X132084260Y-75099000D01*
X132150442Y-75105518D01*
X132150442Y-75105518D01*
G37*
G36*
X134690442Y-75105518D02*
G01*
X134756627Y-75112037D01*
X134926466Y-75163557D01*
X135082991Y-75247222D01*
X135118729Y-75276552D01*
X135220186Y-75359814D01*
X135303448Y-75461271D01*
X135332778Y-75497009D01*
X135416443Y-75653534D01*
X135467963Y-75823373D01*
X135485359Y-76000000D01*
X135467963Y-76176627D01*
X135416443Y-76346466D01*
X135332778Y-76502991D01*
X135303448Y-76538729D01*
X135220186Y-76640186D01*
X135118729Y-76723448D01*
X135082991Y-76752778D01*
X134926466Y-76836443D01*
X134756627Y-76887963D01*
X134690442Y-76894482D01*
X134624260Y-76901000D01*
X134535740Y-76901000D01*
X134469558Y-76894482D01*
X134403373Y-76887963D01*
X134233534Y-76836443D01*
X134077009Y-76752778D01*
X134041271Y-76723448D01*
X133939814Y-76640186D01*
X133856552Y-76538729D01*
X133827222Y-76502991D01*
X133743557Y-76346466D01*
X133692037Y-76176627D01*
X133674641Y-76000000D01*
X133692037Y-75823373D01*
X133743557Y-75653534D01*
X133827222Y-75497009D01*
X133856552Y-75461271D01*
X133939814Y-75359814D01*
X134041271Y-75276552D01*
X134077009Y-75247222D01*
X134233534Y-75163557D01*
X134403373Y-75112037D01*
X134469558Y-75105518D01*
X134535740Y-75099000D01*
X134624260Y-75099000D01*
X134690442Y-75105518D01*
X134690442Y-75105518D01*
G37*
G36*
X137230442Y-75105518D02*
G01*
X137296627Y-75112037D01*
X137466466Y-75163557D01*
X137622991Y-75247222D01*
X137658729Y-75276552D01*
X137760186Y-75359814D01*
X137843448Y-75461271D01*
X137872778Y-75497009D01*
X137956443Y-75653534D01*
X138007963Y-75823373D01*
X138025359Y-76000000D01*
X138007963Y-76176627D01*
X137956443Y-76346466D01*
X137872778Y-76502991D01*
X137843448Y-76538729D01*
X137760186Y-76640186D01*
X137658729Y-76723448D01*
X137622991Y-76752778D01*
X137466466Y-76836443D01*
X137296627Y-76887963D01*
X137230442Y-76894482D01*
X137164260Y-76901000D01*
X137075740Y-76901000D01*
X137009558Y-76894482D01*
X136943373Y-76887963D01*
X136773534Y-76836443D01*
X136617009Y-76752778D01*
X136581271Y-76723448D01*
X136479814Y-76640186D01*
X136396552Y-76538729D01*
X136367222Y-76502991D01*
X136283557Y-76346466D01*
X136232037Y-76176627D01*
X136214641Y-76000000D01*
X136232037Y-75823373D01*
X136283557Y-75653534D01*
X136367222Y-75497009D01*
X136396552Y-75461271D01*
X136479814Y-75359814D01*
X136581271Y-75276552D01*
X136617009Y-75247222D01*
X136773534Y-75163557D01*
X136943373Y-75112037D01*
X137009558Y-75105518D01*
X137075740Y-75099000D01*
X137164260Y-75099000D01*
X137230442Y-75105518D01*
X137230442Y-75105518D01*
G37*
G36*
X115450442Y-75105518D02*
G01*
X115516627Y-75112037D01*
X115686466Y-75163557D01*
X115842991Y-75247222D01*
X115878729Y-75276552D01*
X115980186Y-75359814D01*
X116063448Y-75461271D01*
X116092778Y-75497009D01*
X116176443Y-75653534D01*
X116227963Y-75823373D01*
X116245359Y-76000000D01*
X116227963Y-76176627D01*
X116176443Y-76346466D01*
X116092778Y-76502991D01*
X116063448Y-76538729D01*
X115980186Y-76640186D01*
X115878729Y-76723448D01*
X115842991Y-76752778D01*
X115686466Y-76836443D01*
X115516627Y-76887963D01*
X115450442Y-76894482D01*
X115384260Y-76901000D01*
X115295740Y-76901000D01*
X115229558Y-76894482D01*
X115163373Y-76887963D01*
X114993534Y-76836443D01*
X114837009Y-76752778D01*
X114801271Y-76723448D01*
X114699814Y-76640186D01*
X114616552Y-76538729D01*
X114587222Y-76502991D01*
X114503557Y-76346466D01*
X114452037Y-76176627D01*
X114434641Y-76000000D01*
X114452037Y-75823373D01*
X114503557Y-75653534D01*
X114587222Y-75497009D01*
X114616552Y-75461271D01*
X114699814Y-75359814D01*
X114801271Y-75276552D01*
X114837009Y-75247222D01*
X114993534Y-75163557D01*
X115163373Y-75112037D01*
X115229558Y-75105518D01*
X115295740Y-75099000D01*
X115384260Y-75099000D01*
X115450442Y-75105518D01*
X115450442Y-75105518D01*
G37*
G36*
X113701000Y-76901000D02*
G01*
X111899000Y-76901000D01*
X111899000Y-75099000D01*
X113701000Y-75099000D01*
X113701000Y-76901000D01*
X113701000Y-76901000D01*
G37*
G36*
X125110442Y-75105518D02*
G01*
X125176627Y-75112037D01*
X125346466Y-75163557D01*
X125502991Y-75247222D01*
X125538729Y-75276552D01*
X125640186Y-75359814D01*
X125723448Y-75461271D01*
X125752778Y-75497009D01*
X125836443Y-75653534D01*
X125887963Y-75823373D01*
X125905359Y-76000000D01*
X125887963Y-76176627D01*
X125836443Y-76346466D01*
X125752778Y-76502991D01*
X125723448Y-76538729D01*
X125640186Y-76640186D01*
X125538729Y-76723448D01*
X125502991Y-76752778D01*
X125346466Y-76836443D01*
X125176627Y-76887963D01*
X125110442Y-76894482D01*
X125044260Y-76901000D01*
X124955740Y-76901000D01*
X124889558Y-76894482D01*
X124823373Y-76887963D01*
X124653534Y-76836443D01*
X124497009Y-76752778D01*
X124461271Y-76723448D01*
X124359814Y-76640186D01*
X124276552Y-76538729D01*
X124247222Y-76502991D01*
X124163557Y-76346466D01*
X124112037Y-76176627D01*
X124094641Y-76000000D01*
X124112037Y-75823373D01*
X124163557Y-75653534D01*
X124247222Y-75497009D01*
X124276552Y-75461271D01*
X124359814Y-75359814D01*
X124461271Y-75276552D01*
X124497009Y-75247222D01*
X124653534Y-75163557D01*
X124823373Y-75112037D01*
X124889558Y-75105518D01*
X124955740Y-75099000D01*
X125044260Y-75099000D01*
X125110442Y-75105518D01*
X125110442Y-75105518D01*
G37*
G36*
X139770442Y-75105518D02*
G01*
X139836627Y-75112037D01*
X140006466Y-75163557D01*
X140162991Y-75247222D01*
X140198729Y-75276552D01*
X140300186Y-75359814D01*
X140383448Y-75461271D01*
X140412778Y-75497009D01*
X140496443Y-75653534D01*
X140547963Y-75823373D01*
X140565359Y-76000000D01*
X140547963Y-76176627D01*
X140496443Y-76346466D01*
X140412778Y-76502991D01*
X140383448Y-76538729D01*
X140300186Y-76640186D01*
X140198729Y-76723448D01*
X140162991Y-76752778D01*
X140006466Y-76836443D01*
X139836627Y-76887963D01*
X139770442Y-76894482D01*
X139704260Y-76901000D01*
X139615740Y-76901000D01*
X139549558Y-76894482D01*
X139483373Y-76887963D01*
X139313534Y-76836443D01*
X139157009Y-76752778D01*
X139121271Y-76723448D01*
X139019814Y-76640186D01*
X138936552Y-76538729D01*
X138907222Y-76502991D01*
X138823557Y-76346466D01*
X138772037Y-76176627D01*
X138754641Y-76000000D01*
X138772037Y-75823373D01*
X138823557Y-75653534D01*
X138907222Y-75497009D01*
X138936552Y-75461271D01*
X139019814Y-75359814D01*
X139121271Y-75276552D01*
X139157009Y-75247222D01*
X139313534Y-75163557D01*
X139483373Y-75112037D01*
X139549558Y-75105518D01*
X139615740Y-75099000D01*
X139704260Y-75099000D01*
X139770442Y-75105518D01*
X139770442Y-75105518D01*
G37*
M02*
