G04 #@! TF.GenerationSoftware,KiCad,Pcbnew,(5.1.4)-1*
G04 #@! TF.CreationDate,2020-02-25T16:56:55+01:00*
G04 #@! TF.ProjectId,Master Thesis PCB,4d617374-6572-4205-9468-657369732050,rev?*
G04 #@! TF.SameCoordinates,Original*
G04 #@! TF.FileFunction,Legend,Top*
G04 #@! TF.FilePolarity,Positive*
%FSLAX46Y46*%
G04 Gerber Fmt 4.6, Leading zero omitted, Abs format (unit mm)*
G04 Created by KiCad (PCBNEW (5.1.4)-1) date 2020-02-25 16:56:55*
%MOMM*%
%LPD*%
G04 APERTURE LIST*
%ADD10C,0.150000*%
%ADD11C,0.120000*%
%ADD12C,0.200000*%
%ADD13C,0.100000*%
%ADD14C,0.127000*%
%ADD15C,0.015000*%
%ADD16C,0.254000*%
G04 APERTURE END LIST*
D10*
X121128571Y-101652380D02*
X120795238Y-101176190D01*
X120557142Y-101652380D02*
X120557142Y-100652380D01*
X120938095Y-100652380D01*
X121033333Y-100700000D01*
X121080952Y-100747619D01*
X121128571Y-100842857D01*
X121128571Y-100985714D01*
X121080952Y-101080952D01*
X121033333Y-101128571D01*
X120938095Y-101176190D01*
X120557142Y-101176190D01*
X121938095Y-101604761D02*
X121842857Y-101652380D01*
X121652380Y-101652380D01*
X121557142Y-101604761D01*
X121509523Y-101509523D01*
X121509523Y-101128571D01*
X121557142Y-101033333D01*
X121652380Y-100985714D01*
X121842857Y-100985714D01*
X121938095Y-101033333D01*
X121985714Y-101128571D01*
X121985714Y-101223809D01*
X121509523Y-101319047D01*
X122319047Y-100985714D02*
X122557142Y-101652380D01*
X122795238Y-100985714D01*
X124461904Y-101652380D02*
X123890476Y-101652380D01*
X124176190Y-101652380D02*
X124176190Y-100652380D01*
X124080952Y-100795238D01*
X123985714Y-100890476D01*
X123890476Y-100938095D01*
X124890476Y-101557142D02*
X124938095Y-101604761D01*
X124890476Y-101652380D01*
X124842857Y-101604761D01*
X124890476Y-101557142D01*
X124890476Y-101652380D01*
X125890476Y-101652380D02*
X125319047Y-101652380D01*
X125604761Y-101652380D02*
X125604761Y-100652380D01*
X125509523Y-100795238D01*
X125414285Y-100890476D01*
X125319047Y-100938095D01*
X102485714Y-98252380D02*
X102485714Y-97252380D01*
X102866666Y-97252380D01*
X102961904Y-97300000D01*
X103009523Y-97347619D01*
X103057142Y-97442857D01*
X103057142Y-97585714D01*
X103009523Y-97680952D01*
X102961904Y-97728571D01*
X102866666Y-97776190D01*
X102485714Y-97776190D01*
X103819047Y-97728571D02*
X103961904Y-97776190D01*
X104009523Y-97823809D01*
X104057142Y-97919047D01*
X104057142Y-98061904D01*
X104009523Y-98157142D01*
X103961904Y-98204761D01*
X103866666Y-98252380D01*
X103485714Y-98252380D01*
X103485714Y-97252380D01*
X103819047Y-97252380D01*
X103914285Y-97300000D01*
X103961904Y-97347619D01*
X104009523Y-97442857D01*
X104009523Y-97538095D01*
X103961904Y-97633333D01*
X103914285Y-97680952D01*
X103819047Y-97728571D01*
X103485714Y-97728571D01*
X105009523Y-98252380D02*
X104438095Y-98252380D01*
X104723809Y-98252380D02*
X104723809Y-97252380D01*
X104628571Y-97395238D01*
X104533333Y-97490476D01*
X104438095Y-97538095D01*
X105390476Y-97347619D02*
X105438095Y-97300000D01*
X105533333Y-97252380D01*
X105771428Y-97252380D01*
X105866666Y-97300000D01*
X105914285Y-97347619D01*
X105961904Y-97442857D01*
X105961904Y-97538095D01*
X105914285Y-97680952D01*
X105342857Y-98252380D01*
X105961904Y-98252380D01*
X102485714Y-95652380D02*
X102485714Y-94652380D01*
X102866666Y-94652380D01*
X102961904Y-94700000D01*
X103009523Y-94747619D01*
X103057142Y-94842857D01*
X103057142Y-94985714D01*
X103009523Y-95080952D01*
X102961904Y-95128571D01*
X102866666Y-95176190D01*
X102485714Y-95176190D01*
X103819047Y-95128571D02*
X103961904Y-95176190D01*
X104009523Y-95223809D01*
X104057142Y-95319047D01*
X104057142Y-95461904D01*
X104009523Y-95557142D01*
X103961904Y-95604761D01*
X103866666Y-95652380D01*
X103485714Y-95652380D01*
X103485714Y-94652380D01*
X103819047Y-94652380D01*
X103914285Y-94700000D01*
X103961904Y-94747619D01*
X104009523Y-94842857D01*
X104009523Y-94938095D01*
X103961904Y-95033333D01*
X103914285Y-95080952D01*
X103819047Y-95128571D01*
X103485714Y-95128571D01*
X105009523Y-95652380D02*
X104438095Y-95652380D01*
X104723809Y-95652380D02*
X104723809Y-94652380D01*
X104628571Y-94795238D01*
X104533333Y-94890476D01*
X104438095Y-94938095D01*
X105342857Y-94652380D02*
X105961904Y-94652380D01*
X105628571Y-95033333D01*
X105771428Y-95033333D01*
X105866666Y-95080952D01*
X105914285Y-95128571D01*
X105961904Y-95223809D01*
X105961904Y-95461904D01*
X105914285Y-95557142D01*
X105866666Y-95604761D01*
X105771428Y-95652380D01*
X105485714Y-95652380D01*
X105390476Y-95604761D01*
X105342857Y-95557142D01*
X102485714Y-93052380D02*
X102485714Y-92052380D01*
X102866666Y-92052380D01*
X102961904Y-92100000D01*
X103009523Y-92147619D01*
X103057142Y-92242857D01*
X103057142Y-92385714D01*
X103009523Y-92480952D01*
X102961904Y-92528571D01*
X102866666Y-92576190D01*
X102485714Y-92576190D01*
X103819047Y-92528571D02*
X103961904Y-92576190D01*
X104009523Y-92623809D01*
X104057142Y-92719047D01*
X104057142Y-92861904D01*
X104009523Y-92957142D01*
X103961904Y-93004761D01*
X103866666Y-93052380D01*
X103485714Y-93052380D01*
X103485714Y-92052380D01*
X103819047Y-92052380D01*
X103914285Y-92100000D01*
X103961904Y-92147619D01*
X104009523Y-92242857D01*
X104009523Y-92338095D01*
X103961904Y-92433333D01*
X103914285Y-92480952D01*
X103819047Y-92528571D01*
X103485714Y-92528571D01*
X105009523Y-93052380D02*
X104438095Y-93052380D01*
X104723809Y-93052380D02*
X104723809Y-92052380D01*
X104628571Y-92195238D01*
X104533333Y-92290476D01*
X104438095Y-92338095D01*
X105866666Y-92385714D02*
X105866666Y-93052380D01*
X105628571Y-92004761D02*
X105390476Y-92719047D01*
X106009523Y-92719047D01*
X102485714Y-90652380D02*
X102485714Y-89652380D01*
X102866666Y-89652380D01*
X102961904Y-89700000D01*
X103009523Y-89747619D01*
X103057142Y-89842857D01*
X103057142Y-89985714D01*
X103009523Y-90080952D01*
X102961904Y-90128571D01*
X102866666Y-90176190D01*
X102485714Y-90176190D01*
X103819047Y-90128571D02*
X103961904Y-90176190D01*
X104009523Y-90223809D01*
X104057142Y-90319047D01*
X104057142Y-90461904D01*
X104009523Y-90557142D01*
X103961904Y-90604761D01*
X103866666Y-90652380D01*
X103485714Y-90652380D01*
X103485714Y-89652380D01*
X103819047Y-89652380D01*
X103914285Y-89700000D01*
X103961904Y-89747619D01*
X104009523Y-89842857D01*
X104009523Y-89938095D01*
X103961904Y-90033333D01*
X103914285Y-90080952D01*
X103819047Y-90128571D01*
X103485714Y-90128571D01*
X105009523Y-90652380D02*
X104438095Y-90652380D01*
X104723809Y-90652380D02*
X104723809Y-89652380D01*
X104628571Y-89795238D01*
X104533333Y-89890476D01*
X104438095Y-89938095D01*
X105914285Y-89652380D02*
X105438095Y-89652380D01*
X105390476Y-90128571D01*
X105438095Y-90080952D01*
X105533333Y-90033333D01*
X105771428Y-90033333D01*
X105866666Y-90080952D01*
X105914285Y-90128571D01*
X105961904Y-90223809D01*
X105961904Y-90461904D01*
X105914285Y-90557142D01*
X105866666Y-90604761D01*
X105771428Y-90652380D01*
X105533333Y-90652380D01*
X105438095Y-90604761D01*
X105390476Y-90557142D01*
X106052380Y-84933333D02*
X107052380Y-84600000D01*
X106052380Y-84266666D01*
X107052380Y-83933333D02*
X106052380Y-83933333D01*
X106052380Y-83695238D01*
X106100000Y-83552380D01*
X106195238Y-83457142D01*
X106290476Y-83409523D01*
X106480952Y-83361904D01*
X106623809Y-83361904D01*
X106814285Y-83409523D01*
X106909523Y-83457142D01*
X107004761Y-83552380D01*
X107052380Y-83695238D01*
X107052380Y-83933333D01*
X107052380Y-82933333D02*
X106052380Y-82933333D01*
X106052380Y-82695238D01*
X106100000Y-82552380D01*
X106195238Y-82457142D01*
X106290476Y-82409523D01*
X106480952Y-82361904D01*
X106623809Y-82361904D01*
X106814285Y-82409523D01*
X106909523Y-82457142D01*
X107004761Y-82552380D01*
X107052380Y-82695238D01*
X107052380Y-82933333D01*
D11*
X105600000Y-88400000D02*
X105600000Y-79400000D01*
X103800000Y-88400000D02*
X105600000Y-88400000D01*
D10*
X102442857Y-83252380D02*
X102442857Y-82252380D01*
X102776190Y-82966666D01*
X103109523Y-82252380D01*
X103109523Y-83252380D01*
X104157142Y-83157142D02*
X104109523Y-83204761D01*
X103966666Y-83252380D01*
X103871428Y-83252380D01*
X103728571Y-83204761D01*
X103633333Y-83109523D01*
X103585714Y-83014285D01*
X103538095Y-82823809D01*
X103538095Y-82680952D01*
X103585714Y-82490476D01*
X103633333Y-82395238D01*
X103728571Y-82300000D01*
X103871428Y-82252380D01*
X103966666Y-82252380D01*
X104109523Y-82300000D01*
X104157142Y-82347619D01*
X104585714Y-82252380D02*
X104585714Y-83061904D01*
X104633333Y-83157142D01*
X104680952Y-83204761D01*
X104776190Y-83252380D01*
X104966666Y-83252380D01*
X105061904Y-83204761D01*
X105109523Y-83157142D01*
X105157142Y-83061904D01*
X105157142Y-82252380D01*
X103080952Y-85452380D02*
X102747619Y-84976190D01*
X102509523Y-85452380D02*
X102509523Y-84452380D01*
X102890476Y-84452380D01*
X102985714Y-84500000D01*
X103033333Y-84547619D01*
X103080952Y-84642857D01*
X103080952Y-84785714D01*
X103033333Y-84880952D01*
X102985714Y-84928571D01*
X102890476Y-84976190D01*
X102509523Y-84976190D01*
X103842857Y-84928571D02*
X103509523Y-84928571D01*
X103509523Y-85452380D02*
X103509523Y-84452380D01*
X103985714Y-84452380D01*
X102580952Y-87766666D02*
X103057142Y-87766666D01*
X102485714Y-88052380D02*
X102819047Y-87052380D01*
X103152380Y-88052380D01*
X103342857Y-87052380D02*
X103914285Y-87052380D01*
X103628571Y-88052380D02*
X103628571Y-87052380D01*
X102338095Y-79652380D02*
X102338095Y-80461904D01*
X102385714Y-80557142D01*
X102433333Y-80604761D01*
X102528571Y-80652380D01*
X102719047Y-80652380D01*
X102814285Y-80604761D01*
X102861904Y-80557142D01*
X102909523Y-80461904D01*
X102909523Y-79652380D01*
X103338095Y-80604761D02*
X103480952Y-80652380D01*
X103719047Y-80652380D01*
X103814285Y-80604761D01*
X103861904Y-80557142D01*
X103909523Y-80461904D01*
X103909523Y-80366666D01*
X103861904Y-80271428D01*
X103814285Y-80223809D01*
X103719047Y-80176190D01*
X103528571Y-80128571D01*
X103433333Y-80080952D01*
X103385714Y-80033333D01*
X103338095Y-79938095D01*
X103338095Y-79842857D01*
X103385714Y-79747619D01*
X103433333Y-79700000D01*
X103528571Y-79652380D01*
X103766666Y-79652380D01*
X103909523Y-79700000D01*
X104671428Y-80128571D02*
X104814285Y-80176190D01*
X104861904Y-80223809D01*
X104909523Y-80319047D01*
X104909523Y-80461904D01*
X104861904Y-80557142D01*
X104814285Y-80604761D01*
X104719047Y-80652380D01*
X104338095Y-80652380D01*
X104338095Y-79652380D01*
X104671428Y-79652380D01*
X104766666Y-79700000D01*
X104814285Y-79747619D01*
X104861904Y-79842857D01*
X104861904Y-79938095D01*
X104814285Y-80033333D01*
X104766666Y-80080952D01*
X104671428Y-80128571D01*
X104338095Y-80128571D01*
X139761904Y-98252380D02*
X139761904Y-97252380D01*
X140142857Y-97252380D01*
X140238095Y-97300000D01*
X140285714Y-97347619D01*
X140333333Y-97442857D01*
X140333333Y-97585714D01*
X140285714Y-97680952D01*
X140238095Y-97728571D01*
X140142857Y-97776190D01*
X139761904Y-97776190D01*
X141095238Y-97728571D02*
X141238095Y-97776190D01*
X141285714Y-97823809D01*
X141333333Y-97919047D01*
X141333333Y-98061904D01*
X141285714Y-98157142D01*
X141238095Y-98204761D01*
X141142857Y-98252380D01*
X140761904Y-98252380D01*
X140761904Y-97252380D01*
X141095238Y-97252380D01*
X141190476Y-97300000D01*
X141238095Y-97347619D01*
X141285714Y-97442857D01*
X141285714Y-97538095D01*
X141238095Y-97633333D01*
X141190476Y-97680952D01*
X141095238Y-97728571D01*
X140761904Y-97728571D01*
X141809523Y-98252380D02*
X142000000Y-98252380D01*
X142095238Y-98204761D01*
X142142857Y-98157142D01*
X142238095Y-98014285D01*
X142285714Y-97823809D01*
X142285714Y-97442857D01*
X142238095Y-97347619D01*
X142190476Y-97300000D01*
X142095238Y-97252380D01*
X141904761Y-97252380D01*
X141809523Y-97300000D01*
X141761904Y-97347619D01*
X141714285Y-97442857D01*
X141714285Y-97680952D01*
X141761904Y-97776190D01*
X141809523Y-97823809D01*
X141904761Y-97871428D01*
X142095238Y-97871428D01*
X142190476Y-97823809D01*
X142238095Y-97776190D01*
X142285714Y-97680952D01*
X139761904Y-95852380D02*
X139761904Y-94852380D01*
X140142857Y-94852380D01*
X140238095Y-94900000D01*
X140285714Y-94947619D01*
X140333333Y-95042857D01*
X140333333Y-95185714D01*
X140285714Y-95280952D01*
X140238095Y-95328571D01*
X140142857Y-95376190D01*
X139761904Y-95376190D01*
X141095238Y-95328571D02*
X141238095Y-95376190D01*
X141285714Y-95423809D01*
X141333333Y-95519047D01*
X141333333Y-95661904D01*
X141285714Y-95757142D01*
X141238095Y-95804761D01*
X141142857Y-95852380D01*
X140761904Y-95852380D01*
X140761904Y-94852380D01*
X141095238Y-94852380D01*
X141190476Y-94900000D01*
X141238095Y-94947619D01*
X141285714Y-95042857D01*
X141285714Y-95138095D01*
X141238095Y-95233333D01*
X141190476Y-95280952D01*
X141095238Y-95328571D01*
X140761904Y-95328571D01*
X141904761Y-95280952D02*
X141809523Y-95233333D01*
X141761904Y-95185714D01*
X141714285Y-95090476D01*
X141714285Y-95042857D01*
X141761904Y-94947619D01*
X141809523Y-94900000D01*
X141904761Y-94852380D01*
X142095238Y-94852380D01*
X142190476Y-94900000D01*
X142238095Y-94947619D01*
X142285714Y-95042857D01*
X142285714Y-95090476D01*
X142238095Y-95185714D01*
X142190476Y-95233333D01*
X142095238Y-95280952D01*
X141904761Y-95280952D01*
X141809523Y-95328571D01*
X141761904Y-95376190D01*
X141714285Y-95471428D01*
X141714285Y-95661904D01*
X141761904Y-95757142D01*
X141809523Y-95804761D01*
X141904761Y-95852380D01*
X142095238Y-95852380D01*
X142190476Y-95804761D01*
X142238095Y-95757142D01*
X142285714Y-95661904D01*
X142285714Y-95471428D01*
X142238095Y-95376190D01*
X142190476Y-95328571D01*
X142095238Y-95280952D01*
X140033333Y-93252380D02*
X140033333Y-92252380D01*
X140414285Y-92252380D01*
X140509523Y-92300000D01*
X140557142Y-92347619D01*
X140604761Y-92442857D01*
X140604761Y-92585714D01*
X140557142Y-92680952D01*
X140509523Y-92728571D01*
X140414285Y-92776190D01*
X140033333Y-92776190D01*
X140985714Y-92966666D02*
X141461904Y-92966666D01*
X140890476Y-93252380D02*
X141223809Y-92252380D01*
X141557142Y-93252380D01*
X141842857Y-92347619D02*
X141890476Y-92300000D01*
X141985714Y-92252380D01*
X142223809Y-92252380D01*
X142319047Y-92300000D01*
X142366666Y-92347619D01*
X142414285Y-92442857D01*
X142414285Y-92538095D01*
X142366666Y-92680952D01*
X141795238Y-93252380D01*
X142414285Y-93252380D01*
X140033333Y-90652380D02*
X140033333Y-89652380D01*
X140414285Y-89652380D01*
X140509523Y-89700000D01*
X140557142Y-89747619D01*
X140604761Y-89842857D01*
X140604761Y-89985714D01*
X140557142Y-90080952D01*
X140509523Y-90128571D01*
X140414285Y-90176190D01*
X140033333Y-90176190D01*
X140985714Y-90366666D02*
X141461904Y-90366666D01*
X140890476Y-90652380D02*
X141223809Y-89652380D01*
X141557142Y-90652380D01*
X141795238Y-89652380D02*
X142414285Y-89652380D01*
X142080952Y-90033333D01*
X142223809Y-90033333D01*
X142319047Y-90080952D01*
X142366666Y-90128571D01*
X142414285Y-90223809D01*
X142414285Y-90461904D01*
X142366666Y-90557142D01*
X142319047Y-90604761D01*
X142223809Y-90652380D01*
X141938095Y-90652380D01*
X141842857Y-90604761D01*
X141795238Y-90557142D01*
X140033333Y-88052380D02*
X140033333Y-87052380D01*
X140414285Y-87052380D01*
X140509523Y-87100000D01*
X140557142Y-87147619D01*
X140604761Y-87242857D01*
X140604761Y-87385714D01*
X140557142Y-87480952D01*
X140509523Y-87528571D01*
X140414285Y-87576190D01*
X140033333Y-87576190D01*
X140985714Y-87766666D02*
X141461904Y-87766666D01*
X140890476Y-88052380D02*
X141223809Y-87052380D01*
X141557142Y-88052380D01*
X142319047Y-87385714D02*
X142319047Y-88052380D01*
X142080952Y-87004761D02*
X141842857Y-87719047D01*
X142461904Y-87719047D01*
X140238095Y-84700000D02*
X140142857Y-84652380D01*
X140000000Y-84652380D01*
X139857142Y-84700000D01*
X139761904Y-84795238D01*
X139714285Y-84890476D01*
X139666666Y-85080952D01*
X139666666Y-85223809D01*
X139714285Y-85414285D01*
X139761904Y-85509523D01*
X139857142Y-85604761D01*
X140000000Y-85652380D01*
X140095238Y-85652380D01*
X140238095Y-85604761D01*
X140285714Y-85557142D01*
X140285714Y-85223809D01*
X140095238Y-85223809D01*
X140714285Y-85652380D02*
X140714285Y-84652380D01*
X141285714Y-85652380D01*
X141285714Y-84652380D01*
X141761904Y-85652380D02*
X141761904Y-84652380D01*
X142000000Y-84652380D01*
X142142857Y-84700000D01*
X142238095Y-84795238D01*
X142285714Y-84890476D01*
X142333333Y-85080952D01*
X142333333Y-85223809D01*
X142285714Y-85414285D01*
X142238095Y-85509523D01*
X142142857Y-85604761D01*
X142000000Y-85652380D01*
X141761904Y-85652380D01*
X139961904Y-81852380D02*
X140533333Y-81852380D01*
X140247619Y-82852380D02*
X140247619Y-81852380D01*
X140771428Y-81852380D02*
X141438095Y-82852380D01*
X141438095Y-81852380D02*
X140771428Y-82852380D01*
X142342857Y-82852380D02*
X141771428Y-82852380D01*
X142057142Y-82852380D02*
X142057142Y-81852380D01*
X141961904Y-81995238D01*
X141866666Y-82090476D01*
X141771428Y-82138095D01*
X140357142Y-80452380D02*
X140023809Y-79976190D01*
X139785714Y-80452380D02*
X139785714Y-79452380D01*
X140166666Y-79452380D01*
X140261904Y-79500000D01*
X140309523Y-79547619D01*
X140357142Y-79642857D01*
X140357142Y-79785714D01*
X140309523Y-79880952D01*
X140261904Y-79928571D01*
X140166666Y-79976190D01*
X139785714Y-79976190D01*
X140690476Y-79452380D02*
X141357142Y-80452380D01*
X141357142Y-79452380D02*
X140690476Y-80452380D01*
X142261904Y-80452380D02*
X141690476Y-80452380D01*
X141976190Y-80452380D02*
X141976190Y-79452380D01*
X141880952Y-79595238D01*
X141785714Y-79690476D01*
X141690476Y-79738095D01*
X138785714Y-80771428D02*
X139452380Y-80771428D01*
X138880952Y-80771428D02*
X138833333Y-80723809D01*
X138785714Y-80628571D01*
X138785714Y-80485714D01*
X138833333Y-80390476D01*
X138928571Y-80342857D01*
X139452380Y-80342857D01*
X139452380Y-79295238D02*
X138976190Y-79628571D01*
X139452380Y-79866666D02*
X138452380Y-79866666D01*
X138452380Y-79485714D01*
X138500000Y-79390476D01*
X138547619Y-79342857D01*
X138642857Y-79295238D01*
X138785714Y-79295238D01*
X138880952Y-79342857D01*
X138928571Y-79390476D01*
X138976190Y-79485714D01*
X138976190Y-79866666D01*
X139404761Y-78914285D02*
X139452380Y-78771428D01*
X139452380Y-78533333D01*
X139404761Y-78438095D01*
X139357142Y-78390476D01*
X139261904Y-78342857D01*
X139166666Y-78342857D01*
X139071428Y-78390476D01*
X139023809Y-78438095D01*
X138976190Y-78533333D01*
X138928571Y-78723809D01*
X138880952Y-78819047D01*
X138833333Y-78866666D01*
X138738095Y-78914285D01*
X138642857Y-78914285D01*
X138547619Y-78866666D01*
X138500000Y-78819047D01*
X138452380Y-78723809D01*
X138452380Y-78485714D01*
X138500000Y-78342857D01*
X138452380Y-78057142D02*
X138452380Y-77485714D01*
X139452380Y-77771428D02*
X138452380Y-77771428D01*
X137604761Y-81719047D02*
X137652380Y-81576190D01*
X137652380Y-81338095D01*
X137604761Y-81242857D01*
X137557142Y-81195238D01*
X137461904Y-81147619D01*
X137366666Y-81147619D01*
X137271428Y-81195238D01*
X137223809Y-81242857D01*
X137176190Y-81338095D01*
X137128571Y-81528571D01*
X137080952Y-81623809D01*
X137033333Y-81671428D01*
X136938095Y-81719047D01*
X136842857Y-81719047D01*
X136747619Y-81671428D01*
X136700000Y-81623809D01*
X136652380Y-81528571D01*
X136652380Y-81290476D01*
X136700000Y-81147619D01*
X136652380Y-80814285D02*
X137652380Y-80576190D01*
X136938095Y-80385714D01*
X137652380Y-80195238D01*
X136652380Y-79957142D01*
X137652380Y-79576190D02*
X136652380Y-79576190D01*
X136652380Y-79338095D01*
X136700000Y-79195238D01*
X136795238Y-79100000D01*
X136890476Y-79052380D01*
X137080952Y-79004761D01*
X137223809Y-79004761D01*
X137414285Y-79052380D01*
X137509523Y-79100000D01*
X137604761Y-79195238D01*
X137652380Y-79338095D01*
X137652380Y-79576190D01*
X137652380Y-78576190D02*
X136652380Y-78576190D01*
X136652380Y-77909523D02*
X136652380Y-77719047D01*
X136700000Y-77623809D01*
X136795238Y-77528571D01*
X136985714Y-77480952D01*
X137319047Y-77480952D01*
X137509523Y-77528571D01*
X137604761Y-77623809D01*
X137652380Y-77719047D01*
X137652380Y-77909523D01*
X137604761Y-78004761D01*
X137509523Y-78100000D01*
X137319047Y-78147619D01*
X136985714Y-78147619D01*
X136795238Y-78100000D01*
X136700000Y-78004761D01*
X136652380Y-77909523D01*
X134100000Y-79561904D02*
X134052380Y-79657142D01*
X134052380Y-79800000D01*
X134100000Y-79942857D01*
X134195238Y-80038095D01*
X134290476Y-80085714D01*
X134480952Y-80133333D01*
X134623809Y-80133333D01*
X134814285Y-80085714D01*
X134909523Y-80038095D01*
X135004761Y-79942857D01*
X135052380Y-79800000D01*
X135052380Y-79704761D01*
X135004761Y-79561904D01*
X134957142Y-79514285D01*
X134623809Y-79514285D01*
X134623809Y-79704761D01*
X135052380Y-79085714D02*
X134052380Y-79085714D01*
X135052380Y-78514285D01*
X134052380Y-78514285D01*
X135052380Y-78038095D02*
X134052380Y-78038095D01*
X134052380Y-77800000D01*
X134100000Y-77657142D01*
X134195238Y-77561904D01*
X134290476Y-77514285D01*
X134480952Y-77466666D01*
X134623809Y-77466666D01*
X134814285Y-77514285D01*
X134909523Y-77561904D01*
X135004761Y-77657142D01*
X135052380Y-77800000D01*
X135052380Y-78038095D01*
X132604761Y-82061904D02*
X132652380Y-81919047D01*
X132652380Y-81680952D01*
X132604761Y-81585714D01*
X132557142Y-81538095D01*
X132461904Y-81490476D01*
X132366666Y-81490476D01*
X132271428Y-81538095D01*
X132223809Y-81585714D01*
X132176190Y-81680952D01*
X132128571Y-81871428D01*
X132080952Y-81966666D01*
X132033333Y-82014285D01*
X131938095Y-82061904D01*
X131842857Y-82061904D01*
X131747619Y-82014285D01*
X131700000Y-81966666D01*
X131652380Y-81871428D01*
X131652380Y-81633333D01*
X131700000Y-81490476D01*
X131652380Y-81157142D02*
X132652380Y-80919047D01*
X131938095Y-80728571D01*
X132652380Y-80538095D01*
X131652380Y-80300000D01*
X132557142Y-79347619D02*
X132604761Y-79395238D01*
X132652380Y-79538095D01*
X132652380Y-79633333D01*
X132604761Y-79776190D01*
X132509523Y-79871428D01*
X132414285Y-79919047D01*
X132223809Y-79966666D01*
X132080952Y-79966666D01*
X131890476Y-79919047D01*
X131795238Y-79871428D01*
X131700000Y-79776190D01*
X131652380Y-79633333D01*
X131652380Y-79538095D01*
X131700000Y-79395238D01*
X131747619Y-79347619D01*
X132652380Y-78442857D02*
X132652380Y-78919047D01*
X131652380Y-78919047D01*
X132652380Y-78109523D02*
X131652380Y-78109523D01*
X132652380Y-77538095D02*
X132080952Y-77966666D01*
X131652380Y-77538095D02*
X132223809Y-78109523D01*
X129052380Y-80133333D02*
X130052380Y-79800000D01*
X129052380Y-79466666D01*
X130052380Y-79133333D02*
X129052380Y-79133333D01*
X129052380Y-78895238D01*
X129100000Y-78752380D01*
X129195238Y-78657142D01*
X129290476Y-78609523D01*
X129480952Y-78561904D01*
X129623809Y-78561904D01*
X129814285Y-78609523D01*
X129909523Y-78657142D01*
X130004761Y-78752380D01*
X130052380Y-78895238D01*
X130052380Y-79133333D01*
X130052380Y-78133333D02*
X129052380Y-78133333D01*
X129052380Y-77895238D01*
X129100000Y-77752380D01*
X129195238Y-77657142D01*
X129290476Y-77609523D01*
X129480952Y-77561904D01*
X129623809Y-77561904D01*
X129814285Y-77609523D01*
X129909523Y-77657142D01*
X130004761Y-77752380D01*
X130052380Y-77895238D01*
X130052380Y-78133333D01*
X124928571Y-81433333D02*
X124976190Y-81290476D01*
X125023809Y-81242857D01*
X125119047Y-81195238D01*
X125261904Y-81195238D01*
X125357142Y-81242857D01*
X125404761Y-81290476D01*
X125452380Y-81385714D01*
X125452380Y-81766666D01*
X124452380Y-81766666D01*
X124452380Y-81433333D01*
X124500000Y-81338095D01*
X124547619Y-81290476D01*
X124642857Y-81242857D01*
X124738095Y-81242857D01*
X124833333Y-81290476D01*
X124880952Y-81338095D01*
X124928571Y-81433333D01*
X124928571Y-81766666D01*
X124452380Y-80576190D02*
X124452380Y-80385714D01*
X124500000Y-80290476D01*
X124595238Y-80195238D01*
X124785714Y-80147619D01*
X125119047Y-80147619D01*
X125309523Y-80195238D01*
X125404761Y-80290476D01*
X125452380Y-80385714D01*
X125452380Y-80576190D01*
X125404761Y-80671428D01*
X125309523Y-80766666D01*
X125119047Y-80814285D01*
X124785714Y-80814285D01*
X124595238Y-80766666D01*
X124500000Y-80671428D01*
X124452380Y-80576190D01*
X124452380Y-79528571D02*
X124452380Y-79338095D01*
X124500000Y-79242857D01*
X124595238Y-79147619D01*
X124785714Y-79100000D01*
X125119047Y-79100000D01*
X125309523Y-79147619D01*
X125404761Y-79242857D01*
X125452380Y-79338095D01*
X125452380Y-79528571D01*
X125404761Y-79623809D01*
X125309523Y-79719047D01*
X125119047Y-79766666D01*
X124785714Y-79766666D01*
X124595238Y-79719047D01*
X124500000Y-79623809D01*
X124452380Y-79528571D01*
X124452380Y-78814285D02*
X124452380Y-78242857D01*
X125452380Y-78528571D02*
X124452380Y-78528571D01*
X124452380Y-77719047D02*
X124452380Y-77623809D01*
X124500000Y-77528571D01*
X124547619Y-77480952D01*
X124642857Y-77433333D01*
X124833333Y-77385714D01*
X125071428Y-77385714D01*
X125261904Y-77433333D01*
X125357142Y-77480952D01*
X125404761Y-77528571D01*
X125452380Y-77623809D01*
X125452380Y-77719047D01*
X125404761Y-77814285D01*
X125357142Y-77861904D01*
X125261904Y-77909523D01*
X125071428Y-77957142D01*
X124833333Y-77957142D01*
X124642857Y-77909523D01*
X124547619Y-77861904D01*
X124500000Y-77814285D01*
X124452380Y-77719047D01*
X121852380Y-80133333D02*
X122852380Y-79800000D01*
X121852380Y-79466666D01*
X122852380Y-79133333D02*
X121852380Y-79133333D01*
X121852380Y-78895238D01*
X121900000Y-78752380D01*
X121995238Y-78657142D01*
X122090476Y-78609523D01*
X122280952Y-78561904D01*
X122423809Y-78561904D01*
X122614285Y-78609523D01*
X122709523Y-78657142D01*
X122804761Y-78752380D01*
X122852380Y-78895238D01*
X122852380Y-79133333D01*
X122852380Y-78133333D02*
X121852380Y-78133333D01*
X121852380Y-77895238D01*
X121900000Y-77752380D01*
X121995238Y-77657142D01*
X122090476Y-77609523D01*
X122280952Y-77561904D01*
X122423809Y-77561904D01*
X122614285Y-77609523D01*
X122709523Y-77657142D01*
X122804761Y-77752380D01*
X122852380Y-77895238D01*
X122852380Y-78133333D01*
X118452380Y-80842857D02*
X117452380Y-80842857D01*
X117452380Y-80461904D01*
X117500000Y-80366666D01*
X117547619Y-80319047D01*
X117642857Y-80271428D01*
X117785714Y-80271428D01*
X117880952Y-80319047D01*
X117928571Y-80366666D01*
X117976190Y-80461904D01*
X117976190Y-80842857D01*
X118166666Y-79890476D02*
X118166666Y-79414285D01*
X118452380Y-79985714D02*
X117452380Y-79652380D01*
X118452380Y-79319047D01*
X118452380Y-78461904D02*
X118452380Y-79033333D01*
X118452380Y-78747619D02*
X117452380Y-78747619D01*
X117595238Y-78842857D01*
X117690476Y-78938095D01*
X117738095Y-79033333D01*
X117547619Y-78080952D02*
X117500000Y-78033333D01*
X117452380Y-77938095D01*
X117452380Y-77700000D01*
X117500000Y-77604761D01*
X117547619Y-77557142D01*
X117642857Y-77509523D01*
X117738095Y-77509523D01*
X117880952Y-77557142D01*
X118452380Y-78128571D01*
X118452380Y-77509523D01*
X114852380Y-84547619D02*
X114852380Y-83976190D01*
X115852380Y-84261904D02*
X114852380Y-84261904D01*
X115757142Y-83071428D02*
X115804761Y-83119047D01*
X115852380Y-83261904D01*
X115852380Y-83357142D01*
X115804761Y-83500000D01*
X115709523Y-83595238D01*
X115614285Y-83642857D01*
X115423809Y-83690476D01*
X115280952Y-83690476D01*
X115090476Y-83642857D01*
X114995238Y-83595238D01*
X114900000Y-83500000D01*
X114852380Y-83357142D01*
X114852380Y-83261904D01*
X114900000Y-83119047D01*
X114947619Y-83071428D01*
X114852380Y-82738095D02*
X115852380Y-82071428D01*
X114852380Y-82071428D02*
X115852380Y-82738095D01*
X114852380Y-81500000D02*
X114852380Y-81404761D01*
X114900000Y-81309523D01*
X114947619Y-81261904D01*
X115042857Y-81214285D01*
X115233333Y-81166666D01*
X115471428Y-81166666D01*
X115661904Y-81214285D01*
X115757142Y-81261904D01*
X115804761Y-81309523D01*
X115852380Y-81404761D01*
X115852380Y-81500000D01*
X115804761Y-81595238D01*
X115757142Y-81642857D01*
X115661904Y-81690476D01*
X115471428Y-81738095D01*
X115233333Y-81738095D01*
X115042857Y-81690476D01*
X114947619Y-81642857D01*
X114900000Y-81595238D01*
X114852380Y-81500000D01*
X115947619Y-80976190D02*
X115947619Y-80214285D01*
X114852380Y-80119047D02*
X115852380Y-79785714D01*
X114852380Y-79452380D01*
X115757142Y-78547619D02*
X115804761Y-78595238D01*
X115852380Y-78738095D01*
X115852380Y-78833333D01*
X115804761Y-78976190D01*
X115709523Y-79071428D01*
X115614285Y-79119047D01*
X115423809Y-79166666D01*
X115280952Y-79166666D01*
X115090476Y-79119047D01*
X114995238Y-79071428D01*
X114900000Y-78976190D01*
X114852380Y-78833333D01*
X114852380Y-78738095D01*
X114900000Y-78595238D01*
X114947619Y-78547619D01*
X115757142Y-77547619D02*
X115804761Y-77595238D01*
X115852380Y-77738095D01*
X115852380Y-77833333D01*
X115804761Y-77976190D01*
X115709523Y-78071428D01*
X115614285Y-78119047D01*
X115423809Y-78166666D01*
X115280952Y-78166666D01*
X115090476Y-78119047D01*
X114995238Y-78071428D01*
X114900000Y-77976190D01*
X114852380Y-77833333D01*
X114852380Y-77738095D01*
X114900000Y-77595238D01*
X114947619Y-77547619D01*
X112252380Y-82842857D02*
X113252380Y-82509523D01*
X112252380Y-82176190D01*
X113252380Y-81842857D02*
X112252380Y-81842857D01*
X112252380Y-81604761D01*
X112300000Y-81461904D01*
X112395238Y-81366666D01*
X112490476Y-81319047D01*
X112680952Y-81271428D01*
X112823809Y-81271428D01*
X113014285Y-81319047D01*
X113109523Y-81366666D01*
X113204761Y-81461904D01*
X113252380Y-81604761D01*
X113252380Y-81842857D01*
X113252380Y-80842857D02*
X112252380Y-80842857D01*
X112252380Y-80604761D01*
X112300000Y-80461904D01*
X112395238Y-80366666D01*
X112490476Y-80319047D01*
X112680952Y-80271428D01*
X112823809Y-80271428D01*
X113014285Y-80319047D01*
X113109523Y-80366666D01*
X113204761Y-80461904D01*
X113252380Y-80604761D01*
X113252380Y-80842857D01*
X113347619Y-80080952D02*
X113347619Y-79319047D01*
X113252380Y-78509523D02*
X112776190Y-78842857D01*
X113252380Y-79080952D02*
X112252380Y-79080952D01*
X112252380Y-78700000D01*
X112300000Y-78604761D01*
X112347619Y-78557142D01*
X112442857Y-78509523D01*
X112585714Y-78509523D01*
X112680952Y-78557142D01*
X112728571Y-78604761D01*
X112776190Y-78700000D01*
X112776190Y-79080952D01*
X112728571Y-77747619D02*
X112728571Y-78080952D01*
X113252380Y-78080952D02*
X112252380Y-78080952D01*
X112252380Y-77604761D01*
D12*
X130550000Y-109320000D02*
G75*
G02X128850000Y-109320000I-850000J755556D01*
G01*
D11*
X129150279Y-105690000D02*
X128824721Y-105690000D01*
X129150279Y-106710000D02*
X128824721Y-106710000D01*
D13*
X103845000Y-107690000D02*
G75*
G02X103745000Y-107690000I-50000J0D01*
G01*
X103745000Y-107690000D02*
G75*
G02X103845000Y-107690000I50000J0D01*
G01*
X103845000Y-107690000D02*
G75*
G02X103745000Y-107690000I-50000J0D01*
G01*
X103745000Y-107690000D02*
X103745000Y-107690000D01*
X103845000Y-107690000D02*
X103845000Y-107690000D01*
X103745000Y-107690000D02*
X103745000Y-107690000D01*
X111650000Y-106690000D02*
X111650000Y-113840000D01*
X111650000Y-106690000D02*
X111650000Y-106690000D01*
X111650000Y-113840000D02*
X111650000Y-106690000D01*
X111650000Y-113840000D02*
X111650000Y-113840000D01*
X104540000Y-113840000D02*
X104540000Y-113840000D01*
X111650000Y-113840000D02*
X104540000Y-113840000D01*
X111650000Y-113840000D02*
X111650000Y-113840000D01*
X104540000Y-113840000D02*
X111650000Y-113840000D01*
X104540000Y-113840000D02*
X104540000Y-106940000D01*
X104540000Y-113840000D02*
X104540000Y-113840000D01*
X104540000Y-106940000D02*
X104540000Y-113840000D01*
X104540000Y-106940000D02*
X104540000Y-106940000D01*
X104540000Y-103690000D02*
X104540000Y-103690000D01*
X111650000Y-103690000D02*
X104540000Y-103690000D01*
X111650000Y-103690000D02*
X111650000Y-103690000D01*
X104540000Y-103690000D02*
X111650000Y-103690000D01*
D11*
X108750279Y-101290000D02*
X108424721Y-101290000D01*
X108750279Y-102310000D02*
X108424721Y-102310000D01*
D13*
X116245000Y-107690000D02*
G75*
G02X116145000Y-107690000I-50000J0D01*
G01*
X116145000Y-107690000D02*
G75*
G02X116245000Y-107690000I50000J0D01*
G01*
X116245000Y-107690000D02*
G75*
G02X116145000Y-107690000I-50000J0D01*
G01*
X116145000Y-107690000D02*
X116145000Y-107690000D01*
X116245000Y-107690000D02*
X116245000Y-107690000D01*
X116145000Y-107690000D02*
X116145000Y-107690000D01*
X124050000Y-106690000D02*
X124050000Y-113840000D01*
X124050000Y-106690000D02*
X124050000Y-106690000D01*
X124050000Y-113840000D02*
X124050000Y-106690000D01*
X124050000Y-113840000D02*
X124050000Y-113840000D01*
X116940000Y-113840000D02*
X116940000Y-113840000D01*
X124050000Y-113840000D02*
X116940000Y-113840000D01*
X124050000Y-113840000D02*
X124050000Y-113840000D01*
X116940000Y-113840000D02*
X124050000Y-113840000D01*
X116940000Y-113840000D02*
X116940000Y-106940000D01*
X116940000Y-113840000D02*
X116940000Y-113840000D01*
X116940000Y-106940000D02*
X116940000Y-113840000D01*
X116940000Y-106940000D02*
X116940000Y-106940000D01*
X116940000Y-103690000D02*
X116940000Y-103690000D01*
X124050000Y-103690000D02*
X116940000Y-103690000D01*
X124050000Y-103690000D02*
X124050000Y-103690000D01*
X116940000Y-103690000D02*
X124050000Y-103690000D01*
D11*
X128230000Y-77270000D02*
X128230000Y-76000000D01*
X129500000Y-77270000D02*
X128230000Y-77270000D01*
X142580000Y-74957071D02*
X142580000Y-74560000D01*
X141820000Y-74957071D02*
X141820000Y-74560000D01*
X142580000Y-65900000D02*
X142580000Y-71900000D01*
X141820000Y-65900000D02*
X142580000Y-65900000D01*
X141820000Y-71900000D02*
X141820000Y-65900000D01*
X140930000Y-74560000D02*
X140930000Y-71900000D01*
X140040000Y-74957071D02*
X140040000Y-74560000D01*
X139280000Y-74957071D02*
X139280000Y-74560000D01*
X140040000Y-65900000D02*
X140040000Y-71900000D01*
X139280000Y-65900000D02*
X140040000Y-65900000D01*
X139280000Y-71900000D02*
X139280000Y-65900000D01*
X138390000Y-74560000D02*
X138390000Y-71900000D01*
X137500000Y-74957071D02*
X137500000Y-74560000D01*
X136740000Y-74957071D02*
X136740000Y-74560000D01*
X137500000Y-65900000D02*
X137500000Y-71900000D01*
X136740000Y-65900000D02*
X137500000Y-65900000D01*
X136740000Y-71900000D02*
X136740000Y-65900000D01*
X135850000Y-74560000D02*
X135850000Y-71900000D01*
X134960000Y-74957071D02*
X134960000Y-74560000D01*
X134200000Y-74957071D02*
X134200000Y-74560000D01*
X134960000Y-65900000D02*
X134960000Y-71900000D01*
X134200000Y-65900000D02*
X134960000Y-65900000D01*
X134200000Y-71900000D02*
X134200000Y-65900000D01*
X133310000Y-74560000D02*
X133310000Y-71900000D01*
X132420000Y-74957071D02*
X132420000Y-74560000D01*
X131660000Y-74957071D02*
X131660000Y-74560000D01*
X132420000Y-65900000D02*
X132420000Y-71900000D01*
X131660000Y-65900000D02*
X132420000Y-65900000D01*
X131660000Y-71900000D02*
X131660000Y-65900000D01*
X130770000Y-74560000D02*
X130770000Y-71900000D01*
X129880000Y-74890000D02*
X129880000Y-74560000D01*
X129120000Y-74890000D02*
X129120000Y-74560000D01*
X129780000Y-71900000D02*
X129780000Y-65900000D01*
X129660000Y-71900000D02*
X129660000Y-65900000D01*
X129540000Y-71900000D02*
X129540000Y-65900000D01*
X129420000Y-71900000D02*
X129420000Y-65900000D01*
X129300000Y-71900000D02*
X129300000Y-65900000D01*
X129180000Y-71900000D02*
X129180000Y-65900000D01*
X129880000Y-65900000D02*
X129880000Y-71900000D01*
X129120000Y-65900000D02*
X129880000Y-65900000D01*
X129120000Y-71900000D02*
X129120000Y-65900000D01*
X128170000Y-71900000D02*
X128170000Y-74560000D01*
X143530000Y-71900000D02*
X128170000Y-71900000D01*
X143530000Y-74560000D02*
X143530000Y-71900000D01*
X128170000Y-74560000D02*
X143530000Y-74560000D01*
X111530000Y-77270000D02*
X111530000Y-76000000D01*
X112800000Y-77270000D02*
X111530000Y-77270000D01*
X118260000Y-74957071D02*
X118260000Y-74560000D01*
X117500000Y-74957071D02*
X117500000Y-74560000D01*
X118260000Y-65900000D02*
X118260000Y-71900000D01*
X117500000Y-65900000D02*
X118260000Y-65900000D01*
X117500000Y-71900000D02*
X117500000Y-65900000D01*
X116610000Y-74560000D02*
X116610000Y-71900000D01*
X115720000Y-74957071D02*
X115720000Y-74560000D01*
X114960000Y-74957071D02*
X114960000Y-74560000D01*
X115720000Y-65900000D02*
X115720000Y-71900000D01*
X114960000Y-65900000D02*
X115720000Y-65900000D01*
X114960000Y-71900000D02*
X114960000Y-65900000D01*
X114070000Y-74560000D02*
X114070000Y-71900000D01*
X113180000Y-74890000D02*
X113180000Y-74560000D01*
X112420000Y-74890000D02*
X112420000Y-74560000D01*
X113080000Y-71900000D02*
X113080000Y-65900000D01*
X112960000Y-71900000D02*
X112960000Y-65900000D01*
X112840000Y-71900000D02*
X112840000Y-65900000D01*
X112720000Y-71900000D02*
X112720000Y-65900000D01*
X112600000Y-71900000D02*
X112600000Y-65900000D01*
X112480000Y-71900000D02*
X112480000Y-65900000D01*
X113180000Y-65900000D02*
X113180000Y-71900000D01*
X112420000Y-65900000D02*
X113180000Y-65900000D01*
X112420000Y-71900000D02*
X112420000Y-65900000D01*
X111470000Y-71900000D02*
X111470000Y-74560000D01*
X119210000Y-71900000D02*
X111470000Y-71900000D01*
X119210000Y-74560000D02*
X119210000Y-71900000D01*
X111470000Y-74560000D02*
X119210000Y-74560000D01*
X121190000Y-77270000D02*
X121190000Y-76000000D01*
X122460000Y-77270000D02*
X121190000Y-77270000D01*
X125380000Y-74957071D02*
X125380000Y-74560000D01*
X124620000Y-74957071D02*
X124620000Y-74560000D01*
X125380000Y-65900000D02*
X125380000Y-71900000D01*
X124620000Y-65900000D02*
X125380000Y-65900000D01*
X124620000Y-71900000D02*
X124620000Y-65900000D01*
X123730000Y-74560000D02*
X123730000Y-71900000D01*
X122840000Y-74890000D02*
X122840000Y-74560000D01*
X122080000Y-74890000D02*
X122080000Y-74560000D01*
X122740000Y-71900000D02*
X122740000Y-65900000D01*
X122620000Y-71900000D02*
X122620000Y-65900000D01*
X122500000Y-71900000D02*
X122500000Y-65900000D01*
X122380000Y-71900000D02*
X122380000Y-65900000D01*
X122260000Y-71900000D02*
X122260000Y-65900000D01*
X122140000Y-71900000D02*
X122140000Y-65900000D01*
X122840000Y-65900000D02*
X122840000Y-71900000D01*
X122080000Y-65900000D02*
X122840000Y-65900000D01*
X122080000Y-71900000D02*
X122080000Y-65900000D01*
X121130000Y-71900000D02*
X121130000Y-74560000D01*
X126330000Y-71900000D02*
X121130000Y-71900000D01*
X126330000Y-74560000D02*
X126330000Y-71900000D01*
X121130000Y-74560000D02*
X126330000Y-74560000D01*
X100800000Y-78690000D02*
X102130000Y-78690000D01*
X102130000Y-78690000D02*
X102130000Y-80020000D01*
X102130000Y-81290000D02*
X102130000Y-99130000D01*
X99470000Y-99130000D02*
X102130000Y-99130000D01*
X99470000Y-81290000D02*
X99470000Y-99130000D01*
X99470000Y-81290000D02*
X102130000Y-81290000D01*
X143980000Y-78690000D02*
X145310000Y-78690000D01*
X145310000Y-78690000D02*
X145310000Y-80020000D01*
X145310000Y-81290000D02*
X145310000Y-99130000D01*
X142650000Y-99130000D02*
X145310000Y-99130000D01*
X142650000Y-81290000D02*
X142650000Y-99130000D01*
X142650000Y-81290000D02*
X145310000Y-81290000D01*
X106535000Y-95247500D02*
X106535000Y-96900000D01*
X106252500Y-95247500D02*
X106535000Y-95247500D01*
X106252500Y-92500000D02*
X106252500Y-95247500D01*
X106252500Y-89752500D02*
X106535000Y-89752500D01*
X106252500Y-92500000D02*
X106252500Y-89752500D01*
X111747500Y-95247500D02*
X111465000Y-95247500D01*
X111747500Y-92500000D02*
X111747500Y-95247500D01*
X111747500Y-89752500D02*
X111465000Y-89752500D01*
X111747500Y-92500000D02*
X111747500Y-89752500D01*
X110424721Y-87210000D02*
X110750279Y-87210000D01*
X110424721Y-86190000D02*
X110750279Y-86190000D01*
D12*
X120650000Y-88200000D02*
G75*
G03X120650000Y-88200000I-100000J0D01*
G01*
D14*
X121000000Y-87600000D02*
X121000000Y-86700000D01*
X121000000Y-86700000D02*
X122350000Y-86700000D01*
X132350000Y-86700000D02*
X133700000Y-86700000D01*
X133700000Y-86700000D02*
X133700000Y-87600000D01*
X132350000Y-98500000D02*
X133700000Y-98500000D01*
X133700000Y-98500000D02*
X133700000Y-97600000D01*
X121000000Y-97600000D02*
X121000000Y-98500000D01*
X121000000Y-98500000D02*
X122350000Y-98500000D01*
D11*
X125649721Y-85710000D02*
X125975279Y-85710000D01*
X125649721Y-84690000D02*
X125975279Y-84690000D01*
D12*
X139800000Y-109300000D02*
X142000000Y-109300000D01*
X136000000Y-109300000D02*
X138200000Y-109300000D01*
X139800000Y-103720000D02*
X142000000Y-103720000D01*
X136000000Y-103720000D02*
X138200000Y-103720000D01*
D11*
X134890000Y-92024721D02*
X134890000Y-92350279D01*
X135910000Y-92024721D02*
X135910000Y-92350279D01*
X115290000Y-94049721D02*
X115290000Y-94375279D01*
X116310000Y-94049721D02*
X116310000Y-94375279D01*
X116890000Y-94037221D02*
X116890000Y-94362779D01*
X117910000Y-94037221D02*
X117910000Y-94362779D01*
X118490000Y-94049721D02*
X118490000Y-94375279D01*
X119510000Y-94049721D02*
X119510000Y-94375279D01*
X118375279Y-89690000D02*
X118049721Y-89690000D01*
X118375279Y-90710000D02*
X118049721Y-90710000D01*
X118375279Y-91290000D02*
X118049721Y-91290000D01*
X118375279Y-92310000D02*
X118049721Y-92310000D01*
X119510000Y-87975279D02*
X119510000Y-87649721D01*
X118490000Y-87975279D02*
X118490000Y-87649721D01*
X117910000Y-87975279D02*
X117910000Y-87649721D01*
X116890000Y-87975279D02*
X116890000Y-87649721D01*
D10*
X129061904Y-107852380D02*
X129061904Y-106852380D01*
X129300000Y-106852380D01*
X129442857Y-106900000D01*
X129538095Y-106995238D01*
X129585714Y-107090476D01*
X129633333Y-107280952D01*
X129633333Y-107423809D01*
X129585714Y-107614285D01*
X129538095Y-107709523D01*
X129442857Y-107804761D01*
X129300000Y-107852380D01*
X129061904Y-107852380D01*
X130585714Y-107852380D02*
X130014285Y-107852380D01*
X130300000Y-107852380D02*
X130300000Y-106852380D01*
X130204761Y-106995238D01*
X130109523Y-107090476D01*
X130014285Y-107138095D01*
D15*
X131849047Y-107614285D02*
X131833809Y-107629523D01*
X131788095Y-107644761D01*
X131757619Y-107644761D01*
X131711904Y-107629523D01*
X131681428Y-107599047D01*
X131666190Y-107568571D01*
X131650952Y-107507619D01*
X131650952Y-107461904D01*
X131666190Y-107400952D01*
X131681428Y-107370476D01*
X131711904Y-107340000D01*
X131757619Y-107324761D01*
X131788095Y-107324761D01*
X131833809Y-107340000D01*
X131849047Y-107355238D01*
D10*
X128833333Y-105252380D02*
X128500000Y-104776190D01*
X128261904Y-105252380D02*
X128261904Y-104252380D01*
X128642857Y-104252380D01*
X128738095Y-104300000D01*
X128785714Y-104347619D01*
X128833333Y-104442857D01*
X128833333Y-104585714D01*
X128785714Y-104680952D01*
X128738095Y-104728571D01*
X128642857Y-104776190D01*
X128261904Y-104776190D01*
X129166666Y-104252380D02*
X129785714Y-104252380D01*
X129452380Y-104633333D01*
X129595238Y-104633333D01*
X129690476Y-104680952D01*
X129738095Y-104728571D01*
X129785714Y-104823809D01*
X129785714Y-105061904D01*
X129738095Y-105157142D01*
X129690476Y-105204761D01*
X129595238Y-105252380D01*
X129309523Y-105252380D01*
X129214285Y-105204761D01*
X129166666Y-105157142D01*
D16*
X103914047Y-109893333D02*
X103974523Y-109711904D01*
X103974523Y-109409523D01*
X103914047Y-109288571D01*
X103853571Y-109228095D01*
X103732619Y-109167619D01*
X103611666Y-109167619D01*
X103490714Y-109228095D01*
X103430238Y-109288571D01*
X103369761Y-109409523D01*
X103309285Y-109651428D01*
X103248809Y-109772380D01*
X103188333Y-109832857D01*
X103067380Y-109893333D01*
X102946428Y-109893333D01*
X102825476Y-109832857D01*
X102765000Y-109772380D01*
X102704523Y-109651428D01*
X102704523Y-109349047D01*
X102765000Y-109167619D01*
X102704523Y-108744285D02*
X103974523Y-108441904D01*
X103067380Y-108200000D01*
X103974523Y-107958095D01*
X102704523Y-107655714D01*
X102825476Y-107232380D02*
X102765000Y-107171904D01*
X102704523Y-107050952D01*
X102704523Y-106748571D01*
X102765000Y-106627619D01*
X102825476Y-106567142D01*
X102946428Y-106506666D01*
X103067380Y-106506666D01*
X103248809Y-106567142D01*
X103974523Y-107292857D01*
X103974523Y-106506666D01*
D10*
X111033333Y-102252380D02*
X110700000Y-101776190D01*
X110461904Y-102252380D02*
X110461904Y-101252380D01*
X110842857Y-101252380D01*
X110938095Y-101300000D01*
X110985714Y-101347619D01*
X111033333Y-101442857D01*
X111033333Y-101585714D01*
X110985714Y-101680952D01*
X110938095Y-101728571D01*
X110842857Y-101776190D01*
X110461904Y-101776190D01*
X111414285Y-101347619D02*
X111461904Y-101300000D01*
X111557142Y-101252380D01*
X111795238Y-101252380D01*
X111890476Y-101300000D01*
X111938095Y-101347619D01*
X111985714Y-101442857D01*
X111985714Y-101538095D01*
X111938095Y-101680952D01*
X111366666Y-102252380D01*
X111985714Y-102252380D01*
D16*
X116314047Y-109893333D02*
X116374523Y-109711904D01*
X116374523Y-109409523D01*
X116314047Y-109288571D01*
X116253571Y-109228095D01*
X116132619Y-109167619D01*
X116011666Y-109167619D01*
X115890714Y-109228095D01*
X115830238Y-109288571D01*
X115769761Y-109409523D01*
X115709285Y-109651428D01*
X115648809Y-109772380D01*
X115588333Y-109832857D01*
X115467380Y-109893333D01*
X115346428Y-109893333D01*
X115225476Y-109832857D01*
X115165000Y-109772380D01*
X115104523Y-109651428D01*
X115104523Y-109349047D01*
X115165000Y-109167619D01*
X115104523Y-108744285D02*
X116374523Y-108441904D01*
X115467380Y-108200000D01*
X116374523Y-107958095D01*
X115104523Y-107655714D01*
X116374523Y-106506666D02*
X116374523Y-107232380D01*
X116374523Y-106869523D02*
X115104523Y-106869523D01*
X115285952Y-106990476D01*
X115406904Y-107111428D01*
X115467380Y-107232380D01*
D10*
X126896666Y-72652380D02*
X126896666Y-73366666D01*
X126849047Y-73509523D01*
X126753809Y-73604761D01*
X126610952Y-73652380D01*
X126515714Y-73652380D01*
X127849047Y-72652380D02*
X127372857Y-72652380D01*
X127325238Y-73128571D01*
X127372857Y-73080952D01*
X127468095Y-73033333D01*
X127706190Y-73033333D01*
X127801428Y-73080952D01*
X127849047Y-73128571D01*
X127896666Y-73223809D01*
X127896666Y-73461904D01*
X127849047Y-73557142D01*
X127801428Y-73604761D01*
X127706190Y-73652380D01*
X127468095Y-73652380D01*
X127372857Y-73604761D01*
X127325238Y-73557142D01*
X110266666Y-72852380D02*
X110266666Y-73566666D01*
X110219047Y-73709523D01*
X110123809Y-73804761D01*
X109980952Y-73852380D01*
X109885714Y-73852380D01*
X111171428Y-73185714D02*
X111171428Y-73852380D01*
X110933333Y-72804761D02*
X110695238Y-73519047D01*
X111314285Y-73519047D01*
X119856666Y-72852380D02*
X119856666Y-73566666D01*
X119809047Y-73709523D01*
X119713809Y-73804761D01*
X119570952Y-73852380D01*
X119475714Y-73852380D01*
X120237619Y-72852380D02*
X120856666Y-72852380D01*
X120523333Y-73233333D01*
X120666190Y-73233333D01*
X120761428Y-73280952D01*
X120809047Y-73328571D01*
X120856666Y-73423809D01*
X120856666Y-73661904D01*
X120809047Y-73757142D01*
X120761428Y-73804761D01*
X120666190Y-73852380D01*
X120380476Y-73852380D01*
X120285238Y-73804761D01*
X120237619Y-73757142D01*
X100466666Y-76702380D02*
X100466666Y-77416666D01*
X100419047Y-77559523D01*
X100323809Y-77654761D01*
X100180952Y-77702380D01*
X100085714Y-77702380D01*
X100895238Y-76797619D02*
X100942857Y-76750000D01*
X101038095Y-76702380D01*
X101276190Y-76702380D01*
X101371428Y-76750000D01*
X101419047Y-76797619D01*
X101466666Y-76892857D01*
X101466666Y-76988095D01*
X101419047Y-77130952D01*
X100847619Y-77702380D01*
X101466666Y-77702380D01*
X143646666Y-76702380D02*
X143646666Y-77416666D01*
X143599047Y-77559523D01*
X143503809Y-77654761D01*
X143360952Y-77702380D01*
X143265714Y-77702380D01*
X144646666Y-77702380D02*
X144075238Y-77702380D01*
X144360952Y-77702380D02*
X144360952Y-76702380D01*
X144265714Y-76845238D01*
X144170476Y-76940476D01*
X144075238Y-76988095D01*
X113052380Y-93476190D02*
X112052380Y-93476190D01*
X112957142Y-92428571D02*
X113004761Y-92476190D01*
X113052380Y-92619047D01*
X113052380Y-92714285D01*
X113004761Y-92857142D01*
X112909523Y-92952380D01*
X112814285Y-93000000D01*
X112623809Y-93047619D01*
X112480952Y-93047619D01*
X112290476Y-93000000D01*
X112195238Y-92952380D01*
X112100000Y-92857142D01*
X112052380Y-92714285D01*
X112052380Y-92619047D01*
X112100000Y-92476190D01*
X112147619Y-92428571D01*
X113052380Y-91476190D02*
X113052380Y-92047619D01*
X113052380Y-91761904D02*
X112052380Y-91761904D01*
X112195238Y-91857142D01*
X112290476Y-91952380D01*
X112338095Y-92047619D01*
X110420833Y-85627142D02*
X110373214Y-85674761D01*
X110230357Y-85722380D01*
X110135119Y-85722380D01*
X109992261Y-85674761D01*
X109897023Y-85579523D01*
X109849404Y-85484285D01*
X109801785Y-85293809D01*
X109801785Y-85150952D01*
X109849404Y-84960476D01*
X109897023Y-84865238D01*
X109992261Y-84770000D01*
X110135119Y-84722380D01*
X110230357Y-84722380D01*
X110373214Y-84770000D01*
X110420833Y-84817619D01*
X110897023Y-85722380D02*
X111087500Y-85722380D01*
X111182738Y-85674761D01*
X111230357Y-85627142D01*
X111325595Y-85484285D01*
X111373214Y-85293809D01*
X111373214Y-84912857D01*
X111325595Y-84817619D01*
X111277976Y-84770000D01*
X111182738Y-84722380D01*
X110992261Y-84722380D01*
X110897023Y-84770000D01*
X110849404Y-84817619D01*
X110801785Y-84912857D01*
X110801785Y-85150952D01*
X110849404Y-85246190D01*
X110897023Y-85293809D01*
X110992261Y-85341428D01*
X111182738Y-85341428D01*
X111277976Y-85293809D01*
X111325595Y-85246190D01*
X111373214Y-85150952D01*
X122378095Y-85167380D02*
X122378095Y-85976904D01*
X122425714Y-86072142D01*
X122473333Y-86119761D01*
X122568571Y-86167380D01*
X122759047Y-86167380D01*
X122854285Y-86119761D01*
X122901904Y-86072142D01*
X122949523Y-85976904D01*
X122949523Y-85167380D01*
X123949523Y-86167380D02*
X123378095Y-86167380D01*
X123663809Y-86167380D02*
X123663809Y-85167380D01*
X123568571Y-85310238D01*
X123473333Y-85405476D01*
X123378095Y-85453095D01*
X121209523Y-99957142D02*
X121161904Y-100004761D01*
X121019047Y-100052380D01*
X120923809Y-100052380D01*
X120780952Y-100004761D01*
X120685714Y-99909523D01*
X120638095Y-99814285D01*
X120590476Y-99623809D01*
X120590476Y-99480952D01*
X120638095Y-99290476D01*
X120685714Y-99195238D01*
X120780952Y-99100000D01*
X120923809Y-99052380D01*
X121019047Y-99052380D01*
X121161904Y-99100000D01*
X121209523Y-99147619D01*
X121638095Y-100052380D02*
X121638095Y-99052380D01*
X121971428Y-99766666D01*
X122304761Y-99052380D01*
X122304761Y-100052380D01*
X122685714Y-99052380D02*
X122923809Y-100052380D01*
X123114285Y-99338095D01*
X123304761Y-100052380D01*
X123542857Y-99052380D01*
X123828571Y-99052380D02*
X124495238Y-100052380D01*
X124495238Y-99052380D02*
X123828571Y-100052380D01*
X125400000Y-100052380D02*
X124828571Y-100052380D01*
X125114285Y-100052380D02*
X125114285Y-99052380D01*
X125019047Y-99195238D01*
X124923809Y-99290476D01*
X124828571Y-99338095D01*
X125733333Y-99052380D02*
X126400000Y-99052380D01*
X125733333Y-100052380D01*
X126400000Y-100052380D01*
X126685714Y-99052380D02*
X127352380Y-99052380D01*
X126685714Y-100052380D01*
X127352380Y-100052380D01*
X127685714Y-99766666D02*
X128161904Y-99766666D01*
X127590476Y-100052380D02*
X127923809Y-99052380D01*
X128257142Y-100052380D01*
X128923809Y-99528571D02*
X129066666Y-99576190D01*
X129114285Y-99623809D01*
X129161904Y-99719047D01*
X129161904Y-99861904D01*
X129114285Y-99957142D01*
X129066666Y-100004761D01*
X128971428Y-100052380D01*
X128590476Y-100052380D01*
X128590476Y-99052380D01*
X128923809Y-99052380D01*
X129019047Y-99100000D01*
X129066666Y-99147619D01*
X129114285Y-99242857D01*
X129114285Y-99338095D01*
X129066666Y-99433333D01*
X129019047Y-99480952D01*
X128923809Y-99528571D01*
X128590476Y-99528571D01*
X129495238Y-99052380D02*
X130161904Y-99052380D01*
X129495238Y-100052380D01*
X130161904Y-100052380D01*
X130542857Y-99671428D02*
X131304761Y-99671428D01*
X131971428Y-99052380D02*
X132066666Y-99052380D01*
X132161904Y-99100000D01*
X132209523Y-99147619D01*
X132257142Y-99242857D01*
X132304761Y-99433333D01*
X132304761Y-99671428D01*
X132257142Y-99861904D01*
X132209523Y-99957142D01*
X132161904Y-100004761D01*
X132066666Y-100052380D01*
X131971428Y-100052380D01*
X131876190Y-100004761D01*
X131828571Y-99957142D01*
X131780952Y-99861904D01*
X131733333Y-99671428D01*
X131733333Y-99433333D01*
X131780952Y-99242857D01*
X131828571Y-99147619D01*
X131876190Y-99100000D01*
X131971428Y-99052380D01*
X132780952Y-100052380D02*
X132971428Y-100052380D01*
X133066666Y-100004761D01*
X133114285Y-99957142D01*
X133209523Y-99814285D01*
X133257142Y-99623809D01*
X133257142Y-99242857D01*
X133209523Y-99147619D01*
X133161904Y-99100000D01*
X133066666Y-99052380D01*
X132876190Y-99052380D01*
X132780952Y-99100000D01*
X132733333Y-99147619D01*
X132685714Y-99242857D01*
X132685714Y-99480952D01*
X132733333Y-99576190D01*
X132780952Y-99623809D01*
X132876190Y-99671428D01*
X133066666Y-99671428D01*
X133161904Y-99623809D01*
X133209523Y-99576190D01*
X133257142Y-99480952D01*
X134209523Y-100052380D02*
X133638095Y-100052380D01*
X133923809Y-100052380D02*
X133923809Y-99052380D01*
X133828571Y-99195238D01*
X133733333Y-99290476D01*
X133638095Y-99338095D01*
X125645833Y-84222380D02*
X125312500Y-83746190D01*
X125074404Y-84222380D02*
X125074404Y-83222380D01*
X125455357Y-83222380D01*
X125550595Y-83270000D01*
X125598214Y-83317619D01*
X125645833Y-83412857D01*
X125645833Y-83555714D01*
X125598214Y-83650952D01*
X125550595Y-83698571D01*
X125455357Y-83746190D01*
X125074404Y-83746190D01*
X126598214Y-84222380D02*
X126026785Y-84222380D01*
X126312500Y-84222380D02*
X126312500Y-83222380D01*
X126217261Y-83365238D01*
X126122023Y-83460476D01*
X126026785Y-83508095D01*
X142666666Y-102052380D02*
X142666666Y-102766666D01*
X142619047Y-102909523D01*
X142523809Y-103004761D01*
X142380952Y-103052380D01*
X142285714Y-103052380D01*
X143571428Y-102052380D02*
X143380952Y-102052380D01*
X143285714Y-102100000D01*
X143238095Y-102147619D01*
X143142857Y-102290476D01*
X143095238Y-102480952D01*
X143095238Y-102861904D01*
X143142857Y-102957142D01*
X143190476Y-103004761D01*
X143285714Y-103052380D01*
X143476190Y-103052380D01*
X143571428Y-103004761D01*
X143619047Y-102957142D01*
X143666666Y-102861904D01*
X143666666Y-102623809D01*
X143619047Y-102528571D01*
X143571428Y-102480952D01*
X143476190Y-102433333D01*
X143285714Y-102433333D01*
X143190476Y-102480952D01*
X143142857Y-102528571D01*
X143095238Y-102623809D01*
X137187142Y-92354166D02*
X137234761Y-92401785D01*
X137282380Y-92544642D01*
X137282380Y-92639880D01*
X137234761Y-92782738D01*
X137139523Y-92877976D01*
X137044285Y-92925595D01*
X136853809Y-92973214D01*
X136710952Y-92973214D01*
X136520476Y-92925595D01*
X136425238Y-92877976D01*
X136330000Y-92782738D01*
X136282380Y-92639880D01*
X136282380Y-92544642D01*
X136330000Y-92401785D01*
X136377619Y-92354166D01*
X136710952Y-91782738D02*
X136663333Y-91877976D01*
X136615714Y-91925595D01*
X136520476Y-91973214D01*
X136472857Y-91973214D01*
X136377619Y-91925595D01*
X136330000Y-91877976D01*
X136282380Y-91782738D01*
X136282380Y-91592261D01*
X136330000Y-91497023D01*
X136377619Y-91449404D01*
X136472857Y-91401785D01*
X136520476Y-91401785D01*
X136615714Y-91449404D01*
X136663333Y-91497023D01*
X136710952Y-91592261D01*
X136710952Y-91782738D01*
X136758571Y-91877976D01*
X136806190Y-91925595D01*
X136901428Y-91973214D01*
X137091904Y-91973214D01*
X137187142Y-91925595D01*
X137234761Y-91877976D01*
X137282380Y-91782738D01*
X137282380Y-91592261D01*
X137234761Y-91497023D01*
X137187142Y-91449404D01*
X137091904Y-91401785D01*
X136901428Y-91401785D01*
X136806190Y-91449404D01*
X136758571Y-91497023D01*
X136710952Y-91592261D01*
X116157142Y-96966666D02*
X116204761Y-97014285D01*
X116252380Y-97157142D01*
X116252380Y-97252380D01*
X116204761Y-97395238D01*
X116109523Y-97490476D01*
X116014285Y-97538095D01*
X115823809Y-97585714D01*
X115680952Y-97585714D01*
X115490476Y-97538095D01*
X115395238Y-97490476D01*
X115300000Y-97395238D01*
X115252380Y-97252380D01*
X115252380Y-97157142D01*
X115300000Y-97014285D01*
X115347619Y-96966666D01*
X115252380Y-96633333D02*
X115252380Y-95966666D01*
X116252380Y-96395238D01*
X117757142Y-96966666D02*
X117804761Y-97014285D01*
X117852380Y-97157142D01*
X117852380Y-97252380D01*
X117804761Y-97395238D01*
X117709523Y-97490476D01*
X117614285Y-97538095D01*
X117423809Y-97585714D01*
X117280952Y-97585714D01*
X117090476Y-97538095D01*
X116995238Y-97490476D01*
X116900000Y-97395238D01*
X116852380Y-97252380D01*
X116852380Y-97157142D01*
X116900000Y-97014285D01*
X116947619Y-96966666D01*
X116852380Y-96109523D02*
X116852380Y-96300000D01*
X116900000Y-96395238D01*
X116947619Y-96442857D01*
X117090476Y-96538095D01*
X117280952Y-96585714D01*
X117661904Y-96585714D01*
X117757142Y-96538095D01*
X117804761Y-96490476D01*
X117852380Y-96395238D01*
X117852380Y-96204761D01*
X117804761Y-96109523D01*
X117757142Y-96061904D01*
X117661904Y-96014285D01*
X117423809Y-96014285D01*
X117328571Y-96061904D01*
X117280952Y-96109523D01*
X117233333Y-96204761D01*
X117233333Y-96395238D01*
X117280952Y-96490476D01*
X117328571Y-96538095D01*
X117423809Y-96585714D01*
X119357142Y-96966666D02*
X119404761Y-97014285D01*
X119452380Y-97157142D01*
X119452380Y-97252380D01*
X119404761Y-97395238D01*
X119309523Y-97490476D01*
X119214285Y-97538095D01*
X119023809Y-97585714D01*
X118880952Y-97585714D01*
X118690476Y-97538095D01*
X118595238Y-97490476D01*
X118500000Y-97395238D01*
X118452380Y-97252380D01*
X118452380Y-97157142D01*
X118500000Y-97014285D01*
X118547619Y-96966666D01*
X118452380Y-96061904D02*
X118452380Y-96538095D01*
X118928571Y-96585714D01*
X118880952Y-96538095D01*
X118833333Y-96442857D01*
X118833333Y-96204761D01*
X118880952Y-96109523D01*
X118928571Y-96061904D01*
X119023809Y-96014285D01*
X119261904Y-96014285D01*
X119357142Y-96061904D01*
X119404761Y-96109523D01*
X119452380Y-96204761D01*
X119452380Y-96442857D01*
X119404761Y-96538095D01*
X119357142Y-96585714D01*
X115633333Y-90557142D02*
X115585714Y-90604761D01*
X115442857Y-90652380D01*
X115347619Y-90652380D01*
X115204761Y-90604761D01*
X115109523Y-90509523D01*
X115061904Y-90414285D01*
X115014285Y-90223809D01*
X115014285Y-90080952D01*
X115061904Y-89890476D01*
X115109523Y-89795238D01*
X115204761Y-89700000D01*
X115347619Y-89652380D01*
X115442857Y-89652380D01*
X115585714Y-89700000D01*
X115633333Y-89747619D01*
X116490476Y-89985714D02*
X116490476Y-90652380D01*
X116252380Y-89604761D02*
X116014285Y-90319047D01*
X116633333Y-90319047D01*
X115633333Y-92157142D02*
X115585714Y-92204761D01*
X115442857Y-92252380D01*
X115347619Y-92252380D01*
X115204761Y-92204761D01*
X115109523Y-92109523D01*
X115061904Y-92014285D01*
X115014285Y-91823809D01*
X115014285Y-91680952D01*
X115061904Y-91490476D01*
X115109523Y-91395238D01*
X115204761Y-91300000D01*
X115347619Y-91252380D01*
X115442857Y-91252380D01*
X115585714Y-91300000D01*
X115633333Y-91347619D01*
X115966666Y-91252380D02*
X116585714Y-91252380D01*
X116252380Y-91633333D01*
X116395238Y-91633333D01*
X116490476Y-91680952D01*
X116538095Y-91728571D01*
X116585714Y-91823809D01*
X116585714Y-92061904D01*
X116538095Y-92157142D01*
X116490476Y-92204761D01*
X116395238Y-92252380D01*
X116109523Y-92252380D01*
X116014285Y-92204761D01*
X115966666Y-92157142D01*
X117927142Y-87979166D02*
X117974761Y-88026785D01*
X118022380Y-88169642D01*
X118022380Y-88264880D01*
X117974761Y-88407738D01*
X117879523Y-88502976D01*
X117784285Y-88550595D01*
X117593809Y-88598214D01*
X117450952Y-88598214D01*
X117260476Y-88550595D01*
X117165238Y-88502976D01*
X117070000Y-88407738D01*
X117022380Y-88264880D01*
X117022380Y-88169642D01*
X117070000Y-88026785D01*
X117117619Y-87979166D01*
X117117619Y-87598214D02*
X117070000Y-87550595D01*
X117022380Y-87455357D01*
X117022380Y-87217261D01*
X117070000Y-87122023D01*
X117117619Y-87074404D01*
X117212857Y-87026785D01*
X117308095Y-87026785D01*
X117450952Y-87074404D01*
X118022380Y-87645833D01*
X118022380Y-87026785D01*
X116327142Y-87979166D02*
X116374761Y-88026785D01*
X116422380Y-88169642D01*
X116422380Y-88264880D01*
X116374761Y-88407738D01*
X116279523Y-88502976D01*
X116184285Y-88550595D01*
X115993809Y-88598214D01*
X115850952Y-88598214D01*
X115660476Y-88550595D01*
X115565238Y-88502976D01*
X115470000Y-88407738D01*
X115422380Y-88264880D01*
X115422380Y-88169642D01*
X115470000Y-88026785D01*
X115517619Y-87979166D01*
X116422380Y-87026785D02*
X116422380Y-87598214D01*
X116422380Y-87312500D02*
X115422380Y-87312500D01*
X115565238Y-87407738D01*
X115660476Y-87502976D01*
X115708095Y-87598214D01*
M02*
