M48
; DRILL file {KiCad (5.1.4)-1} date 25/02/2020 16:57:00
; FORMAT={-:-/ absolute / inch / decimal}
; #@! TF.CreationDate,2020-02-25T16:57:00+01:00
; #@! TF.GenerationSoftware,Kicad,Pcbnew,(5.1.4)-1
; #@! TF.FileFunction,Plated,1,4,PTH
FMAT,2
INCH
T1C0.0157
T2C0.0394
T3C0.0410
T4C0.0532
%
G90
G05
T1
X4.189Y-3.9921
X4.2323Y-3.5827
X4.2638Y-3.8661
X4.2677Y-3.9636
X4.2874Y-3.5787
X4.3622Y-3.8661
X4.3661Y-3.9872
X4.4291Y-3.4173
X4.5118Y-3.7638
X4.5197Y-3.5433
X4.5669Y-3.5669
X4.5748Y-3.3937
X4.6614Y-3.3307
X4.7402Y-3.5984
X4.8346Y-3.5433
X4.8346Y-3.6693
X4.8819Y-3.3386
X4.9134Y-3.5512
X4.9134Y-3.6535
X4.9134Y-3.748
X5.0079Y-3.6457
X5.0157Y-3.5354
X5.0157Y-3.748
X5.0207Y-3.8031
X5.063Y-3.8031
X5.1024Y-3.748
X5.1102Y-3.5354
X5.1102Y-3.8031
X5.1181Y-3.6614
X5.1516Y-3.8022
X5.1811Y-3.5512
X5.189Y-3.8189
X5.1969Y-4.2283
X5.2598Y-3.8583
X5.3002Y-3.7215
X5.3071Y-4.189
X5.3465Y-3.5354
X5.4094Y-3.5433
X5.5709Y-3.748
X5.6378Y-4.189
T2
X5.0984Y-2.9921
X5.1984Y-2.9921
X5.2984Y-2.9921
X5.3984Y-2.9921
X5.4984Y-2.9921
X5.5984Y-2.9921
X3.9685Y-3.1504
X3.9685Y-3.2504
X3.9685Y-3.3504
X3.9685Y-3.4504
X3.9685Y-3.5504
X3.9685Y-3.6504
X3.9685Y-3.7504
X3.9685Y-3.8504
X4.8213Y-2.9921
X4.9213Y-2.9921
X5.6685Y-3.1504
X5.6685Y-3.2504
X5.6685Y-3.3504
X5.6685Y-3.4504
X5.6685Y-3.5504
X5.6685Y-3.6504
X5.6685Y-3.7504
X5.6685Y-3.8504
X4.4409Y-2.9921
X4.5409Y-2.9921
X4.6409Y-2.9921
T3
X4.6553Y-4.2398
X4.8325Y-4.2398
X4.1671Y-4.2398
X4.3443Y-4.2398
T4
X4.6059Y-4.1417
X4.8819Y-4.1417
X4.1177Y-4.1417
X4.3937Y-4.1417
T0
M30
