G04 #@! TF.GenerationSoftware,KiCad,Pcbnew,(5.1.4)-1*
G04 #@! TF.CreationDate,2020-02-25T16:56:55+01:00*
G04 #@! TF.ProjectId,Master Thesis PCB,4d617374-6572-4205-9468-657369732050,rev?*
G04 #@! TF.SameCoordinates,Original*
G04 #@! TF.FileFunction,Copper,L2,Inr*
G04 #@! TF.FilePolarity,Positive*
%FSLAX46Y46*%
G04 Gerber Fmt 4.6, Leading zero omitted, Abs format (unit mm)*
G04 Created by KiCad (PCBNEW (5.1.4)-1) date 2020-02-25 16:56:55*
%MOMM*%
%LPD*%
G04 APERTURE LIST*
%ADD10C,2.026000*%
%ADD11C,1.561000*%
%ADD12O,1.700000X1.700000*%
%ADD13R,1.700000X1.700000*%
%ADD14C,0.800000*%
%ADD15C,0.254000*%
G04 APERTURE END LIST*
D10*
X111600000Y-105200000D03*
X104590000Y-105200000D03*
D11*
X110345000Y-107690000D03*
X105845000Y-107690000D03*
D10*
X124000000Y-105200000D03*
X116990000Y-105200000D03*
D11*
X122745000Y-107690000D03*
X118245000Y-107690000D03*
D12*
X142200000Y-76000000D03*
X139660000Y-76000000D03*
X137120000Y-76000000D03*
X134580000Y-76000000D03*
X132040000Y-76000000D03*
D13*
X129500000Y-76000000D03*
D12*
X117880000Y-76000000D03*
X115340000Y-76000000D03*
D13*
X112800000Y-76000000D03*
D12*
X125000000Y-76000000D03*
D13*
X122460000Y-76000000D03*
D12*
X100800000Y-97800000D03*
X100800000Y-95260000D03*
X100800000Y-92720000D03*
X100800000Y-90180000D03*
X100800000Y-87640000D03*
X100800000Y-85100000D03*
X100800000Y-82560000D03*
D13*
X100800000Y-80020000D03*
D12*
X143980000Y-97800000D03*
X143980000Y-95260000D03*
X143980000Y-92720000D03*
X143980000Y-90180000D03*
X143980000Y-87640000D03*
X143980000Y-85100000D03*
X143980000Y-82560000D03*
D13*
X143980000Y-80020000D03*
D14*
X134800000Y-106400000D03*
X143200000Y-106400000D03*
X129600000Y-95200000D03*
X127400000Y-95200000D03*
X124800000Y-95200000D03*
X124800000Y-92800000D03*
X127200000Y-92600000D03*
X130000000Y-93000000D03*
X129800000Y-89800000D03*
X127400000Y-89800000D03*
X124800000Y-90200000D03*
X134625000Y-94525010D03*
X124000000Y-84800000D03*
X116200000Y-86200000D03*
X114600000Y-95600000D03*
X116000000Y-90600000D03*
X122800000Y-90000000D03*
X122800000Y-93200000D03*
X133600000Y-98000000D03*
X132000000Y-107400000D03*
X108900000Y-90900000D03*
X112500000Y-86800000D03*
X120400000Y-91400000D03*
X137399992Y-90000000D03*
X106400000Y-101400000D03*
X114800000Y-90000000D03*
X141500000Y-95200000D03*
X131800000Y-97000000D03*
X130849457Y-96575862D03*
X129800000Y-96600000D03*
X128600000Y-96600000D03*
X127525010Y-96600000D03*
X110800000Y-98200000D03*
X110900000Y-101274990D03*
X108400000Y-100675010D03*
X108300000Y-98200000D03*
X107500000Y-91000000D03*
X118400000Y-84600000D03*
X131600000Y-90200000D03*
X135800000Y-89800000D03*
D15*
G36*
X145090000Y-78588954D02*
G01*
X145074180Y-78580498D01*
X144954482Y-78544188D01*
X144830000Y-78531928D01*
X143130000Y-78531928D01*
X143005518Y-78544188D01*
X142885820Y-78580498D01*
X142775506Y-78639463D01*
X142678815Y-78718815D01*
X142599463Y-78815506D01*
X142540498Y-78925820D01*
X142504188Y-79045518D01*
X142491928Y-79170000D01*
X142491928Y-80870000D01*
X142504188Y-80994482D01*
X142540498Y-81114180D01*
X142599463Y-81224494D01*
X142678815Y-81321185D01*
X142775506Y-81400537D01*
X142885820Y-81459502D01*
X142954687Y-81480393D01*
X142924866Y-81504866D01*
X142739294Y-81730986D01*
X142601401Y-81988966D01*
X142516487Y-82268889D01*
X142487815Y-82560000D01*
X142516487Y-82851111D01*
X142601401Y-83131034D01*
X142739294Y-83389014D01*
X142924866Y-83615134D01*
X143150986Y-83800706D01*
X143215523Y-83835201D01*
X143098645Y-83904822D01*
X142882412Y-84099731D01*
X142708359Y-84333080D01*
X142583175Y-84595901D01*
X142538524Y-84743110D01*
X142659845Y-84973000D01*
X143853000Y-84973000D01*
X143853000Y-84953000D01*
X144107000Y-84953000D01*
X144107000Y-84973000D01*
X144127000Y-84973000D01*
X144127000Y-85227000D01*
X144107000Y-85227000D01*
X144107000Y-85247000D01*
X143853000Y-85247000D01*
X143853000Y-85227000D01*
X142659845Y-85227000D01*
X142538524Y-85456890D01*
X142583175Y-85604099D01*
X142708359Y-85866920D01*
X142882412Y-86100269D01*
X143098645Y-86295178D01*
X143215523Y-86364799D01*
X143150986Y-86399294D01*
X142924866Y-86584866D01*
X142739294Y-86810986D01*
X142601401Y-87068966D01*
X142516487Y-87348889D01*
X142487815Y-87640000D01*
X142516487Y-87931111D01*
X142601401Y-88211034D01*
X142739294Y-88469014D01*
X142924866Y-88695134D01*
X143150986Y-88880706D01*
X143205791Y-88910000D01*
X143150986Y-88939294D01*
X142924866Y-89124866D01*
X142739294Y-89350986D01*
X142601401Y-89608966D01*
X142516487Y-89888889D01*
X142487815Y-90180000D01*
X142516487Y-90471111D01*
X142601401Y-90751034D01*
X142739294Y-91009014D01*
X142924866Y-91235134D01*
X143150986Y-91420706D01*
X143205791Y-91450000D01*
X143150986Y-91479294D01*
X142924866Y-91664866D01*
X142739294Y-91890986D01*
X142601401Y-92148966D01*
X142516487Y-92428889D01*
X142487815Y-92720000D01*
X142516487Y-93011111D01*
X142601401Y-93291034D01*
X142739294Y-93549014D01*
X142924866Y-93775134D01*
X143150986Y-93960706D01*
X143205791Y-93990000D01*
X143150986Y-94019294D01*
X142924866Y-94204866D01*
X142739294Y-94430986D01*
X142601401Y-94688966D01*
X142516487Y-94968889D01*
X142514109Y-94993034D01*
X142495226Y-94898102D01*
X142417205Y-94709744D01*
X142303937Y-94540226D01*
X142159774Y-94396063D01*
X141990256Y-94282795D01*
X141801898Y-94204774D01*
X141601939Y-94165000D01*
X141398061Y-94165000D01*
X141198102Y-94204774D01*
X141009744Y-94282795D01*
X140840226Y-94396063D01*
X140696063Y-94540226D01*
X140582795Y-94709744D01*
X140504774Y-94898102D01*
X140465000Y-95098061D01*
X140465000Y-95301939D01*
X140504774Y-95501898D01*
X140582795Y-95690256D01*
X140696063Y-95859774D01*
X140840226Y-96003937D01*
X141009744Y-96117205D01*
X141198102Y-96195226D01*
X141398061Y-96235000D01*
X141601939Y-96235000D01*
X141801898Y-96195226D01*
X141990256Y-96117205D01*
X142159774Y-96003937D01*
X142303937Y-95859774D01*
X142417205Y-95690256D01*
X142495226Y-95501898D01*
X142506204Y-95446707D01*
X142516487Y-95551111D01*
X142601401Y-95831034D01*
X142739294Y-96089014D01*
X142924866Y-96315134D01*
X143150986Y-96500706D01*
X143205791Y-96530000D01*
X143150986Y-96559294D01*
X142924866Y-96744866D01*
X142739294Y-96970986D01*
X142601401Y-97228966D01*
X142516487Y-97508889D01*
X142487815Y-97800000D01*
X142516487Y-98091111D01*
X142601401Y-98371034D01*
X142739294Y-98629014D01*
X142924866Y-98855134D01*
X143150986Y-99040706D01*
X143408966Y-99178599D01*
X143688889Y-99263513D01*
X143907050Y-99285000D01*
X144052950Y-99285000D01*
X144271111Y-99263513D01*
X144551034Y-99178599D01*
X144809014Y-99040706D01*
X145035134Y-98855134D01*
X145090001Y-98788279D01*
X145090001Y-109690000D01*
X99510000Y-109690000D01*
X99510000Y-108668778D01*
X105045827Y-108668778D01*
X105115049Y-108910757D01*
X105367232Y-109029707D01*
X105637776Y-109097173D01*
X105916283Y-109110562D01*
X106192052Y-109069360D01*
X106454483Y-108975149D01*
X106574951Y-108910757D01*
X106644173Y-108668778D01*
X105845000Y-107869605D01*
X105045827Y-108668778D01*
X99510000Y-108668778D01*
X99510000Y-105037686D01*
X102942000Y-105037686D01*
X102942000Y-105362314D01*
X103005332Y-105680704D01*
X103129561Y-105980621D01*
X103309915Y-106250539D01*
X103539461Y-106480085D01*
X103809379Y-106660439D01*
X104109296Y-106784668D01*
X104427686Y-106848000D01*
X104752314Y-106848000D01*
X104811599Y-106836207D01*
X104866220Y-106890828D01*
X104624243Y-106960049D01*
X104505293Y-107212232D01*
X104437827Y-107482776D01*
X104424438Y-107761283D01*
X104465640Y-108037052D01*
X104559851Y-108299483D01*
X104624243Y-108419951D01*
X104866222Y-108489173D01*
X105665395Y-107690000D01*
X106024605Y-107690000D01*
X106823778Y-108489173D01*
X107065757Y-108419951D01*
X107184707Y-108167768D01*
X107252173Y-107897224D01*
X107265562Y-107618717D01*
X107255383Y-107550585D01*
X108929500Y-107550585D01*
X108929500Y-107829415D01*
X108983897Y-108102886D01*
X109090600Y-108360491D01*
X109245509Y-108592329D01*
X109442671Y-108789491D01*
X109674509Y-108944400D01*
X109932114Y-109051103D01*
X110205585Y-109105500D01*
X110484415Y-109105500D01*
X110757886Y-109051103D01*
X111015491Y-108944400D01*
X111247329Y-108789491D01*
X111368042Y-108668778D01*
X117445827Y-108668778D01*
X117515049Y-108910757D01*
X117767232Y-109029707D01*
X118037776Y-109097173D01*
X118316283Y-109110562D01*
X118592052Y-109069360D01*
X118854483Y-108975149D01*
X118974951Y-108910757D01*
X119044173Y-108668778D01*
X118245000Y-107869605D01*
X117445827Y-108668778D01*
X111368042Y-108668778D01*
X111444491Y-108592329D01*
X111599400Y-108360491D01*
X111706103Y-108102886D01*
X111760500Y-107829415D01*
X111760500Y-107550585D01*
X111706103Y-107277114D01*
X111599400Y-107019509D01*
X111484801Y-106848000D01*
X111762314Y-106848000D01*
X112080704Y-106784668D01*
X112380621Y-106660439D01*
X112650539Y-106480085D01*
X112880085Y-106250539D01*
X113060439Y-105980621D01*
X113184668Y-105680704D01*
X113248000Y-105362314D01*
X113248000Y-105037686D01*
X115342000Y-105037686D01*
X115342000Y-105362314D01*
X115405332Y-105680704D01*
X115529561Y-105980621D01*
X115709915Y-106250539D01*
X115939461Y-106480085D01*
X116209379Y-106660439D01*
X116509296Y-106784668D01*
X116827686Y-106848000D01*
X117152314Y-106848000D01*
X117211599Y-106836207D01*
X117266220Y-106890828D01*
X117024243Y-106960049D01*
X116905293Y-107212232D01*
X116837827Y-107482776D01*
X116824438Y-107761283D01*
X116865640Y-108037052D01*
X116959851Y-108299483D01*
X117024243Y-108419951D01*
X117266222Y-108489173D01*
X118065395Y-107690000D01*
X118424605Y-107690000D01*
X119223778Y-108489173D01*
X119465757Y-108419951D01*
X119584707Y-108167768D01*
X119652173Y-107897224D01*
X119665562Y-107618717D01*
X119655383Y-107550585D01*
X121329500Y-107550585D01*
X121329500Y-107829415D01*
X121383897Y-108102886D01*
X121490600Y-108360491D01*
X121645509Y-108592329D01*
X121842671Y-108789491D01*
X122074509Y-108944400D01*
X122332114Y-109051103D01*
X122605585Y-109105500D01*
X122884415Y-109105500D01*
X123157886Y-109051103D01*
X123415491Y-108944400D01*
X123647329Y-108789491D01*
X123844491Y-108592329D01*
X123999400Y-108360491D01*
X124106103Y-108102886D01*
X124160500Y-107829415D01*
X124160500Y-107550585D01*
X124106103Y-107277114D01*
X123999400Y-107019509D01*
X123884801Y-106848000D01*
X124162314Y-106848000D01*
X124480704Y-106784668D01*
X124780621Y-106660439D01*
X125050539Y-106480085D01*
X125280085Y-106250539D01*
X125460439Y-105980621D01*
X125584668Y-105680704D01*
X125648000Y-105362314D01*
X125648000Y-105037686D01*
X125584668Y-104719296D01*
X125460439Y-104419379D01*
X125280085Y-104149461D01*
X125050539Y-103919915D01*
X124780621Y-103739561D01*
X124480704Y-103615332D01*
X124162314Y-103552000D01*
X123837686Y-103552000D01*
X123519296Y-103615332D01*
X123219379Y-103739561D01*
X122949461Y-103919915D01*
X122719915Y-104149461D01*
X122539561Y-104419379D01*
X122415332Y-104719296D01*
X122352000Y-105037686D01*
X122352000Y-105362314D01*
X122415332Y-105680704D01*
X122539561Y-105980621D01*
X122719915Y-106250539D01*
X122743876Y-106274500D01*
X122605585Y-106274500D01*
X122332114Y-106328897D01*
X122074509Y-106435600D01*
X121842671Y-106590509D01*
X121645509Y-106787671D01*
X121490600Y-107019509D01*
X121383897Y-107277114D01*
X121329500Y-107550585D01*
X119655383Y-107550585D01*
X119624360Y-107342948D01*
X119530149Y-107080517D01*
X119465757Y-106960049D01*
X119223778Y-106890827D01*
X118424605Y-107690000D01*
X118065395Y-107690000D01*
X118051253Y-107675858D01*
X118230858Y-107496253D01*
X118245000Y-107510395D01*
X119044173Y-106711222D01*
X118974951Y-106469243D01*
X118722768Y-106350293D01*
X118452224Y-106282827D01*
X118247633Y-106272991D01*
X118270085Y-106250539D01*
X118450439Y-105980621D01*
X118574668Y-105680704D01*
X118638000Y-105362314D01*
X118638000Y-105037686D01*
X118574668Y-104719296D01*
X118450439Y-104419379D01*
X118270085Y-104149461D01*
X118040539Y-103919915D01*
X117770621Y-103739561D01*
X117470704Y-103615332D01*
X117152314Y-103552000D01*
X116827686Y-103552000D01*
X116509296Y-103615332D01*
X116209379Y-103739561D01*
X115939461Y-103919915D01*
X115709915Y-104149461D01*
X115529561Y-104419379D01*
X115405332Y-104719296D01*
X115342000Y-105037686D01*
X113248000Y-105037686D01*
X113184668Y-104719296D01*
X113060439Y-104419379D01*
X112880085Y-104149461D01*
X112650539Y-103919915D01*
X112380621Y-103739561D01*
X112080704Y-103615332D01*
X111762314Y-103552000D01*
X111437686Y-103552000D01*
X111119296Y-103615332D01*
X110819379Y-103739561D01*
X110549461Y-103919915D01*
X110319915Y-104149461D01*
X110139561Y-104419379D01*
X110015332Y-104719296D01*
X109952000Y-105037686D01*
X109952000Y-105362314D01*
X110015332Y-105680704D01*
X110139561Y-105980621D01*
X110319915Y-106250539D01*
X110343876Y-106274500D01*
X110205585Y-106274500D01*
X109932114Y-106328897D01*
X109674509Y-106435600D01*
X109442671Y-106590509D01*
X109245509Y-106787671D01*
X109090600Y-107019509D01*
X108983897Y-107277114D01*
X108929500Y-107550585D01*
X107255383Y-107550585D01*
X107224360Y-107342948D01*
X107130149Y-107080517D01*
X107065757Y-106960049D01*
X106823778Y-106890827D01*
X106024605Y-107690000D01*
X105665395Y-107690000D01*
X105651253Y-107675858D01*
X105830858Y-107496253D01*
X105845000Y-107510395D01*
X106644173Y-106711222D01*
X106574951Y-106469243D01*
X106322768Y-106350293D01*
X106052224Y-106282827D01*
X105847633Y-106272991D01*
X105870085Y-106250539D01*
X106050439Y-105980621D01*
X106174668Y-105680704D01*
X106238000Y-105362314D01*
X106238000Y-105037686D01*
X106174668Y-104719296D01*
X106050439Y-104419379D01*
X105870085Y-104149461D01*
X105640539Y-103919915D01*
X105370621Y-103739561D01*
X105070704Y-103615332D01*
X104752314Y-103552000D01*
X104427686Y-103552000D01*
X104109296Y-103615332D01*
X103809379Y-103739561D01*
X103539461Y-103919915D01*
X103309915Y-104149461D01*
X103129561Y-104419379D01*
X103005332Y-104719296D01*
X102942000Y-105037686D01*
X99510000Y-105037686D01*
X99510000Y-101298061D01*
X105365000Y-101298061D01*
X105365000Y-101501939D01*
X105404774Y-101701898D01*
X105482795Y-101890256D01*
X105596063Y-102059774D01*
X105740226Y-102203937D01*
X105909744Y-102317205D01*
X106098102Y-102395226D01*
X106298061Y-102435000D01*
X106501939Y-102435000D01*
X106701898Y-102395226D01*
X106890256Y-102317205D01*
X107059774Y-102203937D01*
X107203937Y-102059774D01*
X107317205Y-101890256D01*
X107395226Y-101701898D01*
X107435000Y-101501939D01*
X107435000Y-101298061D01*
X107395226Y-101098102D01*
X107317205Y-100909744D01*
X107203937Y-100740226D01*
X107059774Y-100596063D01*
X107025364Y-100573071D01*
X107365000Y-100573071D01*
X107365000Y-100776949D01*
X107404774Y-100976908D01*
X107482795Y-101165266D01*
X107596063Y-101334784D01*
X107740226Y-101478947D01*
X107909744Y-101592215D01*
X108098102Y-101670236D01*
X108298061Y-101710010D01*
X108501939Y-101710010D01*
X108701898Y-101670236D01*
X108890256Y-101592215D01*
X109059774Y-101478947D01*
X109203937Y-101334784D01*
X109312003Y-101173051D01*
X109865000Y-101173051D01*
X109865000Y-101376929D01*
X109904774Y-101576888D01*
X109982795Y-101765246D01*
X110096063Y-101934764D01*
X110240226Y-102078927D01*
X110409744Y-102192195D01*
X110598102Y-102270216D01*
X110798061Y-102309990D01*
X111001939Y-102309990D01*
X111201898Y-102270216D01*
X111390256Y-102192195D01*
X111559774Y-102078927D01*
X111703937Y-101934764D01*
X111817205Y-101765246D01*
X111895226Y-101576888D01*
X111935000Y-101376929D01*
X111935000Y-101173051D01*
X111895226Y-100973092D01*
X111817205Y-100784734D01*
X111703937Y-100615216D01*
X111559774Y-100471053D01*
X111390256Y-100357785D01*
X111201898Y-100279764D01*
X111001939Y-100239990D01*
X110798061Y-100239990D01*
X110598102Y-100279764D01*
X110409744Y-100357785D01*
X110240226Y-100471053D01*
X110096063Y-100615216D01*
X109982795Y-100784734D01*
X109904774Y-100973092D01*
X109865000Y-101173051D01*
X109312003Y-101173051D01*
X109317205Y-101165266D01*
X109395226Y-100976908D01*
X109435000Y-100776949D01*
X109435000Y-100573071D01*
X109395226Y-100373112D01*
X109317205Y-100184754D01*
X109203937Y-100015236D01*
X109059774Y-99871073D01*
X108890256Y-99757805D01*
X108701898Y-99679784D01*
X108501939Y-99640010D01*
X108298061Y-99640010D01*
X108098102Y-99679784D01*
X107909744Y-99757805D01*
X107740226Y-99871073D01*
X107596063Y-100015236D01*
X107482795Y-100184754D01*
X107404774Y-100373112D01*
X107365000Y-100573071D01*
X107025364Y-100573071D01*
X106890256Y-100482795D01*
X106701898Y-100404774D01*
X106501939Y-100365000D01*
X106298061Y-100365000D01*
X106098102Y-100404774D01*
X105909744Y-100482795D01*
X105740226Y-100596063D01*
X105596063Y-100740226D01*
X105482795Y-100909744D01*
X105404774Y-101098102D01*
X105365000Y-101298061D01*
X99510000Y-101298061D01*
X99510000Y-98536791D01*
X99559294Y-98629014D01*
X99744866Y-98855134D01*
X99970986Y-99040706D01*
X100228966Y-99178599D01*
X100508889Y-99263513D01*
X100727050Y-99285000D01*
X100872950Y-99285000D01*
X101091111Y-99263513D01*
X101371034Y-99178599D01*
X101629014Y-99040706D01*
X101855134Y-98855134D01*
X102040706Y-98629014D01*
X102178599Y-98371034D01*
X102261404Y-98098061D01*
X107265000Y-98098061D01*
X107265000Y-98301939D01*
X107304774Y-98501898D01*
X107382795Y-98690256D01*
X107496063Y-98859774D01*
X107640226Y-99003937D01*
X107809744Y-99117205D01*
X107998102Y-99195226D01*
X108198061Y-99235000D01*
X108401939Y-99235000D01*
X108601898Y-99195226D01*
X108790256Y-99117205D01*
X108959774Y-99003937D01*
X109103937Y-98859774D01*
X109217205Y-98690256D01*
X109295226Y-98501898D01*
X109335000Y-98301939D01*
X109335000Y-98098061D01*
X109765000Y-98098061D01*
X109765000Y-98301939D01*
X109804774Y-98501898D01*
X109882795Y-98690256D01*
X109996063Y-98859774D01*
X110140226Y-99003937D01*
X110309744Y-99117205D01*
X110498102Y-99195226D01*
X110698061Y-99235000D01*
X110901939Y-99235000D01*
X111101898Y-99195226D01*
X111290256Y-99117205D01*
X111459774Y-99003937D01*
X111603937Y-98859774D01*
X111717205Y-98690256D01*
X111795226Y-98501898D01*
X111835000Y-98301939D01*
X111835000Y-98098061D01*
X111795226Y-97898102D01*
X111717205Y-97709744D01*
X111603937Y-97540226D01*
X111459774Y-97396063D01*
X111290256Y-97282795D01*
X111101898Y-97204774D01*
X110901939Y-97165000D01*
X110698061Y-97165000D01*
X110498102Y-97204774D01*
X110309744Y-97282795D01*
X110140226Y-97396063D01*
X109996063Y-97540226D01*
X109882795Y-97709744D01*
X109804774Y-97898102D01*
X109765000Y-98098061D01*
X109335000Y-98098061D01*
X109295226Y-97898102D01*
X109217205Y-97709744D01*
X109103937Y-97540226D01*
X108959774Y-97396063D01*
X108790256Y-97282795D01*
X108601898Y-97204774D01*
X108401939Y-97165000D01*
X108198061Y-97165000D01*
X107998102Y-97204774D01*
X107809744Y-97282795D01*
X107640226Y-97396063D01*
X107496063Y-97540226D01*
X107382795Y-97709744D01*
X107304774Y-97898102D01*
X107265000Y-98098061D01*
X102261404Y-98098061D01*
X102263513Y-98091111D01*
X102292185Y-97800000D01*
X102263513Y-97508889D01*
X102178599Y-97228966D01*
X102040706Y-96970986D01*
X101855134Y-96744866D01*
X101629014Y-96559294D01*
X101574209Y-96530000D01*
X101629014Y-96500706D01*
X101632236Y-96498061D01*
X126490010Y-96498061D01*
X126490010Y-96701939D01*
X126529784Y-96901898D01*
X126607805Y-97090256D01*
X126721073Y-97259774D01*
X126865236Y-97403937D01*
X127034754Y-97517205D01*
X127223112Y-97595226D01*
X127423071Y-97635000D01*
X127626949Y-97635000D01*
X127826908Y-97595226D01*
X128015266Y-97517205D01*
X128062505Y-97485641D01*
X128109744Y-97517205D01*
X128298102Y-97595226D01*
X128498061Y-97635000D01*
X128701939Y-97635000D01*
X128901898Y-97595226D01*
X129090256Y-97517205D01*
X129200000Y-97443877D01*
X129309744Y-97517205D01*
X129498102Y-97595226D01*
X129698061Y-97635000D01*
X129901939Y-97635000D01*
X130101898Y-97595226D01*
X130290256Y-97517205D01*
X130342791Y-97482102D01*
X130359201Y-97493067D01*
X130547559Y-97571088D01*
X130747518Y-97610862D01*
X130951396Y-97610862D01*
X130961975Y-97608758D01*
X130996063Y-97659774D01*
X131140226Y-97803937D01*
X131309744Y-97917205D01*
X131498102Y-97995226D01*
X131698061Y-98035000D01*
X131901939Y-98035000D01*
X132101898Y-97995226D01*
X132290256Y-97917205D01*
X132459774Y-97803937D01*
X132603937Y-97659774D01*
X132717205Y-97490256D01*
X132795226Y-97301898D01*
X132835000Y-97101939D01*
X132835000Y-96898061D01*
X132795226Y-96698102D01*
X132717205Y-96509744D01*
X132603937Y-96340226D01*
X132459774Y-96196063D01*
X132290256Y-96082795D01*
X132101898Y-96004774D01*
X131901939Y-95965000D01*
X131698061Y-95965000D01*
X131687482Y-95967104D01*
X131653394Y-95916088D01*
X131509231Y-95771925D01*
X131339713Y-95658657D01*
X131151355Y-95580636D01*
X130951396Y-95540862D01*
X130747518Y-95540862D01*
X130547559Y-95580636D01*
X130359201Y-95658657D01*
X130306666Y-95693760D01*
X130290256Y-95682795D01*
X130101898Y-95604774D01*
X129901939Y-95565000D01*
X129698061Y-95565000D01*
X129498102Y-95604774D01*
X129309744Y-95682795D01*
X129200000Y-95756123D01*
X129090256Y-95682795D01*
X128901898Y-95604774D01*
X128701939Y-95565000D01*
X128498061Y-95565000D01*
X128298102Y-95604774D01*
X128109744Y-95682795D01*
X128062505Y-95714359D01*
X128015266Y-95682795D01*
X127826908Y-95604774D01*
X127626949Y-95565000D01*
X127423071Y-95565000D01*
X127223112Y-95604774D01*
X127034754Y-95682795D01*
X126865236Y-95796063D01*
X126721073Y-95940226D01*
X126607805Y-96109744D01*
X126529784Y-96298102D01*
X126490010Y-96498061D01*
X101632236Y-96498061D01*
X101855134Y-96315134D01*
X102040706Y-96089014D01*
X102178599Y-95831034D01*
X102263513Y-95551111D01*
X102292185Y-95260000D01*
X102263513Y-94968889D01*
X102178599Y-94688966D01*
X102040706Y-94430986D01*
X101855134Y-94204866D01*
X101629014Y-94019294D01*
X101574209Y-93990000D01*
X101629014Y-93960706D01*
X101855134Y-93775134D01*
X102040706Y-93549014D01*
X102178599Y-93291034D01*
X102263513Y-93011111D01*
X102292185Y-92720000D01*
X102263513Y-92428889D01*
X102178599Y-92148966D01*
X102040706Y-91890986D01*
X101855134Y-91664866D01*
X101629014Y-91479294D01*
X101574209Y-91450000D01*
X101629014Y-91420706D01*
X101855134Y-91235134D01*
X102040706Y-91009014D01*
X102100011Y-90898061D01*
X106465000Y-90898061D01*
X106465000Y-91101939D01*
X106504774Y-91301898D01*
X106582795Y-91490256D01*
X106696063Y-91659774D01*
X106840226Y-91803937D01*
X107009744Y-91917205D01*
X107198102Y-91995226D01*
X107398061Y-92035000D01*
X107601939Y-92035000D01*
X107801898Y-91995226D01*
X107990256Y-91917205D01*
X108159774Y-91803937D01*
X108303937Y-91659774D01*
X108417205Y-91490256D01*
X108495226Y-91301898D01*
X108495989Y-91298061D01*
X119365000Y-91298061D01*
X119365000Y-91501939D01*
X119404774Y-91701898D01*
X119482795Y-91890256D01*
X119596063Y-92059774D01*
X119740226Y-92203937D01*
X119909744Y-92317205D01*
X120098102Y-92395226D01*
X120298061Y-92435000D01*
X120501939Y-92435000D01*
X120701898Y-92395226D01*
X120890256Y-92317205D01*
X121059774Y-92203937D01*
X121203937Y-92059774D01*
X121317205Y-91890256D01*
X121395226Y-91701898D01*
X121435000Y-91501939D01*
X121435000Y-91298061D01*
X121395226Y-91098102D01*
X121317205Y-90909744D01*
X121203937Y-90740226D01*
X121059774Y-90596063D01*
X120890256Y-90482795D01*
X120701898Y-90404774D01*
X120501939Y-90365000D01*
X120298061Y-90365000D01*
X120098102Y-90404774D01*
X119909744Y-90482795D01*
X119740226Y-90596063D01*
X119596063Y-90740226D01*
X119482795Y-90909744D01*
X119404774Y-91098102D01*
X119365000Y-91298061D01*
X108495989Y-91298061D01*
X108535000Y-91101939D01*
X108535000Y-90898061D01*
X108495226Y-90698102D01*
X108417205Y-90509744D01*
X108303937Y-90340226D01*
X108159774Y-90196063D01*
X107990256Y-90082795D01*
X107801898Y-90004774D01*
X107601939Y-89965000D01*
X107398061Y-89965000D01*
X107198102Y-90004774D01*
X107009744Y-90082795D01*
X106840226Y-90196063D01*
X106696063Y-90340226D01*
X106582795Y-90509744D01*
X106504774Y-90698102D01*
X106465000Y-90898061D01*
X102100011Y-90898061D01*
X102178599Y-90751034D01*
X102263513Y-90471111D01*
X102292185Y-90180000D01*
X102264417Y-89898061D01*
X113765000Y-89898061D01*
X113765000Y-90101939D01*
X113804774Y-90301898D01*
X113882795Y-90490256D01*
X113996063Y-90659774D01*
X114140226Y-90803937D01*
X114309744Y-90917205D01*
X114498102Y-90995226D01*
X114698061Y-91035000D01*
X114901939Y-91035000D01*
X115101898Y-90995226D01*
X115290256Y-90917205D01*
X115459774Y-90803937D01*
X115603937Y-90659774D01*
X115717205Y-90490256D01*
X115795226Y-90301898D01*
X115835000Y-90101939D01*
X115835000Y-90098061D01*
X130565000Y-90098061D01*
X130565000Y-90301939D01*
X130604774Y-90501898D01*
X130682795Y-90690256D01*
X130796063Y-90859774D01*
X130940226Y-91003937D01*
X131109744Y-91117205D01*
X131298102Y-91195226D01*
X131498061Y-91235000D01*
X131701939Y-91235000D01*
X131901898Y-91195226D01*
X132090256Y-91117205D01*
X132259774Y-91003937D01*
X132403937Y-90859774D01*
X132517205Y-90690256D01*
X132595226Y-90501898D01*
X132635000Y-90301939D01*
X132635000Y-90098061D01*
X132595226Y-89898102D01*
X132517205Y-89709744D01*
X132509399Y-89698061D01*
X134765000Y-89698061D01*
X134765000Y-89901939D01*
X134804774Y-90101898D01*
X134882795Y-90290256D01*
X134996063Y-90459774D01*
X135140226Y-90603937D01*
X135309744Y-90717205D01*
X135498102Y-90795226D01*
X135698061Y-90835000D01*
X135901939Y-90835000D01*
X136101898Y-90795226D01*
X136290256Y-90717205D01*
X136459774Y-90603937D01*
X136519103Y-90544608D01*
X136596055Y-90659774D01*
X136740218Y-90803937D01*
X136909736Y-90917205D01*
X137098094Y-90995226D01*
X137298053Y-91035000D01*
X137501931Y-91035000D01*
X137701890Y-90995226D01*
X137890248Y-90917205D01*
X138059766Y-90803937D01*
X138203929Y-90659774D01*
X138317197Y-90490256D01*
X138395218Y-90301898D01*
X138434992Y-90101939D01*
X138434992Y-89898061D01*
X138395218Y-89698102D01*
X138317197Y-89509744D01*
X138203929Y-89340226D01*
X138059766Y-89196063D01*
X137890248Y-89082795D01*
X137701890Y-89004774D01*
X137501931Y-88965000D01*
X137298053Y-88965000D01*
X137098094Y-89004774D01*
X136909736Y-89082795D01*
X136740218Y-89196063D01*
X136680889Y-89255392D01*
X136603937Y-89140226D01*
X136459774Y-88996063D01*
X136290256Y-88882795D01*
X136101898Y-88804774D01*
X135901939Y-88765000D01*
X135698061Y-88765000D01*
X135498102Y-88804774D01*
X135309744Y-88882795D01*
X135140226Y-88996063D01*
X134996063Y-89140226D01*
X134882795Y-89309744D01*
X134804774Y-89498102D01*
X134765000Y-89698061D01*
X132509399Y-89698061D01*
X132403937Y-89540226D01*
X132259774Y-89396063D01*
X132090256Y-89282795D01*
X131901898Y-89204774D01*
X131701939Y-89165000D01*
X131498061Y-89165000D01*
X131298102Y-89204774D01*
X131109744Y-89282795D01*
X130940226Y-89396063D01*
X130796063Y-89540226D01*
X130682795Y-89709744D01*
X130604774Y-89898102D01*
X130565000Y-90098061D01*
X115835000Y-90098061D01*
X115835000Y-89898061D01*
X115795226Y-89698102D01*
X115717205Y-89509744D01*
X115603937Y-89340226D01*
X115459774Y-89196063D01*
X115290256Y-89082795D01*
X115101898Y-89004774D01*
X114901939Y-88965000D01*
X114698061Y-88965000D01*
X114498102Y-89004774D01*
X114309744Y-89082795D01*
X114140226Y-89196063D01*
X113996063Y-89340226D01*
X113882795Y-89509744D01*
X113804774Y-89698102D01*
X113765000Y-89898061D01*
X102264417Y-89898061D01*
X102263513Y-89888889D01*
X102178599Y-89608966D01*
X102040706Y-89350986D01*
X101855134Y-89124866D01*
X101629014Y-88939294D01*
X101574209Y-88910000D01*
X101629014Y-88880706D01*
X101855134Y-88695134D01*
X102040706Y-88469014D01*
X102178599Y-88211034D01*
X102263513Y-87931111D01*
X102292185Y-87640000D01*
X102263513Y-87348889D01*
X102178599Y-87068966D01*
X102040706Y-86810986D01*
X101855134Y-86584866D01*
X101629014Y-86399294D01*
X101574209Y-86370000D01*
X101629014Y-86340706D01*
X101855134Y-86155134D01*
X102040706Y-85929014D01*
X102178599Y-85671034D01*
X102263513Y-85391111D01*
X102292185Y-85100000D01*
X102263513Y-84808889D01*
X102178599Y-84528966D01*
X102162080Y-84498061D01*
X117365000Y-84498061D01*
X117365000Y-84701939D01*
X117404774Y-84901898D01*
X117482795Y-85090256D01*
X117596063Y-85259774D01*
X117740226Y-85403937D01*
X117909744Y-85517205D01*
X118098102Y-85595226D01*
X118298061Y-85635000D01*
X118501939Y-85635000D01*
X118701898Y-85595226D01*
X118890256Y-85517205D01*
X119059774Y-85403937D01*
X119203937Y-85259774D01*
X119317205Y-85090256D01*
X119395226Y-84901898D01*
X119435000Y-84701939D01*
X119435000Y-84498061D01*
X119395226Y-84298102D01*
X119317205Y-84109744D01*
X119203937Y-83940226D01*
X119059774Y-83796063D01*
X118890256Y-83682795D01*
X118701898Y-83604774D01*
X118501939Y-83565000D01*
X118298061Y-83565000D01*
X118098102Y-83604774D01*
X117909744Y-83682795D01*
X117740226Y-83796063D01*
X117596063Y-83940226D01*
X117482795Y-84109744D01*
X117404774Y-84298102D01*
X117365000Y-84498061D01*
X102162080Y-84498061D01*
X102040706Y-84270986D01*
X101855134Y-84044866D01*
X101629014Y-83859294D01*
X101574209Y-83830000D01*
X101629014Y-83800706D01*
X101855134Y-83615134D01*
X102040706Y-83389014D01*
X102178599Y-83131034D01*
X102263513Y-82851111D01*
X102292185Y-82560000D01*
X102263513Y-82268889D01*
X102178599Y-81988966D01*
X102040706Y-81730986D01*
X101855134Y-81504866D01*
X101825313Y-81480393D01*
X101894180Y-81459502D01*
X102004494Y-81400537D01*
X102101185Y-81321185D01*
X102180537Y-81224494D01*
X102239502Y-81114180D01*
X102275812Y-80994482D01*
X102288072Y-80870000D01*
X102288072Y-79170000D01*
X102275812Y-79045518D01*
X102239502Y-78925820D01*
X102180537Y-78815506D01*
X102101185Y-78718815D01*
X102004494Y-78639463D01*
X101894180Y-78580498D01*
X101774482Y-78544188D01*
X101650000Y-78531928D01*
X99950000Y-78531928D01*
X99825518Y-78544188D01*
X99705820Y-78580498D01*
X99595506Y-78639463D01*
X99510000Y-78709636D01*
X99510000Y-75150000D01*
X111311928Y-75150000D01*
X111311928Y-76850000D01*
X111324188Y-76974482D01*
X111360498Y-77094180D01*
X111419463Y-77204494D01*
X111498815Y-77301185D01*
X111595506Y-77380537D01*
X111705820Y-77439502D01*
X111825518Y-77475812D01*
X111950000Y-77488072D01*
X113650000Y-77488072D01*
X113774482Y-77475812D01*
X113894180Y-77439502D01*
X114004494Y-77380537D01*
X114101185Y-77301185D01*
X114180537Y-77204494D01*
X114239502Y-77094180D01*
X114260393Y-77025313D01*
X114284866Y-77055134D01*
X114510986Y-77240706D01*
X114768966Y-77378599D01*
X115048889Y-77463513D01*
X115267050Y-77485000D01*
X115412950Y-77485000D01*
X115631111Y-77463513D01*
X115911034Y-77378599D01*
X116169014Y-77240706D01*
X116395134Y-77055134D01*
X116580706Y-76829014D01*
X116610000Y-76774209D01*
X116639294Y-76829014D01*
X116824866Y-77055134D01*
X117050986Y-77240706D01*
X117308966Y-77378599D01*
X117588889Y-77463513D01*
X117807050Y-77485000D01*
X117952950Y-77485000D01*
X118171111Y-77463513D01*
X118451034Y-77378599D01*
X118709014Y-77240706D01*
X118935134Y-77055134D01*
X119120706Y-76829014D01*
X119258599Y-76571034D01*
X119343513Y-76291111D01*
X119372185Y-76000000D01*
X119343513Y-75708889D01*
X119258599Y-75428966D01*
X119120706Y-75170986D01*
X119103484Y-75150000D01*
X120971928Y-75150000D01*
X120971928Y-76850000D01*
X120984188Y-76974482D01*
X121020498Y-77094180D01*
X121079463Y-77204494D01*
X121158815Y-77301185D01*
X121255506Y-77380537D01*
X121365820Y-77439502D01*
X121485518Y-77475812D01*
X121610000Y-77488072D01*
X123310000Y-77488072D01*
X123434482Y-77475812D01*
X123554180Y-77439502D01*
X123664494Y-77380537D01*
X123761185Y-77301185D01*
X123840537Y-77204494D01*
X123899502Y-77094180D01*
X123920393Y-77025313D01*
X123944866Y-77055134D01*
X124170986Y-77240706D01*
X124428966Y-77378599D01*
X124708889Y-77463513D01*
X124927050Y-77485000D01*
X125072950Y-77485000D01*
X125291111Y-77463513D01*
X125571034Y-77378599D01*
X125829014Y-77240706D01*
X126055134Y-77055134D01*
X126240706Y-76829014D01*
X126378599Y-76571034D01*
X126463513Y-76291111D01*
X126492185Y-76000000D01*
X126463513Y-75708889D01*
X126378599Y-75428966D01*
X126240706Y-75170986D01*
X126223484Y-75150000D01*
X128011928Y-75150000D01*
X128011928Y-76850000D01*
X128024188Y-76974482D01*
X128060498Y-77094180D01*
X128119463Y-77204494D01*
X128198815Y-77301185D01*
X128295506Y-77380537D01*
X128405820Y-77439502D01*
X128525518Y-77475812D01*
X128650000Y-77488072D01*
X130350000Y-77488072D01*
X130474482Y-77475812D01*
X130594180Y-77439502D01*
X130704494Y-77380537D01*
X130801185Y-77301185D01*
X130880537Y-77204494D01*
X130939502Y-77094180D01*
X130960393Y-77025313D01*
X130984866Y-77055134D01*
X131210986Y-77240706D01*
X131468966Y-77378599D01*
X131748889Y-77463513D01*
X131967050Y-77485000D01*
X132112950Y-77485000D01*
X132331111Y-77463513D01*
X132611034Y-77378599D01*
X132869014Y-77240706D01*
X133095134Y-77055134D01*
X133280706Y-76829014D01*
X133315201Y-76764477D01*
X133384822Y-76881355D01*
X133579731Y-77097588D01*
X133813080Y-77271641D01*
X134075901Y-77396825D01*
X134223110Y-77441476D01*
X134453000Y-77320155D01*
X134453000Y-76127000D01*
X134433000Y-76127000D01*
X134433000Y-75873000D01*
X134453000Y-75873000D01*
X134453000Y-74679845D01*
X134707000Y-74679845D01*
X134707000Y-75873000D01*
X134727000Y-75873000D01*
X134727000Y-76127000D01*
X134707000Y-76127000D01*
X134707000Y-77320155D01*
X134936890Y-77441476D01*
X135084099Y-77396825D01*
X135346920Y-77271641D01*
X135580269Y-77097588D01*
X135775178Y-76881355D01*
X135844799Y-76764477D01*
X135879294Y-76829014D01*
X136064866Y-77055134D01*
X136290986Y-77240706D01*
X136548966Y-77378599D01*
X136828889Y-77463513D01*
X137047050Y-77485000D01*
X137192950Y-77485000D01*
X137411111Y-77463513D01*
X137691034Y-77378599D01*
X137949014Y-77240706D01*
X138175134Y-77055134D01*
X138360706Y-76829014D01*
X138390000Y-76774209D01*
X138419294Y-76829014D01*
X138604866Y-77055134D01*
X138830986Y-77240706D01*
X139088966Y-77378599D01*
X139368889Y-77463513D01*
X139587050Y-77485000D01*
X139732950Y-77485000D01*
X139951111Y-77463513D01*
X140231034Y-77378599D01*
X140489014Y-77240706D01*
X140715134Y-77055134D01*
X140900706Y-76829014D01*
X140930000Y-76774209D01*
X140959294Y-76829014D01*
X141144866Y-77055134D01*
X141370986Y-77240706D01*
X141628966Y-77378599D01*
X141908889Y-77463513D01*
X142127050Y-77485000D01*
X142272950Y-77485000D01*
X142491111Y-77463513D01*
X142771034Y-77378599D01*
X143029014Y-77240706D01*
X143255134Y-77055134D01*
X143440706Y-76829014D01*
X143578599Y-76571034D01*
X143663513Y-76291111D01*
X143692185Y-76000000D01*
X143663513Y-75708889D01*
X143578599Y-75428966D01*
X143440706Y-75170986D01*
X143255134Y-74944866D01*
X143029014Y-74759294D01*
X142771034Y-74621401D01*
X142491111Y-74536487D01*
X142272950Y-74515000D01*
X142127050Y-74515000D01*
X141908889Y-74536487D01*
X141628966Y-74621401D01*
X141370986Y-74759294D01*
X141144866Y-74944866D01*
X140959294Y-75170986D01*
X140930000Y-75225791D01*
X140900706Y-75170986D01*
X140715134Y-74944866D01*
X140489014Y-74759294D01*
X140231034Y-74621401D01*
X139951111Y-74536487D01*
X139732950Y-74515000D01*
X139587050Y-74515000D01*
X139368889Y-74536487D01*
X139088966Y-74621401D01*
X138830986Y-74759294D01*
X138604866Y-74944866D01*
X138419294Y-75170986D01*
X138390000Y-75225791D01*
X138360706Y-75170986D01*
X138175134Y-74944866D01*
X137949014Y-74759294D01*
X137691034Y-74621401D01*
X137411111Y-74536487D01*
X137192950Y-74515000D01*
X137047050Y-74515000D01*
X136828889Y-74536487D01*
X136548966Y-74621401D01*
X136290986Y-74759294D01*
X136064866Y-74944866D01*
X135879294Y-75170986D01*
X135844799Y-75235523D01*
X135775178Y-75118645D01*
X135580269Y-74902412D01*
X135346920Y-74728359D01*
X135084099Y-74603175D01*
X134936890Y-74558524D01*
X134707000Y-74679845D01*
X134453000Y-74679845D01*
X134223110Y-74558524D01*
X134075901Y-74603175D01*
X133813080Y-74728359D01*
X133579731Y-74902412D01*
X133384822Y-75118645D01*
X133315201Y-75235523D01*
X133280706Y-75170986D01*
X133095134Y-74944866D01*
X132869014Y-74759294D01*
X132611034Y-74621401D01*
X132331111Y-74536487D01*
X132112950Y-74515000D01*
X131967050Y-74515000D01*
X131748889Y-74536487D01*
X131468966Y-74621401D01*
X131210986Y-74759294D01*
X130984866Y-74944866D01*
X130960393Y-74974687D01*
X130939502Y-74905820D01*
X130880537Y-74795506D01*
X130801185Y-74698815D01*
X130704494Y-74619463D01*
X130594180Y-74560498D01*
X130474482Y-74524188D01*
X130350000Y-74511928D01*
X128650000Y-74511928D01*
X128525518Y-74524188D01*
X128405820Y-74560498D01*
X128295506Y-74619463D01*
X128198815Y-74698815D01*
X128119463Y-74795506D01*
X128060498Y-74905820D01*
X128024188Y-75025518D01*
X128011928Y-75150000D01*
X126223484Y-75150000D01*
X126055134Y-74944866D01*
X125829014Y-74759294D01*
X125571034Y-74621401D01*
X125291111Y-74536487D01*
X125072950Y-74515000D01*
X124927050Y-74515000D01*
X124708889Y-74536487D01*
X124428966Y-74621401D01*
X124170986Y-74759294D01*
X123944866Y-74944866D01*
X123920393Y-74974687D01*
X123899502Y-74905820D01*
X123840537Y-74795506D01*
X123761185Y-74698815D01*
X123664494Y-74619463D01*
X123554180Y-74560498D01*
X123434482Y-74524188D01*
X123310000Y-74511928D01*
X121610000Y-74511928D01*
X121485518Y-74524188D01*
X121365820Y-74560498D01*
X121255506Y-74619463D01*
X121158815Y-74698815D01*
X121079463Y-74795506D01*
X121020498Y-74905820D01*
X120984188Y-75025518D01*
X120971928Y-75150000D01*
X119103484Y-75150000D01*
X118935134Y-74944866D01*
X118709014Y-74759294D01*
X118451034Y-74621401D01*
X118171111Y-74536487D01*
X117952950Y-74515000D01*
X117807050Y-74515000D01*
X117588889Y-74536487D01*
X117308966Y-74621401D01*
X117050986Y-74759294D01*
X116824866Y-74944866D01*
X116639294Y-75170986D01*
X116610000Y-75225791D01*
X116580706Y-75170986D01*
X116395134Y-74944866D01*
X116169014Y-74759294D01*
X115911034Y-74621401D01*
X115631111Y-74536487D01*
X115412950Y-74515000D01*
X115267050Y-74515000D01*
X115048889Y-74536487D01*
X114768966Y-74621401D01*
X114510986Y-74759294D01*
X114284866Y-74944866D01*
X114260393Y-74974687D01*
X114239502Y-74905820D01*
X114180537Y-74795506D01*
X114101185Y-74698815D01*
X114004494Y-74619463D01*
X113894180Y-74560498D01*
X113774482Y-74524188D01*
X113650000Y-74511928D01*
X111950000Y-74511928D01*
X111825518Y-74524188D01*
X111705820Y-74560498D01*
X111595506Y-74619463D01*
X111498815Y-74698815D01*
X111419463Y-74795506D01*
X111360498Y-74905820D01*
X111324188Y-75025518D01*
X111311928Y-75150000D01*
X99510000Y-75150000D01*
X99510000Y-72710000D01*
X145090000Y-72710000D01*
X145090000Y-78588954D01*
X145090000Y-78588954D01*
G37*
X145090000Y-78588954D02*
X145074180Y-78580498D01*
X144954482Y-78544188D01*
X144830000Y-78531928D01*
X143130000Y-78531928D01*
X143005518Y-78544188D01*
X142885820Y-78580498D01*
X142775506Y-78639463D01*
X142678815Y-78718815D01*
X142599463Y-78815506D01*
X142540498Y-78925820D01*
X142504188Y-79045518D01*
X142491928Y-79170000D01*
X142491928Y-80870000D01*
X142504188Y-80994482D01*
X142540498Y-81114180D01*
X142599463Y-81224494D01*
X142678815Y-81321185D01*
X142775506Y-81400537D01*
X142885820Y-81459502D01*
X142954687Y-81480393D01*
X142924866Y-81504866D01*
X142739294Y-81730986D01*
X142601401Y-81988966D01*
X142516487Y-82268889D01*
X142487815Y-82560000D01*
X142516487Y-82851111D01*
X142601401Y-83131034D01*
X142739294Y-83389014D01*
X142924866Y-83615134D01*
X143150986Y-83800706D01*
X143215523Y-83835201D01*
X143098645Y-83904822D01*
X142882412Y-84099731D01*
X142708359Y-84333080D01*
X142583175Y-84595901D01*
X142538524Y-84743110D01*
X142659845Y-84973000D01*
X143853000Y-84973000D01*
X143853000Y-84953000D01*
X144107000Y-84953000D01*
X144107000Y-84973000D01*
X144127000Y-84973000D01*
X144127000Y-85227000D01*
X144107000Y-85227000D01*
X144107000Y-85247000D01*
X143853000Y-85247000D01*
X143853000Y-85227000D01*
X142659845Y-85227000D01*
X142538524Y-85456890D01*
X142583175Y-85604099D01*
X142708359Y-85866920D01*
X142882412Y-86100269D01*
X143098645Y-86295178D01*
X143215523Y-86364799D01*
X143150986Y-86399294D01*
X142924866Y-86584866D01*
X142739294Y-86810986D01*
X142601401Y-87068966D01*
X142516487Y-87348889D01*
X142487815Y-87640000D01*
X142516487Y-87931111D01*
X142601401Y-88211034D01*
X142739294Y-88469014D01*
X142924866Y-88695134D01*
X143150986Y-88880706D01*
X143205791Y-88910000D01*
X143150986Y-88939294D01*
X142924866Y-89124866D01*
X142739294Y-89350986D01*
X142601401Y-89608966D01*
X142516487Y-89888889D01*
X142487815Y-90180000D01*
X142516487Y-90471111D01*
X142601401Y-90751034D01*
X142739294Y-91009014D01*
X142924866Y-91235134D01*
X143150986Y-91420706D01*
X143205791Y-91450000D01*
X143150986Y-91479294D01*
X142924866Y-91664866D01*
X142739294Y-91890986D01*
X142601401Y-92148966D01*
X142516487Y-92428889D01*
X142487815Y-92720000D01*
X142516487Y-93011111D01*
X142601401Y-93291034D01*
X142739294Y-93549014D01*
X142924866Y-93775134D01*
X143150986Y-93960706D01*
X143205791Y-93990000D01*
X143150986Y-94019294D01*
X142924866Y-94204866D01*
X142739294Y-94430986D01*
X142601401Y-94688966D01*
X142516487Y-94968889D01*
X142514109Y-94993034D01*
X142495226Y-94898102D01*
X142417205Y-94709744D01*
X142303937Y-94540226D01*
X142159774Y-94396063D01*
X141990256Y-94282795D01*
X141801898Y-94204774D01*
X141601939Y-94165000D01*
X141398061Y-94165000D01*
X141198102Y-94204774D01*
X141009744Y-94282795D01*
X140840226Y-94396063D01*
X140696063Y-94540226D01*
X140582795Y-94709744D01*
X140504774Y-94898102D01*
X140465000Y-95098061D01*
X140465000Y-95301939D01*
X140504774Y-95501898D01*
X140582795Y-95690256D01*
X140696063Y-95859774D01*
X140840226Y-96003937D01*
X141009744Y-96117205D01*
X141198102Y-96195226D01*
X141398061Y-96235000D01*
X141601939Y-96235000D01*
X141801898Y-96195226D01*
X141990256Y-96117205D01*
X142159774Y-96003937D01*
X142303937Y-95859774D01*
X142417205Y-95690256D01*
X142495226Y-95501898D01*
X142506204Y-95446707D01*
X142516487Y-95551111D01*
X142601401Y-95831034D01*
X142739294Y-96089014D01*
X142924866Y-96315134D01*
X143150986Y-96500706D01*
X143205791Y-96530000D01*
X143150986Y-96559294D01*
X142924866Y-96744866D01*
X142739294Y-96970986D01*
X142601401Y-97228966D01*
X142516487Y-97508889D01*
X142487815Y-97800000D01*
X142516487Y-98091111D01*
X142601401Y-98371034D01*
X142739294Y-98629014D01*
X142924866Y-98855134D01*
X143150986Y-99040706D01*
X143408966Y-99178599D01*
X143688889Y-99263513D01*
X143907050Y-99285000D01*
X144052950Y-99285000D01*
X144271111Y-99263513D01*
X144551034Y-99178599D01*
X144809014Y-99040706D01*
X145035134Y-98855134D01*
X145090001Y-98788279D01*
X145090001Y-109690000D01*
X99510000Y-109690000D01*
X99510000Y-108668778D01*
X105045827Y-108668778D01*
X105115049Y-108910757D01*
X105367232Y-109029707D01*
X105637776Y-109097173D01*
X105916283Y-109110562D01*
X106192052Y-109069360D01*
X106454483Y-108975149D01*
X106574951Y-108910757D01*
X106644173Y-108668778D01*
X105845000Y-107869605D01*
X105045827Y-108668778D01*
X99510000Y-108668778D01*
X99510000Y-105037686D01*
X102942000Y-105037686D01*
X102942000Y-105362314D01*
X103005332Y-105680704D01*
X103129561Y-105980621D01*
X103309915Y-106250539D01*
X103539461Y-106480085D01*
X103809379Y-106660439D01*
X104109296Y-106784668D01*
X104427686Y-106848000D01*
X104752314Y-106848000D01*
X104811599Y-106836207D01*
X104866220Y-106890828D01*
X104624243Y-106960049D01*
X104505293Y-107212232D01*
X104437827Y-107482776D01*
X104424438Y-107761283D01*
X104465640Y-108037052D01*
X104559851Y-108299483D01*
X104624243Y-108419951D01*
X104866222Y-108489173D01*
X105665395Y-107690000D01*
X106024605Y-107690000D01*
X106823778Y-108489173D01*
X107065757Y-108419951D01*
X107184707Y-108167768D01*
X107252173Y-107897224D01*
X107265562Y-107618717D01*
X107255383Y-107550585D01*
X108929500Y-107550585D01*
X108929500Y-107829415D01*
X108983897Y-108102886D01*
X109090600Y-108360491D01*
X109245509Y-108592329D01*
X109442671Y-108789491D01*
X109674509Y-108944400D01*
X109932114Y-109051103D01*
X110205585Y-109105500D01*
X110484415Y-109105500D01*
X110757886Y-109051103D01*
X111015491Y-108944400D01*
X111247329Y-108789491D01*
X111368042Y-108668778D01*
X117445827Y-108668778D01*
X117515049Y-108910757D01*
X117767232Y-109029707D01*
X118037776Y-109097173D01*
X118316283Y-109110562D01*
X118592052Y-109069360D01*
X118854483Y-108975149D01*
X118974951Y-108910757D01*
X119044173Y-108668778D01*
X118245000Y-107869605D01*
X117445827Y-108668778D01*
X111368042Y-108668778D01*
X111444491Y-108592329D01*
X111599400Y-108360491D01*
X111706103Y-108102886D01*
X111760500Y-107829415D01*
X111760500Y-107550585D01*
X111706103Y-107277114D01*
X111599400Y-107019509D01*
X111484801Y-106848000D01*
X111762314Y-106848000D01*
X112080704Y-106784668D01*
X112380621Y-106660439D01*
X112650539Y-106480085D01*
X112880085Y-106250539D01*
X113060439Y-105980621D01*
X113184668Y-105680704D01*
X113248000Y-105362314D01*
X113248000Y-105037686D01*
X115342000Y-105037686D01*
X115342000Y-105362314D01*
X115405332Y-105680704D01*
X115529561Y-105980621D01*
X115709915Y-106250539D01*
X115939461Y-106480085D01*
X116209379Y-106660439D01*
X116509296Y-106784668D01*
X116827686Y-106848000D01*
X117152314Y-106848000D01*
X117211599Y-106836207D01*
X117266220Y-106890828D01*
X117024243Y-106960049D01*
X116905293Y-107212232D01*
X116837827Y-107482776D01*
X116824438Y-107761283D01*
X116865640Y-108037052D01*
X116959851Y-108299483D01*
X117024243Y-108419951D01*
X117266222Y-108489173D01*
X118065395Y-107690000D01*
X118424605Y-107690000D01*
X119223778Y-108489173D01*
X119465757Y-108419951D01*
X119584707Y-108167768D01*
X119652173Y-107897224D01*
X119665562Y-107618717D01*
X119655383Y-107550585D01*
X121329500Y-107550585D01*
X121329500Y-107829415D01*
X121383897Y-108102886D01*
X121490600Y-108360491D01*
X121645509Y-108592329D01*
X121842671Y-108789491D01*
X122074509Y-108944400D01*
X122332114Y-109051103D01*
X122605585Y-109105500D01*
X122884415Y-109105500D01*
X123157886Y-109051103D01*
X123415491Y-108944400D01*
X123647329Y-108789491D01*
X123844491Y-108592329D01*
X123999400Y-108360491D01*
X124106103Y-108102886D01*
X124160500Y-107829415D01*
X124160500Y-107550585D01*
X124106103Y-107277114D01*
X123999400Y-107019509D01*
X123884801Y-106848000D01*
X124162314Y-106848000D01*
X124480704Y-106784668D01*
X124780621Y-106660439D01*
X125050539Y-106480085D01*
X125280085Y-106250539D01*
X125460439Y-105980621D01*
X125584668Y-105680704D01*
X125648000Y-105362314D01*
X125648000Y-105037686D01*
X125584668Y-104719296D01*
X125460439Y-104419379D01*
X125280085Y-104149461D01*
X125050539Y-103919915D01*
X124780621Y-103739561D01*
X124480704Y-103615332D01*
X124162314Y-103552000D01*
X123837686Y-103552000D01*
X123519296Y-103615332D01*
X123219379Y-103739561D01*
X122949461Y-103919915D01*
X122719915Y-104149461D01*
X122539561Y-104419379D01*
X122415332Y-104719296D01*
X122352000Y-105037686D01*
X122352000Y-105362314D01*
X122415332Y-105680704D01*
X122539561Y-105980621D01*
X122719915Y-106250539D01*
X122743876Y-106274500D01*
X122605585Y-106274500D01*
X122332114Y-106328897D01*
X122074509Y-106435600D01*
X121842671Y-106590509D01*
X121645509Y-106787671D01*
X121490600Y-107019509D01*
X121383897Y-107277114D01*
X121329500Y-107550585D01*
X119655383Y-107550585D01*
X119624360Y-107342948D01*
X119530149Y-107080517D01*
X119465757Y-106960049D01*
X119223778Y-106890827D01*
X118424605Y-107690000D01*
X118065395Y-107690000D01*
X118051253Y-107675858D01*
X118230858Y-107496253D01*
X118245000Y-107510395D01*
X119044173Y-106711222D01*
X118974951Y-106469243D01*
X118722768Y-106350293D01*
X118452224Y-106282827D01*
X118247633Y-106272991D01*
X118270085Y-106250539D01*
X118450439Y-105980621D01*
X118574668Y-105680704D01*
X118638000Y-105362314D01*
X118638000Y-105037686D01*
X118574668Y-104719296D01*
X118450439Y-104419379D01*
X118270085Y-104149461D01*
X118040539Y-103919915D01*
X117770621Y-103739561D01*
X117470704Y-103615332D01*
X117152314Y-103552000D01*
X116827686Y-103552000D01*
X116509296Y-103615332D01*
X116209379Y-103739561D01*
X115939461Y-103919915D01*
X115709915Y-104149461D01*
X115529561Y-104419379D01*
X115405332Y-104719296D01*
X115342000Y-105037686D01*
X113248000Y-105037686D01*
X113184668Y-104719296D01*
X113060439Y-104419379D01*
X112880085Y-104149461D01*
X112650539Y-103919915D01*
X112380621Y-103739561D01*
X112080704Y-103615332D01*
X111762314Y-103552000D01*
X111437686Y-103552000D01*
X111119296Y-103615332D01*
X110819379Y-103739561D01*
X110549461Y-103919915D01*
X110319915Y-104149461D01*
X110139561Y-104419379D01*
X110015332Y-104719296D01*
X109952000Y-105037686D01*
X109952000Y-105362314D01*
X110015332Y-105680704D01*
X110139561Y-105980621D01*
X110319915Y-106250539D01*
X110343876Y-106274500D01*
X110205585Y-106274500D01*
X109932114Y-106328897D01*
X109674509Y-106435600D01*
X109442671Y-106590509D01*
X109245509Y-106787671D01*
X109090600Y-107019509D01*
X108983897Y-107277114D01*
X108929500Y-107550585D01*
X107255383Y-107550585D01*
X107224360Y-107342948D01*
X107130149Y-107080517D01*
X107065757Y-106960049D01*
X106823778Y-106890827D01*
X106024605Y-107690000D01*
X105665395Y-107690000D01*
X105651253Y-107675858D01*
X105830858Y-107496253D01*
X105845000Y-107510395D01*
X106644173Y-106711222D01*
X106574951Y-106469243D01*
X106322768Y-106350293D01*
X106052224Y-106282827D01*
X105847633Y-106272991D01*
X105870085Y-106250539D01*
X106050439Y-105980621D01*
X106174668Y-105680704D01*
X106238000Y-105362314D01*
X106238000Y-105037686D01*
X106174668Y-104719296D01*
X106050439Y-104419379D01*
X105870085Y-104149461D01*
X105640539Y-103919915D01*
X105370621Y-103739561D01*
X105070704Y-103615332D01*
X104752314Y-103552000D01*
X104427686Y-103552000D01*
X104109296Y-103615332D01*
X103809379Y-103739561D01*
X103539461Y-103919915D01*
X103309915Y-104149461D01*
X103129561Y-104419379D01*
X103005332Y-104719296D01*
X102942000Y-105037686D01*
X99510000Y-105037686D01*
X99510000Y-101298061D01*
X105365000Y-101298061D01*
X105365000Y-101501939D01*
X105404774Y-101701898D01*
X105482795Y-101890256D01*
X105596063Y-102059774D01*
X105740226Y-102203937D01*
X105909744Y-102317205D01*
X106098102Y-102395226D01*
X106298061Y-102435000D01*
X106501939Y-102435000D01*
X106701898Y-102395226D01*
X106890256Y-102317205D01*
X107059774Y-102203937D01*
X107203937Y-102059774D01*
X107317205Y-101890256D01*
X107395226Y-101701898D01*
X107435000Y-101501939D01*
X107435000Y-101298061D01*
X107395226Y-101098102D01*
X107317205Y-100909744D01*
X107203937Y-100740226D01*
X107059774Y-100596063D01*
X107025364Y-100573071D01*
X107365000Y-100573071D01*
X107365000Y-100776949D01*
X107404774Y-100976908D01*
X107482795Y-101165266D01*
X107596063Y-101334784D01*
X107740226Y-101478947D01*
X107909744Y-101592215D01*
X108098102Y-101670236D01*
X108298061Y-101710010D01*
X108501939Y-101710010D01*
X108701898Y-101670236D01*
X108890256Y-101592215D01*
X109059774Y-101478947D01*
X109203937Y-101334784D01*
X109312003Y-101173051D01*
X109865000Y-101173051D01*
X109865000Y-101376929D01*
X109904774Y-101576888D01*
X109982795Y-101765246D01*
X110096063Y-101934764D01*
X110240226Y-102078927D01*
X110409744Y-102192195D01*
X110598102Y-102270216D01*
X110798061Y-102309990D01*
X111001939Y-102309990D01*
X111201898Y-102270216D01*
X111390256Y-102192195D01*
X111559774Y-102078927D01*
X111703937Y-101934764D01*
X111817205Y-101765246D01*
X111895226Y-101576888D01*
X111935000Y-101376929D01*
X111935000Y-101173051D01*
X111895226Y-100973092D01*
X111817205Y-100784734D01*
X111703937Y-100615216D01*
X111559774Y-100471053D01*
X111390256Y-100357785D01*
X111201898Y-100279764D01*
X111001939Y-100239990D01*
X110798061Y-100239990D01*
X110598102Y-100279764D01*
X110409744Y-100357785D01*
X110240226Y-100471053D01*
X110096063Y-100615216D01*
X109982795Y-100784734D01*
X109904774Y-100973092D01*
X109865000Y-101173051D01*
X109312003Y-101173051D01*
X109317205Y-101165266D01*
X109395226Y-100976908D01*
X109435000Y-100776949D01*
X109435000Y-100573071D01*
X109395226Y-100373112D01*
X109317205Y-100184754D01*
X109203937Y-100015236D01*
X109059774Y-99871073D01*
X108890256Y-99757805D01*
X108701898Y-99679784D01*
X108501939Y-99640010D01*
X108298061Y-99640010D01*
X108098102Y-99679784D01*
X107909744Y-99757805D01*
X107740226Y-99871073D01*
X107596063Y-100015236D01*
X107482795Y-100184754D01*
X107404774Y-100373112D01*
X107365000Y-100573071D01*
X107025364Y-100573071D01*
X106890256Y-100482795D01*
X106701898Y-100404774D01*
X106501939Y-100365000D01*
X106298061Y-100365000D01*
X106098102Y-100404774D01*
X105909744Y-100482795D01*
X105740226Y-100596063D01*
X105596063Y-100740226D01*
X105482795Y-100909744D01*
X105404774Y-101098102D01*
X105365000Y-101298061D01*
X99510000Y-101298061D01*
X99510000Y-98536791D01*
X99559294Y-98629014D01*
X99744866Y-98855134D01*
X99970986Y-99040706D01*
X100228966Y-99178599D01*
X100508889Y-99263513D01*
X100727050Y-99285000D01*
X100872950Y-99285000D01*
X101091111Y-99263513D01*
X101371034Y-99178599D01*
X101629014Y-99040706D01*
X101855134Y-98855134D01*
X102040706Y-98629014D01*
X102178599Y-98371034D01*
X102261404Y-98098061D01*
X107265000Y-98098061D01*
X107265000Y-98301939D01*
X107304774Y-98501898D01*
X107382795Y-98690256D01*
X107496063Y-98859774D01*
X107640226Y-99003937D01*
X107809744Y-99117205D01*
X107998102Y-99195226D01*
X108198061Y-99235000D01*
X108401939Y-99235000D01*
X108601898Y-99195226D01*
X108790256Y-99117205D01*
X108959774Y-99003937D01*
X109103937Y-98859774D01*
X109217205Y-98690256D01*
X109295226Y-98501898D01*
X109335000Y-98301939D01*
X109335000Y-98098061D01*
X109765000Y-98098061D01*
X109765000Y-98301939D01*
X109804774Y-98501898D01*
X109882795Y-98690256D01*
X109996063Y-98859774D01*
X110140226Y-99003937D01*
X110309744Y-99117205D01*
X110498102Y-99195226D01*
X110698061Y-99235000D01*
X110901939Y-99235000D01*
X111101898Y-99195226D01*
X111290256Y-99117205D01*
X111459774Y-99003937D01*
X111603937Y-98859774D01*
X111717205Y-98690256D01*
X111795226Y-98501898D01*
X111835000Y-98301939D01*
X111835000Y-98098061D01*
X111795226Y-97898102D01*
X111717205Y-97709744D01*
X111603937Y-97540226D01*
X111459774Y-97396063D01*
X111290256Y-97282795D01*
X111101898Y-97204774D01*
X110901939Y-97165000D01*
X110698061Y-97165000D01*
X110498102Y-97204774D01*
X110309744Y-97282795D01*
X110140226Y-97396063D01*
X109996063Y-97540226D01*
X109882795Y-97709744D01*
X109804774Y-97898102D01*
X109765000Y-98098061D01*
X109335000Y-98098061D01*
X109295226Y-97898102D01*
X109217205Y-97709744D01*
X109103937Y-97540226D01*
X108959774Y-97396063D01*
X108790256Y-97282795D01*
X108601898Y-97204774D01*
X108401939Y-97165000D01*
X108198061Y-97165000D01*
X107998102Y-97204774D01*
X107809744Y-97282795D01*
X107640226Y-97396063D01*
X107496063Y-97540226D01*
X107382795Y-97709744D01*
X107304774Y-97898102D01*
X107265000Y-98098061D01*
X102261404Y-98098061D01*
X102263513Y-98091111D01*
X102292185Y-97800000D01*
X102263513Y-97508889D01*
X102178599Y-97228966D01*
X102040706Y-96970986D01*
X101855134Y-96744866D01*
X101629014Y-96559294D01*
X101574209Y-96530000D01*
X101629014Y-96500706D01*
X101632236Y-96498061D01*
X126490010Y-96498061D01*
X126490010Y-96701939D01*
X126529784Y-96901898D01*
X126607805Y-97090256D01*
X126721073Y-97259774D01*
X126865236Y-97403937D01*
X127034754Y-97517205D01*
X127223112Y-97595226D01*
X127423071Y-97635000D01*
X127626949Y-97635000D01*
X127826908Y-97595226D01*
X128015266Y-97517205D01*
X128062505Y-97485641D01*
X128109744Y-97517205D01*
X128298102Y-97595226D01*
X128498061Y-97635000D01*
X128701939Y-97635000D01*
X128901898Y-97595226D01*
X129090256Y-97517205D01*
X129200000Y-97443877D01*
X129309744Y-97517205D01*
X129498102Y-97595226D01*
X129698061Y-97635000D01*
X129901939Y-97635000D01*
X130101898Y-97595226D01*
X130290256Y-97517205D01*
X130342791Y-97482102D01*
X130359201Y-97493067D01*
X130547559Y-97571088D01*
X130747518Y-97610862D01*
X130951396Y-97610862D01*
X130961975Y-97608758D01*
X130996063Y-97659774D01*
X131140226Y-97803937D01*
X131309744Y-97917205D01*
X131498102Y-97995226D01*
X131698061Y-98035000D01*
X131901939Y-98035000D01*
X132101898Y-97995226D01*
X132290256Y-97917205D01*
X132459774Y-97803937D01*
X132603937Y-97659774D01*
X132717205Y-97490256D01*
X132795226Y-97301898D01*
X132835000Y-97101939D01*
X132835000Y-96898061D01*
X132795226Y-96698102D01*
X132717205Y-96509744D01*
X132603937Y-96340226D01*
X132459774Y-96196063D01*
X132290256Y-96082795D01*
X132101898Y-96004774D01*
X131901939Y-95965000D01*
X131698061Y-95965000D01*
X131687482Y-95967104D01*
X131653394Y-95916088D01*
X131509231Y-95771925D01*
X131339713Y-95658657D01*
X131151355Y-95580636D01*
X130951396Y-95540862D01*
X130747518Y-95540862D01*
X130547559Y-95580636D01*
X130359201Y-95658657D01*
X130306666Y-95693760D01*
X130290256Y-95682795D01*
X130101898Y-95604774D01*
X129901939Y-95565000D01*
X129698061Y-95565000D01*
X129498102Y-95604774D01*
X129309744Y-95682795D01*
X129200000Y-95756123D01*
X129090256Y-95682795D01*
X128901898Y-95604774D01*
X128701939Y-95565000D01*
X128498061Y-95565000D01*
X128298102Y-95604774D01*
X128109744Y-95682795D01*
X128062505Y-95714359D01*
X128015266Y-95682795D01*
X127826908Y-95604774D01*
X127626949Y-95565000D01*
X127423071Y-95565000D01*
X127223112Y-95604774D01*
X127034754Y-95682795D01*
X126865236Y-95796063D01*
X126721073Y-95940226D01*
X126607805Y-96109744D01*
X126529784Y-96298102D01*
X126490010Y-96498061D01*
X101632236Y-96498061D01*
X101855134Y-96315134D01*
X102040706Y-96089014D01*
X102178599Y-95831034D01*
X102263513Y-95551111D01*
X102292185Y-95260000D01*
X102263513Y-94968889D01*
X102178599Y-94688966D01*
X102040706Y-94430986D01*
X101855134Y-94204866D01*
X101629014Y-94019294D01*
X101574209Y-93990000D01*
X101629014Y-93960706D01*
X101855134Y-93775134D01*
X102040706Y-93549014D01*
X102178599Y-93291034D01*
X102263513Y-93011111D01*
X102292185Y-92720000D01*
X102263513Y-92428889D01*
X102178599Y-92148966D01*
X102040706Y-91890986D01*
X101855134Y-91664866D01*
X101629014Y-91479294D01*
X101574209Y-91450000D01*
X101629014Y-91420706D01*
X101855134Y-91235134D01*
X102040706Y-91009014D01*
X102100011Y-90898061D01*
X106465000Y-90898061D01*
X106465000Y-91101939D01*
X106504774Y-91301898D01*
X106582795Y-91490256D01*
X106696063Y-91659774D01*
X106840226Y-91803937D01*
X107009744Y-91917205D01*
X107198102Y-91995226D01*
X107398061Y-92035000D01*
X107601939Y-92035000D01*
X107801898Y-91995226D01*
X107990256Y-91917205D01*
X108159774Y-91803937D01*
X108303937Y-91659774D01*
X108417205Y-91490256D01*
X108495226Y-91301898D01*
X108495989Y-91298061D01*
X119365000Y-91298061D01*
X119365000Y-91501939D01*
X119404774Y-91701898D01*
X119482795Y-91890256D01*
X119596063Y-92059774D01*
X119740226Y-92203937D01*
X119909744Y-92317205D01*
X120098102Y-92395226D01*
X120298061Y-92435000D01*
X120501939Y-92435000D01*
X120701898Y-92395226D01*
X120890256Y-92317205D01*
X121059774Y-92203937D01*
X121203937Y-92059774D01*
X121317205Y-91890256D01*
X121395226Y-91701898D01*
X121435000Y-91501939D01*
X121435000Y-91298061D01*
X121395226Y-91098102D01*
X121317205Y-90909744D01*
X121203937Y-90740226D01*
X121059774Y-90596063D01*
X120890256Y-90482795D01*
X120701898Y-90404774D01*
X120501939Y-90365000D01*
X120298061Y-90365000D01*
X120098102Y-90404774D01*
X119909744Y-90482795D01*
X119740226Y-90596063D01*
X119596063Y-90740226D01*
X119482795Y-90909744D01*
X119404774Y-91098102D01*
X119365000Y-91298061D01*
X108495989Y-91298061D01*
X108535000Y-91101939D01*
X108535000Y-90898061D01*
X108495226Y-90698102D01*
X108417205Y-90509744D01*
X108303937Y-90340226D01*
X108159774Y-90196063D01*
X107990256Y-90082795D01*
X107801898Y-90004774D01*
X107601939Y-89965000D01*
X107398061Y-89965000D01*
X107198102Y-90004774D01*
X107009744Y-90082795D01*
X106840226Y-90196063D01*
X106696063Y-90340226D01*
X106582795Y-90509744D01*
X106504774Y-90698102D01*
X106465000Y-90898061D01*
X102100011Y-90898061D01*
X102178599Y-90751034D01*
X102263513Y-90471111D01*
X102292185Y-90180000D01*
X102264417Y-89898061D01*
X113765000Y-89898061D01*
X113765000Y-90101939D01*
X113804774Y-90301898D01*
X113882795Y-90490256D01*
X113996063Y-90659774D01*
X114140226Y-90803937D01*
X114309744Y-90917205D01*
X114498102Y-90995226D01*
X114698061Y-91035000D01*
X114901939Y-91035000D01*
X115101898Y-90995226D01*
X115290256Y-90917205D01*
X115459774Y-90803937D01*
X115603937Y-90659774D01*
X115717205Y-90490256D01*
X115795226Y-90301898D01*
X115835000Y-90101939D01*
X115835000Y-90098061D01*
X130565000Y-90098061D01*
X130565000Y-90301939D01*
X130604774Y-90501898D01*
X130682795Y-90690256D01*
X130796063Y-90859774D01*
X130940226Y-91003937D01*
X131109744Y-91117205D01*
X131298102Y-91195226D01*
X131498061Y-91235000D01*
X131701939Y-91235000D01*
X131901898Y-91195226D01*
X132090256Y-91117205D01*
X132259774Y-91003937D01*
X132403937Y-90859774D01*
X132517205Y-90690256D01*
X132595226Y-90501898D01*
X132635000Y-90301939D01*
X132635000Y-90098061D01*
X132595226Y-89898102D01*
X132517205Y-89709744D01*
X132509399Y-89698061D01*
X134765000Y-89698061D01*
X134765000Y-89901939D01*
X134804774Y-90101898D01*
X134882795Y-90290256D01*
X134996063Y-90459774D01*
X135140226Y-90603937D01*
X135309744Y-90717205D01*
X135498102Y-90795226D01*
X135698061Y-90835000D01*
X135901939Y-90835000D01*
X136101898Y-90795226D01*
X136290256Y-90717205D01*
X136459774Y-90603937D01*
X136519103Y-90544608D01*
X136596055Y-90659774D01*
X136740218Y-90803937D01*
X136909736Y-90917205D01*
X137098094Y-90995226D01*
X137298053Y-91035000D01*
X137501931Y-91035000D01*
X137701890Y-90995226D01*
X137890248Y-90917205D01*
X138059766Y-90803937D01*
X138203929Y-90659774D01*
X138317197Y-90490256D01*
X138395218Y-90301898D01*
X138434992Y-90101939D01*
X138434992Y-89898061D01*
X138395218Y-89698102D01*
X138317197Y-89509744D01*
X138203929Y-89340226D01*
X138059766Y-89196063D01*
X137890248Y-89082795D01*
X137701890Y-89004774D01*
X137501931Y-88965000D01*
X137298053Y-88965000D01*
X137098094Y-89004774D01*
X136909736Y-89082795D01*
X136740218Y-89196063D01*
X136680889Y-89255392D01*
X136603937Y-89140226D01*
X136459774Y-88996063D01*
X136290256Y-88882795D01*
X136101898Y-88804774D01*
X135901939Y-88765000D01*
X135698061Y-88765000D01*
X135498102Y-88804774D01*
X135309744Y-88882795D01*
X135140226Y-88996063D01*
X134996063Y-89140226D01*
X134882795Y-89309744D01*
X134804774Y-89498102D01*
X134765000Y-89698061D01*
X132509399Y-89698061D01*
X132403937Y-89540226D01*
X132259774Y-89396063D01*
X132090256Y-89282795D01*
X131901898Y-89204774D01*
X131701939Y-89165000D01*
X131498061Y-89165000D01*
X131298102Y-89204774D01*
X131109744Y-89282795D01*
X130940226Y-89396063D01*
X130796063Y-89540226D01*
X130682795Y-89709744D01*
X130604774Y-89898102D01*
X130565000Y-90098061D01*
X115835000Y-90098061D01*
X115835000Y-89898061D01*
X115795226Y-89698102D01*
X115717205Y-89509744D01*
X115603937Y-89340226D01*
X115459774Y-89196063D01*
X115290256Y-89082795D01*
X115101898Y-89004774D01*
X114901939Y-88965000D01*
X114698061Y-88965000D01*
X114498102Y-89004774D01*
X114309744Y-89082795D01*
X114140226Y-89196063D01*
X113996063Y-89340226D01*
X113882795Y-89509744D01*
X113804774Y-89698102D01*
X113765000Y-89898061D01*
X102264417Y-89898061D01*
X102263513Y-89888889D01*
X102178599Y-89608966D01*
X102040706Y-89350986D01*
X101855134Y-89124866D01*
X101629014Y-88939294D01*
X101574209Y-88910000D01*
X101629014Y-88880706D01*
X101855134Y-88695134D01*
X102040706Y-88469014D01*
X102178599Y-88211034D01*
X102263513Y-87931111D01*
X102292185Y-87640000D01*
X102263513Y-87348889D01*
X102178599Y-87068966D01*
X102040706Y-86810986D01*
X101855134Y-86584866D01*
X101629014Y-86399294D01*
X101574209Y-86370000D01*
X101629014Y-86340706D01*
X101855134Y-86155134D01*
X102040706Y-85929014D01*
X102178599Y-85671034D01*
X102263513Y-85391111D01*
X102292185Y-85100000D01*
X102263513Y-84808889D01*
X102178599Y-84528966D01*
X102162080Y-84498061D01*
X117365000Y-84498061D01*
X117365000Y-84701939D01*
X117404774Y-84901898D01*
X117482795Y-85090256D01*
X117596063Y-85259774D01*
X117740226Y-85403937D01*
X117909744Y-85517205D01*
X118098102Y-85595226D01*
X118298061Y-85635000D01*
X118501939Y-85635000D01*
X118701898Y-85595226D01*
X118890256Y-85517205D01*
X119059774Y-85403937D01*
X119203937Y-85259774D01*
X119317205Y-85090256D01*
X119395226Y-84901898D01*
X119435000Y-84701939D01*
X119435000Y-84498061D01*
X119395226Y-84298102D01*
X119317205Y-84109744D01*
X119203937Y-83940226D01*
X119059774Y-83796063D01*
X118890256Y-83682795D01*
X118701898Y-83604774D01*
X118501939Y-83565000D01*
X118298061Y-83565000D01*
X118098102Y-83604774D01*
X117909744Y-83682795D01*
X117740226Y-83796063D01*
X117596063Y-83940226D01*
X117482795Y-84109744D01*
X117404774Y-84298102D01*
X117365000Y-84498061D01*
X102162080Y-84498061D01*
X102040706Y-84270986D01*
X101855134Y-84044866D01*
X101629014Y-83859294D01*
X101574209Y-83830000D01*
X101629014Y-83800706D01*
X101855134Y-83615134D01*
X102040706Y-83389014D01*
X102178599Y-83131034D01*
X102263513Y-82851111D01*
X102292185Y-82560000D01*
X102263513Y-82268889D01*
X102178599Y-81988966D01*
X102040706Y-81730986D01*
X101855134Y-81504866D01*
X101825313Y-81480393D01*
X101894180Y-81459502D01*
X102004494Y-81400537D01*
X102101185Y-81321185D01*
X102180537Y-81224494D01*
X102239502Y-81114180D01*
X102275812Y-80994482D01*
X102288072Y-80870000D01*
X102288072Y-79170000D01*
X102275812Y-79045518D01*
X102239502Y-78925820D01*
X102180537Y-78815506D01*
X102101185Y-78718815D01*
X102004494Y-78639463D01*
X101894180Y-78580498D01*
X101774482Y-78544188D01*
X101650000Y-78531928D01*
X99950000Y-78531928D01*
X99825518Y-78544188D01*
X99705820Y-78580498D01*
X99595506Y-78639463D01*
X99510000Y-78709636D01*
X99510000Y-75150000D01*
X111311928Y-75150000D01*
X111311928Y-76850000D01*
X111324188Y-76974482D01*
X111360498Y-77094180D01*
X111419463Y-77204494D01*
X111498815Y-77301185D01*
X111595506Y-77380537D01*
X111705820Y-77439502D01*
X111825518Y-77475812D01*
X111950000Y-77488072D01*
X113650000Y-77488072D01*
X113774482Y-77475812D01*
X113894180Y-77439502D01*
X114004494Y-77380537D01*
X114101185Y-77301185D01*
X114180537Y-77204494D01*
X114239502Y-77094180D01*
X114260393Y-77025313D01*
X114284866Y-77055134D01*
X114510986Y-77240706D01*
X114768966Y-77378599D01*
X115048889Y-77463513D01*
X115267050Y-77485000D01*
X115412950Y-77485000D01*
X115631111Y-77463513D01*
X115911034Y-77378599D01*
X116169014Y-77240706D01*
X116395134Y-77055134D01*
X116580706Y-76829014D01*
X116610000Y-76774209D01*
X116639294Y-76829014D01*
X116824866Y-77055134D01*
X117050986Y-77240706D01*
X117308966Y-77378599D01*
X117588889Y-77463513D01*
X117807050Y-77485000D01*
X117952950Y-77485000D01*
X118171111Y-77463513D01*
X118451034Y-77378599D01*
X118709014Y-77240706D01*
X118935134Y-77055134D01*
X119120706Y-76829014D01*
X119258599Y-76571034D01*
X119343513Y-76291111D01*
X119372185Y-76000000D01*
X119343513Y-75708889D01*
X119258599Y-75428966D01*
X119120706Y-75170986D01*
X119103484Y-75150000D01*
X120971928Y-75150000D01*
X120971928Y-76850000D01*
X120984188Y-76974482D01*
X121020498Y-77094180D01*
X121079463Y-77204494D01*
X121158815Y-77301185D01*
X121255506Y-77380537D01*
X121365820Y-77439502D01*
X121485518Y-77475812D01*
X121610000Y-77488072D01*
X123310000Y-77488072D01*
X123434482Y-77475812D01*
X123554180Y-77439502D01*
X123664494Y-77380537D01*
X123761185Y-77301185D01*
X123840537Y-77204494D01*
X123899502Y-77094180D01*
X123920393Y-77025313D01*
X123944866Y-77055134D01*
X124170986Y-77240706D01*
X124428966Y-77378599D01*
X124708889Y-77463513D01*
X124927050Y-77485000D01*
X125072950Y-77485000D01*
X125291111Y-77463513D01*
X125571034Y-77378599D01*
X125829014Y-77240706D01*
X126055134Y-77055134D01*
X126240706Y-76829014D01*
X126378599Y-76571034D01*
X126463513Y-76291111D01*
X126492185Y-76000000D01*
X126463513Y-75708889D01*
X126378599Y-75428966D01*
X126240706Y-75170986D01*
X126223484Y-75150000D01*
X128011928Y-75150000D01*
X128011928Y-76850000D01*
X128024188Y-76974482D01*
X128060498Y-77094180D01*
X128119463Y-77204494D01*
X128198815Y-77301185D01*
X128295506Y-77380537D01*
X128405820Y-77439502D01*
X128525518Y-77475812D01*
X128650000Y-77488072D01*
X130350000Y-77488072D01*
X130474482Y-77475812D01*
X130594180Y-77439502D01*
X130704494Y-77380537D01*
X130801185Y-77301185D01*
X130880537Y-77204494D01*
X130939502Y-77094180D01*
X130960393Y-77025313D01*
X130984866Y-77055134D01*
X131210986Y-77240706D01*
X131468966Y-77378599D01*
X131748889Y-77463513D01*
X131967050Y-77485000D01*
X132112950Y-77485000D01*
X132331111Y-77463513D01*
X132611034Y-77378599D01*
X132869014Y-77240706D01*
X133095134Y-77055134D01*
X133280706Y-76829014D01*
X133315201Y-76764477D01*
X133384822Y-76881355D01*
X133579731Y-77097588D01*
X133813080Y-77271641D01*
X134075901Y-77396825D01*
X134223110Y-77441476D01*
X134453000Y-77320155D01*
X134453000Y-76127000D01*
X134433000Y-76127000D01*
X134433000Y-75873000D01*
X134453000Y-75873000D01*
X134453000Y-74679845D01*
X134707000Y-74679845D01*
X134707000Y-75873000D01*
X134727000Y-75873000D01*
X134727000Y-76127000D01*
X134707000Y-76127000D01*
X134707000Y-77320155D01*
X134936890Y-77441476D01*
X135084099Y-77396825D01*
X135346920Y-77271641D01*
X135580269Y-77097588D01*
X135775178Y-76881355D01*
X135844799Y-76764477D01*
X135879294Y-76829014D01*
X136064866Y-77055134D01*
X136290986Y-77240706D01*
X136548966Y-77378599D01*
X136828889Y-77463513D01*
X137047050Y-77485000D01*
X137192950Y-77485000D01*
X137411111Y-77463513D01*
X137691034Y-77378599D01*
X137949014Y-77240706D01*
X138175134Y-77055134D01*
X138360706Y-76829014D01*
X138390000Y-76774209D01*
X138419294Y-76829014D01*
X138604866Y-77055134D01*
X138830986Y-77240706D01*
X139088966Y-77378599D01*
X139368889Y-77463513D01*
X139587050Y-77485000D01*
X139732950Y-77485000D01*
X139951111Y-77463513D01*
X140231034Y-77378599D01*
X140489014Y-77240706D01*
X140715134Y-77055134D01*
X140900706Y-76829014D01*
X140930000Y-76774209D01*
X140959294Y-76829014D01*
X141144866Y-77055134D01*
X141370986Y-77240706D01*
X141628966Y-77378599D01*
X141908889Y-77463513D01*
X142127050Y-77485000D01*
X142272950Y-77485000D01*
X142491111Y-77463513D01*
X142771034Y-77378599D01*
X143029014Y-77240706D01*
X143255134Y-77055134D01*
X143440706Y-76829014D01*
X143578599Y-76571034D01*
X143663513Y-76291111D01*
X143692185Y-76000000D01*
X143663513Y-75708889D01*
X143578599Y-75428966D01*
X143440706Y-75170986D01*
X143255134Y-74944866D01*
X143029014Y-74759294D01*
X142771034Y-74621401D01*
X142491111Y-74536487D01*
X142272950Y-74515000D01*
X142127050Y-74515000D01*
X141908889Y-74536487D01*
X141628966Y-74621401D01*
X141370986Y-74759294D01*
X141144866Y-74944866D01*
X140959294Y-75170986D01*
X140930000Y-75225791D01*
X140900706Y-75170986D01*
X140715134Y-74944866D01*
X140489014Y-74759294D01*
X140231034Y-74621401D01*
X139951111Y-74536487D01*
X139732950Y-74515000D01*
X139587050Y-74515000D01*
X139368889Y-74536487D01*
X139088966Y-74621401D01*
X138830986Y-74759294D01*
X138604866Y-74944866D01*
X138419294Y-75170986D01*
X138390000Y-75225791D01*
X138360706Y-75170986D01*
X138175134Y-74944866D01*
X137949014Y-74759294D01*
X137691034Y-74621401D01*
X137411111Y-74536487D01*
X137192950Y-74515000D01*
X137047050Y-74515000D01*
X136828889Y-74536487D01*
X136548966Y-74621401D01*
X136290986Y-74759294D01*
X136064866Y-74944866D01*
X135879294Y-75170986D01*
X135844799Y-75235523D01*
X135775178Y-75118645D01*
X135580269Y-74902412D01*
X135346920Y-74728359D01*
X135084099Y-74603175D01*
X134936890Y-74558524D01*
X134707000Y-74679845D01*
X134453000Y-74679845D01*
X134223110Y-74558524D01*
X134075901Y-74603175D01*
X133813080Y-74728359D01*
X133579731Y-74902412D01*
X133384822Y-75118645D01*
X133315201Y-75235523D01*
X133280706Y-75170986D01*
X133095134Y-74944866D01*
X132869014Y-74759294D01*
X132611034Y-74621401D01*
X132331111Y-74536487D01*
X132112950Y-74515000D01*
X131967050Y-74515000D01*
X131748889Y-74536487D01*
X131468966Y-74621401D01*
X131210986Y-74759294D01*
X130984866Y-74944866D01*
X130960393Y-74974687D01*
X130939502Y-74905820D01*
X130880537Y-74795506D01*
X130801185Y-74698815D01*
X130704494Y-74619463D01*
X130594180Y-74560498D01*
X130474482Y-74524188D01*
X130350000Y-74511928D01*
X128650000Y-74511928D01*
X128525518Y-74524188D01*
X128405820Y-74560498D01*
X128295506Y-74619463D01*
X128198815Y-74698815D01*
X128119463Y-74795506D01*
X128060498Y-74905820D01*
X128024188Y-75025518D01*
X128011928Y-75150000D01*
X126223484Y-75150000D01*
X126055134Y-74944866D01*
X125829014Y-74759294D01*
X125571034Y-74621401D01*
X125291111Y-74536487D01*
X125072950Y-74515000D01*
X124927050Y-74515000D01*
X124708889Y-74536487D01*
X124428966Y-74621401D01*
X124170986Y-74759294D01*
X123944866Y-74944866D01*
X123920393Y-74974687D01*
X123899502Y-74905820D01*
X123840537Y-74795506D01*
X123761185Y-74698815D01*
X123664494Y-74619463D01*
X123554180Y-74560498D01*
X123434482Y-74524188D01*
X123310000Y-74511928D01*
X121610000Y-74511928D01*
X121485518Y-74524188D01*
X121365820Y-74560498D01*
X121255506Y-74619463D01*
X121158815Y-74698815D01*
X121079463Y-74795506D01*
X121020498Y-74905820D01*
X120984188Y-75025518D01*
X120971928Y-75150000D01*
X119103484Y-75150000D01*
X118935134Y-74944866D01*
X118709014Y-74759294D01*
X118451034Y-74621401D01*
X118171111Y-74536487D01*
X117952950Y-74515000D01*
X117807050Y-74515000D01*
X117588889Y-74536487D01*
X117308966Y-74621401D01*
X117050986Y-74759294D01*
X116824866Y-74944866D01*
X116639294Y-75170986D01*
X116610000Y-75225791D01*
X116580706Y-75170986D01*
X116395134Y-74944866D01*
X116169014Y-74759294D01*
X115911034Y-74621401D01*
X115631111Y-74536487D01*
X115412950Y-74515000D01*
X115267050Y-74515000D01*
X115048889Y-74536487D01*
X114768966Y-74621401D01*
X114510986Y-74759294D01*
X114284866Y-74944866D01*
X114260393Y-74974687D01*
X114239502Y-74905820D01*
X114180537Y-74795506D01*
X114101185Y-74698815D01*
X114004494Y-74619463D01*
X113894180Y-74560498D01*
X113774482Y-74524188D01*
X113650000Y-74511928D01*
X111950000Y-74511928D01*
X111825518Y-74524188D01*
X111705820Y-74560498D01*
X111595506Y-74619463D01*
X111498815Y-74698815D01*
X111419463Y-74795506D01*
X111360498Y-74905820D01*
X111324188Y-75025518D01*
X111311928Y-75150000D01*
X99510000Y-75150000D01*
X99510000Y-72710000D01*
X145090000Y-72710000D01*
X145090000Y-78588954D01*
M02*
